<?xml version="1.0" encoding="utf-8"?>
<!-- Generator: Adobe Illustrator 16.0.0, SVG Export Plug-In . SVG Version: 6.00 Build 0)  -->
<!DOCTYPE svg PUBLIC "-//W3C//DTD SVG 1.1//EN" "http://www.w3.org/Graphics/SVG/1.1/DTD/svg11.dtd">
<svg version="1.1" id="Layer_1" xmlns="http://www.w3.org/2000/svg" xmlns:xlink="http://www.w3.org/1999/xlink" x="0px" y="0px"
	 width="775.633px" height="775px" viewBox="0 0 775.633 775" enable-background="new 0 0 775.633 775" xml:space="preserve">
<g>
	<g>
		<path fill="#F26D64" d="M529.732,299.359c15.619,25.564,24.625,55.61,24.625,87.761c0,12.176-1.321,24.039-3.773,35.484
			l92.961,81.76l118.916-33.849c5.918-26.859,9.066-54.758,9.066-83.396c0-83.087-26.272-160.036-70.956-223.002l-47.327,113.246
			L529.732,299.359z"/>
		<path fill="#936CAF" d="M293.848,528.424c-35.392-23.069-61.568-59.05-71.856-101.275l-120.236-33.613l-91.701,81.427
			c24.935,107.061,94.453,196.981,187.914,249.171l-6.459-121.869L293.848,528.424z"/>
		<path fill="#F8841D" d="M406.538,219.847c43.948,5.405,82.673,27.672,109.445,60.191l121.996-21.72l47.606-113.913
			C619.172,62.466,519.857,8.292,407.738,1.994L466.549,109.2L406.538,219.847z"/>
		<path fill="#5EC6D3" d="M438.733,547.173c-16.661,5.514-34.456,8.54-52.969,8.54c-25.462,0-49.589-5.678-71.232-15.785
			l-101.003,72.875l6.504,122.745c50.213,23.927,106.403,37.334,165.731,37.334c51.918,0,101.429-10.279,146.643-28.88
			l-99.728-71.23L438.733,547.173z"/>
		<path fill="#546E7A" d="M756.355,494.53l-118.184,33.647l-94.155-82.808c-14.934,40.558-45.025,73.763-83.392,92.812
			l-5.976,123.944l100.386,71.708C651.858,686.475,725.908,599.766,756.355,494.53"/>
		<path fill="#9BBB40" d="M217.999,403.775c-0.54-5.481-0.829-11.033-0.829-16.655c0-38.697,13.071-74.322,34.992-102.776
			l-48.667-114.906L82.639,148.508C30.885,214.162,0,297.034,0,387.12c0,21.624,1.809,42.819,5.23,63.475l91.036-80.844
			L217.999,403.775z"/>
		<path fill="#AA7B51" d="M267.92,266.6c29.747-29.089,70.204-47.231,114.911-47.999l59.305-109.343L382.967,1.393
			c-112.92,0.802-214.294,50.11-284.339,128.139l120.043,20.785L267.92,266.6z"/>
	</g>
</g>
<g>
	<path fill="#474747" d="M308.452,399.344l-1.477-5.619h-9.741l-1.518,5.619h-8.9l9.782-30.105h10.808l9.905,30.105H308.452z
		 M305.293,387.08l-1.292-4.922c-0.301-1.094-0.667-2.509-1.097-4.245s-0.714-2.98-0.851-3.732
		c-0.123,0.697-0.366,1.846-0.728,3.445s-1.166,4.751-2.41,9.454H305.293z"/>
	<path fill="#474747" d="M334.743,399.344V386.67c0-1.545-0.222-2.71-0.667-3.497s-1.159-1.179-2.143-1.179
		c-1.354,0-2.331,0.54-2.933,1.62s-0.902,2.933-0.902,5.558v10.172h-8.019v-23.235h6.05l1.005,2.871h0.472
		c0.684-1.094,1.63-1.914,2.84-2.461s2.601-0.82,4.173-0.82c2.57,0,4.57,0.745,5.999,2.235s2.143,3.589,2.143,6.296v15.114H334.743z
		"/>
	<path fill="#474747" d="M363.372,399.344l-1.538-3.076h-0.164c-1.08,1.34-2.181,2.256-3.302,2.748s-2.57,0.738-4.348,0.738
		c-2.188,0-3.91-0.656-5.168-1.969s-1.887-3.158-1.887-5.537c0-2.475,0.861-4.317,2.584-5.527s4.218-1.89,7.485-2.041l3.876-0.123
		v-0.328c0-1.914-0.943-2.871-2.83-2.871c-1.695,0-3.849,0.574-6.46,1.723l-2.317-5.291c2.707-1.395,6.125-2.092,10.254-2.092
		c2.98,0,5.288,0.738,6.921,2.215s2.451,3.541,2.451,6.193v15.237H363.372z M357.424,394.094c0.971,0,1.801-0.308,2.492-0.923
		s1.036-1.415,1.036-2.399v-1.805l-1.846,0.082c-2.639,0.096-3.958,1.066-3.958,2.912
		C355.148,393.383,355.907,394.094,357.424,394.094z"/>
	<path fill="#474747" d="M382.403,399.344h-8.019v-31.91h8.019V399.344z"/>
	<path fill="#474747" d="M385.151,376.108h8.449l3.938,13.33c0.191,0.697,0.321,1.538,0.39,2.522h0.164
		c0.109-0.943,0.273-1.771,0.492-2.481l4.04-13.371h8.183l-9.188,24.712c-1.176,3.145-2.622,5.366-4.337,6.665
		c-1.717,1.299-3.955,1.948-6.717,1.948c-1.066,0-2.16-0.116-3.281-0.349v-6.296c0.725,0.164,1.552,0.246,2.481,0.246
		c0.711,0,1.333-0.137,1.866-0.41s0.998-0.66,1.395-1.158c0.396-0.5,0.82-1.316,1.271-2.451L385.151,376.108z"/>
	<path fill="#474747" d="M424.957,393.417c1.08,0,2.372-0.267,3.876-0.8v5.845c-1.08,0.465-2.109,0.796-3.086,0.995
		c-0.979,0.197-2.123,0.297-3.436,0.297c-2.693,0-4.635-0.66-5.824-1.979c-1.189-1.32-1.784-3.347-1.784-6.081v-9.577h-2.81v-3.261
		l3.568-2.522l2.071-4.881h5.25v4.655h5.701v6.009h-5.701v9.044C422.783,392.665,423.507,393.417,424.957,393.417z"/>
	<path fill="#474747" d="M432.729,370.325c0-1.203,0.335-2.099,1.005-2.687s1.75-0.882,3.24-0.882s2.577,0.301,3.261,0.902
		s1.025,1.49,1.025,2.666c0,2.352-1.429,3.527-4.286,3.527C434.144,373.853,432.729,372.677,432.729,370.325z M440.953,399.344
		h-8.019v-23.235h8.019V399.344z"/>
	<path fill="#474747" d="M457.133,399.754c-3.801,0-6.682-1.025-8.645-3.076c-1.961-2.051-2.942-4.997-2.942-8.839
		c0-3.855,1.06-6.843,3.179-8.962s5.134-3.179,9.044-3.179c2.693,0,5.229,0.588,7.608,1.764l-2.358,5.927
		c-0.971-0.424-1.866-0.762-2.687-1.015s-1.675-0.379-2.563-0.379c-1.299,0-2.304,0.506-3.015,1.518s-1.066,2.44-1.066,4.286
		c0,3.719,1.374,5.578,4.122,5.578c2.352,0,4.607-0.684,6.768-2.051v6.378C462.513,399.07,460.032,399.754,457.133,399.754z"/>
	<path fill="#474747" d="M487.136,392.207c0,2.488-0.848,4.368-2.543,5.64s-4.129,1.907-7.301,1.907
		c-1.723,0-3.22-0.092-4.491-0.277c-1.271-0.184-2.57-0.522-3.896-1.015v-6.419c1.244,0.547,2.607,0.998,4.092,1.354
		c1.482,0.355,2.806,0.533,3.968,0.533c1.736,0,2.604-0.396,2.604-1.189c0-0.41-0.243-0.776-0.729-1.097s-1.896-0.947-4.234-1.876
		c-2.133-0.875-3.623-1.87-4.471-2.984s-1.271-2.526-1.271-4.235c0-2.16,0.834-3.842,2.502-5.045s4.026-1.805,7.075-1.805
		c1.531,0,2.97,0.167,4.317,0.502c1.346,0.335,2.744,0.824,4.193,1.466l-2.174,5.168c-1.066-0.479-2.194-0.885-3.384-1.22
		s-2.16-0.502-2.912-0.502c-1.313,0-1.969,0.321-1.969,0.964c0,0.396,0.229,0.735,0.687,1.015s1.781,0.851,3.969,1.712
		c1.627,0.67,2.84,1.326,3.641,1.969c0.799,0.643,1.387,1.398,1.764,2.266C486.948,389.907,487.136,390.963,487.136,392.207z"/>
</g>
<g>
	<path fill="#FFFFFF" d="M509.854,157v-18.561h3.034V157H509.854z"/>
	<path fill="#FFFFFF" d="M522.207,157.254c-1.752,0-3.119-0.635-4.101-1.904s-1.473-3.051-1.473-5.345
		c0-2.302,0.497-4.094,1.492-5.376c0.994-1.282,2.371-1.923,4.132-1.923c1.845,0,3.25,0.681,4.215,2.044h0.152
		c-0.144-1.007-0.216-1.803-0.216-2.387v-5.116h2.996V157h-2.336l-0.521-1.841h-0.14
		C525.453,156.556,524.051,157.254,522.207,157.254z M523.006,154.842c1.228,0,2.12-0.345,2.679-1.035s0.847-1.809,0.863-3.358
		v-0.419c0-1.769-0.288-3.026-0.863-3.771s-1.477-1.117-2.704-1.117c-1.05,0-1.857,0.425-2.425,1.276s-0.851,2.063-0.851,3.637
		c0,1.557,0.275,2.744,0.825,3.561S521.906,154.842,523.006,154.842z"/>
	<path fill="#FFFFFF" d="M539.802,157.254c-2.184,0-3.892-0.637-5.122-1.911c-1.232-1.274-1.848-3.028-1.848-5.262
		c0-2.293,0.571-4.096,1.714-5.408s2.713-1.968,4.71-1.968c1.854,0,3.317,0.563,4.393,1.688s1.612,2.674,1.612,4.646v1.612h-9.356
		c0.042,1.363,0.41,2.41,1.104,3.142s1.672,1.098,2.933,1.098c0.829,0,1.602-0.078,2.316-0.235c0.716-0.157,1.483-0.417,2.305-0.781
		v2.425c-0.728,0.347-1.464,0.592-2.209,0.736S540.758,157.254,539.802,157.254z M539.256,144.965c-0.948,0-1.707,0.3-2.279,0.901
		c-0.57,0.601-0.911,1.477-1.021,2.628h6.373c-0.017-1.16-0.296-2.038-0.838-2.634S540.205,144.965,539.256,144.965z"/>
	<path fill="#FFFFFF" d="M561.003,157h-2.996v-8.633c0-1.083-0.218-1.892-0.653-2.425c-0.437-0.533-1.128-0.8-2.076-0.8
		c-1.261,0-2.184,0.373-2.768,1.117s-0.876,1.993-0.876,3.745V157h-2.983v-14.041h2.336l0.419,1.841h0.152
		c0.423-0.668,1.024-1.185,1.803-1.549s1.642-0.546,2.59-0.546c3.368,0,5.053,1.714,5.053,5.142V157z"/>
	<path fill="#FFFFFF" d="M570.385,154.842c0.728,0,1.456-0.114,2.184-0.343v2.247c-0.33,0.144-0.756,0.265-1.275,0.362
		c-0.521,0.097-1.061,0.146-1.619,0.146c-2.827,0-4.24-1.49-4.24-4.469v-7.566h-1.917v-1.32l2.057-1.092l1.016-2.971h1.841v3.123
		h3.999v2.26h-3.999v7.516c0,0.719,0.18,1.25,0.539,1.593C569.33,154.67,569.801,154.842,570.385,154.842z"/>
	<path fill="#FFFFFF" d="M575.197,139.239c0-0.533,0.146-0.944,0.438-1.231c0.291-0.288,0.708-0.432,1.25-0.432
		c0.524,0,0.934,0.144,1.225,0.432c0.293,0.288,0.438,0.698,0.438,1.231c0,0.508-0.146,0.908-0.438,1.2
		c-0.291,0.292-0.7,0.438-1.225,0.438c-0.542,0-0.959-0.146-1.25-0.438C575.342,140.147,575.197,139.747,575.197,139.239z
		 M578.358,157h-2.983v-14.041h2.983V157z"/>
	<path fill="#FFFFFF" d="M589.669,145.219h-3.428V157h-2.996v-11.781h-2.311v-1.396l2.311-0.914v-0.914
		c0-1.659,0.39-2.888,1.168-3.688s1.968-1.2,3.567-1.2c1.05,0,2.082,0.173,3.098,0.521l-0.787,2.26
		c-0.736-0.237-1.438-0.355-2.107-0.355c-0.677,0-1.17,0.209-1.479,0.628c-0.31,0.419-0.464,1.047-0.464,1.885v0.914h3.428V145.219z
		"/>
	<path fill="#FFFFFF" d="M589.923,142.959h3.25l2.856,7.96c0.432,1.134,0.72,2.201,0.863,3.199h0.102
		c0.076-0.465,0.216-1.03,0.419-1.695s1.278-3.819,3.225-9.464h3.225l-6.005,15.907c-1.092,2.92-2.911,4.38-5.459,4.38
		c-0.66,0-1.304-0.072-1.93-0.216v-2.361c0.448,0.102,0.961,0.152,1.536,0.152c1.438,0,2.45-0.833,3.034-2.501l0.521-1.32
		L589.923,142.959z"/>
	<path fill="#FFFFFF" d="M459.929,169.64h5.51c2.556,0,4.403,0.373,5.542,1.117c1.138,0.745,1.707,1.921,1.707,3.529
		c0,1.083-0.279,1.985-0.838,2.704s-1.362,1.172-2.412,1.358v0.127c1.304,0.246,2.262,0.73,2.875,1.454
		c0.614,0.724,0.921,1.703,0.921,2.939c0,1.667-0.582,2.973-1.745,3.917c-1.164,0.944-2.783,1.416-4.856,1.416h-6.703V169.64z
		 M462.963,177.308h2.92c1.27,0,2.196-0.201,2.78-0.603s0.876-1.085,0.876-2.05c0-0.872-0.315-1.502-0.945-1.892
		c-0.631-0.389-1.632-0.584-3.003-0.584h-2.628V177.308z M462.963,179.771v5.878h3.225c1.27,0,2.229-0.243,2.875-0.73
		c0.648-0.487,0.972-1.255,0.972-2.304c0-0.965-0.33-1.68-0.99-2.146s-1.663-0.698-3.009-0.698H462.963z"/>
	<path fill="#FFFFFF" d="M486.678,188.2l-0.419-1.841h-0.152c-0.415,0.652-1.005,1.164-1.771,1.536
		c-0.767,0.373-1.641,0.559-2.622,0.559c-1.701,0-2.971-0.423-3.809-1.27s-1.257-2.128-1.257-3.847v-9.179h3.009v8.658
		c0,1.075,0.22,1.881,0.66,2.418s1.13,0.806,2.069,0.806c1.253,0,2.173-0.375,2.762-1.124c0.588-0.749,0.882-2.004,0.882-3.764
		v-6.995h2.996V188.2H486.678z"/>
	<path fill="#FFFFFF" d="M502.712,184.201c0,1.371-0.499,2.423-1.498,3.155s-2.429,1.098-4.291,1.098
		c-1.87,0-3.373-0.284-4.507-0.851v-2.577c1.65,0.762,3.187,1.143,4.608,1.143c1.837,0,2.755-0.554,2.755-1.663
		c0-0.355-0.102-0.652-0.305-0.889s-0.537-0.482-1.003-0.736s-1.113-0.542-1.942-0.863c-1.616-0.626-2.711-1.252-3.281-1.879
		c-0.572-0.626-0.857-1.439-0.857-2.438c0-1.202,0.484-2.135,1.453-2.799c0.97-0.665,2.288-0.997,3.955-0.997
		c1.65,0,3.212,0.334,4.685,1.003l-0.965,2.247c-1.515-0.626-2.789-0.939-3.821-0.939c-1.574,0-2.361,0.449-2.361,1.346
		c0,0.44,0.205,0.813,0.615,1.117c0.411,0.305,1.306,0.724,2.686,1.257c1.159,0.449,2.002,0.859,2.526,1.231
		s0.914,0.802,1.168,1.289S502.712,183.524,502.712,184.201z"/>
	<path fill="#FFFFFF" d="M505.759,170.439c0-0.533,0.146-0.944,0.438-1.231c0.291-0.288,0.708-0.432,1.25-0.432
		c0.524,0,0.934,0.144,1.225,0.432c0.293,0.288,0.438,0.698,0.438,1.231c0,0.508-0.146,0.908-0.438,1.2
		c-0.291,0.292-0.7,0.438-1.225,0.438c-0.542,0-0.959-0.146-1.25-0.438C505.905,171.347,505.759,170.947,505.759,170.439z
		 M508.92,188.2h-2.983v-14.041h2.983V188.2z"/>
	<path fill="#FFFFFF" d="M525.539,188.2h-2.996v-8.633c0-1.083-0.218-1.892-0.653-2.425c-0.437-0.533-1.128-0.8-2.076-0.8
		c-1.261,0-2.184,0.373-2.768,1.117s-0.876,1.993-0.876,3.745v6.995h-2.983v-14.041h2.336l0.419,1.841h0.152
		c0.423-0.668,1.024-1.185,1.803-1.549s1.642-0.546,2.59-0.546c3.368,0,5.053,1.714,5.053,5.142V188.2z"/>
	<path fill="#FFFFFF" d="M535.822,188.454c-2.184,0-3.892-0.637-5.122-1.911c-1.232-1.274-1.848-3.028-1.848-5.262
		c0-2.293,0.571-4.096,1.714-5.408s2.713-1.968,4.71-1.968c1.854,0,3.317,0.563,4.393,1.688s1.612,2.674,1.612,4.646v1.612h-9.356
		c0.042,1.363,0.41,2.41,1.104,3.142s1.672,1.098,2.933,1.098c0.829,0,1.602-0.078,2.316-0.235c0.716-0.157,1.483-0.417,2.305-0.781
		v2.425c-0.728,0.347-1.464,0.592-2.209,0.736S536.778,188.454,535.822,188.454z M535.276,176.165c-0.948,0-1.707,0.3-2.279,0.901
		c-0.57,0.601-0.911,1.477-1.021,2.628h6.373c-0.017-1.16-0.296-2.038-0.838-2.634S536.224,176.165,535.276,176.165z"/>
	<path fill="#FFFFFF" d="M554.103,184.201c0,1.371-0.499,2.423-1.498,3.155s-2.429,1.098-4.291,1.098
		c-1.87,0-3.373-0.284-4.507-0.851v-2.577c1.65,0.762,3.187,1.143,4.608,1.143c1.837,0,2.755-0.554,2.755-1.663
		c0-0.355-0.102-0.652-0.305-0.889s-0.537-0.482-1.003-0.736s-1.113-0.542-1.942-0.863c-1.616-0.626-2.711-1.252-3.281-1.879
		c-0.572-0.626-0.857-1.439-0.857-2.438c0-1.202,0.484-2.135,1.453-2.799c0.97-0.665,2.288-0.997,3.955-0.997
		c1.65,0,3.212,0.334,4.685,1.003l-0.965,2.247c-1.515-0.626-2.789-0.939-3.821-0.939c-1.574,0-2.361,0.449-2.361,1.346
		c0,0.44,0.205,0.813,0.615,1.117c0.411,0.305,1.306,0.724,2.686,1.257c1.159,0.449,2.002,0.859,2.526,1.231
		s0.914,0.802,1.168,1.289S554.103,183.524,554.103,184.201z"/>
	<path fill="#FFFFFF" d="M566.76,184.201c0,1.371-0.499,2.423-1.498,3.155s-2.429,1.098-4.291,1.098
		c-1.87,0-3.373-0.284-4.507-0.851v-2.577c1.65,0.762,3.187,1.143,4.608,1.143c1.837,0,2.755-0.554,2.755-1.663
		c0-0.355-0.102-0.652-0.305-0.889s-0.537-0.482-1.003-0.736s-1.113-0.542-1.942-0.863c-1.616-0.626-2.71-1.252-3.282-1.879
		c-0.57-0.626-0.856-1.439-0.856-2.438c0-1.202,0.484-2.135,1.454-2.799c0.969-0.665,2.287-0.997,3.954-0.997
		c1.65,0,3.212,0.334,4.685,1.003l-0.965,2.247c-1.515-0.626-2.789-0.939-3.821-0.939c-1.574,0-2.361,0.449-2.361,1.346
		c0,0.44,0.205,0.813,0.616,1.117c0.41,0.305,1.305,0.724,2.685,1.257c1.159,0.449,2.002,0.859,2.526,1.231s0.914,0.802,1.168,1.289
		S566.76,183.524,566.76,184.201z"/>
	<path fill="#FFFFFF" d="M592.519,188.2h-3.72l-9.128-14.79h-0.102l0.063,0.825c0.118,1.574,0.178,3.013,0.178,4.316v9.648h-2.755
		V169.64h3.682l9.103,14.714h0.076c-0.017-0.195-0.051-0.903-0.102-2.126s-0.076-2.177-0.076-2.863v-9.725h2.78V188.2z"/>
	<path fill="#FFFFFF" d="M603.234,188.454c-2.184,0-3.892-0.637-5.122-1.911c-1.232-1.274-1.848-3.028-1.848-5.262
		c0-2.293,0.571-4.096,1.714-5.408s2.713-1.968,4.71-1.968c1.854,0,3.317,0.563,4.393,1.688s1.612,2.674,1.612,4.646v1.612h-9.356
		c0.042,1.363,0.41,2.41,1.104,3.142s1.672,1.098,2.933,1.098c0.829,0,1.602-0.078,2.316-0.235c0.716-0.157,1.483-0.417,2.305-0.781
		v2.425c-0.728,0.347-1.464,0.592-2.209,0.736S604.19,188.454,603.234,188.454z M602.688,176.165c-0.948,0-1.707,0.3-2.279,0.901
		c-0.57,0.601-0.911,1.477-1.021,2.628h6.373c-0.017-1.16-0.296-2.038-0.838-2.634S603.636,176.165,602.688,176.165z"/>
	<path fill="#FFFFFF" d="M618.214,188.454c-2.184,0-3.892-0.637-5.122-1.911c-1.232-1.274-1.848-3.028-1.848-5.262
		c0-2.293,0.571-4.096,1.714-5.408s2.713-1.968,4.71-1.968c1.854,0,3.317,0.563,4.393,1.688s1.612,2.674,1.612,4.646v1.612h-9.356
		c0.042,1.363,0.41,2.41,1.104,3.142s1.672,1.098,2.933,1.098c0.829,0,1.602-0.078,2.316-0.235c0.716-0.157,1.483-0.417,2.305-0.781
		v2.425c-0.728,0.347-1.464,0.592-2.209,0.736S619.17,188.454,618.214,188.454z M617.668,176.165c-0.948,0-1.707,0.3-2.279,0.901
		c-0.57,0.601-0.911,1.477-1.021,2.628h6.373c-0.017-1.16-0.296-2.038-0.838-2.634S618.617,176.165,617.668,176.165z"/>
	<path fill="#FFFFFF" d="M631.798,188.454c-1.752,0-3.119-0.635-4.101-1.904s-1.473-3.051-1.473-5.345
		c0-2.302,0.497-4.094,1.492-5.376c0.994-1.282,2.371-1.923,4.132-1.923c1.845,0,3.25,0.681,4.215,2.044h0.152
		c-0.144-1.007-0.216-1.803-0.216-2.387v-5.116h2.996V188.2h-2.336l-0.521-1.841H636
		C635.044,187.756,633.643,188.454,631.798,188.454z M632.598,186.042c1.228,0,2.12-0.345,2.679-1.035s0.847-1.809,0.863-3.358
		v-0.419c0-1.769-0.288-3.026-0.863-3.771s-1.477-1.117-2.704-1.117c-1.05,0-1.857,0.425-2.425,1.276s-0.851,2.063-0.851,3.637
		c0,1.557,0.275,2.744,0.825,3.561S631.498,186.042,632.598,186.042z"/>
	<path fill="#FFFFFF" d="M652.695,184.201c0,1.371-0.499,2.423-1.498,3.155s-2.429,1.098-4.291,1.098
		c-1.87,0-3.373-0.284-4.507-0.851v-2.577c1.65,0.762,3.187,1.143,4.608,1.143c1.837,0,2.755-0.554,2.755-1.663
		c0-0.355-0.102-0.652-0.305-0.889s-0.537-0.482-1.003-0.736s-1.113-0.542-1.942-0.863c-1.616-0.626-2.711-1.252-3.281-1.879
		c-0.572-0.626-0.857-1.439-0.857-2.438c0-1.202,0.484-2.135,1.453-2.799c0.97-0.665,2.288-0.997,3.955-0.997
		c1.65,0,3.212,0.334,4.685,1.003l-0.965,2.247c-1.515-0.626-2.789-0.939-3.821-0.939c-1.574,0-2.361,0.449-2.361,1.346
		c0,0.44,0.205,0.813,0.615,1.117c0.411,0.305,1.306,0.724,2.686,1.257c1.159,0.449,2.002,0.859,2.526,1.231
		s0.914,0.802,1.168,1.289S652.695,183.524,652.695,184.201z"/>
</g>
<g>
	<path fill="#FFFFFF" d="M636.54,342.395c0,1.938-0.635,3.423-1.904,4.456s-3.076,1.549-5.421,1.549h-1.93v6.944h-3.034v-18.561
		h5.345c2.319,0,4.056,0.474,5.212,1.422C635.961,339.153,636.54,340.549,636.54,342.395z M627.285,345.848h1.612
		c1.558,0,2.7-0.271,3.428-0.813s1.092-1.388,1.092-2.539c0-1.066-0.326-1.862-0.978-2.387s-1.667-0.787-3.047-0.787h-2.107V345.848
		z"/>
	<path fill="#FFFFFF" d="M647.051,341.049c0.601,0,1.096,0.042,1.485,0.127l-0.292,2.78c-0.423-0.102-0.863-0.152-1.32-0.152
		c-1.193,0-2.16,0.389-2.9,1.168c-0.741,0.779-1.111,1.79-1.111,3.034v7.338h-2.983v-14.041h2.336l0.394,2.476h0.152
		c0.466-0.838,1.072-1.502,1.822-1.993C645.381,341.294,646.188,341.049,647.051,341.049z"/>
	<path fill="#FFFFFF" d="M657.271,355.598c-2.184,0-3.892-0.637-5.122-1.911c-1.232-1.274-1.848-3.028-1.848-5.262
		c0-2.293,0.571-4.096,1.714-5.408s2.713-1.968,4.71-1.968c1.854,0,3.317,0.563,4.393,1.688s1.612,2.674,1.612,4.646v1.612h-9.356
		c0.042,1.363,0.41,2.41,1.104,3.142s1.672,1.098,2.933,1.098c0.829,0,1.602-0.078,2.316-0.235c0.716-0.157,1.483-0.417,2.305-0.781
		v2.425c-0.728,0.347-1.464,0.592-2.209,0.736S658.227,355.598,657.271,355.598z M656.725,343.309c-0.948,0-1.707,0.3-2.279,0.901
		c-0.57,0.601-0.911,1.477-1.021,2.628h6.373c-0.017-1.16-0.296-2.038-0.838-2.634S657.673,343.309,656.725,343.309z"/>
	<path fill="#FFFFFF" d="M673.242,355.598c-1.777,0-3.157-0.639-4.139-1.917h-0.178c0.118,1.185,0.178,1.904,0.178,2.158v5.751
		h-2.983v-20.287h2.412c0.067,0.262,0.207,0.889,0.419,1.879h0.152c0.931-1.422,2.327-2.133,4.189-2.133
		c1.752,0,3.116,0.635,4.095,1.904c0.977,1.27,1.466,3.051,1.466,5.345s-0.497,4.083-1.491,5.37
		C676.367,354.955,674.994,355.598,673.242,355.598z M672.518,343.486c-1.185,0-2.051,0.347-2.596,1.041
		c-0.547,0.694-0.819,1.803-0.819,3.326v0.444c0,1.709,0.271,2.947,0.813,3.713s1.426,1.149,2.653,1.149
		c1.032,0,1.828-0.423,2.387-1.27s0.838-2.052,0.838-3.618c0-1.574-0.277-2.766-0.832-3.574
		C674.408,343.891,673.593,343.486,672.518,343.486z"/>
	<path fill="#FFFFFF" d="M691.104,355.344l-0.597-1.955h-0.102c-0.677,0.855-1.358,1.437-2.044,1.746s-1.565,0.463-2.641,0.463
		c-1.38,0-2.457-0.373-3.23-1.117c-0.775-0.745-1.162-1.798-1.162-3.161c0-1.447,0.537-2.539,1.612-3.275s2.713-1.138,4.913-1.206
		l2.425-0.076v-0.749c0-0.897-0.21-1.568-0.628-2.012c-0.42-0.444-1.069-0.667-1.949-0.667c-0.72,0-1.409,0.106-2.069,0.317
		s-1.295,0.461-1.904,0.749l-0.965-2.133c0.762-0.398,1.596-0.7,2.501-0.908s1.761-0.311,2.564-0.311
		c1.786,0,3.134,0.389,4.043,1.168c0.91,0.779,1.365,2.001,1.365,3.669v9.458H691.104z M686.661,353.313
		c1.083,0,1.953-0.303,2.609-0.908c0.655-0.605,0.983-1.454,0.983-2.545v-1.219l-1.803,0.076c-1.405,0.051-2.427,0.286-3.065,0.705
		c-0.64,0.419-0.959,1.06-0.959,1.923c0,0.626,0.187,1.111,0.559,1.454S685.916,353.313,686.661,353.313z"/>
	<path fill="#FFFFFF" d="M704.523,341.049c0.601,0,1.096,0.042,1.485,0.127l-0.292,2.78c-0.423-0.102-0.863-0.152-1.32-0.152
		c-1.193,0-2.16,0.389-2.901,1.168c-0.74,0.779-1.11,1.79-1.11,3.034v7.338h-2.983v-14.041h2.336l0.394,2.476h0.152
		c0.466-0.838,1.073-1.502,1.821-1.993C702.854,341.294,703.66,341.049,704.523,341.049z"/>
	<path fill="#FFFFFF" d="M714.743,355.598c-2.184,0-3.891-0.637-5.123-1.911c-1.23-1.274-1.847-3.028-1.847-5.262
		c0-2.293,0.571-4.096,1.714-5.408s2.713-1.968,4.71-1.968c1.854,0,3.317,0.563,4.393,1.688s1.612,2.674,1.612,4.646v1.612h-9.356
		c0.042,1.363,0.41,2.41,1.104,3.142s1.672,1.098,2.933,1.098c0.829,0,1.602-0.078,2.317-0.235c0.715-0.157,1.482-0.417,2.304-0.781
		v2.425c-0.728,0.347-1.464,0.592-2.209,0.736S715.699,355.598,714.743,355.598z M714.197,343.309c-0.948,0-1.708,0.3-2.278,0.901
		c-0.572,0.601-0.912,1.477-1.022,2.628h6.373c-0.017-1.16-0.296-2.038-0.838-2.634S715.145,343.309,714.197,343.309z"/>
	<path fill="#FFFFFF" d="M625.032,384.386c0.728,0,1.456-0.114,2.184-0.343v2.247c-0.33,0.144-0.756,0.265-1.275,0.362
		c-0.521,0.097-1.061,0.146-1.619,0.146c-2.827,0-4.24-1.49-4.24-4.469v-7.566h-1.917v-1.32l2.057-1.092l1.016-2.971h1.841v3.123
		h3.999v2.26h-3.999v7.516c0,0.719,0.18,1.25,0.539,1.593C623.976,384.214,624.448,384.386,625.032,384.386z"/>
	<path fill="#FFFFFF" d="M642.374,386.544h-2.996v-8.633c0-1.083-0.218-1.892-0.654-2.425c-0.436-0.533-1.127-0.8-2.075-0.8
		c-1.253,0-2.173,0.375-2.761,1.124c-0.589,0.749-0.883,2.004-0.883,3.764v6.97h-2.983V366.79h2.983v5.015
		c0,0.804-0.051,1.663-0.152,2.577h0.19c0.406-0.677,0.972-1.202,1.694-1.574c0.725-0.373,1.568-0.559,2.533-0.559
		c3.402,0,5.104,1.714,5.104,5.142V386.544z"/>
	<path fill="#FFFFFF" d="M652.657,386.798c-2.184,0-3.891-0.637-5.123-1.911c-1.23-1.274-1.847-3.028-1.847-5.262
		c0-2.293,0.571-4.096,1.714-5.408s2.713-1.968,4.71-1.968c1.854,0,3.317,0.563,4.393,1.688s1.612,2.674,1.612,4.646v1.612h-9.356
		c0.042,1.363,0.41,2.41,1.104,3.142s1.672,1.098,2.933,1.098c0.829,0,1.602-0.078,2.317-0.235c0.715-0.157,1.482-0.417,2.304-0.781
		v2.425c-0.728,0.347-1.464,0.592-2.209,0.736S653.613,386.798,652.657,386.798z M652.111,374.509c-0.948,0-1.708,0.3-2.278,0.901
		c-0.572,0.601-0.912,1.477-1.022,2.628h6.373c-0.017-1.16-0.296-2.038-0.838-2.634S653.059,374.509,652.111,374.509z"/>
	<path fill="#FFFFFF" d="M683.671,377.086c0,3.064-0.851,5.406-2.552,7.027s-4.151,2.431-7.351,2.431h-5.192v-18.561h5.738
		c2.954,0,5.252,0.795,6.894,2.387S683.671,374.2,683.671,377.086z M680.472,377.188c0-4.443-2.078-6.665-6.233-6.665h-2.628v13.47
		h2.158C678.238,383.992,680.472,381.724,680.472,377.188z"/>
	<path fill="#FFFFFF" d="M696.125,386.544l-0.597-1.955h-0.102c-0.677,0.855-1.358,1.437-2.044,1.746s-1.565,0.463-2.641,0.463
		c-1.38,0-2.457-0.373-3.23-1.117c-0.775-0.745-1.162-1.798-1.162-3.161c0-1.447,0.537-2.539,1.612-3.275s2.713-1.138,4.913-1.206
		l2.425-0.076v-0.749c0-0.897-0.21-1.568-0.628-2.012c-0.42-0.444-1.069-0.667-1.949-0.667c-0.72,0-1.409,0.106-2.069,0.317
		s-1.295,0.461-1.904,0.749l-0.965-2.133c0.762-0.398,1.596-0.7,2.501-0.908s1.761-0.311,2.564-0.311
		c1.786,0,3.134,0.389,4.043,1.168c0.91,0.779,1.365,2.001,1.365,3.669v9.458H696.125z M691.682,384.513
		c1.083,0,1.953-0.303,2.609-0.908c0.655-0.605,0.983-1.454,0.983-2.545v-1.219l-1.803,0.076c-1.405,0.051-2.427,0.286-3.065,0.705
		c-0.64,0.419-0.959,1.06-0.959,1.923c0,0.626,0.187,1.111,0.559,1.454S690.937,384.513,691.682,384.513z"/>
	<path fill="#FFFFFF" d="M707.653,384.386c0.728,0,1.456-0.114,2.184-0.343v2.247c-0.33,0.144-0.756,0.265-1.275,0.362
		c-0.521,0.097-1.061,0.146-1.619,0.146c-2.827,0-4.24-1.49-4.24-4.469v-7.566h-1.917v-1.32l2.057-1.092l1.016-2.971h1.841v3.123
		h3.999v2.26h-3.999v7.516c0,0.719,0.18,1.25,0.539,1.593C706.597,384.214,707.069,384.386,707.653,384.386z"/>
	<path fill="#FFFFFF" d="M721.427,386.544l-0.597-1.955h-0.102c-0.677,0.855-1.358,1.437-2.044,1.746s-1.565,0.463-2.641,0.463
		c-1.38,0-2.456-0.373-3.231-1.117c-0.773-0.745-1.161-1.798-1.161-3.161c0-1.447,0.537-2.539,1.612-3.275s2.713-1.138,4.913-1.206
		l2.425-0.076v-0.749c0-0.897-0.209-1.568-0.629-2.012c-0.418-0.444-1.068-0.667-1.948-0.667c-0.72,0-1.409,0.106-2.069,0.317
		s-1.295,0.461-1.904,0.749l-0.965-2.133c0.762-0.398,1.596-0.7,2.501-0.908s1.761-0.311,2.564-0.311
		c1.786,0,3.134,0.389,4.044,1.168c0.909,0.779,1.364,2.001,1.364,3.669v9.458H721.427z M716.984,384.513
		c1.083,0,1.953-0.303,2.608-0.908c0.656-0.605,0.984-1.454,0.984-2.545v-1.219l-1.803,0.076c-1.405,0.051-2.427,0.286-3.066,0.705
		c-0.639,0.419-0.958,1.06-0.958,1.923c0,0.626,0.187,1.111,0.559,1.454S716.239,384.513,716.984,384.513z"/>
</g>
<g>
	<path fill="#FFFFFF" d="M534.403,589.602h-10.499v-18.561h10.499v2.564h-7.465v5.053h6.995v2.539h-6.995v5.827h7.465V589.602z"/>
	<path fill="#FFFFFF" d="M541.22,582.429l-4.71-6.868h3.402l3.199,4.913l3.225-4.913h3.377l-4.723,6.868l4.964,7.173h-3.377
		l-3.466-5.256l-3.453,5.256h-3.377L541.22,582.429z"/>
	<path fill="#FFFFFF" d="M559.54,589.855c-1.777,0-3.157-0.639-4.139-1.917h-0.178c0.118,1.185,0.178,1.904,0.178,2.158v5.751
		h-2.983v-20.287h2.412c0.067,0.262,0.207,0.889,0.419,1.879h0.152c0.931-1.422,2.327-2.133,4.189-2.133
		c1.752,0,3.117,0.635,4.094,1.904c0.979,1.27,1.467,3.051,1.467,5.345s-0.497,4.083-1.492,5.37
		C562.665,589.213,561.292,589.855,559.54,589.855z M558.816,577.744c-1.185,0-2.05,0.348-2.597,1.041
		c-0.545,0.693-0.818,1.803-0.818,3.326v0.444c0,1.71,0.271,2.947,0.813,3.714c0.542,0.766,1.426,1.148,2.653,1.148
		c1.032,0,1.828-0.424,2.387-1.27s0.838-2.053,0.838-3.618c0-1.574-0.277-2.766-0.831-3.573
		C560.706,578.148,559.891,577.744,558.816,577.744z"/>
	<path fill="#FFFFFF" d="M571.6,589.602h-2.983v-19.754h2.983V589.602z"/>
	<path fill="#FFFFFF" d="M588.32,582.556c0,2.294-0.588,4.083-1.765,5.37s-2.814,1.93-4.913,1.93c-1.312,0-2.472-0.297-3.479-0.889
		s-1.781-1.443-2.323-2.552s-0.813-2.396-0.813-3.859c0-2.276,0.584-4.054,1.752-5.332s2.814-1.917,4.938-1.917
		c2.031,0,3.64,0.654,4.824,1.961C587.727,578.576,588.32,580.338,588.32,582.556z M578.1,582.556c0,3.241,1.197,4.862,3.593,4.862
		c2.37,0,3.555-1.621,3.555-4.862c0-3.208-1.193-4.812-3.58-4.812c-1.253,0-2.16,0.414-2.724,1.244
		C578.381,579.818,578.1,581.007,578.1,582.556z"/>
	<path fill="#FFFFFF" d="M598.87,575.307c0.601,0,1.096,0.043,1.485,0.127l-0.292,2.78c-0.423-0.102-0.863-0.152-1.32-0.152
		c-1.193,0-2.16,0.39-2.9,1.168c-0.741,0.778-1.111,1.79-1.111,3.034v7.338h-2.983v-14.041h2.336l0.394,2.476h0.152
		c0.466-0.838,1.072-1.503,1.822-1.993C597.2,575.553,598.006,575.307,598.87,575.307z"/>
	<path fill="#FFFFFF" d="M609.089,589.855c-2.184,0-3.892-0.637-5.122-1.91c-1.232-1.274-1.848-3.028-1.848-5.263
		c0-2.294,0.571-4.097,1.714-5.408s2.713-1.968,4.71-1.968c1.854,0,3.317,0.563,4.393,1.688s1.612,2.675,1.612,4.646v1.612h-9.356
		c0.042,1.363,0.41,2.41,1.104,3.143c0.694,0.731,1.672,1.098,2.933,1.098c0.829,0,1.602-0.078,2.316-0.234
		c0.716-0.157,1.483-0.418,2.305-0.781v2.425c-0.728,0.347-1.464,0.593-2.209,0.736S610.045,589.855,609.089,589.855z
		 M608.543,577.566c-0.948,0-1.707,0.301-2.279,0.901c-0.57,0.601-0.911,1.478-1.021,2.628h6.373
		c-0.017-1.16-0.296-2.037-0.838-2.635C610.236,577.865,609.492,577.566,608.543,577.566z"/>
	<path fill="#FFFFFF" d="M522.032,618.644c0.728,0,1.456-0.114,2.184-0.343v2.247c-0.33,0.144-0.756,0.265-1.275,0.362
		c-0.521,0.097-1.061,0.146-1.619,0.146c-2.827,0-4.24-1.489-4.24-4.469v-7.566h-1.917v-1.32l2.057-1.092l1.016-2.971h1.841v3.123
		h3.999v2.26h-3.999v7.516c0,0.72,0.18,1.251,0.539,1.593C520.976,618.473,521.448,618.644,522.032,618.644z"/>
	<path fill="#FFFFFF" d="M539.374,620.802h-2.996v-8.633c0-1.083-0.218-1.892-0.654-2.425c-0.436-0.533-1.127-0.8-2.075-0.8
		c-1.253,0-2.173,0.374-2.761,1.124c-0.589,0.748-0.883,2.004-0.883,3.764v6.97h-2.983v-19.754h2.983v5.015
		c0,0.805-0.051,1.663-0.152,2.577h0.19c0.406-0.677,0.972-1.202,1.694-1.574c0.725-0.372,1.568-0.559,2.533-0.559
		c3.402,0,5.104,1.714,5.104,5.142V620.802z"/>
	<path fill="#FFFFFF" d="M549.657,621.056c-2.184,0-3.891-0.637-5.123-1.911c-1.23-1.273-1.847-3.027-1.847-5.262
		c0-2.293,0.571-4.096,1.714-5.408s2.713-1.968,4.71-1.968c1.854,0,3.317,0.563,4.393,1.688s1.612,2.674,1.612,4.646v1.612h-9.356
		c0.042,1.362,0.41,2.41,1.104,3.142c0.694,0.732,1.672,1.099,2.933,1.099c0.829,0,1.602-0.078,2.317-0.235
		c0.715-0.156,1.482-0.416,2.304-0.78v2.425c-0.728,0.348-1.464,0.592-2.209,0.736S550.613,621.056,549.657,621.056z
		 M549.111,608.767c-0.948,0-1.708,0.3-2.278,0.901c-0.572,0.602-0.912,1.477-1.022,2.628h6.373
		c-0.017-1.159-0.296-2.038-0.838-2.634C550.803,609.064,550.059,608.767,549.111,608.767z"/>
	<path fill="#FFFFFF" d="M580.671,611.344c0,3.064-0.851,5.406-2.552,7.027c-1.701,1.62-4.151,2.431-7.351,2.431h-5.192v-18.561
		h5.738c2.954,0,5.252,0.796,6.894,2.387S580.671,608.457,580.671,611.344z M577.472,611.445c0-4.443-2.078-6.665-6.233-6.665
		h-2.628v13.47h2.158C575.238,618.25,577.472,615.982,577.472,611.445z"/>
	<path fill="#FFFFFF" d="M593.125,620.802l-0.597-1.955h-0.102c-0.677,0.854-1.358,1.437-2.044,1.745
		c-0.686,0.31-1.565,0.464-2.641,0.464c-1.38,0-2.457-0.372-3.23-1.117c-0.775-0.745-1.162-1.798-1.162-3.161
		c0-1.447,0.537-2.539,1.612-3.275s2.713-1.139,4.913-1.206l2.425-0.076v-0.749c0-0.896-0.21-1.568-0.628-2.012
		c-0.42-0.445-1.069-0.667-1.949-0.667c-0.72,0-1.409,0.106-2.069,0.317s-1.295,0.461-1.904,0.749l-0.965-2.133
		c0.762-0.397,1.596-0.7,2.501-0.907c0.905-0.208,1.761-0.312,2.564-0.312c1.786,0,3.134,0.39,4.043,1.168
		c0.91,0.778,1.365,2.001,1.365,3.669v9.458H593.125z M588.682,618.771c1.083,0,1.953-0.303,2.609-0.907
		c0.655-0.605,0.983-1.454,0.983-2.546v-1.219l-1.803,0.076c-1.405,0.051-2.427,0.286-3.065,0.704
		c-0.64,0.42-0.959,1.061-0.959,1.924c0,0.627,0.187,1.111,0.559,1.453C587.378,618.6,587.937,618.771,588.682,618.771z"/>
	<path fill="#FFFFFF" d="M604.653,618.644c0.728,0,1.456-0.114,2.184-0.343v2.247c-0.33,0.144-0.756,0.265-1.275,0.362
		c-0.521,0.097-1.061,0.146-1.619,0.146c-2.827,0-4.24-1.489-4.24-4.469v-7.566h-1.917v-1.32l2.057-1.092l1.016-2.971h1.841v3.123
		h3.999v2.26h-3.999v7.516c0,0.72,0.18,1.251,0.539,1.593C603.597,618.473,604.069,618.644,604.653,618.644z"/>
	<path fill="#FFFFFF" d="M618.427,620.802l-0.597-1.955h-0.102c-0.677,0.854-1.358,1.437-2.044,1.745
		c-0.686,0.31-1.565,0.464-2.641,0.464c-1.38,0-2.456-0.372-3.231-1.117c-0.773-0.745-1.161-1.798-1.161-3.161
		c0-1.447,0.537-2.539,1.612-3.275s2.713-1.139,4.913-1.206l2.425-0.076v-0.749c0-0.896-0.209-1.568-0.629-2.012
		c-0.418-0.445-1.068-0.667-1.948-0.667c-0.72,0-1.409,0.106-2.069,0.317s-1.295,0.461-1.904,0.749l-0.965-2.133
		c0.762-0.397,1.596-0.7,2.501-0.907c0.905-0.208,1.761-0.312,2.564-0.312c1.786,0,3.134,0.39,4.044,1.168
		c0.909,0.778,1.364,2.001,1.364,3.669v9.458H618.427z M613.984,618.771c1.083,0,1.953-0.303,2.608-0.907
		c0.656-0.605,0.984-1.454,0.984-2.546v-1.219l-1.803,0.076c-1.405,0.051-2.427,0.286-3.066,0.704
		c-0.639,0.42-0.958,1.061-0.958,1.924c0,0.627,0.187,1.111,0.559,1.453C612.68,618.6,613.239,618.771,613.984,618.771z"/>
</g>
<g>
	<path fill="#FFFFFF" d="M303.5,652.377c-1.743,0-3.114,0.617-4.113,1.854s-1.498,2.941-1.498,5.116c0,2.276,0.48,3.999,1.441,5.167
		c0.96,1.168,2.351,1.752,4.17,1.752c0.787,0,1.549-0.078,2.285-0.234c0.736-0.157,1.502-0.357,2.298-0.604v2.603
		c-1.456,0.55-3.106,0.825-4.951,0.825c-2.717,0-4.803-0.823-6.259-2.469c-1.456-1.646-2.184-4.002-2.184-7.065
		c0-1.93,0.354-3.618,1.061-5.065c0.706-1.447,1.729-2.557,3.065-3.326s2.907-1.155,4.71-1.155c1.896,0,3.647,0.397,5.256,1.193
		l-1.092,2.526c-0.626-0.297-1.289-0.557-1.986-0.781C305.004,652.489,304.271,652.377,303.5,652.377z"/>
	<path fill="#FFFFFF" d="M318.887,654.307c0.601,0,1.096,0.043,1.485,0.127l-0.292,2.78c-0.423-0.102-0.863-0.152-1.32-0.152
		c-1.193,0-2.16,0.39-2.9,1.168c-0.741,0.778-1.111,1.79-1.111,3.034v7.338h-2.983v-14.041h2.336l0.394,2.476h0.152
		c0.466-0.838,1.072-1.503,1.822-1.993C317.217,654.553,318.024,654.307,318.887,654.307z"/>
	<path fill="#FFFFFF" d="M329.107,668.855c-2.184,0-3.892-0.637-5.122-1.91c-1.232-1.274-1.848-3.028-1.848-5.263
		c0-2.294,0.571-4.097,1.714-5.408s2.713-1.968,4.71-1.968c1.854,0,3.317,0.563,4.393,1.688s1.612,2.675,1.612,4.646v1.612h-9.356
		c0.042,1.363,0.41,2.41,1.104,3.143c0.694,0.731,1.672,1.098,2.933,1.098c0.829,0,1.602-0.078,2.316-0.234
		c0.716-0.157,1.483-0.418,2.305-0.781v2.425c-0.728,0.347-1.464,0.593-2.209,0.736S330.063,668.855,329.107,668.855z
		 M328.561,656.566c-0.948,0-1.707,0.301-2.279,0.901c-0.57,0.601-0.911,1.478-1.021,2.628h6.373
		c-0.017-1.16-0.296-2.037-0.838-2.635C330.253,656.865,329.509,656.566,328.561,656.566z"/>
	<path fill="#FFFFFF" d="M346.741,668.602l-0.597-1.955h-0.102c-0.677,0.855-1.358,1.437-2.044,1.746
		c-0.686,0.309-1.565,0.463-2.641,0.463c-1.38,0-2.457-0.373-3.23-1.117c-0.775-0.744-1.162-1.799-1.162-3.161
		c0-1.447,0.537-2.539,1.612-3.275s2.713-1.138,4.913-1.206l2.425-0.076v-0.749c0-0.897-0.21-1.567-0.628-2.013
		c-0.42-0.443-1.069-0.666-1.949-0.666c-0.72,0-1.409,0.105-2.069,0.317s-1.295,0.462-1.904,0.749l-0.965-2.133
		c0.762-0.398,1.596-0.7,2.501-0.908c0.905-0.207,1.761-0.311,2.564-0.311c1.786,0,3.134,0.389,4.043,1.168
		c0.91,0.779,1.365,2.002,1.365,3.669v9.458H346.741z M342.297,666.57c1.083,0,1.953-0.303,2.609-0.908
		c0.655-0.604,0.983-1.453,0.983-2.545v-1.219l-1.803,0.076c-1.405,0.051-2.427,0.285-3.065,0.705
		c-0.64,0.418-0.959,1.06-0.959,1.923c0,0.626,0.187,1.11,0.559,1.454C340.994,666.398,341.552,666.57,342.297,666.57z"/>
	<path fill="#FFFFFF" d="M358.268,666.443c0.728,0,1.456-0.114,2.184-0.343v2.247c-0.33,0.145-0.756,0.265-1.275,0.361
		c-0.521,0.098-1.061,0.146-1.619,0.146c-2.827,0-4.24-1.49-4.24-4.469v-7.566H351.4v-1.32l2.057-1.092l1.016-2.971h1.841v3.123
		h3.999v2.26h-3.999v7.516c0,0.719,0.18,1.25,0.539,1.594C357.212,666.271,357.684,666.443,358.268,666.443z"/>
	<path fill="#FFFFFF" d="M369.389,668.855c-2.184,0-3.891-0.637-5.123-1.91c-1.23-1.274-1.847-3.028-1.847-5.263
		c0-2.294,0.571-4.097,1.714-5.408s2.713-1.968,4.71-1.968c1.854,0,3.317,0.563,4.393,1.688s1.612,2.675,1.612,4.646v1.612h-9.356
		c0.042,1.363,0.41,2.41,1.104,3.143c0.694,0.731,1.672,1.098,2.933,1.098c0.829,0,1.602-0.078,2.317-0.234
		c0.715-0.157,1.482-0.418,2.304-0.781v2.425c-0.728,0.347-1.464,0.593-2.209,0.736S370.345,668.855,369.389,668.855z
		 M368.843,656.566c-0.948,0-1.708,0.301-2.278,0.901c-0.572,0.601-0.912,1.478-1.022,2.628h6.373
		c-0.017-1.16-0.296-2.037-0.838-2.635C370.536,656.865,369.792,656.566,368.843,656.566z"/>
	<path fill="#FFFFFF" d="M299.623,699.802l-5.383-15.501h-0.102c0.144,2.303,0.216,4.461,0.216,6.475v9.026h-2.755v-18.561h4.278
		l5.154,14.765h0.076l5.307-14.765h4.291v18.561h-2.92v-9.179c0-0.922,0.023-2.125,0.07-3.605c0.046-1.48,0.086-2.379,0.12-2.691
		h-0.102l-5.573,15.476H299.623z"/>
	<path fill="#FFFFFF" d="M327.73,692.756c0,2.293-0.588,4.084-1.765,5.37s-2.814,1.93-4.913,1.93c-1.312,0-2.472-0.296-3.479-0.889
		s-1.781-1.442-2.323-2.552s-0.813-2.395-0.813-3.859c0-2.277,0.584-4.055,1.752-5.332s2.814-1.917,4.938-1.917
		c2.031,0,3.64,0.653,4.824,1.962C327.137,688.775,327.73,690.539,327.73,692.756z M317.51,692.756c0,3.242,1.197,4.862,3.593,4.862
		c2.37,0,3.555-1.62,3.555-4.862c0-3.207-1.193-4.812-3.58-4.812c-1.253,0-2.16,0.415-2.724,1.244
		C317.792,690.018,317.51,691.207,317.51,692.756z"/>
	<path fill="#FFFFFF" d="M335.893,700.056c-1.752,0-3.119-0.635-4.101-1.904s-1.473-3.052-1.473-5.345
		c0-2.303,0.497-4.094,1.491-5.377c0.995-1.281,2.372-1.923,4.133-1.923c1.845,0,3.25,0.681,4.215,2.044h0.152
		c-0.144-1.008-0.216-1.803-0.216-2.387v-5.116h2.996v19.754h-2.336l-0.521-1.841h-0.14
		C339.139,699.357,337.738,700.056,335.893,700.056z M336.693,697.644c1.228,0,2.12-0.345,2.679-1.034
		c0.559-0.69,0.847-1.81,0.863-3.358v-0.419c0-1.77-0.288-3.025-0.863-3.771s-1.477-1.117-2.704-1.117
		c-1.05,0-1.857,0.425-2.425,1.276c-0.567,0.85-0.851,2.063-0.851,3.637c0,1.557,0.275,2.744,0.825,3.561
		C334.767,697.235,335.592,697.644,336.693,697.644z"/>
	<path fill="#FFFFFF" d="M353.489,700.056c-2.184,0-3.891-0.637-5.123-1.911c-1.23-1.273-1.847-3.027-1.847-5.262
		c0-2.293,0.571-4.096,1.714-5.408s2.713-1.968,4.71-1.968c1.854,0,3.317,0.563,4.393,1.688s1.612,2.674,1.612,4.646v1.612h-9.356
		c0.042,1.362,0.41,2.41,1.104,3.142c0.694,0.732,1.672,1.099,2.933,1.099c0.829,0,1.602-0.078,2.317-0.235
		c0.715-0.156,1.482-0.416,2.304-0.78v2.425c-0.728,0.348-1.464,0.592-2.209,0.736S354.445,700.056,353.489,700.056z
		 M352.943,687.767c-0.948,0-1.708,0.3-2.278,0.901c-0.572,0.602-0.912,1.477-1.022,2.628h6.373
		c-0.017-1.159-0.296-2.038-0.838-2.634C354.635,688.064,353.891,687.767,352.943,687.767z"/>
	<path fill="#FFFFFF" d="M365.321,699.802h-2.983v-19.754h2.983V699.802z"/>
	<path fill="#FFFFFF" d="M379.019,695.803c0,1.371-0.499,2.423-1.498,3.154c-0.999,0.732-2.429,1.099-4.291,1.099
		c-1.87,0-3.373-0.284-4.507-0.851v-2.577c1.65,0.762,3.187,1.143,4.608,1.143c1.837,0,2.755-0.554,2.755-1.663
		c0-0.355-0.102-0.652-0.305-0.889s-0.537-0.482-1.003-0.736s-1.113-0.541-1.942-0.863c-1.616-0.627-2.711-1.252-3.281-1.879
		c-0.572-0.627-0.857-1.439-0.857-2.438c0-1.201,0.484-2.135,1.453-2.799c0.97-0.665,2.288-0.997,3.955-0.997
		c1.65,0,3.212,0.335,4.685,1.003l-0.965,2.247c-1.515-0.626-2.789-0.939-3.821-0.939c-1.574,0-2.361,0.448-2.361,1.346
		c0,0.44,0.205,0.813,0.615,1.117c0.411,0.305,1.306,0.724,2.686,1.257c1.159,0.449,2.002,0.859,2.526,1.231
		s0.914,0.802,1.168,1.288C378.892,694.544,379.019,695.125,379.019,695.803z"/>
</g>
<g>
	<path fill="#FFFFFF" d="M94.161,485.804h3.148l-6.5,18.561H87.61l-6.475-18.561h3.123l3.872,11.54
		c0.203,0.551,0.419,1.259,0.647,2.127c0.229,0.867,0.377,1.512,0.444,1.936c0.11-0.643,0.279-1.389,0.508-2.234
		s0.415-1.473,0.559-1.879L94.161,485.804z"/>
	<path fill="#FFFFFF" d="M108.227,504.364l-0.597-1.955h-0.102c-0.677,0.854-1.358,1.437-2.044,1.745
		c-0.686,0.31-1.565,0.464-2.641,0.464c-1.38,0-2.457-0.372-3.23-1.117c-0.775-0.745-1.162-1.798-1.162-3.161
		c0-1.447,0.537-2.539,1.612-3.275s2.713-1.139,4.913-1.206l2.425-0.076v-0.749c0-0.896-0.21-1.568-0.628-2.012
		c-0.42-0.445-1.069-0.667-1.949-0.667c-0.72,0-1.409,0.106-2.069,0.317s-1.295,0.461-1.904,0.749l-0.965-2.133
		c0.762-0.397,1.596-0.7,2.501-0.907c0.905-0.208,1.761-0.312,2.564-0.312c1.786,0,3.134,0.39,4.043,1.168
		c0.91,0.778,1.365,2.001,1.365,3.669v9.458H108.227z M103.784,502.333c1.083,0,1.953-0.303,2.609-0.907
		c0.655-0.605,0.983-1.454,0.983-2.546v-1.219l-1.803,0.076c-1.405,0.051-2.427,0.286-3.065,0.704
		c-0.64,0.42-0.959,1.061-0.959,1.924c0,0.627,0.187,1.111,0.559,1.453C102.48,502.162,103.039,502.333,103.784,502.333z"/>
	<path fill="#FFFFFF" d="M117.507,504.364h-2.983V484.61h2.983V504.364z"/>
	<path fill="#FFFFFF" d="M121.595,486.604c0-0.533,0.146-0.943,0.438-1.231c0.291-0.288,0.708-0.432,1.25-0.432
		c0.524,0,0.934,0.144,1.225,0.432c0.293,0.288,0.438,0.698,0.438,1.231c0,0.508-0.146,0.908-0.438,1.199
		c-0.291,0.293-0.7,0.438-1.225,0.438c-0.542,0-0.959-0.146-1.25-0.438C121.741,487.512,121.595,487.111,121.595,486.604z
		 M124.756,504.364h-2.983v-14.041h2.983V504.364z"/>
	<path fill="#FFFFFF" d="M133.757,504.618c-1.752,0-3.119-0.635-4.101-1.904s-1.473-3.052-1.473-5.345
		c0-2.303,0.497-4.094,1.492-5.377c0.994-1.281,2.371-1.923,4.132-1.923c1.845,0,3.25,0.681,4.215,2.044h0.152
		c-0.144-1.008-0.216-1.803-0.216-2.387v-5.116h2.996v19.754h-2.336l-0.521-1.841h-0.14
		C137.003,503.92,135.602,504.618,133.757,504.618z M134.557,502.206c1.228,0,2.12-0.345,2.679-1.034
		c0.559-0.69,0.847-1.81,0.863-3.358v-0.419c0-1.77-0.288-3.025-0.863-3.771s-1.477-1.117-2.704-1.117
		c-1.05,0-1.857,0.425-2.425,1.276c-0.567,0.85-0.851,2.063-0.851,3.637c0,1.557,0.275,2.744,0.825,3.561
		C132.631,501.798,133.457,502.206,134.557,502.206z"/>
	<path fill="#FFFFFF" d="M154.006,504.364l-0.597-1.955h-0.102c-0.677,0.854-1.358,1.437-2.044,1.745
		c-0.686,0.31-1.565,0.464-2.641,0.464c-1.38,0-2.457-0.372-3.23-1.117c-0.775-0.745-1.162-1.798-1.162-3.161
		c0-1.447,0.537-2.539,1.612-3.275s2.713-1.139,4.913-1.206l2.425-0.076v-0.749c0-0.896-0.21-1.568-0.628-2.012
		c-0.42-0.445-1.069-0.667-1.949-0.667c-0.72,0-1.409,0.106-2.069,0.317s-1.295,0.461-1.904,0.749l-0.965-2.133
		c0.762-0.397,1.596-0.7,2.501-0.907c0.905-0.208,1.761-0.312,2.564-0.312c1.786,0,3.134,0.39,4.043,1.168
		c0.91,0.778,1.365,2.001,1.365,3.669v9.458H154.006z M149.563,502.333c1.083,0,1.953-0.303,2.609-0.907
		c0.655-0.605,0.983-1.454,0.983-2.546v-1.219l-1.803,0.076c-1.405,0.051-2.427,0.286-3.065,0.704
		c-0.64,0.42-0.959,1.061-0.959,1.924c0,0.627,0.187,1.111,0.559,1.453C148.259,502.162,148.818,502.333,149.563,502.333z"/>
	<path fill="#FFFFFF" d="M165.534,502.206c0.728,0,1.456-0.114,2.184-0.343v2.247c-0.33,0.144-0.756,0.265-1.275,0.362
		c-0.521,0.097-1.061,0.146-1.619,0.146c-2.827,0-4.24-1.489-4.24-4.469v-7.566h-1.917v-1.32l2.057-1.092l1.016-2.971h1.841v3.123
		h3.999v2.26h-3.999v7.516c0,0.72,0.18,1.251,0.539,1.593C164.478,502.035,164.95,502.206,165.534,502.206z"/>
	<path fill="#FFFFFF" d="M176.655,504.618c-2.184,0-3.891-0.637-5.123-1.911c-1.23-1.273-1.847-3.027-1.847-5.262
		c0-2.293,0.571-4.096,1.714-5.408s2.713-1.968,4.71-1.968c1.854,0,3.317,0.563,4.393,1.688s1.612,2.674,1.612,4.646v1.612h-9.356
		c0.042,1.362,0.41,2.41,1.104,3.142c0.694,0.732,1.672,1.099,2.933,1.099c0.829,0,1.602-0.078,2.317-0.235
		c0.715-0.156,1.482-0.416,2.304-0.78v2.425c-0.728,0.348-1.464,0.592-2.209,0.736S177.611,504.618,176.655,504.618z
		 M176.109,492.329c-0.948,0-1.708,0.3-2.278,0.901c-0.572,0.602-0.912,1.477-1.022,2.628h6.373
		c-0.017-1.159-0.296-2.038-0.838-2.634C177.801,492.627,177.057,492.329,176.109,492.329z"/>
	<path fill="#FFFFFF" d="M106.951,535.564l-5.383-15.501h-0.102c0.144,2.302,0.216,4.46,0.216,6.475v9.026h-2.755v-18.561h4.278
		l5.154,14.765h0.076l5.307-14.765h4.291v18.561h-2.92v-9.179c0-0.923,0.023-2.124,0.07-3.605c0.046-1.481,0.086-2.378,0.12-2.691
		h-0.102l-5.573,15.476H106.951z"/>
	<path fill="#FFFFFF" d="M135.058,528.519c0,2.294-0.588,4.083-1.765,5.37s-2.814,1.93-4.913,1.93c-1.312,0-2.472-0.297-3.479-0.889
		s-1.781-1.443-2.323-2.552s-0.813-2.396-0.813-3.859c0-2.276,0.584-4.054,1.752-5.332s2.814-1.917,4.938-1.917
		c2.031,0,3.64,0.654,4.824,1.961C134.465,524.539,135.058,526.301,135.058,528.519z M124.838,528.519
		c0,3.241,1.197,4.862,3.593,4.862c2.37,0,3.555-1.621,3.555-4.862c0-3.208-1.193-4.812-3.58-4.812c-1.253,0-2.16,0.414-2.724,1.244
		C125.12,525.781,124.838,526.97,124.838,528.519z"/>
	<path fill="#FFFFFF" d="M143.221,535.818c-1.752,0-3.119-0.635-4.101-1.904s-1.473-3.051-1.473-5.345
		c0-2.302,0.497-4.095,1.491-5.376c0.995-1.283,2.372-1.924,4.133-1.924c1.845,0,3.25,0.682,4.215,2.044h0.152
		c-0.144-1.007-0.216-1.803-0.216-2.387v-5.116h2.996v19.754h-2.336l-0.521-1.841h-0.14
		C146.467,535.12,145.066,535.818,143.221,535.818z M144.021,533.406c1.228,0,2.12-0.345,2.679-1.035
		c0.559-0.689,0.847-1.809,0.863-3.357v-0.419c0-1.769-0.288-3.026-0.863-3.771s-1.477-1.117-2.704-1.117
		c-1.05,0-1.857,0.426-2.425,1.275c-0.567,0.852-0.851,2.063-0.851,3.638c0,1.558,0.275,2.744,0.825,3.562
		C142.095,532.998,142.92,533.406,144.021,533.406z"/>
	<path fill="#FFFFFF" d="M160.817,535.818c-2.184,0-3.891-0.637-5.123-1.91c-1.23-1.274-1.847-3.028-1.847-5.263
		c0-2.294,0.571-4.097,1.714-5.408s2.713-1.968,4.71-1.968c1.854,0,3.317,0.563,4.393,1.688s1.612,2.675,1.612,4.646v1.612h-9.356
		c0.042,1.363,0.41,2.41,1.104,3.143c0.694,0.731,1.672,1.098,2.933,1.098c0.829,0,1.602-0.078,2.317-0.234
		c0.715-0.157,1.482-0.418,2.304-0.781v2.425c-0.728,0.347-1.464,0.593-2.209,0.736S161.773,535.818,160.817,535.818z
		 M160.271,523.529c-0.948,0-1.708,0.301-2.278,0.901c-0.572,0.601-0.912,1.478-1.022,2.628h6.373
		c-0.017-1.16-0.296-2.037-0.838-2.635C161.963,523.828,161.219,523.529,160.271,523.529z"/>
	<path fill="#FFFFFF" d="M172.649,535.564h-2.983v-19.754h2.983V535.564z"/>
</g>
<g>
	<path fill="#FFFFFF" d="M95.508,265.906c0,3.064-0.851,5.406-2.552,7.027s-4.151,2.431-7.351,2.431h-5.192v-18.561h5.738
		c2.954,0,5.252,0.795,6.894,2.387S95.508,263.02,95.508,265.906z M92.309,266.008c0-4.443-2.078-6.665-6.233-6.665h-2.628v13.47
		h2.158C90.075,272.813,92.309,270.544,92.309,266.008z"/>
	<path fill="#FFFFFF" d="M105.309,275.618c-2.184,0-3.891-0.637-5.123-1.911c-1.23-1.274-1.847-3.028-1.847-5.262
		c0-2.293,0.571-4.096,1.714-5.408s2.713-1.968,4.71-1.968c1.854,0,3.317,0.563,4.393,1.688s1.612,2.674,1.612,4.646v1.612h-9.356
		c0.042,1.363,0.41,2.41,1.104,3.142s1.672,1.098,2.933,1.098c0.829,0,1.602-0.078,2.317-0.235c0.715-0.157,1.482-0.417,2.304-0.781
		v2.425c-0.728,0.347-1.464,0.592-2.209,0.736S106.265,275.618,105.309,275.618z M104.763,263.329c-0.948,0-1.708,0.3-2.278,0.901
		c-0.572,0.601-0.912,1.477-1.022,2.628h6.373c-0.017-1.16-0.296-2.038-0.838-2.634S105.711,263.329,104.763,263.329z"/>
	<path fill="#FFFFFF" d="M121.28,275.618c-1.777,0-3.157-0.639-4.139-1.917h-0.178c0.118,1.185,0.178,1.904,0.178,2.158v5.751
		h-2.983v-20.287h2.412c0.067,0.262,0.207,0.889,0.419,1.879h0.152c0.931-1.422,2.327-2.133,4.189-2.133
		c1.752,0,3.117,0.635,4.094,1.904c0.979,1.27,1.467,3.051,1.467,5.345s-0.497,4.083-1.492,5.37
		C124.405,274.975,123.032,275.618,121.28,275.618z M120.556,263.507c-1.185,0-2.05,0.347-2.597,1.041
		c-0.545,0.694-0.818,1.803-0.818,3.326v0.444c0,1.709,0.271,2.947,0.813,3.713s1.426,1.149,2.653,1.149
		c1.032,0,1.828-0.423,2.387-1.27s0.838-2.052,0.838-3.618c0-1.574-0.277-2.766-0.831-3.574
		C122.446,263.911,121.631,263.507,120.556,263.507z"/>
	<path fill="#FFFFFF" d="M133.34,275.364h-2.983V255.61h2.983V275.364z"/>
	<path fill="#FFFFFF" d="M150.06,268.318c0,2.293-0.588,4.083-1.765,5.37s-2.814,1.93-4.913,1.93c-1.312,0-2.472-0.296-3.479-0.889
		s-1.781-1.443-2.323-2.552s-0.813-2.395-0.813-3.859c0-2.277,0.584-4.054,1.752-5.332s2.814-1.917,4.938-1.917
		c2.031,0,3.64,0.654,4.824,1.961S150.06,266.101,150.06,268.318z M139.84,268.318c0,3.242,1.197,4.862,3.593,4.862
		c2.37,0,3.555-1.621,3.555-4.862c0-3.208-1.193-4.812-3.58-4.812c-1.253,0-2.16,0.415-2.724,1.244
		C140.122,265.581,139.84,266.77,139.84,268.318z"/>
	<path fill="#FFFFFF" d="M151.355,261.323h3.25l2.856,7.96c0.432,1.134,0.72,2.201,0.863,3.199h0.102
		c0.076-0.465,0.216-1.03,0.419-1.695s1.278-3.819,3.225-9.464h3.225l-6.005,15.907c-1.092,2.92-2.911,4.38-5.459,4.38
		c-0.66,0-1.304-0.072-1.93-0.216v-2.361c0.448,0.102,0.961,0.152,1.536,0.152c1.438,0,2.45-0.833,3.034-2.501l0.521-1.32
		L151.355,261.323z"/>
	<path fill="#FFFFFF" d="M92.951,306.564l-5.383-15.501h-0.102c0.144,2.302,0.216,4.46,0.216,6.475v9.026h-2.755v-18.561h4.278
		l5.154,14.765h0.076l5.307-14.765h4.291v18.561h-2.92v-9.179c0-0.922,0.023-2.125,0.07-3.605c0.046-1.481,0.086-2.378,0.12-2.691
		h-0.102l-5.573,15.476H92.951z"/>
	<path fill="#FFFFFF" d="M121.058,299.519c0,2.293-0.588,4.083-1.765,5.37s-2.814,1.93-4.913,1.93c-1.312,0-2.472-0.296-3.479-0.889
		s-1.781-1.443-2.323-2.552s-0.813-2.395-0.813-3.859c0-2.277,0.584-4.054,1.752-5.332s2.814-1.917,4.938-1.917
		c2.031,0,3.64,0.654,4.824,1.961S121.058,297.301,121.058,299.519z M110.838,299.519c0,3.242,1.197,4.862,3.593,4.862
		c2.37,0,3.555-1.621,3.555-4.862c0-3.208-1.193-4.812-3.58-4.812c-1.253,0-2.16,0.415-2.724,1.244
		C111.12,296.781,110.838,297.97,110.838,299.519z"/>
	<path fill="#FFFFFF" d="M129.221,306.818c-1.752,0-3.119-0.635-4.101-1.904s-1.473-3.051-1.473-5.345
		c0-2.302,0.497-4.094,1.491-5.376c0.995-1.282,2.372-1.923,4.133-1.923c1.845,0,3.25,0.681,4.215,2.044h0.152
		c-0.144-1.007-0.216-1.803-0.216-2.387v-5.116h2.996v19.754h-2.336l-0.521-1.841h-0.14
		C132.467,306.12,131.066,306.818,129.221,306.818z M130.021,304.406c1.228,0,2.12-0.345,2.679-1.035s0.847-1.809,0.863-3.358
		v-0.419c0-1.769-0.288-3.026-0.863-3.771s-1.477-1.117-2.704-1.117c-1.05,0-1.857,0.425-2.425,1.276s-0.851,2.063-0.851,3.637
		c0,1.557,0.275,2.744,0.825,3.561S128.92,304.406,130.021,304.406z"/>
	<path fill="#FFFFFF" d="M146.817,306.818c-2.184,0-3.891-0.637-5.123-1.911c-1.23-1.274-1.847-3.028-1.847-5.262
		c0-2.293,0.571-4.096,1.714-5.408s2.713-1.968,4.71-1.968c1.854,0,3.317,0.563,4.393,1.688s1.612,2.674,1.612,4.646v1.612h-9.356
		c0.042,1.363,0.41,2.41,1.104,3.142s1.672,1.098,2.933,1.098c0.829,0,1.602-0.078,2.317-0.235c0.715-0.157,1.482-0.417,2.304-0.781
		v2.425c-0.728,0.347-1.464,0.592-2.209,0.736S147.773,306.818,146.817,306.818z M146.271,294.529c-0.948,0-1.708,0.3-2.278,0.901
		c-0.572,0.601-0.912,1.477-1.022,2.628h6.373c-0.017-1.16-0.296-2.038-0.838-2.634S147.219,294.529,146.271,294.529z"/>
	<path fill="#FFFFFF" d="M158.649,306.564h-2.983v-19.754h2.983V306.564z"/>
</g>
<g>
	<path fill="#FFFFFF" d="M275.255,91.364l-5.383-15.501h-0.102c0.144,2.302,0.216,4.46,0.216,6.475v9.026h-2.755V72.804h4.278
		l5.154,14.765h0.076l5.307-14.765h4.291v18.561h-2.92v-9.179c0-0.922,0.023-2.125,0.07-3.605c0.046-1.481,0.086-2.378,0.12-2.691
		h-0.102l-5.573,15.476H275.255z"/>
	<path fill="#FFFFFF" d="M303.363,84.318c0,2.293-0.588,4.083-1.765,5.37s-2.814,1.93-4.913,1.93c-1.312,0-2.472-0.296-3.479-0.889
		s-1.781-1.443-2.323-2.552s-0.813-2.395-0.813-3.859c0-2.277,0.584-4.054,1.752-5.332s2.814-1.917,4.938-1.917
		c2.031,0,3.64,0.654,4.824,1.961S303.363,82.101,303.363,84.318z M293.143,84.318c0,3.242,1.197,4.862,3.593,4.862
		c2.37,0,3.555-1.621,3.555-4.862c0-3.208-1.193-4.812-3.58-4.812c-1.253,0-2.16,0.415-2.724,1.244
		C293.424,81.581,293.143,82.77,293.143,84.318z"/>
	<path fill="#FFFFFF" d="M319.143,91.364h-2.996v-8.633c0-1.083-0.218-1.892-0.654-2.425c-0.436-0.533-1.127-0.8-2.075-0.8
		c-1.261,0-2.184,0.373-2.768,1.117s-0.876,1.993-0.876,3.745v6.995h-2.983V77.323h2.336l0.419,1.841h0.152
		c0.423-0.668,1.024-1.185,1.803-1.549s1.642-0.546,2.59-0.546c3.368,0,5.053,1.714,5.053,5.142V91.364z"/>
	<path fill="#FFFFFF" d="M323.117,73.604c0-0.533,0.146-0.944,0.438-1.231c0.291-0.288,0.708-0.432,1.25-0.432
		c0.524,0,0.934,0.144,1.225,0.432c0.293,0.288,0.438,0.698,0.438,1.231c0,0.508-0.146,0.908-0.438,1.2
		c-0.291,0.292-0.7,0.438-1.225,0.438c-0.542,0-0.959-0.146-1.25-0.438C323.262,74.511,323.117,74.111,323.117,73.604z
		 M326.278,91.364h-2.983V77.323h2.983V91.364z"/>
	<path fill="#FFFFFF" d="M335.774,89.206c0.728,0,1.456-0.114,2.184-0.343v2.247c-0.33,0.144-0.756,0.265-1.275,0.362
		c-0.521,0.097-1.061,0.146-1.619,0.146c-2.827,0-4.24-1.49-4.24-4.469v-7.566h-1.917v-1.32l2.057-1.092l1.016-2.971h1.841v3.123
		h3.999v2.26h-3.999v7.516c0,0.719,0.18,1.25,0.539,1.593C334.718,89.035,335.19,89.206,335.774,89.206z"/>
	<path fill="#FFFFFF" d="M353.217,84.318c0,2.293-0.588,4.083-1.765,5.37s-2.814,1.93-4.913,1.93c-1.312,0-2.472-0.296-3.479-0.889
		s-1.781-1.443-2.323-2.552s-0.813-2.395-0.813-3.859c0-2.277,0.584-4.054,1.752-5.332s2.814-1.917,4.938-1.917
		c2.031,0,3.64,0.654,4.824,1.961S353.217,82.101,353.217,84.318z M342.998,84.318c0,3.242,1.197,4.862,3.593,4.862
		c2.37,0,3.555-1.621,3.555-4.862c0-3.208-1.193-4.812-3.58-4.812c-1.253,0-2.16,0.415-2.723,1.244
		C343.279,81.581,342.998,82.77,342.998,84.318z"/>
	<path fill="#FFFFFF" d="M363.767,77.069c0.601,0,1.096,0.042,1.485,0.127l-0.292,2.78c-0.423-0.102-0.863-0.152-1.32-0.152
		c-1.193,0-2.16,0.389-2.901,1.168c-0.74,0.779-1.11,1.79-1.11,3.034v7.338h-2.983V77.323h2.336l0.394,2.476h0.152
		c0.466-0.838,1.073-1.502,1.821-1.993C362.098,77.315,362.904,77.069,363.767,77.069z"/>
	<path fill="#FFFFFF" d="M257.501,122.564l-0.597-1.955h-0.102c-0.677,0.855-1.358,1.437-2.044,1.746s-1.565,0.463-2.641,0.463
		c-1.38,0-2.456-0.373-3.231-1.117c-0.773-0.745-1.161-1.798-1.161-3.161c0-1.447,0.537-2.539,1.612-3.275s2.713-1.138,4.913-1.206
		l2.425-0.076v-0.749c0-0.897-0.209-1.568-0.629-2.012c-0.418-0.444-1.068-0.667-1.948-0.667c-0.72,0-1.409,0.106-2.069,0.317
		s-1.295,0.461-1.904,0.749l-0.965-2.133c0.762-0.398,1.596-0.7,2.501-0.908s1.761-0.311,2.564-0.311
		c1.786,0,3.134,0.389,4.044,1.168c0.909,0.779,1.364,2.001,1.364,3.669v9.458H257.501z M253.058,120.533
		c1.083,0,1.953-0.303,2.608-0.908c0.656-0.605,0.984-1.454,0.984-2.545v-1.219l-1.803,0.076c-1.405,0.051-2.427,0.286-3.066,0.705
		c-0.639,0.419-0.958,1.06-0.958,1.923c0,0.626,0.187,1.111,0.559,1.454S252.313,120.533,253.058,120.533z"/>
	<path fill="#FFFFFF" d="M276.151,122.564h-2.996v-8.633c0-1.083-0.218-1.892-0.654-2.425c-0.436-0.533-1.127-0.8-2.075-0.8
		c-1.261,0-2.184,0.373-2.768,1.117s-0.876,1.993-0.876,3.745v6.995h-2.983v-14.041h2.336l0.419,1.841h0.152
		c0.423-0.668,1.024-1.185,1.803-1.549s1.642-0.546,2.59-0.546c3.368,0,5.053,1.714,5.053,5.142V122.564z"/>
	<path fill="#FFFFFF" d="M285.038,122.818c-1.752,0-3.119-0.635-4.101-1.904s-1.473-3.051-1.473-5.345
		c0-2.302,0.497-4.094,1.491-5.376c0.995-1.282,2.372-1.923,4.133-1.923c1.845,0,3.25,0.681,4.215,2.044h0.152
		c-0.144-1.007-0.216-1.803-0.216-2.387v-5.116h2.996v19.754H289.9l-0.521-1.841h-0.14
		C288.284,122.12,286.882,122.818,285.038,122.818z M285.837,120.406c1.228,0,2.12-0.345,2.679-1.035s0.847-1.809,0.863-3.358
		v-0.419c0-1.769-0.288-3.026-0.863-3.771s-1.477-1.117-2.704-1.117c-1.05,0-1.857,0.425-2.425,1.276s-0.851,2.063-0.851,3.637
		c0,1.557,0.275,2.744,0.825,3.561S284.737,120.406,285.837,120.406z"/>
	<path fill="#FFFFFF" d="M315.087,122.564l-1.854-5.154h-7.097l-1.815,5.154h-3.199l6.944-18.637h3.301l6.944,18.637H315.087z
		 M312.434,114.795l-1.739-5.053c-0.127-0.338-0.303-0.872-0.526-1.6c-0.225-0.728-0.379-1.261-0.464-1.6
		c-0.229,1.041-0.563,2.179-1.003,3.415l-1.676,4.837H312.434z"/>
	<path fill="#FFFFFF" d="M329.877,118.565c0,1.371-0.499,2.423-1.498,3.155s-2.429,1.098-4.291,1.098
		c-1.87,0-3.373-0.284-4.507-0.851v-2.577c1.65,0.762,3.187,1.143,4.608,1.143c1.837,0,2.755-0.554,2.755-1.663
		c0-0.355-0.102-0.652-0.305-0.889s-0.537-0.482-1.003-0.736s-1.113-0.542-1.942-0.863c-1.616-0.626-2.71-1.252-3.282-1.879
		c-0.57-0.626-0.856-1.439-0.856-2.438c0-1.202,0.484-2.135,1.454-2.799c0.969-0.665,2.287-0.997,3.954-0.997
		c1.65,0,3.212,0.334,4.685,1.003l-0.965,2.247c-1.515-0.626-2.789-0.939-3.821-0.939c-1.574,0-2.361,0.449-2.361,1.346
		c0,0.44,0.205,0.813,0.616,1.117c0.41,0.305,1.305,0.724,2.685,1.257c1.159,0.449,2.002,0.859,2.526,1.231s0.914,0.802,1.168,1.289
		S329.877,117.888,329.877,118.565z"/>
	<path fill="#FFFFFF" d="M342.535,118.565c0,1.371-0.499,2.423-1.498,3.155s-2.429,1.098-4.291,1.098
		c-1.87,0-3.373-0.284-4.507-0.851v-2.577c1.65,0.762,3.187,1.143,4.608,1.143c1.837,0,2.755-0.554,2.755-1.663
		c0-0.355-0.102-0.652-0.305-0.889s-0.537-0.482-1.003-0.736s-1.113-0.542-1.942-0.863c-1.616-0.626-2.711-1.252-3.281-1.879
		c-0.572-0.626-0.857-1.439-0.857-2.438c0-1.202,0.484-2.135,1.453-2.799c0.97-0.665,2.288-0.997,3.955-0.997
		c1.65,0,3.212,0.334,4.685,1.003l-0.965,2.247c-1.515-0.626-2.789-0.939-3.821-0.939c-1.574,0-2.361,0.449-2.361,1.346
		c0,0.44,0.205,0.813,0.615,1.117c0.411,0.305,1.306,0.724,2.686,1.257c1.159,0.449,2.002,0.859,2.526,1.231
		s0.914,0.802,1.168,1.289S342.535,117.888,342.535,118.565z"/>
	<path fill="#FFFFFF" d="M351.891,122.818c-2.184,0-3.891-0.637-5.123-1.911c-1.23-1.274-1.847-3.028-1.847-5.262
		c0-2.293,0.571-4.096,1.714-5.408s2.713-1.968,4.71-1.968c1.854,0,3.317,0.563,4.393,1.688s1.612,2.674,1.612,4.646v1.612h-9.356
		c0.042,1.363,0.41,2.41,1.104,3.142s1.672,1.098,2.933,1.098c0.829,0,1.602-0.078,2.317-0.235c0.715-0.157,1.482-0.417,2.304-0.781
		v2.425c-0.728,0.347-1.464,0.592-2.209,0.736S352.847,122.818,351.891,122.818z M351.345,110.529c-0.948,0-1.708,0.3-2.278,0.901
		c-0.572,0.601-0.912,1.477-1.022,2.628h6.373c-0.017-1.16-0.296-2.038-0.838-2.634S352.293,110.529,351.345,110.529z"/>
	<path fill="#FFFFFF" d="M370.172,118.565c0,1.371-0.499,2.423-1.498,3.155s-2.429,1.098-4.291,1.098
		c-1.87,0-3.373-0.284-4.507-0.851v-2.577c1.65,0.762,3.187,1.143,4.608,1.143c1.837,0,2.755-0.554,2.755-1.663
		c0-0.355-0.102-0.652-0.305-0.889s-0.537-0.482-1.003-0.736s-1.113-0.542-1.942-0.863c-1.616-0.626-2.71-1.252-3.282-1.879
		c-0.57-0.626-0.856-1.439-0.856-2.438c0-1.202,0.484-2.135,1.454-2.799c0.969-0.665,2.287-0.997,3.954-0.997
		c1.65,0,3.212,0.334,4.685,1.003l-0.965,2.247c-1.515-0.626-2.789-0.939-3.821-0.939c-1.574,0-2.361,0.449-2.361,1.346
		c0,0.44,0.205,0.813,0.616,1.117c0.41,0.305,1.305,0.724,2.685,1.257c1.159,0.449,2.002,0.859,2.526,1.231s0.914,0.802,1.168,1.289
		S370.172,117.888,370.172,118.565z"/>
	<path fill="#FFFFFF" d="M382.83,118.565c0,1.371-0.499,2.423-1.498,3.155s-2.429,1.098-4.291,1.098
		c-1.87,0-3.373-0.284-4.507-0.851v-2.577c1.65,0.762,3.187,1.143,4.608,1.143c1.837,0,2.755-0.554,2.755-1.663
		c0-0.355-0.102-0.652-0.305-0.889s-0.537-0.482-1.003-0.736s-1.113-0.542-1.942-0.863c-1.616-0.626-2.711-1.252-3.281-1.879
		c-0.572-0.626-0.857-1.439-0.857-2.438c0-1.202,0.484-2.135,1.453-2.799c0.97-0.665,2.288-0.997,3.955-0.997
		c1.65,0,3.212,0.334,4.685,1.003l-0.965,2.247c-1.515-0.626-2.789-0.939-3.821-0.939c-1.574,0-2.361,0.449-2.361,1.346
		c0,0.44,0.205,0.813,0.615,1.117c0.411,0.305,1.306,0.724,2.686,1.257c1.159,0.449,2.002,0.859,2.526,1.231
		s0.914,0.802,1.168,1.289S382.83,117.888,382.83,118.565z"/>
	<path fill="#FFFFFF" d="M256.283,151.606c0.728,0,1.456-0.114,2.184-0.343v2.247c-0.33,0.144-0.755,0.265-1.276,0.362
		c-0.52,0.097-1.06,0.146-1.618,0.146c-2.827,0-4.24-1.49-4.24-4.469v-7.566h-1.917v-1.32l2.057-1.092l1.016-2.971h1.841v3.123
		h3.999v2.26h-3.999v7.516c0,0.719,0.18,1.25,0.54,1.593C255.227,151.435,255.699,151.606,256.283,151.606z"/>
	<path fill="#FFFFFF" d="M273.625,153.764h-2.996v-8.633c0-1.083-0.218-1.892-0.653-2.425c-0.437-0.533-1.128-0.8-2.076-0.8
		c-1.253,0-2.173,0.375-2.762,1.124c-0.588,0.749-0.882,2.004-0.882,3.764v6.97h-2.983V134.01h2.983v5.015
		c0,0.804-0.051,1.663-0.152,2.577h0.19c0.406-0.677,0.971-1.202,1.695-1.574c0.723-0.373,1.567-0.559,2.532-0.559
		c3.402,0,5.104,1.714,5.104,5.142V153.764z"/>
	<path fill="#FFFFFF" d="M283.908,154.018c-2.184,0-3.892-0.637-5.122-1.911c-1.232-1.274-1.848-3.028-1.848-5.262
		c0-2.293,0.571-4.096,1.714-5.408s2.713-1.968,4.71-1.968c1.854,0,3.317,0.563,4.393,1.688s1.612,2.674,1.612,4.646v1.612h-9.356
		c0.042,1.363,0.41,2.41,1.104,3.142s1.672,1.098,2.933,1.098c0.829,0,1.602-0.078,2.316-0.235c0.716-0.157,1.483-0.417,2.305-0.781
		v2.425c-0.728,0.347-1.464,0.592-2.209,0.736S284.864,154.018,283.908,154.018z M283.362,141.729c-0.948,0-1.707,0.3-2.279,0.901
		c-0.57,0.601-0.911,1.477-1.021,2.628h6.373c-0.017-1.16-0.296-2.038-0.838-2.634S284.31,141.729,283.362,141.729z"/>
	<path fill="#FFFFFF" d="M307.851,153.764l-5.383-15.501h-0.102c0.144,2.302,0.216,4.46,0.216,6.475v9.026h-2.755v-18.561h4.278
		l5.154,14.765h0.076l5.307-14.765h4.291v18.561h-2.92v-9.179c0-0.922,0.023-2.125,0.07-3.605c0.046-1.481,0.086-2.378,0.12-2.691
		h-0.102l-5.573,15.476H307.851z"/>
	<path fill="#FFFFFF" d="M335.958,146.718c0,2.293-0.588,4.083-1.765,5.37s-2.814,1.93-4.913,1.93c-1.312,0-2.472-0.296-3.479-0.889
		s-1.781-1.443-2.323-2.552s-0.813-2.395-0.813-3.859c0-2.277,0.584-4.054,1.752-5.332s2.814-1.917,4.938-1.917
		c2.031,0,3.64,0.654,4.824,1.961S335.958,144.501,335.958,146.718z M325.739,146.718c0,3.242,1.197,4.862,3.593,4.862
		c2.37,0,3.555-1.621,3.555-4.862c0-3.208-1.193-4.812-3.58-4.812c-1.253,0-2.16,0.415-2.724,1.244
		C326.02,143.98,325.739,145.169,325.739,146.718z"/>
	<path fill="#FFFFFF" d="M344.122,154.018c-1.752,0-3.119-0.635-4.101-1.904s-1.473-3.051-1.473-5.345
		c0-2.302,0.497-4.094,1.491-5.376c0.995-1.282,2.372-1.923,4.133-1.923c1.845,0,3.25,0.681,4.215,2.044h0.152
		c-0.144-1.007-0.216-1.803-0.216-2.387v-5.116h2.996v19.754h-2.336l-0.521-1.841h-0.14
		C347.368,153.32,345.966,154.018,344.122,154.018z M344.921,151.606c1.228,0,2.12-0.345,2.679-1.035s0.847-1.809,0.863-3.358
		v-0.419c0-1.769-0.288-3.026-0.863-3.771s-1.477-1.117-2.704-1.117c-1.05,0-1.857,0.425-2.425,1.276s-0.851,2.063-0.851,3.637
		c0,1.557,0.275,2.744,0.825,3.561S343.821,151.606,344.921,151.606z"/>
	<path fill="#FFFFFF" d="M361.717,154.018c-2.184,0-3.891-0.637-5.123-1.911c-1.23-1.274-1.847-3.028-1.847-5.262
		c0-2.293,0.571-4.096,1.714-5.408s2.713-1.968,4.71-1.968c1.854,0,3.317,0.563,4.393,1.688s1.612,2.674,1.612,4.646v1.612h-9.356
		c0.042,1.363,0.41,2.41,1.104,3.142s1.672,1.098,2.933,1.098c0.829,0,1.602-0.078,2.317-0.235c0.715-0.157,1.482-0.417,2.304-0.781
		v2.425c-0.728,0.347-1.464,0.592-2.209,0.736S362.673,154.018,361.717,154.018z M361.171,141.729c-0.948,0-1.708,0.3-2.278,0.901
		c-0.572,0.601-0.912,1.477-1.022,2.628h6.373c-0.017-1.16-0.296-2.038-0.838-2.634S362.12,141.729,361.171,141.729z"/>
	<path fill="#FFFFFF" d="M373.549,153.764h-2.983V134.01h2.983V153.764z"/>
	<path fill="#FFFFFF" d="M387.248,149.765c0,1.371-0.499,2.423-1.498,3.155s-2.429,1.098-4.291,1.098
		c-1.87,0-3.373-0.284-4.507-0.851v-2.577c1.65,0.762,3.187,1.143,4.608,1.143c1.837,0,2.755-0.554,2.755-1.663
		c0-0.355-0.102-0.652-0.305-0.889s-0.537-0.482-1.003-0.736s-1.113-0.542-1.942-0.863c-1.616-0.626-2.711-1.252-3.281-1.879
		c-0.572-0.626-0.857-1.439-0.857-2.438c0-1.202,0.484-2.135,1.453-2.799c0.97-0.665,2.288-0.997,3.955-0.997
		c1.65,0,3.212,0.334,4.685,1.003l-0.965,2.247c-1.515-0.626-2.789-0.939-3.821-0.939c-1.574,0-2.361,0.449-2.361,1.346
		c0,0.44,0.205,0.813,0.615,1.117c0.411,0.305,1.306,0.724,2.686,1.257c1.159,0.449,2.002,0.859,2.526,1.231
		s0.914,0.802,1.168,1.289S387.248,149.088,387.248,149.765z"/>
</g>
</svg>
