<?xml version="1.0" encoding="utf-8"?>
<!-- Generator: Adobe Illustrator 16.0.0, SVG Export Plug-In . SVG Version: 6.00 Build 0)  -->
<!DOCTYPE svg PUBLIC "-//W3C//DTD SVG 1.1//EN" "http://www.w3.org/Graphics/SVG/1.1/DTD/svg11.dtd">
<svg version="1.1" id="Layer_1" xmlns="http://www.w3.org/2000/svg" xmlns:xlink="http://www.w3.org/1999/xlink" x="0px" y="0px"
	 width="290.756px" height="263.865px" viewBox="0 0 290.756 263.865" enable-background="new 0 0 290.756 263.865"
	 xml:space="preserve">
<g>
	<rect x="46.166" y="225.439" fill="none" width="0.001" height="59.44"/>
	<path fill="#FFFFFF" d="M75.887,255.159c2.198-4.658,8.158-10.102,23.714-11.644c2.076-0.3,3.642-0.507,4.918-0.674
		c3.918-0.519,4.971-0.657,9.552-1.985c1.806-0.523,8.868-7.152,8.868-20.131c0-16.721-4.263-31.48-6.096-37.053
		c-0.047-0.146-0.167-0.567-0.333-1.137c-0.303-1.043-2.526-7.363-2.526-7.363c-1.204-3.213-2.452-6.538-3.263-9.951l-0.043-0.176
		c-1.222-4.942-5.239-23.014-5.524-47.997c0-2.536,2.253-4.73,3.599-6.042c0.246-0.24,0.463-0.451,0.626-0.629
		c1.296-1.402,3.001-3.132,4.976-5.135c1.301-1.321,2.736-2.777,4.279-4.368c2.47-2.545,5.227-4.871,7.89-7.119
		c3.275-2.765,6.663-5.623,9.448-8.846c4.158-4.816,8.003-13.242,7.308-20.034c-0.106-1.024,0.151-1.911,0.722-2.495
		c0.633-0.65,1.629-0.853,2.506-0.53c0.877-0.323,1.871-0.12,2.506,0.53c0.57,0.585,0.828,1.471,0.723,2.495
		c-0.695,6.791,3.148,15.218,7.311,20.034c2.78,3.223,6.168,6.081,9.445,8.846c2.665,2.248,5.42,4.575,7.889,7.119
		c1.545,1.591,2.979,3.047,4.279,4.368c1.975,2.003,3.68,3.733,4.975,5.135c0.164,0.178,0.382,0.389,0.629,0.629
		c1.346,1.312,3.598,3.506,3.598,6.027c-0.285,24.999-4.3,43.069-5.523,48.012l-0.043,0.175c-0.812,3.412-2.059,6.739-3.264,9.95
		c0,0-2.225,6.32-2.527,7.363c-0.164,0.571-0.283,0.992-0.332,1.137c-1.832,5.572-6.097,20.334-6.097,37.054
		c0,12.978,7.063,19.606,8.868,20.131c4.581,1.328,5.633,1.468,9.552,1.985c1.276,0.167,2.843,0.374,4.919,0.674
		c15.558,1.542,21.516,6.986,23.714,11.645h56.734c11,0,15.5-7.793,10-17.319L155.155,14.909c-5.5-9.526-14.5-9.526-20,0
		L6.446,237.841c-5.5,9.525-1,17.319,10,17.319v-0.001H75.887z"/>
	<rect x="75.887" y="255.159" fill="#FFFFFF" width="141.242" height="0.001"/>
	<path fill="#5e72e4" d="M193.415,243.515c-2.076-0.3-3.643-0.507-4.919-0.674c-3.919-0.518-4.971-0.657-9.552-1.985
		c-1.805-0.524-8.868-7.153-8.868-20.131c0-16.72,4.265-31.481,6.097-37.054c0.049-0.145,0.168-0.565,0.332-1.137
		c0.303-1.043,2.527-7.363,2.527-7.363c1.205-3.211,2.452-6.538,3.264-9.95l0.043-0.175c1.224-4.943,5.238-23.014,5.523-48.012
		c0-2.521-2.252-4.715-3.598-6.027c-0.247-0.24-0.465-0.451-0.629-0.629c-1.295-1.402-3-3.132-4.975-5.135
		c-1.301-1.321-2.734-2.777-4.279-4.368c-2.469-2.544-5.224-4.871-7.889-7.119c-3.277-2.765-6.665-5.623-9.445-8.846
		c-4.162-4.816-8.006-13.243-7.311-20.034c0.105-1.024-0.152-1.91-0.723-2.495c-0.635-0.65-1.629-0.854-2.506-0.53
		c-0.877-0.322-1.874-0.12-2.506,0.53c-0.571,0.584-0.828,1.471-0.722,2.495c0.695,6.792-3.15,15.218-7.308,20.034
		c-2.785,3.223-6.173,6.081-9.448,8.846c-2.663,2.248-5.42,4.574-7.89,7.119c-1.543,1.591-2.978,3.047-4.279,4.368
		c-1.975,2.003-3.68,3.733-4.976,5.135c-0.163,0.178-0.38,0.389-0.626,0.629c-1.346,1.312-3.599,3.506-3.599,6.042
		c0.285,24.983,4.302,43.055,5.524,47.997l0.043,0.176c0.811,3.413,2.059,6.738,3.263,9.951c0,0,2.223,6.32,2.526,7.363
		c0.166,0.569,0.286,0.991,0.333,1.137c1.833,5.572,6.096,20.332,6.096,37.053c0,12.979-7.062,19.607-8.868,20.131
		c-4.581,1.328-5.634,1.467-9.552,1.985c-1.276,0.167-2.842,0.374-4.918,0.674c-15.556,1.542-21.516,6.985-23.714,11.644h141.242
		C214.931,250.501,208.973,245.057,193.415,243.515z"/>
</g>
</svg>
