<?xml version="1.0" encoding="utf-8"?>
<!-- Generator: Adobe Illustrator 16.0.0, SVG Export Plug-In . SVG Version: 6.00 Build 0)  -->
<!DOCTYPE svg PUBLIC "-//W3C//DTD SVG 1.1//EN" "http://www.w3.org/Graphics/SVG/1.1/DTD/svg11.dtd" [
	<!ENTITY ns_extend "http://ns.adobe.com/Extensibility/1.0/">
	<!ENTITY ns_ai "http://ns.adobe.com/AdobeIllustrator/10.0/">
	<!ENTITY ns_graphs "http://ns.adobe.com/Graphs/1.0/">
	<!ENTITY ns_vars "http://ns.adobe.com/Variables/1.0/">
	<!ENTITY ns_imrep "http://ns.adobe.com/ImageReplacement/1.0/">
	<!ENTITY ns_sfw "http://ns.adobe.com/SaveForWeb/1.0/">
	<!ENTITY ns_custom "http://ns.adobe.com/GenericCustomNamespace/1.0/">
	<!ENTITY ns_adobe_xpath "http://ns.adobe.com/XPath/1.0/">
]>
<svg version="1.1" id="svg" xmlns:x="&ns_extend;" xmlns:i="&ns_ai;" xmlns:graph="&ns_graphs;"
	 xmlns="http://www.w3.org/2000/svg" xmlns:xlink="http://www.w3.org/1999/xlink" x="0px" y="0px" width="523.191px"
	 height="468.305px" viewBox="0 0 523.191 468.305" enable-background="new 0 0 523.191 468.305" xml:space="preserve">
<metadata>
	<sfw  xmlns="&ns_sfw;">
		<slices></slices>
		<sliceSourceBounds  width="518.715" height="377.584" x="52.406" y="191.231" bottomLeftOrigin="true"></sliceSourceBounds>
	</sfw>
</metadata>
<g id="Layer_2">
	<g id="left-arrow">
		<path fill="#FFFFFF" d="M101.32,207.651H9.946c-0.795,0-1.444-0.305-1.444-0.68c0-0.374,0.648-0.678,1.444-0.678h91.374
			c0.797,0,1.446,0.304,1.446,0.678C102.766,207.347,102.117,207.651,101.32,207.651z"/>
		<path fill="#FFFFFF" d="M85.085,224.651c-0.173,0-0.348-0.065-0.48-0.198c-0.265-0.265-0.265-0.694,0-0.959l16.523-16.523
			l-16.523-16.519c-0.265-0.265-0.265-0.693,0-0.959c0.265-0.265,0.694-0.265,0.959,0l17.002,16.996
			c0.127,0.129,0.198,0.301,0.198,0.48s-0.073,0.353-0.198,0.48l-17.002,17.001C85.432,224.585,85.258,224.651,85.085,224.651z"/>
	</g>
	<g id="right-arrow">
		<path fill="#FFFFFF" d="M434.398,204.05h91.374c0.796,0,1.444,0.305,1.444,0.679s-0.648,0.679-1.444,0.679h-91.374
			c-0.799,0-1.446-0.305-1.446-0.679S433.6,204.05,434.398,204.05z"/>
		<path fill="#FFFFFF" d="M450.633,187.048c0.175,0,0.349,0.066,0.48,0.198c0.265,0.265,0.265,0.694,0,0.959l-16.523,16.523
			l16.523,16.519c0.265,0.265,0.265,0.694,0,0.959c-0.266,0.265-0.694,0.265-0.959,0l-17.003-16.998
			c-0.127-0.128-0.197-0.299-0.197-0.479s0.072-0.353,0.197-0.479l17.003-17.003C450.286,187.114,450.46,187.048,450.633,187.048z"
			/>
	</g>
	<g id="bottom-arrow">
		<path fill="#FFFFFF" d="M268.985,371.536v65.654c0,0.573-0.303,1.039-0.679,1.039c-0.374,0-0.677-0.466-0.677-1.039v-65.654
			c0-0.573,0.303-1.039,0.677-1.039C268.683,370.497,268.985,370.963,268.985,371.536z"/>
		<path fill="#FFFFFF" d="M285.987,388.178c0,0.175-0.066,0.349-0.198,0.48c-0.265,0.265-0.694,0.265-0.959,0l-16.523-16.523
			l-16.52,16.523c-0.265,0.265-0.694,0.265-0.959,0s-0.265-0.694,0-0.959l16.997-17.003c0.129-0.127,0.301-0.197,0.48-0.197
			s0.353,0.072,0.48,0.197l17.002,17.003C285.921,387.832,285.987,388.006,285.987,388.178z"/>
	</g>
	<g>
		<path fill="#FFFFFF" d="M12.854,200.969l-2.054-6.692h-0.052c0.074,1.361,0.11,2.27,0.11,2.725v3.967H9.243v-8.529h2.462
			l2.018,6.522h0.035l2.141-6.522h2.462v8.529h-1.686v-4.038c0-0.19,0.003-0.41,0.009-0.659s0.032-0.91,0.079-1.983h-0.053
			l-2.2,6.681L12.854,200.969L12.854,200.969z"/>
		<path fill="#FFFFFF" d="M24.512,200.969l-0.345-0.888h-0.045c-0.3,0.378-0.607,0.64-0.925,0.785
			c-0.317,0.145-0.73,0.219-1.24,0.219c-0.626,0-1.119-0.18-1.479-0.537s-0.54-0.867-0.54-1.527c0-0.693,0.242-1.203,0.726-1.532
			s1.215-0.511,2.191-0.546l1.132-0.035v-0.285c0-0.661-0.338-0.992-1.016-0.992c-0.521,0-1.134,0.158-1.838,0.474l-0.59-1.202
			c0.751-0.393,1.583-0.59,2.498-0.59c0.875,0,1.546,0.19,2.012,0.572c0.466,0.381,0.7,0.961,0.7,1.738v4.347H24.512z
			 M23.987,197.945l-0.688,0.022c-0.518,0.017-0.902,0.109-1.155,0.28s-0.379,0.433-0.379,0.782c0,0.502,0.288,0.752,0.863,0.752
			c0.412,0,0.742-0.118,0.989-0.355c0.247-0.236,0.37-0.553,0.37-0.944V197.945z"/>
		<path fill="#FFFFFF" d="M30.235,201.085c-2.03,0-3.046-1.114-3.046-3.343c0-1.108,0.276-1.956,0.828-2.541
			c0.553-0.585,1.344-0.878,2.375-0.878c0.755,0,1.432,0.146,2.03,0.443l-0.524,1.377c-0.28-0.113-0.541-0.205-0.782-0.277
			c-0.241-0.072-0.482-0.107-0.724-0.107c-0.926,0-1.389,0.657-1.389,1.972c0,1.275,0.463,1.913,1.389,1.913
			c0.343,0,0.659-0.045,0.951-0.137c0.292-0.092,0.583-0.234,0.875-0.43v1.523c-0.288,0.183-0.579,0.309-0.872,0.379
			C31.053,201.05,30.683,201.085,30.235,201.085z"/>
		<path fill="#FFFFFF" d="M39.751,200.969h-1.779v-3.81c0-0.941-0.351-1.412-1.05-1.412c-0.498,0-0.857,0.169-1.08,0.508
			c-0.222,0.338-0.333,0.887-0.333,1.645v3.069H33.73v-9.079h1.779v1.85c0,0.145-0.014,0.482-0.041,1.016l-0.041,0.525h0.093
			c0.396-0.639,1.027-0.957,1.89-0.957c0.767,0,1.348,0.206,1.745,0.618s0.595,1.003,0.595,1.773V200.969z"/>
		<path fill="#FFFFFF" d="M41.507,192.759c0-0.58,0.322-0.869,0.969-0.869c0.646,0,0.969,0.289,0.969,0.869
			c0,0.275-0.081,0.49-0.242,0.645c-0.162,0.152-0.403,0.229-0.726,0.229C41.831,193.634,41.507,193.343,41.507,192.759z
			 M43.363,200.969h-1.779v-6.523h1.779V200.969z"/>
		<path fill="#FFFFFF" d="M51.251,200.969h-1.779v-3.81c0-0.471-0.083-0.824-0.251-1.059c-0.167-0.235-0.434-0.353-0.799-0.353
			c-0.498,0-0.857,0.166-1.08,0.499c-0.222,0.332-0.333,0.884-0.333,1.654v3.068H45.23v-6.523h1.359l0.239,0.834h0.1
			c0.198-0.314,0.472-0.553,0.819-0.715c0.348-0.16,0.744-0.241,1.187-0.241c0.759,0,1.334,0.205,1.727,0.615
			c0.392,0.41,0.589,1.003,0.589,1.776L51.251,200.969L51.251,200.969z"/>
		<path fill="#FFFFFF" d="M56.035,201.085c-1.051,0-1.871-0.289-2.462-0.869c-0.592-0.58-0.887-1.4-0.887-2.463
			c0-1.093,0.273-1.938,0.819-2.535c0.547-0.598,1.302-0.895,2.267-0.895c0.922,0,1.639,0.263,2.152,0.787
			c0.514,0.525,0.77,1.251,0.77,2.177v0.863h-4.207c0.02,0.506,0.169,0.9,0.449,1.185c0.28,0.283,0.673,0.426,1.179,0.426
			c0.394,0,0.765-0.041,1.114-0.123c0.35-0.081,0.716-0.211,1.097-0.391v1.377c-0.312,0.155-0.643,0.271-0.998,0.348
			S56.545,201.085,56.035,201.085z M55.784,195.589c-0.377,0-0.673,0.119-0.887,0.357c-0.214,0.24-0.336,0.579-0.367,1.019h2.497
			c-0.008-0.439-0.123-0.778-0.345-1.019C56.46,195.708,56.162,195.589,55.784,195.589z"/>
		<path fill="#FFFFFF" d="M9.243,219.888v-8.529h1.808v7.036h3.46v1.493H9.243z"/>
		<path fill="#FFFFFF" d="M18.806,220.004c-1.051,0-1.871-0.289-2.462-0.869c-0.592-0.579-0.887-1.399-0.887-2.462
			c0-1.094,0.273-1.938,0.819-2.535c0.547-0.598,1.302-0.896,2.267-0.896c0.922,0,1.639,0.263,2.152,0.787
			c0.514,0.525,0.77,1.251,0.77,2.177v0.863h-4.207c0.02,0.506,0.169,0.9,0.449,1.185c0.28,0.283,0.673,0.426,1.179,0.426
			c0.394,0,0.765-0.041,1.114-0.122c0.35-0.082,0.716-0.212,1.097-0.392v1.377c-0.312,0.155-0.643,0.271-0.998,0.348
			C19.745,219.968,19.315,220.004,18.806,220.004z M18.555,214.508c-0.377,0-0.673,0.119-0.887,0.358s-0.336,0.578-0.367,1.018
			h2.497c-0.008-0.439-0.123-0.778-0.345-1.018C19.231,214.627,18.933,214.508,18.555,214.508z"/>
		<path fill="#FFFFFF" d="M27.056,219.888l-0.344-0.887h-0.047c-0.3,0.377-0.607,0.639-0.925,0.784
			c-0.317,0.146-0.729,0.219-1.239,0.219c-0.626,0-1.12-0.179-1.479-0.536s-0.54-0.867-0.54-1.528c0-0.692,0.242-1.203,0.726-1.532
			c0.484-0.328,1.215-0.511,2.19-0.545l1.132-0.035v-0.286c0-0.661-0.339-0.991-1.016-0.991c-0.521,0-1.134,0.157-1.838,0.473
			l-0.589-1.202c0.75-0.393,1.583-0.589,2.497-0.589c0.875,0,1.546,0.189,2.013,0.571c0.466,0.382,0.7,0.961,0.7,1.738v4.347H27.056
			z M26.53,216.864l-0.688,0.023c-0.518,0.016-0.902,0.108-1.155,0.279c-0.253,0.172-0.379,0.433-0.379,0.782
			c0,0.502,0.288,0.753,0.863,0.753c0.412,0,0.742-0.119,0.989-0.355c0.247-0.237,0.371-0.553,0.371-0.945V216.864z"/>
		<path fill="#FFFFFF" d="M33.771,213.242c0.241,0,0.441,0.018,0.602,0.053l-0.134,1.669c-0.145-0.039-0.319-0.059-0.525-0.059
			c-0.567,0-1.011,0.146-1.327,0.437c-0.317,0.292-0.476,0.7-0.476,1.226v3.319h-1.779v-6.523h1.348l0.263,1.098h0.088
			c0.202-0.365,0.476-0.66,0.819-0.884C32.993,213.353,33.367,213.242,33.771,213.242z"/>
		<path fill="#FFFFFF" d="M41.578,219.888h-1.779v-3.81c0-0.471-0.083-0.823-0.251-1.059c-0.167-0.235-0.434-0.353-0.799-0.353
			c-0.498,0-0.857,0.166-1.08,0.499s-0.333,0.884-0.333,1.654v3.068h-1.779v-6.523h1.359l0.239,0.835h0.1
			c0.198-0.314,0.472-0.554,0.819-0.715s0.744-0.242,1.187-0.242c0.759,0,1.334,0.205,1.727,0.615
			c0.393,0.41,0.589,1.003,0.589,1.776L41.578,219.888L41.578,219.888z"/>
		<path fill="#FFFFFF" d="M43.333,211.678c0-0.579,0.322-0.869,0.969-0.869c0.646,0,0.969,0.29,0.969,0.869
			c0,0.276-0.081,0.491-0.242,0.645c-0.162,0.153-0.403,0.229-0.726,0.229C43.657,212.553,43.333,212.262,43.333,211.678z
			 M45.189,219.888H43.41v-6.523h1.779V219.888z"/>
		<path fill="#FFFFFF" d="M53.078,219.888h-1.779v-3.81c0-0.471-0.083-0.823-0.251-1.059c-0.167-0.235-0.434-0.353-0.799-0.353
			c-0.498,0-0.857,0.166-1.08,0.499s-0.333,0.884-0.333,1.654v3.068h-1.779v-6.523h1.359l0.239,0.835h0.1
			c0.198-0.314,0.472-0.554,0.819-0.715s0.744-0.242,1.187-0.242c0.759,0,1.334,0.205,1.727,0.615
			c0.392,0.41,0.589,1.003,0.589,1.776L53.078,219.888L53.078,219.888z"/>
		<path fill="#FFFFFF" d="M60.587,213.364v0.904l-1.021,0.263c0.188,0.292,0.28,0.619,0.28,0.98c0,0.7-0.244,1.245-0.732,1.637
			c-0.488,0.392-1.166,0.587-2.033,0.587l-0.32-0.019l-0.263-0.028c-0.183,0.14-0.274,0.295-0.274,0.467
			c0,0.257,0.327,0.385,0.98,0.385h1.108c0.716,0,1.262,0.153,1.637,0.462c0.375,0.308,0.563,0.759,0.563,1.353
			c0,0.763-0.318,1.354-0.954,1.773c-0.636,0.421-1.549,0.631-2.739,0.631c-0.91,0-1.605-0.158-2.086-0.477
			c-0.48-0.317-0.721-0.762-0.721-1.333c0-0.394,0.123-0.722,0.368-0.985c0.245-0.265,0.604-0.453,1.079-0.566
			c-0.183-0.077-0.342-0.205-0.478-0.382c-0.135-0.178-0.204-0.364-0.204-0.563c0-0.249,0.072-0.456,0.216-0.622
			c0.144-0.165,0.353-0.327,0.624-0.486c-0.342-0.147-0.613-0.386-0.813-0.712c-0.2-0.327-0.301-0.712-0.301-1.155
			c0-0.712,0.231-1.263,0.694-1.65c0.463-0.389,1.124-0.584,1.983-0.584c0.183,0,0.399,0.017,0.65,0.05s0.411,0.058,0.481,0.072
			L60.587,213.364L60.587,213.364z M55.551,220.809c0,0.245,0.117,0.438,0.353,0.578c0.235,0.14,0.564,0.21,0.989,0.21
			c0.638,0,1.138-0.088,1.5-0.263c0.361-0.176,0.542-0.415,0.542-0.719c0-0.244-0.106-0.414-0.32-0.508
			c-0.214-0.094-0.545-0.14-0.992-0.14H56.7c-0.327,0-0.601,0.076-0.819,0.229C55.662,220.351,55.551,220.556,55.551,220.809z
			 M56.198,215.499c0,0.354,0.081,0.635,0.242,0.841s0.407,0.31,0.738,0.31c0.334,0,0.58-0.104,0.735-0.31s0.233-0.486,0.233-0.841
			c0-0.785-0.323-1.179-0.969-1.179C56.526,214.321,56.198,214.714,56.198,215.499z"/>
	</g>
	<g>
		<path fill="#FFFFFF" d="M482.322,199.973l-0.618-2.03h-3.109l-0.618,2.03h-1.949l3.011-8.565h2.211l3.022,8.565H482.322z
			 M481.272,196.425c-0.572-1.84-0.894-2.881-0.966-3.121c-0.073-0.241-0.124-0.433-0.155-0.572
			c-0.128,0.498-0.495,1.729-1.102,3.693H481.272z"/>
		<path fill="#FFFFFF" d="M488.846,193.327c0.241,0,0.441,0.018,0.602,0.053l-0.135,1.669c-0.145-0.039-0.318-0.059-0.524-0.059
			c-0.567,0-1.011,0.146-1.327,0.437c-0.317,0.292-0.477,0.701-0.477,1.225v3.32h-1.779v-6.523h1.349l0.263,1.098h0.088
			c0.202-0.365,0.476-0.66,0.819-0.885C488.067,193.438,488.44,193.327,488.846,193.327z"/>
		<path fill="#FFFFFF" d="M493.378,198.671c0.313,0,0.686-0.067,1.121-0.203v1.324c-0.443,0.197-0.988,0.297-1.635,0.297
			c-0.712,0-1.229-0.18-1.555-0.539c-0.326-0.359-0.487-0.899-0.487-1.619v-3.145h-0.852v-0.753l0.98-0.596l0.514-1.377h1.138v1.39
			h1.826v1.336h-1.826v3.145c0,0.253,0.07,0.439,0.213,0.561S493.146,198.671,493.378,198.671z"/>
		<path fill="#FFFFFF" d="M495.741,191.763c0-0.58,0.322-0.869,0.969-0.869s0.969,0.289,0.969,0.869c0,0.275-0.08,0.491-0.241,0.645
			c-0.162,0.153-0.403,0.23-0.727,0.23C496.064,192.638,495.741,192.347,495.741,191.763z M497.598,199.973h-1.779v-6.522h1.779
			V199.973z"/>
		<path fill="#FFFFFF" d="M503.07,194.786h-1.541v5.187h-1.779v-5.187h-0.979v-0.857l0.979-0.479v-0.478
			c0-0.743,0.184-1.286,0.549-1.628c0.365-0.343,0.951-0.514,1.757-0.514c0.614,0,1.161,0.092,1.639,0.273l-0.455,1.308
			c-0.357-0.112-0.688-0.169-0.992-0.169c-0.253,0-0.436,0.074-0.548,0.225c-0.113,0.15-0.17,0.342-0.17,0.574v0.408h1.541V194.786
			L503.07,194.786z M504.015,191.763c0-0.58,0.323-0.869,0.969-0.869c0.646,0,0.97,0.289,0.97,0.869
			c0,0.275-0.081,0.491-0.242,0.645s-0.403,0.23-0.726,0.23C504.338,192.638,504.015,192.347,504.015,191.763z M505.87,199.973
			h-1.779v-6.522h1.779V199.973z"/>
		<path fill="#FFFFFF" d="M510.38,200.089c-2.03,0-3.046-1.113-3.046-3.342c0-1.109,0.275-1.956,0.828-2.541
			c0.553-0.586,1.345-0.879,2.375-0.879c0.755,0,1.432,0.147,2.03,0.443l-0.524,1.377c-0.28-0.113-0.541-0.205-0.782-0.277
			c-0.24-0.071-0.481-0.107-0.724-0.107c-0.926,0-1.389,0.658-1.389,1.972c0,1.276,0.463,1.914,1.389,1.914
			c0.343,0,0.659-0.046,0.951-0.138s0.583-0.234,0.875-0.429v1.522c-0.288,0.184-0.578,0.31-0.872,0.379
			C511.197,200.054,510.828,200.089,510.38,200.089z"/>
		<path fill="#FFFFFF" d="M513.799,191.763c0-0.58,0.323-0.869,0.969-0.869c0.646,0,0.97,0.289,0.97,0.869
			c0,0.275-0.081,0.491-0.242,0.645s-0.403,0.23-0.727,0.23C514.122,192.638,513.799,192.347,513.799,191.763z M515.654,199.973
			h-1.779v-6.522h1.779V199.973z"/>
		<path fill="#FFFFFF" d="M521.665,199.973l-0.345-0.888h-0.047c-0.3,0.378-0.607,0.64-0.925,0.785
			c-0.318,0.146-0.73,0.219-1.24,0.219c-0.626,0-1.119-0.179-1.479-0.536s-0.54-0.867-0.54-1.528c0-0.692,0.242-1.203,0.727-1.531
			c0.483-0.329,1.214-0.512,2.19-0.547l1.132-0.034v-0.286c0-0.66-0.339-0.991-1.016-0.991c-0.521,0-1.134,0.157-1.838,0.473
			l-0.59-1.202c0.751-0.393,1.583-0.589,2.497-0.589c0.876,0,1.547,0.19,2.013,0.571s0.7,0.961,0.7,1.738v4.347H521.665z
			 M521.139,196.95l-0.688,0.022c-0.519,0.016-0.902,0.108-1.155,0.28c-0.253,0.171-0.38,0.432-0.38,0.781
			c0,0.502,0.288,0.753,0.863,0.753c0.413,0,0.742-0.118,0.989-0.355s0.37-0.553,0.37-0.945V196.95L521.139,196.95z"/>
		<path fill="#FFFFFF" d="M526.519,199.973h-1.779v-9.078h1.779V199.973z"/>
		<path fill="#FFFFFF" d="M458.664,218.892v-8.529h1.808v8.529H458.664z"/>
		<path fill="#FFFFFF" d="M468.501,218.892h-1.779v-3.81c0-0.471-0.084-0.823-0.251-1.059c-0.168-0.234-0.435-0.353-0.8-0.353
			c-0.498,0-0.857,0.167-1.08,0.499c-0.222,0.333-0.332,0.885-0.332,1.654v3.068h-1.779v-6.522h1.359l0.238,0.834h0.1
			c0.198-0.314,0.473-0.554,0.819-0.715c0.348-0.161,0.744-0.242,1.188-0.242c0.759,0,1.334,0.205,1.727,0.616
			c0.393,0.41,0.59,1.002,0.59,1.776L468.501,218.892L468.501,218.892z"/>
		<path fill="#FFFFFF" d="M473.08,217.591c0.312,0,0.685-0.068,1.12-0.204v1.324c-0.443,0.198-0.987,0.298-1.634,0.298
			c-0.712,0-1.229-0.181-1.556-0.54c-0.325-0.359-0.486-0.899-0.486-1.619v-3.145h-0.852v-0.753l0.979-0.596l0.514-1.377h1.139v1.39
			h1.826v1.336h-1.826v3.145c0,0.253,0.07,0.439,0.213,0.561C472.66,217.532,472.847,217.591,473.08,217.591z"/>
		<path fill="#FFFFFF" d="M478.472,219.009c-1.05,0-1.871-0.29-2.462-0.869c-0.592-0.58-0.888-1.4-0.888-2.463
			c0-1.094,0.273-1.938,0.819-2.535c0.547-0.598,1.303-0.896,2.267-0.896c0.922,0,1.639,0.263,2.153,0.788
			c0.514,0.524,0.77,1.251,0.77,2.177v0.863h-4.207c0.02,0.506,0.169,0.9,0.449,1.184c0.279,0.284,0.673,0.427,1.179,0.427
			c0.394,0,0.765-0.041,1.114-0.123c0.35-0.081,0.716-0.212,1.098-0.392v1.378c-0.313,0.155-0.644,0.271-0.998,0.348
			C479.411,218.972,478.98,219.009,478.472,219.009z M478.221,213.512c-0.377,0-0.673,0.12-0.887,0.358
			c-0.214,0.239-0.337,0.579-0.367,1.018h2.497c-0.008-0.438-0.123-0.778-0.345-1.018
			C478.897,213.632,478.599,213.512,478.221,213.512z"/>
		<path fill="#FFFFFF" d="M484.358,218.892h-1.779v-9.078h1.779V218.892z"/>
		<path fill="#FFFFFF" d="M488.005,218.892h-1.779v-9.078h1.779V218.892z"/>
		<path fill="#FFFFFF" d="M489.797,210.682c0-0.579,0.322-0.869,0.969-0.869s0.969,0.29,0.969,0.869
			c0,0.276-0.081,0.491-0.242,0.645s-0.403,0.23-0.726,0.23C490.119,211.558,489.797,211.266,489.797,210.682z M491.651,218.892
			h-1.779v-6.522h1.779V218.892z"/>
		<path fill="#FFFFFF" d="M499.195,212.369v0.903l-1.021,0.264c0.188,0.291,0.28,0.618,0.28,0.979c0,0.7-0.244,1.246-0.732,1.637
			c-0.487,0.392-1.166,0.587-2.033,0.587l-0.32-0.018l-0.263-0.029c-0.184,0.141-0.274,0.296-0.274,0.467
			c0,0.257,0.327,0.386,0.979,0.386h1.108c0.716,0,1.262,0.153,1.638,0.461c0.375,0.308,0.563,0.759,0.563,1.354
			c0,0.763-0.318,1.353-0.954,1.773c-0.637,0.42-1.55,0.63-2.739,0.63c-0.91,0-1.605-0.158-2.086-0.476
			c-0.481-0.318-0.722-0.762-0.722-1.334c0-0.393,0.123-0.722,0.368-0.985s0.604-0.453,1.079-0.565
			c-0.184-0.078-0.343-0.205-0.478-0.383c-0.136-0.177-0.204-0.364-0.204-0.563c0-0.249,0.071-0.456,0.216-0.621
			s0.353-0.328,0.624-0.487c-0.343-0.147-0.613-0.385-0.813-0.712c-0.2-0.326-0.301-0.712-0.301-1.155
			c0-0.712,0.231-1.262,0.694-1.65s1.124-0.584,1.983-0.584c0.184,0,0.399,0.018,0.65,0.05c0.251,0.033,0.411,0.058,0.48,0.073
			L499.195,212.369L499.195,212.369z M494.16,219.813c0,0.244,0.117,0.437,0.353,0.577c0.234,0.141,0.564,0.21,0.988,0.21
			c0.639,0,1.139-0.088,1.5-0.263c0.361-0.176,0.543-0.414,0.543-0.718c0-0.245-0.107-0.414-0.321-0.508s-0.545-0.141-0.991-0.141
			h-0.923c-0.326,0-0.6,0.076-0.819,0.229C494.271,219.354,494.16,219.561,494.16,219.813z M494.809,214.504
			c0,0.354,0.08,0.634,0.241,0.84c0.162,0.206,0.407,0.31,0.738,0.31c0.335,0,0.579-0.104,0.734-0.31
			c0.156-0.206,0.233-0.485,0.233-0.84c0-0.786-0.322-1.179-0.969-1.179C495.135,213.326,494.809,213.718,494.809,214.504z"/>
		<path fill="#FFFFFF" d="M503.222,219.009c-1.051,0-1.871-0.29-2.463-0.869c-0.592-0.58-0.887-1.4-0.887-2.463
			c0-1.094,0.272-1.938,0.819-2.535c0.546-0.598,1.302-0.896,2.266-0.896c0.923,0,1.64,0.263,2.153,0.788
			c0.514,0.524,0.77,1.251,0.77,2.177v0.863h-4.207c0.02,0.506,0.169,0.9,0.449,1.184c0.279,0.284,0.673,0.427,1.179,0.427
			c0.394,0,0.765-0.041,1.114-0.123c0.35-0.081,0.716-0.212,1.098-0.392v1.378c-0.312,0.155-0.644,0.271-0.998,0.348
			C504.16,218.972,503.731,219.009,503.222,219.009z M502.971,213.512c-0.378,0-0.674,0.12-0.888,0.358
			c-0.214,0.239-0.336,0.579-0.367,1.018h2.497c-0.008-0.438-0.122-0.778-0.345-1.018
			C503.646,213.632,503.348,213.512,502.971,213.512z"/>
		<path fill="#FFFFFF" d="M513.351,218.892h-1.78v-3.81c0-0.471-0.083-0.823-0.251-1.059c-0.167-0.234-0.434-0.353-0.799-0.353
			c-0.498,0-0.857,0.167-1.08,0.499c-0.222,0.333-0.332,0.885-0.332,1.654v3.068h-1.779v-6.522h1.359l0.238,0.834h0.1
			c0.198-0.314,0.473-0.554,0.819-0.715c0.348-0.161,0.744-0.242,1.188-0.242c0.759,0,1.334,0.205,1.727,0.616
			c0.393,0.41,0.589,1.002,0.589,1.776v4.252H513.351z"/>
		<path fill="#FFFFFF" d="M517.831,219.009c-2.03,0-3.046-1.114-3.046-3.343c0-1.108,0.275-1.956,0.828-2.541
			c0.553-0.586,1.345-0.879,2.375-0.879c0.755,0,1.432,0.147,2.03,0.443l-0.524,1.377c-0.28-0.112-0.541-0.205-0.782-0.276
			c-0.24-0.072-0.481-0.107-0.724-0.107c-0.926,0-1.389,0.657-1.389,1.971c0,1.276,0.463,1.914,1.389,1.914
			c0.343,0,0.659-0.046,0.951-0.137c0.292-0.092,0.583-0.234,0.875-0.43v1.522c-0.288,0.184-0.578,0.31-0.872,0.38
			C518.648,218.973,518.278,219.009,517.831,219.009z"/>
		<path fill="#FFFFFF" d="M524.278,219.009c-1.051,0-1.871-0.29-2.463-0.869c-0.591-0.58-0.887-1.4-0.887-2.463
			c0-1.094,0.272-1.938,0.819-2.535s1.303-0.896,2.267-0.896c0.922,0,1.639,0.263,2.152,0.788c0.514,0.524,0.77,1.251,0.77,2.177
			v0.863h-4.207c0.021,0.506,0.17,0.9,0.449,1.184c0.28,0.284,0.674,0.427,1.18,0.427c0.393,0,0.765-0.041,1.114-0.123
			c0.35-0.081,0.716-0.212,1.097-0.392v1.378c-0.312,0.155-0.643,0.271-0.997,0.348
			C525.218,218.972,524.787,219.009,524.278,219.009z M524.027,213.512c-0.377,0-0.673,0.12-0.887,0.358
			c-0.215,0.239-0.337,0.579-0.368,1.018h2.498c-0.009-0.438-0.123-0.778-0.345-1.018
			C524.703,213.632,524.404,213.512,524.027,213.512z"/>
	</g>
	<g>
		<path fill="#FFFFFF" d="M281.108,413.284c0,1.403-0.399,2.479-1.199,3.226c-0.8,0.747-1.954,1.12-3.463,1.12h-2.416v-8.529h2.678
			c1.392,0,2.473,0.367,3.244,1.103C280.723,410.938,281.108,411.966,281.108,413.284z M279.229,413.331
			c0-1.833-0.81-2.749-2.427-2.749h-0.963v5.555h0.775C278.358,416.137,279.229,415.201,279.229,413.331z"/>
		<path fill="#FFFFFF" d="M285.688,417.748c-1.051,0-1.871-0.29-2.463-0.869c-0.591-0.58-0.887-1.4-0.887-2.463
			c0-1.094,0.272-1.938,0.819-2.535s1.303-0.896,2.267-0.896c0.922,0,1.639,0.263,2.152,0.788c0.514,0.524,0.77,1.25,0.77,2.177
			v0.863h-4.207c0.021,0.506,0.17,0.9,0.449,1.184c0.28,0.284,0.673,0.427,1.179,0.427c0.394,0,0.766-0.041,1.114-0.123
			c0.35-0.081,0.717-0.212,1.098-0.392v1.378c-0.312,0.155-0.644,0.271-0.998,0.347
			C286.627,417.711,286.198,417.748,285.688,417.748z M285.438,412.251c-0.378,0-0.673,0.12-0.888,0.358
			c-0.214,0.239-0.336,0.579-0.367,1.018h2.497c-0.008-0.438-0.122-0.778-0.344-1.018
			C286.113,412.371,285.814,412.251,285.438,412.251z"/>
		<path fill="#FFFFFF" d="M292.748,417.748c-1.051,0-1.871-0.29-2.462-0.869c-0.592-0.58-0.888-1.4-0.888-2.463
			c0-1.094,0.272-1.938,0.819-2.535s1.303-0.896,2.267-0.896c0.922,0,1.639,0.263,2.152,0.788c0.515,0.524,0.771,1.25,0.771,2.177
			v0.863H291.2c0.02,0.506,0.169,0.9,0.448,1.184c0.28,0.284,0.674,0.427,1.18,0.427c0.393,0,0.765-0.041,1.114-0.123
			c0.35-0.081,0.716-0.212,1.097-0.392v1.378c-0.312,0.155-0.643,0.271-0.997,0.347
			C293.688,417.711,293.258,417.748,292.748,417.748z M292.497,412.251c-0.377,0-0.673,0.12-0.887,0.358
			c-0.215,0.239-0.337,0.579-0.368,1.018h2.498c-0.008-0.438-0.123-0.778-0.345-1.018
			C293.173,412.371,292.875,412.251,292.497,412.251z"/>
		<path fill="#FFFFFF" d="M300.438,417.748c-0.767,0-1.367-0.278-1.804-0.835h-0.094c0.063,0.545,0.094,0.859,0.094,0.945v2.643
			h-1.779v-9.394h1.447l0.251,0.846h0.081c0.417-0.645,1.033-0.969,1.85-0.969c0.77,0,1.373,0.298,1.808,0.893
			c0.436,0.594,0.653,1.422,0.653,2.479c0,0.695-0.103,1.301-0.307,1.813c-0.204,0.514-0.494,0.904-0.872,1.174
			C301.39,417.612,300.947,417.748,300.438,417.748z M299.913,412.408c-0.439,0-0.762,0.136-0.963,0.405
			c-0.203,0.271-0.309,0.717-0.315,1.34v0.191c0,0.7,0.104,1.202,0.312,1.506c0.209,0.304,0.538,0.455,0.989,0.455
			c0.798,0,1.196-0.657,1.196-1.972c0-0.642-0.099-1.123-0.295-1.443C300.641,412.569,300.333,412.408,299.913,412.408z"/>
		<path fill="#FFFFFF" d="M274.031,436.55v-8.53h1.809v7.036h3.46v1.494H274.031z"/>
		<path fill="#FFFFFF" d="M283.595,436.667c-1.051,0-1.871-0.29-2.463-0.869c-0.592-0.58-0.887-1.4-0.887-2.463
			c0-1.093,0.272-1.938,0.819-2.535c0.546-0.598,1.302-0.895,2.266-0.895c0.923,0,1.64,0.263,2.153,0.787s0.77,1.251,0.77,2.177
			v0.863h-4.207c0.02,0.506,0.169,0.9,0.449,1.184c0.279,0.284,0.673,0.427,1.179,0.427c0.394,0,0.765-0.041,1.114-0.123
			c0.35-0.081,0.716-0.212,1.098-0.391v1.377c-0.312,0.155-0.644,0.271-0.998,0.348C284.533,436.63,284.104,436.667,283.595,436.667
			z M283.344,431.171c-0.378,0-0.674,0.119-0.888,0.358c-0.214,0.238-0.337,0.578-0.367,1.018h2.497
			c-0.008-0.439-0.122-0.779-0.345-1.018C284.02,431.29,283.721,431.171,283.344,431.171z"/>
		<path fill="#FFFFFF" d="M291.844,436.55l-0.345-0.888h-0.046c-0.3,0.378-0.607,0.64-0.926,0.785
			c-0.317,0.145-0.729,0.219-1.239,0.219c-0.626,0-1.119-0.18-1.479-0.537s-0.54-0.867-0.54-1.528c0-0.691,0.242-1.203,0.726-1.531
			c0.484-0.329,1.215-0.511,2.191-0.546l1.132-0.034v-0.286c0-0.661-0.339-0.992-1.016-0.992c-0.521,0-1.134,0.158-1.838,0.474
			l-0.59-1.202c0.751-0.394,1.583-0.59,2.497-0.59c0.876,0,1.547,0.19,2.013,0.572c0.466,0.381,0.7,0.961,0.7,1.738v4.347H291.844
			L291.844,436.55z M291.318,433.527l-0.688,0.022c-0.518,0.017-0.901,0.109-1.154,0.28s-0.38,0.433-0.38,0.781
			c0,0.502,0.288,0.753,0.863,0.753c0.412,0,0.742-0.118,0.989-0.355c0.246-0.236,0.37-0.553,0.37-0.944V433.527z"/>
		<path fill="#FFFFFF" d="M298.56,429.905c0.241,0,0.441,0.018,0.602,0.053l-0.135,1.669c-0.145-0.039-0.318-0.06-0.524-0.06
			c-0.568,0-1.011,0.146-1.328,0.438c-0.316,0.292-0.476,0.7-0.476,1.225v3.32h-1.779v-6.523h1.349l0.263,1.098h0.088
			c0.201-0.366,0.476-0.661,0.819-0.885C297.78,430.016,298.155,429.905,298.56,429.905z"/>
		<path fill="#FFFFFF" d="M306.366,436.55h-1.779v-3.811c0-0.471-0.084-0.823-0.251-1.058c-0.168-0.235-0.435-0.353-0.8-0.353
			c-0.498,0-0.857,0.166-1.079,0.498c-0.223,0.333-0.333,0.885-0.333,1.654v3.069h-1.779v-6.523h1.359l0.238,0.834h0.1
			c0.198-0.314,0.473-0.554,0.82-0.715s0.743-0.242,1.187-0.242c0.759,0,1.334,0.206,1.727,0.616s0.59,1.002,0.59,1.776
			L306.366,436.55L306.366,436.55z"/>
		<path fill="#FFFFFF" d="M308.121,428.341c0-0.58,0.323-0.869,0.97-0.869c0.646,0,0.969,0.289,0.969,0.869
			c0,0.275-0.081,0.49-0.242,0.644s-0.403,0.23-0.726,0.23C308.445,429.216,308.121,428.924,308.121,428.341z M309.978,436.55
			h-1.779v-6.523h1.779V436.55z"/>
		<path fill="#FFFFFF" d="M317.866,436.55h-1.779v-3.811c0-0.471-0.084-0.823-0.251-1.058c-0.168-0.235-0.435-0.353-0.8-0.353
			c-0.498,0-0.857,0.166-1.079,0.498c-0.223,0.333-0.333,0.885-0.333,1.654v3.069h-1.779v-6.523h1.359l0.238,0.834h0.1
			c0.198-0.314,0.473-0.554,0.82-0.715c0.347-0.161,0.743-0.242,1.187-0.242c0.759,0,1.334,0.206,1.727,0.616s0.59,1.002,0.59,1.776
			L317.866,436.55L317.866,436.55z"/>
		<path fill="#FFFFFF" d="M325.375,430.027v0.904l-1.021,0.263c0.187,0.292,0.279,0.618,0.279,0.979c0,0.7-0.244,1.246-0.731,1.638
			c-0.488,0.391-1.166,0.586-2.033,0.586l-0.321-0.018l-0.263-0.029c-0.183,0.141-0.273,0.296-0.273,0.467
			c0,0.258,0.326,0.386,0.979,0.386h1.108c0.716,0,1.262,0.153,1.637,0.461c0.376,0.308,0.563,0.759,0.563,1.354
			c0,0.763-0.317,1.354-0.953,1.773c-0.637,0.42-1.55,0.63-2.739,0.63c-0.91,0-1.605-0.158-2.087-0.476
			c-0.48-0.317-0.721-0.762-0.721-1.333c0-0.394,0.123-0.723,0.367-0.986c0.245-0.264,0.604-0.453,1.08-0.565
			c-0.184-0.078-0.343-0.205-0.479-0.383c-0.135-0.177-0.204-0.364-0.204-0.563c0-0.249,0.072-0.456,0.217-0.621
			c0.144-0.165,0.352-0.327,0.624-0.487c-0.343-0.146-0.613-0.385-0.813-0.712c-0.2-0.326-0.301-0.712-0.301-1.154
			c0-0.712,0.23-1.263,0.694-1.651c0.463-0.389,1.124-0.583,1.983-0.583c0.183,0,0.399,0.017,0.65,0.05
			c0.251,0.032,0.411,0.058,0.48,0.072L325.375,430.027L325.375,430.027z M320.339,437.472c0,0.245,0.118,0.437,0.353,0.577
			c0.235,0.141,0.565,0.21,0.989,0.21c0.639,0,1.138-0.087,1.5-0.263c0.361-0.175,0.542-0.414,0.542-0.718
			c0-0.245-0.106-0.414-0.32-0.508s-0.545-0.141-0.992-0.141h-0.922c-0.326,0-0.601,0.077-0.819,0.23
			S320.339,437.219,320.339,437.472z M320.986,432.162c0,0.354,0.081,0.635,0.242,0.841s0.407,0.31,0.738,0.31
			c0.334,0,0.579-0.104,0.734-0.31s0.233-0.486,0.233-0.841c0-0.785-0.323-1.179-0.969-1.179
			C321.313,430.984,320.986,431.377,320.986,432.162z"/>
	</g>
</g>
<g id="Layer_1">
	<g id="Layer_1_1_">
		<g>
			<path id="circle" fill="#FFFFFF" d="M396.361,206.15c0,0.979,0,2.099,0,3.08c-0.139,6.717-0.839,13.297-1.958,19.734
				c-10.778,59.49-62.849,104.562-125.278,104.562c-52.21,0-97.002-31.353-116.738-76.284c-4.619-10.498-7.84-21.695-9.519-33.594
				c-0.84-5.739-1.259-11.617-1.259-17.637c0-70.267,56.969-127.376,127.376-127.376C339.393,78.773,396.361,135.884,396.361,206.15
				z"/>
			<g opacity="0.9">
				<path id="green_1_" opacity="0.9" fill="#00BA9D" enable-background="new    " d="M155.466,263.68
					c-3.079-6.02-5.599-12.178-7.559-18.337c-18.756-57.529,5.74-121.917,60.749-151.452
					c45.911-24.774,100.362-18.337,138.855,11.898c9.098,6.998,17.216,15.397,24.214,25.055
					c-22.257-13.438-90.843-10.218-115.059,8.959C210.336,176.476,206.417,268.579,155.466,263.68z"/>
				<path id="red" opacity="0.9" fill="#F70045" enable-background="new    " d="M306.078,84.512
					c6.44,1.96,12.599,4.34,18.479,7.279c54.449,26.314,83.844,88.463,67.047,148.792c-13.999,50.251-56.27,85.105-104.841,91.963
					c-11.338,1.68-23.095,1.68-34.853,0.14c25.195-6.718,70.267-58.368,73.206-89.163
					C330.994,184.454,267.306,117.827,306.078,84.512z"/>
				<path id="blue" fill="#32A4EA" d="M388.384,250.942c-21.137,56.549-80.345,91.683-141.934,80.625
					c-51.371-9.237-89.864-48.15-101.341-95.742c29.674-14.557,54.87-17.637,102.88,18.195
					C292.922,287.336,363.188,269.839,388.384,250.942z"/>
			</g>
			<g id="outer-circle">
				<path fill="#FFFFFF" d="M268.286,350.604C268.286,350.604,268.146,350.604,268.286,350.604c-2.381,0-4.76-0.141-7.139-0.28
					c-0.98,0-1.68-0.839-1.68-1.818s0.839-1.682,1.818-1.682c2.381,0.141,4.619,0.141,6.998,0.141c0.98,0,1.819,0.842,1.682,1.82
					C269.966,349.763,269.125,350.604,268.286,350.604z M248.829,349.063c-0.14,0-0.14,0-0.279,0
					c-7.139-0.979-14.138-2.52-20.996-4.62c-0.98-0.279-1.4-1.26-1.12-2.239c0.28-0.979,1.259-1.398,2.239-1.119
					c6.719,1.96,13.578,3.499,20.436,4.479c0.98,0.141,1.68,0.979,1.539,1.96C250.368,348.505,249.669,349.063,248.829,349.063z
					 M289.421,349.063c-0.839,0-1.539-0.561-1.681-1.54c-0.14-0.979,0.561-1.819,1.54-1.96c4.06-0.561,8.118-1.399,12.038-2.24
					c0.979-0.278,1.819,0.422,2.1,1.261c0.278,0.979-0.421,1.82-1.261,2.099c-4.059,0.979-8.259,1.681-12.317,2.381
					C289.562,349.063,289.421,349.063,289.421,349.063z M308.458,345.005c-0.7,0-1.4-0.562-1.681-1.26
					c-0.278-0.98,0.279-1.962,1.262-2.101c6.718-1.959,13.297-4.337,19.596-7.278c0.841-0.421,1.961,0,2.38,0.84
					c0.421,0.84,0,1.96-0.84,2.38c-6.438,2.939-13.297,5.459-20.155,7.419C308.738,345.005,308.598,345.005,308.458,345.005z
					 M221.394,342.345c-0.141,0-0.42,0-0.561-0.141c-3.919-1.398-7.839-2.939-11.618-4.759c-0.839-0.42-1.259-1.399-0.839-2.38
					c0.42-0.841,1.4-1.26,2.38-0.841c3.64,1.681,7.559,3.219,11.337,4.621c0.841,0.277,1.4,1.26,1.121,2.239
					C222.794,341.925,222.094,342.345,221.394,342.345z M339.393,331.987c-0.561,0-1.26-0.279-1.54-0.841
					c-0.42-0.839-0.14-1.96,0.7-2.38c1.96-1.119,4.06-2.381,6.02-3.639c0.839-0.561,1.959-0.279,2.381,0.561
					c0.561,0.842,0.278,1.961-0.561,2.381c-1.96,1.26-4.061,2.52-6.159,3.639C339.951,331.987,339.673,331.987,339.393,331.987z
					 M191.299,327.508c-0.28,0-0.7-0.14-0.979-0.278c-1.96-1.261-3.919-2.661-5.879-4.059c-0.841-0.561-0.98-1.681-0.42-2.381
					c0.56-0.841,1.68-0.979,2.38-0.42c1.82,1.398,3.779,2.659,5.739,3.92c0.84,0.561,0.98,1.681,0.56,2.38
					C192.419,327.228,191.86,327.508,191.299,327.508z M175.763,315.75c-0.419,0-0.839-0.141-1.12-0.42
					c-5.458-4.621-10.498-9.799-15.117-15.257c-0.7-0.7-0.56-1.82,0.14-2.521c0.7-0.56,1.82-0.56,2.519,0.142
					c4.479,5.319,9.519,10.356,14.838,14.837c0.7,0.699,0.839,1.681,0.139,2.519C176.743,315.609,176.182,315.75,175.763,315.75z
					 M362.488,315.75c-0.42,0-0.979-0.141-1.261-0.561c-0.7-0.698-0.561-1.818,0.141-2.518c3.08-2.66,6.02-5.459,8.817-8.4
					c0.699-0.7,1.819-0.7,2.52,0c0.698,0.7,0.698,1.82,0,2.52c-2.939,2.939-6.02,5.879-9.1,8.678
					C363.188,315.609,362.768,315.75,362.488,315.75z M376.206,302.033c-0.423,0-0.842-0.141-1.12-0.421
					c-0.7-0.699-0.842-1.681-0.142-2.519c4.62-5.178,8.818-10.919,12.597-16.796c0.561-0.841,1.54-0.979,2.38-0.561
					c0.841,0.561,0.98,1.54,0.561,2.38c-3.921,6.02-8.259,11.759-12.879,17.217C377.186,301.752,376.766,302.033,376.206,302.033z
					 M156.306,295.314c-0.56,0-0.979-0.279-1.399-0.699c-2.519-3.359-5.04-6.719-7.279-10.219c-0.56-0.841-0.28-1.96,0.561-2.381
					c0.839-0.561,1.96-0.279,2.38,0.561c2.239,3.359,4.619,6.719,7.139,9.938c0.561,0.7,0.42,1.82-0.28,2.52
					C157.006,295.173,156.586,295.314,156.306,295.314z M395.242,274.318c-0.278,0-0.561,0-0.839-0.141
					c-0.841-0.42-1.12-1.54-0.7-2.38c1.119-2.1,2.099-4.201,3.081-6.299c0.419-0.841,1.397-1.261,2.38-0.841
					c0.839,0.421,1.26,1.399,0.839,2.38c-0.978,2.101-2.098,4.339-3.217,6.439C396.501,274.037,395.942,274.318,395.242,274.318z
					 M138.949,266.479c-0.7,0-1.26-0.42-1.54-0.979c-0.98-2.239-1.959-4.339-2.8-6.579c-0.28-0.839,0.141-1.96,0.98-2.239
					s1.959,0.143,2.239,0.979c0.839,2.099,1.819,4.338,2.66,6.439c0.419,0.84,0,1.96-0.84,2.38
					C139.509,266.479,139.23,266.479,138.949,266.479z M132.23,248.282c-0.7,0-1.4-0.561-1.68-1.262
					c-1.959-6.858-3.499-13.856-4.479-20.996c-0.141-0.978,0.561-1.818,1.539-1.96c0.979-0.14,1.819,0.562,1.96,1.541
					c0.979,6.859,2.379,13.856,4.339,20.436c0.28,0.978-0.28,1.96-1.12,2.239C132.511,248.282,132.37,248.282,132.23,248.282z
					 M405.88,248.144c-0.142,0-0.279,0-0.561,0c-0.978-0.279-1.397-1.261-1.119-2.241c1.119-3.919,2.099-7.836,2.938-11.896
					c0.142-0.979,1.12-1.54,2.1-1.399c0.979,0.141,1.54,1.119,1.399,2.099c-0.842,4.059-1.819,8.118-2.939,12.178
					C407.419,247.582,406.721,248.144,405.88,248.144z M410.079,229.105c-0.14,0-0.14,0-0.28,0c-0.978-0.142-1.68-0.979-1.539-1.961
					c0.979-6.859,1.539-13.857,1.539-20.854v-0.28c0-0.979,0.842-1.819,1.82-1.819c0.979,0,1.819,0.84,1.819,1.819v0.28
					c0,7.139-0.561,14.417-1.54,21.415C411.619,228.546,410.92,229.105,410.079,229.105z M126.912,220.428
					c-0.84,0-1.68-0.698-1.68-1.54c-0.419-4.199-0.56-8.398-0.56-12.596c0-0.98,0.839-1.819,1.819-1.819l0,0
					c0.98,0,1.82,0.839,1.82,1.68c0,4.06,0.14,8.118,0.561,12.178c0.141,0.979-0.7,1.819-1.54,1.959
					C127.052,220.428,127.052,220.428,126.912,220.428z M411.059,195.231c-0.841,0-1.681-0.699-1.681-1.539
					c-0.14-2.239-0.419-4.619-0.839-6.999c-0.141-0.979,0.561-1.819,1.539-1.96c0.979-0.14,1.819,0.561,1.96,1.54
					c0.28,2.38,0.561,4.76,0.84,7.138c0.142,0.98-0.56,1.82-1.539,1.961C411.199,195.231,411.059,195.231,411.059,195.231z
					 M127.891,186.974c-0.14,0-0.14,0-0.28,0c-0.979-0.141-1.68-0.98-1.54-1.96c0.28-2.38,0.7-4.759,1.26-6.998
					c0.141-0.979,1.12-1.54,2.099-1.399c0.98,0.14,1.54,1.119,1.4,2.098c-0.419,2.241-0.839,4.62-1.259,6.859
					C129.571,186.273,128.871,186.974,127.891,186.974z M132.09,167.938c-0.14,0-0.28,0-0.56-0.14c-0.98-0.28-1.4-1.26-1.26-2.24
					c1.959-6.858,4.479-13.578,7.559-20.156c0.419-0.84,1.4-1.26,2.38-0.84c0.839,0.42,1.26,1.4,0.839,2.38
					c-2.939,6.299-5.458,12.878-7.418,19.597C133.631,167.377,132.93,167.938,132.09,167.938z M405.74,167.518
					c-0.697,0-1.397-0.561-1.68-1.26c-1.12-3.919-2.519-7.839-3.921-11.617c-0.42-0.841,0.142-1.96,0.979-2.239
					c0.84-0.28,1.96,0.139,2.239,0.979c1.54,3.919,2.939,7.839,4.059,11.897c0.28,0.98-0.279,1.961-1.119,2.24
					C406.16,167.377,406.021,167.518,405.74,167.518z M399.021,149.181c-0.7,0-1.262-0.419-1.542-0.98
					c-2.938-6.299-6.297-12.597-10.077-18.336c-0.561-0.84-0.279-1.959,0.561-2.38c0.84-0.56,1.959-0.28,2.38,0.561
					c3.921,6.019,7.279,12.317,10.219,18.896c0.42,0.839,0,1.96-0.841,2.38C399.581,149.181,399.302,149.181,399.021,149.181z
					 M142.729,141.763c-0.28,0-0.56,0-0.839-0.141c-0.841-0.42-1.121-1.539-0.7-2.38c1.959-3.64,4.06-7.278,6.299-10.778
					c0.561-0.839,1.539-1.12,2.379-0.56c0.841,0.56,1.121,1.54,0.561,2.38c-2.24,3.359-4.34,7-6.159,10.639
					C143.988,141.343,143.289,141.763,142.729,141.763z M381.664,120.486c-0.56,0-0.978-0.28-1.398-0.7
					c-1.398-1.819-2.938-3.639-4.48-5.459c-0.697-0.699-0.56-1.818,0.142-2.52c0.7-0.559,1.82-0.559,2.52,0.141
					c1.54,1.82,3.08,3.641,4.479,5.6c0.561,0.699,0.421,1.819-0.279,2.52C382.505,120.346,382.085,120.486,381.664,120.486z
					 M161.765,114.047c-0.42,0-0.839-0.14-1.12-0.419c-0.7-0.7-0.839-1.68-0.141-2.52c1.54-1.82,3.219-3.499,4.899-5.319
					c0.7-0.7,1.82-0.7,2.52,0c0.7,0.7,0.7,1.82,0,2.519c-1.68,1.681-3.219,3.36-4.759,5.18
					C162.746,113.767,162.185,114.047,161.765,114.047z M175.483,100.329c-0.42,0-0.979-0.141-1.26-0.561
					c-0.7-0.699-0.561-1.818,0.14-2.52c5.458-4.758,11.198-8.957,17.217-12.877c0.839-0.561,1.96-0.28,2.38,0.561
					c0.561,0.839,0.28,1.959-0.56,2.379c-5.879,3.779-11.478,7.979-16.797,12.599C176.322,100.19,175.902,100.329,175.483,100.329z
					 M362.209,100.05c-0.421,0-0.841-0.14-1.121-0.42c-3.079-2.659-6.298-5.18-9.657-7.559c-0.841-0.561-0.979-1.681-0.42-2.379
					c0.561-0.84,1.681-0.98,2.381-0.42c3.359,2.38,6.719,5.041,9.799,7.839c0.699,0.7,0.839,1.68,0.14,2.519
					C363.188,99.77,362.768,100.05,362.209,100.05z M346.671,88.292c-0.28,0-0.7-0.141-0.979-0.28
					c-5.879-3.778-12.038-7.138-18.337-10.079c-0.84-0.419-1.26-1.398-0.84-2.379c0.421-0.84,1.399-1.26,2.38-0.84
					c6.44,2.939,12.879,6.438,18.897,10.357c0.841,0.561,0.979,1.68,0.561,2.38C347.79,88.012,347.231,88.292,346.671,88.292z
					 M198.578,83.952c-0.56,0-1.259-0.279-1.539-0.84c-0.42-0.84-0.141-1.959,0.7-2.379c3.64-2.1,7.418-4.061,11.198-5.738
					c0.839-0.421,1.96,0,2.38,0.839c0.419,0.839,0,1.96-0.84,2.38c-3.64,1.68-7.418,3.639-10.917,5.6
					C199.138,83.813,198.858,83.952,198.578,83.952z M316.577,73.454c-0.14,0-0.42,0-0.561-0.141
					c-2.239-0.84-4.479-1.539-6.719-2.099c-0.979-0.28-1.399-1.26-1.119-2.241c0.279-0.979,1.259-1.398,2.239-1.119
					c2.239,0.701,4.619,1.399,6.859,2.24c0.841,0.279,1.399,1.26,1.119,2.239C317.977,73.035,317.277,73.454,316.577,73.454z
					 M229.513,70.935c-0.699,0-1.399-0.561-1.68-1.26c-0.279-0.979,0.28-1.959,1.26-2.099c2.24-0.7,4.619-1.26,7-1.82
					c0.839-0.28,1.68,0.28,1.959,1.26s-0.42,1.82-1.26,2.099c-2.239,0.561-4.479,1.121-6.719,1.82
					C229.792,70.935,229.653,70.935,229.513,70.935z M248.549,66.735c-0.839,0-1.539-0.559-1.681-1.539
					c-0.141-0.979,0.561-1.819,1.539-1.959c6.72-0.84,13.718-1.4,20.576-1.4h0.7c0.979,0,1.681,0.84,1.681,1.818
					c0,0.98-0.84,1.681-1.82,1.681l0,0h-0.699C262.127,65.336,255.269,65.756,248.549,66.735
					C248.689,66.735,248.549,66.735,248.549,66.735z M289.142,66.735c-0.141,0-0.141,0-0.28,0
					c-4.058-0.559-8.117-0.979-12.177-1.119c-0.979,0-1.681-0.84-1.681-1.82c0-0.979,0.842-1.68,1.82-1.68
					c4.199,0.28,8.4,0.561,12.458,1.26c0.979,0.141,1.681,0.98,1.541,1.96C290.682,66.036,289.982,66.735,289.142,66.735z"/>
			</g>
		</g>
	</g>
	<g id="theText">
		<g>
			<path fill="#FFFFFF" d="M332.9,174.788c-0.681,0-1.208,0.256-1.581,0.768s-0.561,1.225-0.561,2.139
				c0,1.901,0.714,2.853,2.141,2.853c0.6,0,1.324-0.149,2.177-0.449v1.517c-0.7,0.291-1.481,0.438-2.345,0.438
				c-1.24,0-2.189-0.377-2.847-1.129c-0.657-0.754-0.986-1.834-0.986-3.242c0-0.887,0.162-1.664,0.484-2.33
				c0.322-0.668,0.786-1.18,1.391-1.535s1.313-0.533,2.127-0.533c0.829,0,1.661,0.199,2.498,0.602l-0.584,1.471
				c-0.318-0.152-0.641-0.284-0.963-0.396C333.529,174.845,333.212,174.788,332.9,174.788z"/>
			<path fill="#FFFFFF" d="M341.372,181.937l-0.238-0.835h-0.094c-0.19,0.304-0.461,0.538-0.811,0.702
				c-0.35,0.166-0.749,0.248-1.196,0.248c-0.767,0-1.344-0.205-1.732-0.615c-0.388-0.41-0.583-1-0.583-1.77v-4.254h1.779v3.811
				c0,0.471,0.083,0.823,0.251,1.059c0.167,0.234,0.434,0.352,0.8,0.352c0.497,0,0.856-0.166,1.079-0.498
				c0.222-0.333,0.332-0.885,0.332-1.654v-3.068h1.78v6.522L341.372,181.937L341.372,181.937z"/>
			<path fill="#FFFFFF" d="M349.155,179.999c0,0.669-0.232,1.18-0.697,1.528c-0.465,0.35-1.16,0.524-2.086,0.524
				c-0.475,0-0.879-0.031-1.214-0.096c-0.334-0.064-0.647-0.158-0.938-0.283v-1.471c0.33,0.155,0.702,0.285,1.117,0.392
				c0.414,0.105,0.778,0.157,1.094,0.157c0.646,0,0.969-0.188,0.969-0.561c0-0.141-0.042-0.254-0.128-0.342
				s-0.233-0.188-0.443-0.298s-0.49-0.239-0.841-0.388c-0.501-0.211-0.87-0.404-1.104-0.584c-0.235-0.18-0.406-0.385-0.514-0.615
				c-0.108-0.23-0.161-0.518-0.161-0.854c0-0.579,0.226-1.027,0.675-1.345c0.449-0.318,1.086-0.477,1.91-0.477
				c0.786,0,1.551,0.172,2.294,0.514l-0.537,1.283c-0.326-0.14-0.632-0.254-0.916-0.344s-0.573-0.135-0.869-0.135
				c-0.525,0-0.788,0.143-0.788,0.426c0,0.16,0.085,0.299,0.254,0.414c0.17,0.117,0.54,0.291,1.111,0.52
				c0.51,0.206,0.884,0.398,1.12,0.578c0.237,0.179,0.412,0.385,0.525,0.617C349.1,179.395,349.155,179.675,349.155,179.999z"/>
			<path fill="#FFFFFF" d="M353.293,180.634c0.312,0,0.685-0.067,1.12-0.203v1.324c-0.443,0.197-0.988,0.297-1.635,0.297
				c-0.712,0-1.229-0.18-1.555-0.539c-0.326-0.359-0.487-0.899-0.487-1.619v-3.145h-0.852v-0.753l0.98-0.595l0.514-1.378h1.138v1.39
				h1.826v1.336h-1.826v3.145c0,0.253,0.071,0.439,0.213,0.561C352.872,180.575,353.059,180.634,353.293,180.634z"/>
			<path fill="#FFFFFF" d="M361.659,178.663c0,1.061-0.28,1.892-0.841,2.491c-0.561,0.599-1.34,0.897-2.34,0.897
				c-0.626,0-1.179-0.137-1.657-0.41c-0.478-0.274-0.846-0.668-1.102-1.183c-0.257-0.514-0.386-1.112-0.386-1.798
				c0-1.064,0.277-1.893,0.834-2.484s1.339-0.888,2.346-0.888c0.626,0,1.179,0.137,1.656,0.408c0.479,0.272,0.847,0.663,1.103,1.173
				S361.659,177.978,361.659,178.663z M357.149,178.663c0,0.645,0.105,1.134,0.317,1.465c0.212,0.33,0.558,0.496,1.035,0.496
				c0.476,0,0.816-0.165,1.024-0.494c0.208-0.328,0.312-0.816,0.312-1.467c0-0.646-0.104-1.131-0.314-1.453
				c-0.211-0.322-0.555-0.484-1.033-0.484c-0.475,0-0.816,0.16-1.026,0.481S357.149,178.013,357.149,178.663z"/>
			<path fill="#FFFFFF" d="M368.97,181.937h-1.779v-3.811c0-0.471-0.079-0.823-0.236-1.059c-0.157-0.234-0.405-0.352-0.744-0.352
				c-0.454,0-0.785,0.166-0.991,0.501s-0.31,0.886-0.31,1.651v3.068h-1.779v-6.523h1.359l0.238,0.835h0.1
				c0.176-0.3,0.429-0.534,0.759-0.703c0.331-0.169,0.71-0.254,1.139-0.254c0.976,0,1.638,0.319,1.983,0.957h0.157
				c0.175-0.304,0.433-0.538,0.772-0.706c0.34-0.167,0.725-0.251,1.152-0.251c0.738,0,1.298,0.189,1.678,0.569
				c0.379,0.379,0.568,0.986,0.568,1.822v4.254h-1.785v-3.811c0-0.471-0.079-0.823-0.236-1.059
				c-0.157-0.234-0.405-0.352-0.743-0.352c-0.437,0-0.762,0.154-0.978,0.467c-0.215,0.311-0.323,0.805-0.323,1.481L368.97,181.937
				L368.97,181.937z"/>
			<path fill="#FFFFFF" d="M377.814,182.052c-1.05,0-1.87-0.289-2.462-0.869c-0.592-0.579-0.888-1.399-0.888-2.462
				c0-1.093,0.273-1.938,0.82-2.535c0.546-0.598,1.302-0.896,2.266-0.896c0.922,0,1.64,0.264,2.153,0.788s0.77,1.251,0.77,2.177
				v0.863h-4.207c0.02,0.506,0.169,0.9,0.449,1.184c0.279,0.283,0.673,0.426,1.179,0.426c0.394,0,0.765-0.041,1.114-0.122
				s0.716-0.212,1.098-0.392v1.377c-0.313,0.156-0.644,0.271-0.998,0.348C378.754,182.016,378.323,182.052,377.814,182.052z
				 M377.563,176.556c-0.377,0-0.673,0.119-0.887,0.358s-0.337,0.579-0.367,1.019h2.497c-0.008-0.439-0.122-0.779-0.345-1.019
				C378.24,176.675,377.941,176.556,377.563,176.556z"/>
			<path fill="#FFFFFF" d="M385.563,175.29c0.241,0,0.441,0.018,0.602,0.053l-0.134,1.669c-0.145-0.038-0.319-0.059-0.525-0.059
				c-0.567,0-1.011,0.146-1.327,0.437c-0.316,0.293-0.476,0.701-0.476,1.226v3.319h-1.78v-6.523h1.349l0.263,1.098h0.088
				c0.202-0.365,0.476-0.66,0.819-0.884S385.158,175.29,385.563,175.29z"/>
			<path fill="#FFFFFF" d="M336.268,196.274l-0.618-2.03h-3.11l-0.618,2.03h-1.948l3.01-8.565h2.212l3.021,8.565H336.268z
				 M335.217,192.728c-0.571-1.84-0.894-2.881-0.966-3.121c-0.072-0.241-0.123-0.433-0.154-0.572
				c-0.129,0.498-0.496,1.729-1.103,3.693H335.217z"/>
			<path fill="#FFFFFF" d="M345.17,196.274h-1.779v-3.81c0-0.472-0.083-0.823-0.251-1.059c-0.167-0.235-0.434-0.353-0.799-0.353
				c-0.498,0-0.857,0.166-1.08,0.499c-0.222,0.333-0.332,0.884-0.332,1.653v3.069h-1.779v-6.522h1.358l0.239,0.834h0.1
				c0.198-0.314,0.472-0.554,0.819-0.715s0.744-0.242,1.188-0.242c0.759,0,1.334,0.205,1.727,0.615
				c0.392,0.41,0.589,1.003,0.589,1.777L345.17,196.274L345.17,196.274z"/>
			<path fill="#FFFFFF" d="M351.145,196.274l-0.345-0.887h-0.046c-0.3,0.377-0.607,0.639-0.926,0.784
				c-0.317,0.146-0.729,0.22-1.239,0.22c-0.627,0-1.119-0.18-1.479-0.537s-0.54-0.867-0.54-1.529c0-0.691,0.242-1.202,0.726-1.531
				c0.484-0.328,1.215-0.51,2.191-0.545l1.132-0.035v-0.285c0-0.662-0.339-0.992-1.016-0.992c-0.521,0-1.134,0.157-1.838,0.473
				l-0.59-1.201c0.751-0.395,1.583-0.59,2.497-0.59c0.876,0,1.547,0.189,2.013,0.571s0.7,0.961,0.7,1.739v4.346H351.145z
				 M350.62,193.253l-0.688,0.022c-0.518,0.017-0.901,0.108-1.154,0.28c-0.253,0.171-0.38,0.432-0.38,0.781
				c0,0.502,0.288,0.753,0.863,0.753c0.412,0,0.742-0.118,0.989-0.355c0.246-0.237,0.37-0.553,0.37-0.945V193.253z"/>
			<path fill="#FFFFFF" d="M355.999,196.274h-1.779v-9.078h1.779V196.274z"/>
			<path fill="#FFFFFF" d="M356.933,189.751h1.949l1.23,3.671c0.104,0.318,0.178,0.696,0.216,1.132h0.035
				c0.043-0.4,0.127-0.777,0.251-1.132l1.208-3.671h1.908l-2.76,7.357c-0.253,0.682-0.613,1.19-1.082,1.529
				c-0.469,0.338-1.017,0.508-1.643,0.508c-0.308,0-0.608-0.033-0.903-0.1v-1.412c0.214,0.051,0.446,0.076,0.699,0.076
				c0.315,0,0.591-0.098,0.826-0.289c0.234-0.192,0.419-0.483,0.552-0.873l0.104-0.32L356.933,189.751z"/>
			<path fill="#FFFFFF" d="M367.411,194.974c0.312,0,0.686-0.067,1.12-0.203v1.324c-0.442,0.197-0.987,0.297-1.634,0.297
				c-0.712,0-1.229-0.18-1.556-0.539c-0.325-0.359-0.486-0.899-0.486-1.619v-3.145h-0.852v-0.753l0.979-0.595l0.514-1.378h1.139
				v1.39h1.826v1.336h-1.826v3.145c0,0.253,0.07,0.439,0.213,0.561S367.179,194.974,367.411,194.974z"/>
			<path fill="#FFFFFF" d="M369.774,188.065c0-0.579,0.322-0.869,0.969-0.869s0.969,0.29,0.969,0.869
				c0,0.275-0.081,0.491-0.242,0.645s-0.403,0.23-0.726,0.23C370.098,188.94,369.774,188.649,369.774,188.065z M371.63,196.274
				h-1.779v-6.523h1.779V196.274z"/>
			<path fill="#FFFFFF" d="M376.146,196.392c-2.031,0-3.047-1.115-3.047-3.344c0-1.107,0.276-1.955,0.829-2.541
				c0.553-0.585,1.344-0.878,2.375-0.878c0.755,0,1.432,0.147,2.03,0.443l-0.525,1.377c-0.279-0.112-0.54-0.205-0.781-0.276
				c-0.241-0.072-0.482-0.107-0.724-0.107c-0.927,0-1.39,0.656-1.39,1.971c0,1.275,0.463,1.914,1.39,1.914
				c0.342,0,0.659-0.046,0.95-0.137c0.292-0.092,0.584-0.234,0.876-0.43v1.522c-0.288,0.183-0.579,0.31-0.873,0.38
				C376.964,196.355,376.593,196.392,376.146,196.392z"/>
			<path fill="#FFFFFF" d="M384.191,194.338c0,0.669-0.231,1.179-0.697,1.528c-0.465,0.35-1.159,0.525-2.086,0.525
				c-0.475,0-0.879-0.032-1.214-0.098c-0.334-0.064-0.646-0.158-0.938-0.282v-1.471c0.33,0.155,0.703,0.286,1.117,0.392
				s0.778,0.157,1.095,0.157c0.645,0,0.969-0.188,0.969-0.561c0-0.141-0.043-0.254-0.129-0.342
				c-0.086-0.087-0.233-0.187-0.443-0.298c-0.21-0.11-0.489-0.24-0.84-0.389c-0.502-0.209-0.87-0.404-1.105-0.583
				s-0.406-0.384-0.514-0.615s-0.16-0.517-0.16-0.854c0-0.58,0.225-1.027,0.674-1.346c0.449-0.317,1.086-0.476,1.911-0.476
				c0.785,0,1.55,0.171,2.293,0.514l-0.537,1.284c-0.326-0.141-0.632-0.256-0.916-0.346c-0.283-0.089-0.573-0.134-0.869-0.134
				c-0.524,0-0.787,0.143-0.787,0.427c0,0.158,0.084,0.297,0.254,0.414c0.169,0.116,0.539,0.289,1.111,0.519
				c0.51,0.206,0.883,0.397,1.12,0.577c0.236,0.18,0.412,0.386,0.524,0.619C384.136,193.733,384.191,194.015,384.191,194.338z"/>
		</g>
		<g>
			<path fill="#FFFFFF" d="M218.826,291.395h-1.808v-7.025h-2.316v-1.505h6.441v1.505h-2.316L218.826,291.395L218.826,291.395z"/>
			<path fill="#FFFFFF" d="M222.238,283.186c0-0.58,0.323-0.869,0.969-0.869c0.646,0,0.969,0.289,0.969,0.869
				c0,0.275-0.081,0.491-0.242,0.645c-0.162,0.153-0.403,0.229-0.726,0.229C222.562,284.061,222.238,283.769,222.238,283.186z
				 M224.094,291.395h-1.779v-6.523h1.779V291.395z"/>
			<path fill="#FFFFFF" d="M231.802,291.395h-1.779v-3.81c0-0.472-0.079-0.824-0.236-1.059c-0.157-0.235-0.405-0.353-0.744-0.353
				c-0.455,0-0.785,0.167-0.992,0.502c-0.205,0.334-0.309,0.885-0.309,1.65v3.069h-1.779v-6.523h1.359l0.238,0.835h0.1
				c0.176-0.3,0.428-0.534,0.759-0.703c0.331-0.17,0.71-0.254,1.138-0.254c0.977,0,1.639,0.318,1.984,0.957h0.156
				c0.176-0.304,0.434-0.539,0.773-0.706c0.34-0.168,0.725-0.251,1.152-0.251c0.738,0,1.298,0.188,1.678,0.568
				c0.379,0.379,0.568,0.986,0.568,1.823v4.253h-1.785v-3.81c0-0.472-0.079-0.824-0.236-1.059c-0.157-0.235-0.405-0.353-0.744-0.353
				c-0.436,0-0.762,0.155-0.977,0.467s-0.324,0.806-0.324,1.481V291.395L231.802,291.395z"/>
			<path fill="#FFFFFF" d="M240.646,291.511c-1.05,0-1.87-0.29-2.462-0.869s-0.888-1.4-0.888-2.463c0-1.093,0.272-1.938,0.819-2.535
				c0.547-0.597,1.303-0.895,2.267-0.895c0.922,0,1.64,0.263,2.153,0.787c0.514,0.525,0.77,1.251,0.77,2.177v0.863h-4.207
				c0.02,0.506,0.169,0.9,0.449,1.185c0.279,0.283,0.673,0.426,1.179,0.426c0.394,0,0.765-0.041,1.114-0.122
				c0.35-0.082,0.716-0.213,1.098-0.392v1.377c-0.313,0.155-0.645,0.271-0.998,0.348
				C241.585,291.474,241.155,291.511,240.646,291.511z M240.396,286.016c-0.377,0-0.673,0.119-0.887,0.358
				c-0.215,0.238-0.337,0.578-0.367,1.018h2.497c-0.009-0.439-0.122-0.779-0.345-1.018
				C241.071,286.135,240.772,286.016,240.396,286.016z"/>
			<path fill="#FFFFFF" d="M253.032,289.025c0,0.77-0.276,1.377-0.831,1.82c-0.554,0.443-1.325,0.665-2.313,0.665
				c-0.91,0-1.715-0.171-2.415-0.514v-1.681c0.575,0.257,1.063,0.437,1.462,0.543c0.398,0.105,0.764,0.157,1.094,0.157
				c0.396,0,0.701-0.076,0.914-0.229c0.211-0.152,0.316-0.377,0.316-0.677c0-0.167-0.047-0.315-0.14-0.446
				c-0.094-0.131-0.229-0.256-0.411-0.376c-0.182-0.121-0.55-0.313-1.105-0.578c-0.521-0.245-0.912-0.479-1.173-0.706
				c-0.261-0.226-0.47-0.487-0.624-0.787c-0.156-0.3-0.233-0.649-0.233-1.051c0-0.755,0.256-1.349,0.768-1.779
				c0.512-0.432,1.219-0.647,2.121-0.647c0.442,0,0.866,0.053,1.269,0.157s0.823,0.253,1.264,0.443l-0.584,1.406
				c-0.455-0.188-0.831-0.317-1.129-0.392c-0.298-0.075-0.59-0.11-0.879-0.11c-0.342,0-0.604,0.079-0.787,0.239
				c-0.184,0.159-0.273,0.367-0.273,0.624c0,0.159,0.037,0.299,0.11,0.417s0.19,0.233,0.353,0.345
				c0.161,0.111,0.543,0.311,1.146,0.599c0.797,0.381,1.344,0.764,1.639,1.146C252.884,287.997,253.032,288.47,253.032,289.025z"/>
			<path fill="#FFFFFF" d="M257.392,291.511c-1.051,0-1.871-0.29-2.463-0.869s-0.887-1.4-0.887-2.463
				c0-1.093,0.272-1.938,0.818-2.535c0.547-0.597,1.303-0.895,2.268-0.895c0.922,0,1.639,0.263,2.152,0.787
				c0.514,0.525,0.77,1.251,0.77,2.177v0.863h-4.207c0.02,0.506,0.17,0.9,0.449,1.185c0.279,0.283,0.673,0.426,1.179,0.426
				c0.394,0,0.765-0.041,1.114-0.122c0.35-0.082,0.716-0.213,1.098-0.392v1.377c-0.313,0.155-0.644,0.271-0.998,0.348
				C258.33,291.474,257.901,291.511,257.392,291.511z M257.14,286.016c-0.377,0-0.672,0.119-0.887,0.358
				c-0.214,0.238-0.336,0.578-0.367,1.018h2.497c-0.008-0.439-0.122-0.779-0.345-1.018
				C257.816,286.135,257.518,286.016,257.14,286.016z"/>
			<path fill="#FFFFFF" d="M265.14,284.749c0.24,0,0.44,0.018,0.602,0.053l-0.135,1.669c-0.145-0.039-0.318-0.059-0.525-0.059
				c-0.567,0-1.01,0.145-1.327,0.437c-0.316,0.292-0.476,0.7-0.476,1.225v3.32h-1.779v-6.523h1.348l0.264,1.098h0.087
				c0.202-0.365,0.476-0.66,0.819-0.885C264.36,284.859,264.735,284.749,265.14,284.749z"/>
			<path fill="#FFFFFF" d="M266.849,283.186c0-0.58,0.322-0.869,0.969-0.869s0.969,0.289,0.969,0.869
				c0,0.275-0.08,0.491-0.242,0.645c-0.16,0.153-0.402,0.229-0.726,0.229C267.171,284.061,266.849,283.769,266.849,283.186z
				 M268.704,291.395h-1.779v-6.523h1.779V291.395z"/>
			<path fill="#FFFFFF" d="M273.523,291.511c-1.051,0-1.871-0.29-2.463-0.869c-0.591-0.579-0.887-1.4-0.887-2.463
				c0-1.093,0.272-1.938,0.819-2.535c0.547-0.597,1.303-0.895,2.267-0.895c0.922,0,1.639,0.263,2.152,0.787
				c0.514,0.525,0.77,1.251,0.77,2.177v0.863h-4.207c0.021,0.506,0.17,0.9,0.449,1.185c0.28,0.283,0.673,0.426,1.179,0.426
				c0.394,0,0.766-0.041,1.114-0.122c0.35-0.082,0.716-0.213,1.098-0.392v1.377c-0.312,0.155-0.644,0.271-0.998,0.348
				C274.462,291.474,274.033,291.511,273.523,291.511z M273.272,286.016c-0.378,0-0.673,0.119-0.888,0.358
				c-0.214,0.238-0.336,0.578-0.367,1.018h2.497c-0.008-0.439-0.122-0.779-0.344-1.018
				C273.948,286.135,273.649,286.016,273.272,286.016z"/>
			<path fill="#FFFFFF" d="M282.183,289.458c0,0.669-0.232,1.179-0.697,1.528s-1.16,0.524-2.086,0.524
				c-0.476,0-0.88-0.032-1.214-0.097c-0.335-0.064-0.647-0.158-0.939-0.282v-1.471c0.331,0.155,0.703,0.285,1.117,0.391
				c0.415,0.105,0.779,0.157,1.095,0.157c0.646,0,0.969-0.187,0.969-0.561c0-0.14-0.043-0.254-0.128-0.341
				c-0.086-0.088-0.233-0.188-0.443-0.298s-0.49-0.24-0.841-0.389c-0.502-0.21-0.87-0.404-1.105-0.583
				c-0.234-0.18-0.406-0.385-0.514-0.616c-0.107-0.23-0.16-0.517-0.16-0.854c0-0.58,0.226-1.028,0.674-1.346
				c0.449-0.317,1.087-0.476,1.911-0.476c0.786,0,1.551,0.171,2.293,0.514l-0.536,1.283c-0.327-0.141-0.633-0.255-0.916-0.345
				c-0.284-0.089-0.574-0.134-0.869-0.134c-0.525,0-0.788,0.142-0.788,0.426c0,0.159,0.085,0.298,0.254,0.414
				c0.169,0.117,0.54,0.29,1.111,0.519c0.51,0.207,0.883,0.398,1.12,0.578c0.237,0.179,0.412,0.385,0.524,0.618
				C282.127,288.854,282.183,289.135,282.183,289.458z"/>
			<path fill="#FFFFFF" d="M227.507,305.733l-0.618-2.03h-3.11l-0.619,2.03h-1.948l3.01-8.565h2.212l3.022,8.565H227.507z
				 M226.458,302.187c-0.572-1.841-0.895-2.881-0.967-3.122s-0.123-0.432-0.154-0.571c-0.129,0.498-0.496,1.729-1.102,3.693H226.458
				z"/>
			<path fill="#FFFFFF" d="M236.411,305.733h-1.779v-3.81c0-0.472-0.084-0.824-0.252-1.059c-0.166-0.235-0.434-0.353-0.799-0.353
				c-0.498,0-0.857,0.166-1.08,0.499c-0.222,0.332-0.332,0.884-0.332,1.653v3.069h-1.779v-6.523h1.359l0.238,0.835h0.1
				c0.198-0.315,0.473-0.554,0.82-0.716c0.348-0.161,0.743-0.241,1.187-0.241c0.759,0,1.334,0.205,1.727,0.615
				c0.392,0.41,0.589,1.003,0.589,1.776v4.253H236.411z"/>
			<path fill="#FFFFFF" d="M242.386,305.733l-0.346-0.888h-0.046c-0.3,0.378-0.607,0.64-0.925,0.785
				c-0.318,0.146-0.73,0.219-1.24,0.219c-0.626,0-1.119-0.18-1.479-0.537s-0.539-0.867-0.539-1.528c0-0.691,0.241-1.203,0.725-1.531
				c0.484-0.328,1.215-0.511,2.191-0.546l1.132-0.034v-0.286c0-0.661-0.339-0.992-1.016-0.992c-0.521,0-1.134,0.157-1.838,0.474
				l-0.59-1.202c0.751-0.394,1.583-0.59,2.497-0.59c0.876,0,1.547,0.19,2.013,0.572c0.466,0.381,0.7,0.961,0.7,1.738v4.347H242.386z
				 M241.859,302.711l-0.688,0.023c-0.518,0.016-0.901,0.108-1.154,0.279s-0.38,0.433-0.38,0.782c0,0.501,0.288,0.752,0.864,0.752
				c0.412,0,0.741-0.118,0.988-0.355c0.246-0.236,0.37-0.553,0.37-0.944V302.711z"/>
			<path fill="#FFFFFF" d="M247.239,305.733h-1.779v-9.078h1.779V305.733z"/>
			<path fill="#FFFFFF" d="M248.173,299.211h1.948l1.231,3.67c0.104,0.319,0.177,0.696,0.215,1.133h0.035
				c0.043-0.4,0.127-0.778,0.252-1.133l1.207-3.67h1.908l-2.76,7.357c-0.252,0.682-0.613,1.19-1.082,1.528
				c-0.469,0.339-1.017,0.508-1.643,0.508c-0.307,0-0.607-0.032-0.903-0.1v-1.411c0.214,0.051,0.446,0.075,0.7,0.075
				c0.314,0,0.59-0.097,0.825-0.289c0.235-0.191,0.419-0.482,0.552-0.872l0.104-0.32L248.173,299.211z"/>
			<path fill="#FFFFFF" d="M258.651,304.433c0.313,0,0.686-0.067,1.121-0.204v1.324c-0.443,0.198-0.988,0.298-1.635,0.298
				c-0.711,0-1.229-0.181-1.555-0.54c-0.326-0.359-0.487-0.898-0.487-1.619v-3.145h-0.852v-0.752l0.979-0.596l0.514-1.377h1.139
				v1.389h1.826v1.336h-1.826v3.145c0,0.253,0.07,0.439,0.213,0.561C258.231,304.374,258.418,304.433,258.651,304.433z"/>
			<path fill="#FFFFFF" d="M261.015,297.524c0-0.58,0.322-0.869,0.969-0.869s0.969,0.289,0.969,0.869c0,0.275-0.08,0.49-0.242,0.644
				c-0.16,0.153-0.402,0.23-0.726,0.23C261.337,298.399,261.015,298.107,261.015,297.524z M262.87,305.733h-1.779v-6.523h1.779
				V305.733z"/>
			<path fill="#FFFFFF" d="M267.386,305.851c-2.031,0-3.047-1.114-3.047-3.343c0-1.108,0.276-1.956,0.829-2.541
				c0.553-0.586,1.345-0.878,2.375-0.878c0.755,0,1.432,0.147,2.03,0.442l-0.525,1.378c-0.279-0.113-0.54-0.205-0.781-0.277
				c-0.24-0.071-0.482-0.107-0.724-0.107c-0.927,0-1.39,0.657-1.39,1.972c0,1.275,0.463,1.914,1.39,1.914
				c0.343,0,0.659-0.046,0.95-0.138c0.293-0.092,0.584-0.234,0.876-0.43v1.522c-0.288,0.184-0.579,0.311-0.872,0.38
				C268.203,305.814,267.833,305.851,267.386,305.851z"/>
			<path fill="#FFFFFF" d="M275.431,303.796c0,0.67-0.231,1.18-0.696,1.529s-1.16,0.524-2.086,0.524
				c-0.476,0-0.88-0.032-1.214-0.097c-0.335-0.064-0.647-0.158-0.939-0.282V304c0.331,0.155,0.703,0.285,1.117,0.391
				s0.779,0.157,1.095,0.157c0.646,0,0.969-0.187,0.969-0.561c0-0.14-0.043-0.254-0.129-0.341c-0.085-0.088-0.232-0.188-0.442-0.298
				c-0.211-0.111-0.49-0.24-0.841-0.389c-0.502-0.21-0.87-0.404-1.105-0.583c-0.234-0.18-0.406-0.385-0.514-0.616
				c-0.107-0.23-0.16-0.517-0.16-0.854c0-0.58,0.225-1.028,0.674-1.346s1.087-0.476,1.911-0.476c0.785,0,1.551,0.171,2.293,0.514
				l-0.536,1.283c-0.327-0.141-0.633-0.255-0.917-0.345c-0.283-0.09-0.573-0.134-0.869-0.134c-0.524,0-0.787,0.142-0.787,0.426
				c0,0.159,0.084,0.298,0.254,0.414c0.169,0.116,0.539,0.29,1.111,0.519c0.51,0.206,0.883,0.398,1.12,0.578
				c0.237,0.179,0.412,0.385,0.524,0.618S275.431,303.474,275.431,303.796z"/>
		</g>
		<g>
			<path fill="#FFFFFF" d="M184.063,132.154c0,0.771-0.277,1.378-0.832,1.82c-0.555,0.443-1.325,0.665-2.313,0.665
				c-0.91,0-1.716-0.171-2.416-0.514v-1.681c0.576,0.257,1.063,0.437,1.462,0.542s0.764,0.158,1.094,0.158
				c0.396,0,0.701-0.076,0.913-0.229c0.212-0.152,0.318-0.377,0.318-0.677c0-0.167-0.047-0.315-0.141-0.446s-0.23-0.256-0.411-0.377
				c-0.181-0.12-0.55-0.313-1.105-0.577c-0.521-0.245-0.912-0.479-1.173-0.706c-0.261-0.226-0.469-0.488-0.625-0.787
				c-0.155-0.3-0.233-0.649-0.233-1.051c0-0.755,0.256-1.348,0.768-1.779c0.512-0.432,1.219-0.647,2.121-0.647
				c0.443,0,0.866,0.053,1.269,0.157c0.402,0.105,0.824,0.254,1.264,0.443l-0.583,1.406c-0.455-0.188-0.832-0.316-1.129-0.392
				c-0.298-0.075-0.591-0.11-0.878-0.11c-0.343,0-0.604,0.08-0.788,0.238c-0.183,0.16-0.274,0.368-0.274,0.625
				c0,0.159,0.037,0.299,0.11,0.417c0.074,0.118,0.191,0.233,0.353,0.345c0.162,0.111,0.544,0.311,1.146,0.599
				c0.797,0.382,1.344,0.764,1.639,1.146C183.913,131.126,184.063,131.599,184.063,132.154z"/>
			<path fill="#FFFFFF" d="M189.611,134.523l-0.345-0.888h-0.047c-0.3,0.378-0.607,0.64-0.925,0.785
				c-0.318,0.145-0.73,0.219-1.24,0.219c-0.626,0-1.119-0.18-1.479-0.537c-0.359-0.357-0.54-0.867-0.54-1.527
				c0-0.692,0.242-1.203,0.726-1.532c0.484-0.328,1.215-0.511,2.19-0.546l1.132-0.034v-0.286c0-0.661-0.338-0.992-1.016-0.992
				c-0.521,0-1.134,0.158-1.838,0.474l-0.589-1.202c0.751-0.393,1.583-0.59,2.498-0.59c0.875,0,1.546,0.191,2.012,0.572
				s0.7,0.961,0.7,1.738v4.347H189.611z M189.085,131.501l-0.688,0.023c-0.518,0.016-0.902,0.108-1.155,0.279
				c-0.253,0.172-0.379,0.433-0.379,0.781c0,0.502,0.288,0.754,0.863,0.754c0.413,0,0.742-0.119,0.989-0.355
				c0.247-0.237,0.371-0.553,0.371-0.945V131.501z"/>
			<path fill="#FFFFFF" d="M194.465,134.523h-1.779v-9.078h1.779V134.523z"/>
			<path fill="#FFFFFF" d="M199.284,134.64c-1.05,0-1.871-0.289-2.462-0.869s-0.887-1.4-0.887-2.463
				c0-1.093,0.273-1.938,0.819-2.535c0.547-0.598,1.303-0.895,2.267-0.895c0.922,0,1.639,0.263,2.153,0.787
				c0.514,0.525,0.77,1.251,0.77,2.178v0.863h-4.207c0.02,0.506,0.169,0.899,0.449,1.184c0.28,0.283,0.673,0.426,1.179,0.426
				c0.394,0,0.765-0.041,1.114-0.123c0.35-0.081,0.716-0.211,1.098-0.391v1.377c-0.312,0.155-0.644,0.271-0.998,0.348
				S199.793,134.64,199.284,134.64z M199.033,129.145c-0.377,0-0.673,0.119-0.887,0.358c-0.214,0.238-0.336,0.578-0.367,1.018h2.497
				c-0.008-0.439-0.122-0.779-0.344-1.018C199.709,129.264,199.411,129.145,199.033,129.145z"/>
			<path fill="#FFFFFF" d="M207.942,132.587c0,0.669-0.232,1.179-0.697,1.528c-0.465,0.349-1.16,0.524-2.086,0.524
				c-0.475,0-0.879-0.031-1.214-0.096c-0.334-0.065-0.647-0.159-0.939-0.283v-1.471c0.331,0.155,0.703,0.285,1.117,0.391
				c0.415,0.105,0.779,0.158,1.094,0.158c0.646,0,0.969-0.188,0.969-0.561c0-0.141-0.043-0.254-0.128-0.342
				c-0.086-0.088-0.233-0.188-0.443-0.298s-0.49-0.24-0.84-0.389c-0.502-0.21-0.87-0.404-1.105-0.583
				c-0.235-0.18-0.406-0.385-0.514-0.615c-0.107-0.231-0.16-0.518-0.16-0.855c0-0.579,0.225-1.027,0.674-1.345
				c0.449-0.317,1.086-0.476,1.911-0.476c0.786,0,1.55,0.171,2.293,0.514l-0.537,1.283c-0.327-0.141-0.632-0.255-0.916-0.344
				c-0.284-0.09-0.574-0.135-0.869-0.135c-0.525,0-0.788,0.143-0.788,0.426c0,0.16,0.084,0.298,0.254,0.414
				c0.169,0.117,0.54,0.29,1.111,0.52c0.51,0.205,0.883,0.398,1.121,0.577c0.237,0.179,0.412,0.386,0.524,0.618
				C207.887,131.981,207.942,132.265,207.942,132.587z"/>
			<path fill="#FFFFFF" d="M220.463,134.523h-2.2l-0.671-0.659c-0.743,0.518-1.583,0.775-2.521,0.775
				c-0.949,0-1.702-0.218-2.258-0.652c-0.557-0.436-0.834-1.025-0.834-1.768c0-0.533,0.118-0.987,0.353-1.363
				c0.235-0.375,0.639-0.726,1.211-1.053c-0.292-0.335-0.504-0.654-0.636-0.96s-0.198-0.64-0.198-1.001
				c0-0.592,0.227-1.067,0.68-1.43c0.453-0.363,1.059-0.543,1.817-0.543c0.724,0,1.302,0.168,1.735,0.505s0.65,0.786,0.65,1.351
				c0,0.463-0.135,0.886-0.402,1.268c-0.268,0.383-0.702,0.748-1.302,1.096l1.657,1.615c0.276-0.455,0.516-1.041,0.718-1.756h1.855
				c-0.14,0.524-0.333,1.037-0.577,1.537c-0.245,0.5-0.523,0.941-0.834,1.327L220.463,134.523z M213.853,132.05
				c0,0.334,0.125,0.602,0.376,0.8s0.573,0.298,0.966,0.298c0.49,0,0.932-0.119,1.324-0.355l-1.937-1.926
				c-0.226,0.171-0.403,0.35-0.534,0.537C213.919,131.589,213.853,131.805,213.853,132.05z M215.947,127.913
				c0-0.207-0.07-0.369-0.21-0.487c-0.141-0.118-0.321-0.179-0.543-0.179c-0.261,0-0.466,0.063-0.615,0.188
				s-0.225,0.302-0.225,0.531c0,0.342,0.185,0.719,0.555,1.132c0.334-0.188,0.591-0.37,0.77-0.552S215.947,128.154,215.947,127.913z
				"/>
			<path fill="#FFFFFF" d="M172.986,148.862l-2.054-6.693h-0.053c0.073,1.361,0.11,2.27,0.11,2.725v3.967h-1.616v-8.529h2.462
				l2.019,6.523h0.035l2.141-6.523h2.462v8.529h-1.686v-4.037c0-0.189,0.003-0.41,0.009-0.659s0.032-0.91,0.079-1.983h-0.053
				l-2.2,6.681L172.986,148.862L172.986,148.862z"/>
			<path fill="#FFFFFF" d="M184.643,148.862l-0.345-0.888h-0.047c-0.3,0.378-0.607,0.64-0.925,0.785
				c-0.318,0.146-0.73,0.219-1.24,0.219c-0.626,0-1.119-0.179-1.479-0.536c-0.359-0.357-0.54-0.867-0.54-1.529
				c0-0.691,0.242-1.203,0.726-1.531s1.215-0.511,2.19-0.545l1.132-0.035v-0.286c0-0.661-0.339-0.991-1.016-0.991
				c-0.521,0-1.134,0.156-1.838,0.473l-0.589-1.202c0.751-0.394,1.583-0.589,2.498-0.589c0.875,0,1.546,0.189,2.012,0.57
				c0.466,0.382,0.7,0.961,0.7,1.739v4.347H184.643z M184.117,145.84l-0.688,0.022c-0.518,0.017-0.902,0.109-1.155,0.28
				s-0.379,0.433-0.379,0.782c0,0.502,0.288,0.752,0.863,0.752c0.413,0,0.742-0.118,0.989-0.355
				c0.247-0.236,0.371-0.553,0.371-0.944V145.84z"/>
			<path fill="#FFFFFF" d="M191.358,142.218c0.241,0,0.441,0.018,0.601,0.053l-0.134,1.668c-0.145-0.038-0.319-0.059-0.525-0.059
				c-0.567,0-1.011,0.146-1.327,0.438c-0.317,0.292-0.476,0.7-0.476,1.225v3.32h-1.779v-6.523h1.348l0.263,1.098h0.087
				c0.202-0.365,0.476-0.66,0.819-0.885C190.58,142.328,190.953,142.218,191.358,142.218z"/>
			<path fill="#FFFFFF" d="M194.852,145.315l0.776-0.992l1.826-1.983h2.007l-2.591,2.83l2.749,3.693h-2.055l-1.879-2.644
				l-0.765,0.613v2.03h-1.779v-9.079h1.779v4.049l-0.094,1.482H194.852L194.852,145.315z"/>
			<path fill="#FFFFFF" d="M203.505,148.979c-1.051,0-1.871-0.289-2.462-0.869c-0.592-0.58-0.887-1.4-0.887-2.463
				c0-1.093,0.272-1.938,0.819-2.535s1.302-0.895,2.266-0.895c0.922,0,1.639,0.263,2.153,0.787c0.514,0.525,0.77,1.251,0.77,2.177
				v0.863h-4.207c0.02,0.506,0.169,0.9,0.449,1.185c0.28,0.283,0.673,0.426,1.179,0.426c0.394,0,0.765-0.041,1.114-0.123
				c0.35-0.081,0.716-0.211,1.097-0.391v1.377c-0.312,0.155-0.643,0.271-0.998,0.348S204.015,148.979,203.505,148.979z
				 M203.254,143.483c-0.377,0-0.673,0.119-0.887,0.357c-0.214,0.24-0.336,0.579-0.368,1.019h2.498
				c-0.008-0.439-0.123-0.778-0.345-1.019C203.931,143.603,203.632,143.483,203.254,143.483z"/>
			<path fill="#FFFFFF" d="M210.361,147.562c0.312,0,0.685-0.067,1.121-0.204v1.324c-0.443,0.198-0.988,0.298-1.634,0.298
				c-0.712,0-1.229-0.18-1.555-0.539s-0.487-0.9-0.487-1.619v-3.145h-0.852v-0.754l0.98-0.595l0.514-1.378h1.138v1.39h1.826v1.337
				h-1.826v3.145c0,0.252,0.071,0.438,0.213,0.561C209.941,147.503,210.127,147.562,210.361,147.562z"/>
			<path fill="#FFFFFF" d="M212.724,140.653c0-0.58,0.322-0.869,0.969-0.869c0.646,0,0.969,0.289,0.969,0.869
				c0,0.275-0.081,0.49-0.242,0.645c-0.162,0.152-0.403,0.229-0.726,0.229C213.046,141.528,212.724,141.237,212.724,140.653z
				 M214.579,148.862H212.8v-6.523h1.779V148.862z"/>
			<path fill="#FFFFFF" d="M222.467,148.862h-1.779v-3.811c0-0.471-0.083-0.822-0.251-1.059c-0.167-0.234-0.434-0.352-0.8-0.352
				c-0.498,0-0.857,0.166-1.079,0.498c-0.222,0.333-0.333,0.885-0.333,1.654v3.069h-1.779v-6.523h1.359l0.239,0.835h0.1
				c0.198-0.314,0.472-0.555,0.819-0.715c0.348-0.162,0.744-0.242,1.187-0.242c0.759,0,1.334,0.205,1.727,0.615
				c0.392,0.41,0.589,1.002,0.589,1.776L222.467,148.862L222.467,148.862z"/>
			<path fill="#FFFFFF" d="M229.976,142.34v0.904l-1.02,0.263c0.187,0.292,0.279,0.619,0.279,0.98c0,0.699-0.244,1.245-0.732,1.637
				c-0.487,0.391-1.166,0.586-2.033,0.586l-0.32-0.018l-0.263-0.029c-0.183,0.141-0.274,0.296-0.274,0.467
				c0,0.258,0.327,0.386,0.98,0.386h1.108c0.716,0,1.262,0.153,1.637,0.462c0.376,0.307,0.563,0.758,0.563,1.353
				c0,0.763-0.318,1.353-0.955,1.773c-0.636,0.421-1.549,0.63-2.738,0.63c-0.91,0-1.606-0.158-2.087-0.476
				c-0.48-0.317-0.721-0.762-0.721-1.333c0-0.394,0.123-0.723,0.367-0.986c0.245-0.264,0.604-0.453,1.08-0.565
				c-0.183-0.077-0.342-0.205-0.478-0.382c-0.135-0.178-0.204-0.365-0.204-0.563c0-0.25,0.072-0.457,0.216-0.622
				c0.144-0.165,0.353-0.327,0.624-0.487c-0.342-0.146-0.613-0.385-0.813-0.711c-0.2-0.327-0.3-0.713-0.3-1.155
				c0-0.712,0.231-1.263,0.694-1.651s1.125-0.584,1.984-0.584c0.183,0,0.398,0.018,0.65,0.051c0.25,0.033,0.41,0.058,0.48,0.072
				L229.976,142.34L229.976,142.34z M224.941,149.784c0,0.245,0.117,0.438,0.353,0.578c0.234,0.14,0.564,0.209,0.988,0.209
				c0.639,0,1.139-0.088,1.5-0.262c0.361-0.176,0.542-0.415,0.542-0.719c0-0.245-0.106-0.414-0.32-0.508s-0.545-0.141-0.992-0.141
				h-0.922c-0.327,0-0.601,0.077-0.819,0.23C225.051,149.326,224.941,149.531,224.941,149.784z M225.589,144.475
				c0,0.354,0.08,0.634,0.242,0.841c0.161,0.206,0.407,0.31,0.738,0.31c0.334,0,0.579-0.104,0.734-0.31
				c0.155-0.207,0.232-0.486,0.232-0.841c0-0.786-0.322-1.179-0.969-1.179C225.915,143.297,225.589,143.688,225.589,144.475z"/>
			<path fill="#FFFFFF" d="M178.167,163.2l-0.618-2.029h-3.11l-0.618,2.029h-1.95l3.01-8.564h2.212l3.022,8.564H178.167z
				 M177.116,159.653c-0.572-1.84-0.894-2.881-0.966-3.122c-0.073-0.241-0.124-0.433-0.155-0.571
				c-0.128,0.498-0.496,1.729-1.102,3.693H177.116z"/>
			<path fill="#FFFFFF" d="M187.069,163.2h-1.779v-3.809c0-0.472-0.083-0.824-0.251-1.059c-0.167-0.235-0.434-0.354-0.799-0.354
				c-0.498,0-0.857,0.167-1.08,0.5c-0.222,0.332-0.333,0.884-0.333,1.653v3.069h-1.779v-6.523h1.359l0.239,0.834h0.1
				c0.198-0.314,0.472-0.553,0.819-0.715c0.348-0.161,0.744-0.242,1.187-0.242c0.759,0,1.334,0.205,1.727,0.616
				c0.393,0.41,0.589,1.003,0.589,1.776L187.069,163.2L187.069,163.2z"/>
			<path fill="#FFFFFF" d="M193.044,163.2l-0.344-0.887h-0.047c-0.3,0.377-0.607,0.64-0.925,0.785
				c-0.317,0.145-0.73,0.219-1.24,0.219c-0.626,0-1.119-0.18-1.479-0.537s-0.54-0.867-0.54-1.528c0-0.692,0.242-1.202,0.726-1.531
				s1.215-0.511,2.191-0.546l1.132-0.035v-0.285c0-0.661-0.338-0.992-1.016-0.992c-0.521,0-1.134,0.158-1.838,0.473l-0.589-1.201
				c0.75-0.394,1.583-0.59,2.497-0.59c0.875,0,1.546,0.19,2.012,0.572c0.466,0.381,0.7,0.961,0.7,1.738v4.346H193.044z
				 M192.519,160.179l-0.688,0.023c-0.518,0.016-0.902,0.107-1.155,0.279s-0.379,0.432-0.379,0.781c0,0.502,0.288,0.754,0.863,0.754
				c0.412,0,0.742-0.119,0.989-0.355c0.247-0.238,0.37-0.553,0.37-0.945V160.179z"/>
			<path fill="#FFFFFF" d="M197.898,163.2h-1.78v-9.078h1.78V163.2z"/>
			<path fill="#FFFFFF" d="M198.832,156.678h1.949l1.231,3.671c0.104,0.318,0.177,0.695,0.216,1.131h0.035
				c0.043-0.399,0.126-0.777,0.251-1.131l1.208-3.671h1.908l-2.759,7.357c-0.253,0.681-0.613,1.19-1.083,1.528
				c-0.469,0.339-1.017,0.508-1.642,0.508c-0.308,0-0.608-0.033-0.904-0.1v-1.412c0.214,0.051,0.447,0.076,0.7,0.076
				c0.315,0,0.591-0.097,0.826-0.289c0.235-0.191,0.419-0.482,0.552-0.872l0.104-0.321L198.832,156.678z"/>
			<path fill="#FFFFFF" d="M209.311,161.899c0.312,0,0.685-0.068,1.12-0.204v1.324c-0.443,0.198-0.988,0.298-1.634,0.298
				c-0.712,0-1.23-0.18-1.556-0.539c-0.326-0.36-0.487-0.9-0.487-1.619v-3.145h-0.851v-0.754l0.979-0.596l0.514-1.377h1.138v1.39
				h1.826v1.337h-1.826v3.145c0,0.252,0.071,0.438,0.213,0.561C208.89,161.841,209.078,161.899,209.311,161.899z"/>
			<path fill="#FFFFFF" d="M211.673,154.991c0-0.579,0.323-0.869,0.969-0.869c0.646,0,0.969,0.29,0.969,0.869
				c0,0.276-0.081,0.492-0.242,0.645c-0.161,0.154-0.403,0.23-0.726,0.23C211.996,155.867,211.673,155.575,211.673,154.991z
				 M213.528,163.2h-1.779v-6.522h1.779V163.2z"/>
			<path fill="#FFFFFF" d="M218.044,163.317c-2.031,0-3.046-1.114-3.046-3.343c0-1.108,0.276-1.956,0.829-2.541
				s1.344-0.878,2.375-0.878c0.755,0,1.432,0.146,2.03,0.443l-0.525,1.377c-0.28-0.113-0.541-0.205-0.782-0.277
				c-0.241-0.072-0.482-0.107-0.724-0.107c-0.926,0-1.389,0.657-1.389,1.972c0,1.275,0.463,1.913,1.389,1.913
				c0.342,0,0.659-0.045,0.951-0.137c0.292-0.092,0.583-0.234,0.875-0.43v1.523c-0.288,0.183-0.579,0.309-0.873,0.379
				C218.862,163.281,218.492,163.317,218.044,163.317z"/>
			<path fill="#FFFFFF" d="M226.091,161.265c0,0.668-0.232,1.178-0.697,1.527s-1.16,0.525-2.086,0.525
				c-0.475,0-0.879-0.031-1.214-0.097c-0.334-0.064-0.647-0.158-0.939-0.282v-1.471c0.331,0.154,0.703,0.285,1.117,0.391
				c0.415,0.105,0.779,0.158,1.095,0.158c0.645,0,0.969-0.188,0.969-0.562c0-0.14-0.043-0.254-0.128-0.341
				c-0.086-0.088-0.233-0.188-0.443-0.299c-0.21-0.109-0.49-0.239-0.84-0.388c-0.502-0.21-0.87-0.404-1.105-0.583
				c-0.235-0.18-0.406-0.385-0.514-0.615c-0.107-0.232-0.16-0.518-0.16-0.855c0-0.579,0.225-1.027,0.674-1.345
				c0.449-0.317,1.086-0.476,1.911-0.476c0.786,0,1.55,0.171,2.293,0.514l-0.537,1.283c-0.326-0.141-0.632-0.255-0.916-0.345
				c-0.284-0.089-0.574-0.134-0.869-0.134c-0.525,0-0.788,0.143-0.788,0.426c0,0.159,0.084,0.298,0.254,0.414
				c0.169,0.117,0.54,0.29,1.111,0.52c0.51,0.205,0.883,0.397,1.12,0.576c0.237,0.18,0.412,0.386,0.525,0.619
				C226.035,160.659,226.091,160.94,226.091,161.265z"/>
		</g>
	</g>
</g>
</svg>
