<?xml version="1.0" encoding="utf-8"?>
<!-- Generator: Adobe Illustrator 16.0.0, SVG Export Plug-In . SVG Version: 6.00 Build 0)  -->
<!DOCTYPE svg PUBLIC "-//W3C//DTD SVG 1.1//EN" "http://www.w3.org/Graphics/SVG/1.1/DTD/svg11.dtd">
<svg version="1.1" xmlns="http://www.w3.org/2000/svg" xmlns:xlink="http://www.w3.org/1999/xlink" x="0px" y="0px"
	 width="233.333px" height="45px" viewBox="0 0 233.333 45" enable-background="new 0 0 233.333 45" xml:space="preserve">
<g id="Layer_2">
</g>
<g id="Layer_1">
	<g>
		<path fill="#5F6FB4" d="M10.729,16.136l-1.2,4.324H5.58l5.149-16.846h4.999l5.224,16.846h-4.099l-1.3-4.324H10.729z
			 M15.003,13.287l-1.05-3.574c-0.3-1-0.6-2.249-0.85-3.249h-0.05c-0.25,1-0.5,2.274-0.775,3.249l-1,3.574H15.003z"/>
		<path fill="#5F6FB4" d="M25.154,8.238l1.825,5.999c0.2,0.725,0.45,1.625,0.6,2.274h0.075c0.175-0.65,0.375-1.574,0.55-2.274
			l1.5-5.999h4.074l-2.849,8.048c-1.75,4.849-2.924,6.798-4.299,8.022c-1.325,1.15-2.725,1.551-3.674,1.675l-0.8-3.224
			c0.475-0.075,1.075-0.3,1.65-0.65c0.575-0.3,1.2-0.899,1.575-1.524c0.125-0.175,0.2-0.375,0.2-0.55
			c0-0.125-0.025-0.325-0.175-0.625L20.93,8.238H25.154z"/>
		<path fill="#5F6FB4" d="M42.154,20.46l-0.225-1.225h-0.075c-0.8,0.975-2.049,1.5-3.499,1.5c-2.474,0-3.949-1.799-3.949-3.749
			c0-3.174,2.85-4.699,7.173-4.674v-0.175c0-0.65-0.35-1.575-2.224-1.575c-1.25,0-2.575,0.425-3.375,0.925l-0.7-2.45
			c0.85-0.475,2.524-1.075,4.749-1.075c4.074,0,5.374,2.399,5.374,5.274v4.249c0,1.175,0.05,2.299,0.175,2.974H42.154z
			 M41.704,14.687c-2-0.025-3.549,0.45-3.549,1.924c0,0.975,0.649,1.45,1.5,1.45c0.95,0,1.725-0.625,1.975-1.4
			c0.05-0.2,0.075-0.425,0.075-0.649V14.687z"/>
		<path fill="#5F6FB4" d="M48.405,12.137c0-1.525-0.05-2.825-0.1-3.899h3.199l0.175,1.65h0.075c0.524-0.775,1.6-1.925,3.699-1.925
			c1.575,0,2.825,0.8,3.349,2.075h0.05c0.45-0.625,1-1.125,1.575-1.475c0.675-0.4,1.424-0.6,2.324-0.6
			c2.35,0,4.124,1.65,4.124,5.299v7.198h-3.699v-6.648c0-1.774-0.575-2.799-1.799-2.799c-0.875,0-1.5,0.6-1.75,1.325
			c-0.1,0.275-0.15,0.675-0.15,0.975v7.148h-3.699v-6.848c0-1.55-0.55-2.6-1.75-2.6c-0.975,0-1.55,0.75-1.775,1.375
			c-0.125,0.3-0.15,0.65-0.15,0.95v7.123h-3.699V12.137z"/>
		<path fill="#5F6FB4" d="M73.829,4.839c0,1.05-0.8,1.899-2.05,1.899c-1.199,0-1.999-0.85-1.974-1.899
			c-0.025-1.1,0.775-1.925,2-1.925S73.804,3.739,73.829,4.839z M69.904,20.46V8.238h3.799V20.46H69.904z"/>
		<path fill="#5F6FB4" d="M80.704,3.614v6.473h6.273V3.614h3.799V20.46h-3.799v-7.048h-6.273v7.048h-3.824V3.614H80.704z"/>
		<path fill="#5F6FB4" d="M111.526,19.985c-0.7,0.35-2.274,0.725-4.324,0.725c-5.824,0-8.823-3.624-8.823-8.423
			c0-5.749,4.099-8.948,9.198-8.948c1.974,0,3.474,0.4,4.149,0.75l-0.775,3.024c-0.775-0.325-1.85-0.625-3.199-0.625
			c-3.024,0-5.374,1.825-5.374,5.574c0,3.374,2,5.499,5.398,5.499c1.15,0,2.424-0.25,3.174-0.55L111.526,19.985z"/>
		<path fill="#5F6FB4" d="M125.5,14.211c0,4.474-3.174,6.523-6.447,6.523c-3.575,0-6.324-2.35-6.324-6.298
			c0-3.949,2.6-6.474,6.523-6.474C123.001,7.963,125.5,10.538,125.5,14.211z M116.653,14.336c0,2.1,0.875,3.674,2.5,3.674
			c1.475,0,2.424-1.475,2.424-3.674c0-1.825-0.699-3.674-2.424-3.674C117.328,10.663,116.653,12.537,116.653,14.336z"/>
		<path fill="#5F6FB4" d="M127.854,12.137c0-1.525-0.051-2.825-0.1-3.899h3.299l0.175,1.675h0.075c0.5-0.775,1.749-1.95,3.773-1.95
			c2.5,0,4.374,1.65,4.374,5.249v7.248h-3.799v-6.773c0-1.575-0.55-2.649-1.925-2.649c-1.049,0-1.674,0.725-1.924,1.425
			c-0.101,0.225-0.15,0.6-0.15,0.95v7.048h-3.799V12.137z"/>
		<path fill="#5F6FB4" d="M142.479,17.136c0.699,0.425,2.148,0.925,3.273,0.925c1.15,0,1.625-0.4,1.625-1.025
			c0-0.625-0.375-0.925-1.8-1.399c-2.524-0.85-3.499-2.225-3.474-3.674c0-2.274,1.949-3.999,4.974-3.999
			c1.425,0,2.699,0.325,3.449,0.7l-0.675,2.625c-0.551-0.3-1.6-0.7-2.649-0.7c-0.925,0-1.45,0.375-1.45,1
			c0,0.575,0.475,0.875,1.975,1.4c2.324,0.8,3.299,1.975,3.324,3.774c0,2.274-1.799,3.949-5.299,3.949c-1.6,0-3.023-0.35-3.949-0.85
			L142.479,17.136z"/>
		<path fill="#5F6FB4" d="M164.875,16.536c0,1.6,0.05,2.899,0.1,3.924h-3.299l-0.175-1.725h-0.075c-0.475,0.75-1.625,2-3.824,2
			c-2.475,0-4.299-1.55-4.299-5.324V8.238h3.824v6.574c0,1.774,0.574,2.849,1.899,2.849c1.05,0,1.649-0.725,1.899-1.325
			c0.1-0.225,0.125-0.525,0.125-0.825V8.238h3.824V16.536z"/>
		<path fill="#5F6FB4" d="M167.928,2.714h3.799V20.46h-3.799V2.714z"/>
		<path fill="#5F6FB4" d="M179.051,4.739v3.499h2.725v2.799h-2.725v4.424c0,1.475,0.351,2.149,1.5,2.149
			c0.475,0,0.85-0.05,1.125-0.1l0.025,2.874c-0.5,0.2-1.4,0.325-2.475,0.325c-1.225,0-2.25-0.425-2.85-1.05
			c-0.699-0.725-1.05-1.899-1.05-3.624v-4.999h-1.624V8.238h1.624V5.588L179.051,4.739z"/>
		<path fill="#5F6FB4" d="M190.926,20.46l-0.225-1.225h-0.076c-0.799,0.975-2.049,1.5-3.498,1.5c-2.475,0-3.949-1.799-3.949-3.749
			c0-3.174,2.85-4.699,7.173-4.674v-0.175c0-0.65-0.35-1.575-2.224-1.575c-1.25,0-2.575,0.425-3.375,0.925l-0.699-2.45
			c0.85-0.475,2.523-1.075,4.748-1.075c4.074,0,5.374,2.399,5.374,5.274v4.249c0,1.175,0.05,2.299,0.175,2.974H190.926z
			 M190.476,14.687c-1.999-0.025-3.549,0.45-3.549,1.924c0,0.975,0.649,1.45,1.499,1.45c0.95,0,1.725-0.625,1.975-1.4
			c0.051-0.2,0.075-0.425,0.075-0.649V14.687z"/>
		<path fill="#5F6FB4" d="M197.178,12.137c0-1.525-0.051-2.825-0.1-3.899h3.299l0.175,1.675h0.075c0.5-0.775,1.749-1.95,3.773-1.95
			c2.5,0,4.374,1.65,4.374,5.249v7.248h-3.799v-6.773c0-1.575-0.55-2.649-1.925-2.649c-1.049,0-1.674,0.725-1.924,1.425
			c-0.101,0.225-0.15,0.6-0.15,0.95v7.048h-3.799V12.137z"/>
		<path fill="#5F6FB4" d="M215.926,4.739v3.499h2.725v2.799h-2.725v4.424c0,1.475,0.351,2.149,1.5,2.149
			c0.475,0,0.85-0.05,1.125-0.1l0.025,2.874c-0.5,0.2-1.4,0.325-2.475,0.325c-1.225,0-2.25-0.425-2.85-1.05
			c-0.699-0.725-1.05-1.899-1.05-3.624v-4.999h-1.624V8.238h1.624V5.588L215.926,4.739z"/>
		<path fill="#5F6FB4" d="M220.828,17.136c0.7,0.425,2.149,0.925,3.274,0.925c1.149,0,1.625-0.4,1.625-1.025
			c0-0.625-0.375-0.925-1.8-1.399c-2.524-0.85-3.499-2.225-3.475-3.674c0-2.274,1.95-3.999,4.974-3.999
			c1.425,0,2.699,0.325,3.449,0.7l-0.674,2.625c-0.551-0.3-1.6-0.7-2.65-0.7c-0.924,0-1.449,0.375-1.449,1
			c0,0.575,0.475,0.875,1.975,1.4c2.324,0.8,3.299,1.975,3.324,3.774c0,2.274-1.8,3.949-5.299,3.949c-1.6,0-3.024-0.35-3.949-0.85
			L220.828,17.136z"/>
		<path fill="#5F6FB4" d="M40.262,40.859L38.751,37h-4.864l-1.494,3.859h-1.428l4.798-12.186h1.187l4.773,12.186H40.262z
			 M38.311,35.73l-1.411-3.76c-0.183-0.477-0.371-1.061-0.564-1.752c-0.122,0.531-0.296,1.115-0.523,1.752l-1.428,3.76H38.311z"/>
		<path fill="#5F6FB4" d="M57.494,34.676c0,2.004-0.543,3.535-1.631,4.594c-1.087,1.061-2.652,1.59-4.694,1.59h-3.362V28.725h3.719
			c1.887,0,3.354,0.522,4.399,1.568C56.971,31.34,57.494,32.801,57.494,34.676z M56,34.727c0-1.584-0.397-2.775-1.191-3.578
			c-0.794-0.803-1.975-1.204-3.541-1.204h-2.05v9.696h1.718c1.682,0,2.947-0.414,3.793-1.242C55.577,37.572,56,36.348,56,34.727z"/>
		<path fill="#5F6FB4" d="M65.587,40.859l-0.274-1.295h-0.066c-0.454,0.57-0.906,0.957-1.357,1.158
			c-0.451,0.203-1.014,0.303-1.689,0.303c-0.902,0-1.609-0.232-2.121-0.697c-0.512-0.465-0.768-1.125-0.768-1.982
			c0-1.838,1.469-2.801,4.408-2.889l1.544-0.051v-0.564c0-0.713-0.154-1.24-0.46-1.582c-0.308-0.34-0.798-0.51-1.474-0.51
			c-0.758,0-1.616,0.232-2.573,0.697l-0.423-1.055c0.448-0.242,0.939-0.434,1.473-0.572c0.534-0.139,1.07-0.207,1.606-0.207
			c1.084,0,1.889,0.24,2.411,0.723c0.523,0.48,0.785,1.252,0.785,2.314v6.209H65.587z M62.475,39.889
			c0.858,0,1.532-0.234,2.021-0.705c0.49-0.471,0.735-1.129,0.735-1.977v-0.82l-1.378,0.057c-1.096,0.039-1.886,0.209-2.37,0.512
			c-0.484,0.301-0.727,0.77-0.727,1.406c0,0.498,0.151,0.877,0.452,1.137C61.51,39.758,61.932,39.889,62.475,39.889z"/>
		<path fill="#5F6FB4" d="M72.386,39.889c0.244,0,0.479-0.018,0.706-0.055c0.227-0.035,0.407-0.072,0.54-0.111v1.055
			c-0.149,0.072-0.37,0.131-0.66,0.178c-0.291,0.047-0.552,0.07-0.785,0.07c-1.76,0-2.64-0.926-2.64-2.779v-5.412h-1.303V32.17
			l1.303-0.574l0.581-1.941h0.797v2.107h2.64v1.072h-2.64v5.354c0,0.547,0.13,0.969,0.39,1.262S71.932,39.889,72.386,39.889z"/>
		<path fill="#5F6FB4" d="M81.043,40.859l-0.274-1.295h-0.066c-0.454,0.57-0.906,0.957-1.357,1.158
			c-0.451,0.203-1.014,0.303-1.689,0.303c-0.902,0-1.609-0.232-2.121-0.697c-0.512-0.465-0.768-1.125-0.768-1.982
			c0-1.838,1.469-2.801,4.408-2.889l1.544-0.051v-0.564c0-0.713-0.154-1.24-0.46-1.582c-0.308-0.34-0.798-0.51-1.474-0.51
			c-0.758,0-1.616,0.232-2.573,0.697l-0.423-1.055c0.448-0.242,0.939-0.434,1.473-0.572c0.534-0.139,1.07-0.207,1.606-0.207
			c1.084,0,1.889,0.24,2.411,0.723c0.523,0.48,0.785,1.252,0.785,2.314v6.209H81.043z M77.931,39.889
			c0.858,0,1.532-0.234,2.021-0.705c0.49-0.471,0.735-1.129,0.735-1.977v-0.82l-1.378,0.057c-1.096,0.039-1.886,0.209-2.37,0.512
			c-0.484,0.301-0.727,0.77-0.727,1.406c0,0.498,0.151,0.877,0.452,1.137C76.966,39.758,77.388,39.889,77.931,39.889z"/>
		<path fill="#5F6FB4" d="M97.155,40.859L95.645,37H90.78l-1.494,3.859h-1.428l4.798-12.186h1.187l4.773,12.186H97.155z
			 M95.205,35.73l-1.411-3.76c-0.183-0.477-0.371-1.061-0.564-1.752c-0.122,0.531-0.296,1.115-0.523,1.752l-1.428,3.76H95.205z"/>
		<path fill="#5F6FB4" d="M106.303,40.859v-5.885c0-0.742-0.169-1.295-0.506-1.66s-0.866-0.547-1.585-0.547
			c-0.952,0-1.649,0.256-2.092,0.771c-0.443,0.514-0.664,1.363-0.664,2.549v4.771h-1.378v-9.098h1.121l0.224,1.246h0.066
			c0.282-0.449,0.678-0.797,1.187-1.043s1.076-0.369,1.702-0.369c1.096,0,1.92,0.266,2.474,0.793c0.553,0.529,0.83,1.375,0.83,2.537
			v5.934H106.303z"/>
		<path fill="#5F6FB4" d="M116.106,40.859l-0.274-1.295h-0.066c-0.454,0.57-0.906,0.957-1.357,1.158
			c-0.451,0.203-1.014,0.303-1.689,0.303c-0.902,0-1.609-0.232-2.121-0.697c-0.512-0.465-0.768-1.125-0.768-1.982
			c0-1.838,1.469-2.801,4.408-2.889l1.544-0.051v-0.564c0-0.713-0.154-1.24-0.46-1.582c-0.308-0.34-0.798-0.51-1.474-0.51
			c-0.758,0-1.616,0.232-2.573,0.697l-0.423-1.055c0.448-0.242,0.939-0.434,1.473-0.572c0.534-0.139,1.07-0.207,1.606-0.207
			c1.084,0,1.889,0.24,2.411,0.723c0.523,0.48,0.785,1.252,0.785,2.314v6.209H116.106z M112.993,39.889
			c0.858,0,1.532-0.234,2.021-0.705c0.49-0.471,0.735-1.129,0.735-1.977v-0.82l-1.378,0.057c-1.096,0.039-1.886,0.209-2.37,0.512
			c-0.484,0.301-0.727,0.77-0.727,1.406c0,0.498,0.151,0.877,0.452,1.137C112.029,39.758,112.451,39.889,112.993,39.889z"/>
		<path fill="#5F6FB4" d="M121.344,40.859h-1.379V27.943h1.379V40.859z"/>
		<path fill="#5F6FB4" d="M122.821,31.762h1.479l1.992,5.189c0.437,1.184,0.708,2.039,0.813,2.564h0.066
			c0.072-0.283,0.223-0.766,0.453-1.449c0.229-0.684,0.98-2.785,2.254-6.305h1.477l-3.909,10.359c-0.388,1.023-0.84,1.75-1.357,2.18
			c-0.517,0.428-1.152,0.643-1.905,0.643c-0.42,0-0.835-0.047-1.244-0.141v-1.104c0.304,0.066,0.645,0.1,1.021,0.1
			c0.946,0,1.622-0.531,2.025-1.594l0.507-1.295L122.821,31.762z"/>
		<path fill="#5F6FB4" d="M135.77,39.889c0.244,0,0.479-0.018,0.706-0.055c0.228-0.035,0.407-0.072,0.54-0.111v1.055
			c-0.15,0.072-0.37,0.131-0.66,0.178c-0.291,0.047-0.553,0.07-0.785,0.07c-1.76,0-2.639-0.926-2.639-2.779v-5.412h-1.304V32.17
			l1.304-0.574l0.58-1.941h0.797v2.107h2.641v1.072h-2.641v5.354c0,0.547,0.131,0.969,0.391,1.262S135.317,39.889,135.77,39.889z"/>
		<path fill="#5F6FB4" d="M138.717,29.297c0-0.315,0.078-0.547,0.232-0.693s0.349-0.22,0.581-0.22c0.222,0,0.412,0.075,0.573,0.224
			c0.16,0.15,0.24,0.379,0.24,0.689s-0.08,0.541-0.24,0.693c-0.161,0.152-0.352,0.229-0.573,0.229c-0.232,0-0.427-0.076-0.581-0.229
			S138.717,29.607,138.717,29.297z M140.211,40.859h-1.378v-9.098h1.378V40.859z"/>
		<path fill="#5F6FB4" d="M146.769,41.025c-1.317,0-2.337-0.404-3.059-1.215c-0.723-0.811-1.083-1.959-1.083-3.441
			c0-1.521,0.366-2.697,1.1-3.527c0.732-0.83,1.777-1.246,3.133-1.246c0.438,0,0.875,0.047,1.313,0.143
			c0.437,0.094,0.779,0.203,1.029,0.332l-0.424,1.17c-0.305-0.123-0.637-0.223-0.996-0.303s-0.678-0.121-0.955-0.121
			c-1.848,0-2.771,1.18-2.771,3.537c0,1.117,0.225,1.975,0.676,2.572s1.119,0.896,2.005,0.896c0.759,0,1.536-0.164,2.333-0.49v1.221
			C148.459,40.869,147.694,41.025,146.769,41.025z"/>
		<path fill="#5F6FB4" d="M157.095,38.379c0,0.846-0.315,1.498-0.946,1.959c-0.631,0.459-1.516,0.688-2.656,0.688
			c-1.207,0-2.146-0.189-2.822-0.572v-1.277c0.438,0.221,0.906,0.395,1.407,0.521s0.983,0.191,1.448,0.191
			c0.719,0,1.273-0.115,1.66-0.344c0.387-0.23,0.581-0.58,0.581-1.051c0-0.354-0.153-0.656-0.461-0.908
			c-0.307-0.252-0.905-0.551-1.797-0.893c-0.847-0.316-1.448-0.592-1.806-0.826c-0.356-0.236-0.622-0.502-0.797-0.801
			c-0.174-0.299-0.262-0.656-0.262-1.07c0-0.742,0.303-1.328,0.905-1.756c0.603-0.43,1.431-0.645,2.481-0.645
			c0.98,0,1.938,0.199,2.873,0.598l-0.49,1.121c-0.913-0.377-1.74-0.564-2.482-0.564c-0.652,0-1.145,0.102-1.477,0.307
			s-0.498,0.488-0.498,0.848c0,0.242,0.062,0.451,0.187,0.623c0.124,0.17,0.325,0.334,0.602,0.488
			c0.276,0.156,0.808,0.379,1.594,0.674c1.079,0.393,1.808,0.787,2.188,1.186C156.906,37.273,157.095,37.775,157.095,38.379z"/>
		<path fill="#5F6FB4" d="M170.808,37.631c0,1.068-0.388,1.9-1.162,2.498s-1.826,0.896-3.154,0.896c-1.438,0-2.546-0.186-3.32-0.555
			v-1.361c0.498,0.209,1.04,0.375,1.627,0.498c0.587,0.121,1.167,0.182,1.743,0.182c0.941,0,1.648-0.178,2.125-0.535
			s0.714-0.854,0.714-1.49c0-0.42-0.085-0.766-0.253-1.033c-0.169-0.27-0.451-0.516-0.847-0.742
			c-0.396-0.229-0.997-0.484-1.806-0.773c-1.129-0.404-1.936-0.883-2.42-1.436s-0.727-1.275-0.727-2.166
			c0-0.936,0.352-1.68,1.055-2.233s1.633-0.83,2.789-0.83c1.207,0,2.316,0.222,3.328,0.664l-0.439,1.229
			c-1.002-0.422-1.976-0.632-2.922-0.632c-0.747,0-1.331,0.161-1.752,0.481c-0.42,0.32-0.631,0.766-0.631,1.336
			c0,0.422,0.078,0.766,0.232,1.033c0.155,0.27,0.417,0.516,0.785,0.74c0.367,0.223,0.931,0.471,1.689,0.742
			c1.272,0.453,2.148,0.941,2.627,1.461S170.808,36.801,170.808,37.631z"/>
		<path fill="#5F6FB4" d="M176.021,39.889c0.243,0,0.479-0.018,0.706-0.055c0.227-0.035,0.406-0.072,0.539-0.111v1.055
			c-0.149,0.072-0.369,0.131-0.66,0.178c-0.29,0.047-0.552,0.07-0.784,0.07c-1.76,0-2.64-0.926-2.64-2.779v-5.412h-1.303V32.17
			l1.303-0.574l0.581-1.941h0.797v2.107h2.64v1.072h-2.64v5.354c0,0.547,0.13,0.969,0.39,1.262
			C175.21,39.742,175.567,39.889,176.021,39.889z"/>
		<path fill="#5F6FB4" d="M186.936,36.303c0,1.482-0.373,2.641-1.12,3.475c-0.747,0.832-1.779,1.248-3.097,1.248
			c-0.813,0-1.535-0.189-2.166-0.572c-0.631-0.381-1.117-0.93-1.461-1.643c-0.344-0.715-0.515-1.551-0.515-2.508
			c0-1.482,0.37-2.639,1.112-3.465c0.742-0.828,1.771-1.242,3.088-1.242c1.273,0,2.284,0.424,3.034,1.271
			C186.561,33.713,186.936,34.859,186.936,36.303z M180.005,36.303c0,1.162,0.232,2.047,0.697,2.656s1.148,0.914,2.05,0.914
			c0.902,0,1.588-0.305,2.055-0.91c0.468-0.605,0.701-1.492,0.701-2.66c0-1.156-0.233-2.035-0.701-2.635
			c-0.467-0.602-1.158-0.9-2.07-0.9c-0.902,0-1.583,0.295-2.043,0.887C180.235,34.246,180.005,35.129,180.005,36.303z"/>
		<path fill="#5F6FB4" d="M193.502,31.596c0.404,0,0.767,0.033,1.088,0.1l-0.191,1.279c-0.377-0.084-0.709-0.125-0.996-0.125
			c-0.736,0-1.365,0.299-1.889,0.896c-0.522,0.598-0.784,1.342-0.784,2.232v4.881h-1.378v-9.098h1.137l0.158,1.686h0.066
			c0.338-0.592,0.744-1.049,1.221-1.369C192.41,31.756,192.932,31.596,193.502,31.596z"/>
		<path fill="#5F6FB4" d="M200.135,41.025c-1.346,0-2.406-0.408-3.184-1.229c-0.777-0.818-1.166-1.955-1.166-3.41
			c0-1.467,0.36-2.633,1.083-3.496c0.722-0.863,1.692-1.295,2.909-1.295c1.141,0,2.042,0.375,2.706,1.125s0.996,1.74,0.996,2.969
			v0.871h-6.267c0.027,1.068,0.297,1.879,0.809,2.432s1.232,0.83,2.162,0.83c0.98,0,1.948-0.205,2.906-0.613v1.229
			c-0.487,0.209-0.948,0.359-1.383,0.451C201.274,40.98,200.749,41.025,200.135,41.025z M199.761,32.75
			c-0.73,0-1.313,0.238-1.747,0.715c-0.435,0.475-0.69,1.133-0.768,1.975h4.756c0-0.869-0.193-1.535-0.581-1.996
			C201.034,32.98,200.481,32.75,199.761,32.75z"/>
	</g>
</g>
</svg>
