<?xml version="1.0" encoding="utf-8"?>
<!-- Generator: Adobe Illustrator 22.0.0, SVG Export Plug-In . SVG Version: 6.00 Build 0)  -->
<svg version="1.1" xmlns="http://www.w3.org/2000/svg" xmlns:xlink="http://www.w3.org/1999/xlink" x="0" y="0" viewBox="0 0 206.3 206.3" xml:space="preserve">
<style type="text/css">
	

	.st0{fill-rule:evenodd;clip-rule:evenodd;fill:#fff;}
	.st1{opacity:0.9;}
	.st2{opacity:0.9;fill:#00BA9D;}
	.st3{opacity:0.9;fill:#F70045;}
	.st4{fill:#32A4EA;}
	.st5{fill:#FFFFFF;}
	.st6{fill:#FFFFFF;}
	.st7{fill:#555555;}
	#outer-circle {
		 transform-origin: center center;
		-moz-animation: 30s rotateRight infinite ease-in;
		-webkit-animation: 30s rotateRight infinite ease-in;
	}

@-moz-keyframes rotateRight {
  0% {
    -moz-transform: rotate(0deg);
  }
  100% {
    -moz-transform: rotate(360deg);
  }
}

@-webkit-keyframes rotateRight {
  0% {
    -webkit-transform: rotate(0deg);
  }
  100% {
    -webkit-transform: rotate(360deg);
  }
}

</style>
<g id="Layer_1">
	<g>
		<path id="circle" class="st0" d="M194.1,103.1c0,0.7,0,1.5,0,2.2c-0.1,4.8-0.6,9.5-1.4,14.1c-7.7,42.5-44.9,74.7-89.5,74.7
			c-37.3,0-69.3-22.4-83.4-54.5c-3.3-7.5-5.6-15.5-6.8-24c-0.6-4.1-0.9-8.3-0.9-12.6c0-50.2,40.7-91,91-91
			C153.4,12.1,194.1,52.9,194.1,103.1z"/>
		<g class="st1">
			<path id="green_1_" class="st2" d="M22,144.2c-2.2-4.3-4-8.7-5.4-13.1C3.2,90,20.7,44,60,22.9c32.8-17.7,71.7-13.1,99.2,8.5
				c6.5,5,12.3,11,17.3,17.9c-15.9-9.6-64.9-7.3-82.2,6.4C61.2,81.9,58.4,147.7,22,144.2z"/>
			<path id="red" class="st3" d="M129.6,16.2c4.6,1.4,9,3.1,13.2,5.2c38.9,18.8,59.9,63.2,47.9,106.3c-10,35.9-40.2,60.8-74.9,65.7
				c-8.1,1.2-16.5,1.2-24.9,0.1c18-4.8,50.2-41.7,52.3-63.7C147.4,87.6,101.9,40,129.6,16.2z"/>
			<path id="blue" class="st4" d="M188.4,135.1c-15.1,40.4-57.4,65.5-101.4,57.6c-36.7-6.6-64.2-34.4-72.4-68.4
				c21.2-10.4,39.2-12.6,73.5,13C120.2,161.1,170.4,148.6,188.4,135.1z"/>
		</g>
		<g id="outer-circle">
	<!-- 		<animateTransform  attributeName="transform"
			                          attributeType="XML"
			                          type="rotate"
			                          from="0 60 70"
			                          to="360 60 70"
			                          dur="10s"
			                          repeatCount="indefinite"/> -->
			<path  class="st5" d="M102.6,206.3C102.6,206.3,102.5,206.3,102.6,206.3c-1.7,0-3.4-0.1-5.1-0.2c-0.7,0-1.2-0.6-1.2-1.3
				c0-0.7,0.6-1.2,1.3-1.2c1.7,0.1,3.3,0.1,5,0.1c0.7,0,1.3,0.6,1.2,1.3C103.8,205.7,103.2,206.3,102.6,206.3z M88.7,205.2
				c-0.1,0-0.1,0-0.2,0c-5.1-0.7-10.1-1.8-15-3.3c-0.7-0.2-1-0.9-0.8-1.6c0.2-0.7,0.9-1,1.6-0.8c4.8,1.4,9.7,2.5,14.6,3.2
				c0.7,0.1,1.2,0.7,1.1,1.4C89.8,204.8,89.3,205.2,88.7,205.2z M117.7,205.2c-0.6,0-1.1-0.4-1.2-1.1c-0.1-0.7,0.4-1.3,1.1-1.4
				c2.9-0.4,5.8-1,8.6-1.6c0.7-0.2,1.3,0.3,1.5,0.9c0.2,0.7-0.3,1.3-0.9,1.5c-2.9,0.7-5.9,1.2-8.8,1.7
				C117.8,205.2,117.7,205.2,117.7,205.2z M131.3,202.3c-0.5,0-1-0.4-1.2-0.9c-0.2-0.7,0.2-1.4,0.9-1.5c4.8-1.4,9.5-3.1,14-5.2
				c0.6-0.3,1.4,0,1.7,0.6c0.3,0.6,0,1.4-0.6,1.7c-4.6,2.1-9.5,3.9-14.4,5.3C131.5,202.3,131.4,202.3,131.3,202.3z M69.1,200.4
				c-0.1,0-0.3,0-0.4-0.1c-2.8-1-5.6-2.1-8.3-3.4c-0.6-0.3-0.9-1-0.6-1.7c0.3-0.6,1-0.9,1.7-0.6c2.6,1.2,5.4,2.3,8.1,3.3
				c0.6,0.2,1,0.9,0.8,1.6C70.1,200.1,69.6,200.4,69.1,200.4z M153.4,193c-0.4,0-0.9-0.2-1.1-0.6c-0.3-0.6-0.1-1.4,0.5-1.7
				c1.4-0.8,2.9-1.7,4.3-2.6c0.6-0.4,1.4-0.2,1.7,0.4c0.4,0.6,0.2,1.4-0.4,1.7c-1.4,0.9-2.9,1.8-4.4,2.6
				C153.8,193,153.6,193,153.4,193z M47.6,189.8c-0.2,0-0.5-0.1-0.7-0.2c-1.4-0.9-2.8-1.9-4.2-2.9c-0.6-0.4-0.7-1.2-0.3-1.7
				c0.4-0.6,1.2-0.7,1.7-0.3c1.3,1,2.7,1.9,4.1,2.8c0.6,0.4,0.7,1.2,0.4,1.7C48.4,189.6,48,189.8,47.6,189.8z M36.5,181.4
				c-0.3,0-0.6-0.1-0.8-0.3c-3.9-3.3-7.5-7-10.8-10.9c-0.5-0.5-0.4-1.3,0.1-1.8c0.5-0.4,1.3-0.4,1.8,0.1c3.2,3.8,6.8,7.4,10.6,10.6
				c0.5,0.5,0.6,1.2,0.1,1.8C37.2,181.3,36.8,181.4,36.5,181.4z M169.9,181.4c-0.3,0-0.7-0.1-0.9-0.4c-0.5-0.5-0.4-1.3,0.1-1.8
				c2.2-1.9,4.3-3.9,6.3-6c0.5-0.5,1.3-0.5,1.8,0c0.5,0.5,0.5,1.3,0,1.8c-2.1,2.1-4.3,4.2-6.5,6.2
				C170.4,181.3,170.1,181.4,169.9,181.4z M179.7,171.6c-0.3,0-0.6-0.1-0.8-0.3c-0.5-0.5-0.6-1.2-0.1-1.8c3.3-3.7,6.3-7.8,9-12
				c0.4-0.6,1.1-0.7,1.7-0.4c0.6,0.4,0.7,1.1,0.4,1.7c-2.8,4.3-5.9,8.4-9.2,12.3C180.4,171.4,180.1,171.6,179.7,171.6z M22.6,166.8
				c-0.4,0-0.7-0.2-1-0.5c-1.8-2.4-3.6-4.8-5.2-7.3c-0.4-0.6-0.2-1.4,0.4-1.7c0.6-0.4,1.4-0.2,1.7,0.4c1.6,2.4,3.3,4.8,5.1,7.1
				c0.4,0.5,0.3,1.3-0.2,1.8C23.1,166.7,22.8,166.8,22.6,166.8z M193.3,151.8c-0.2,0-0.4,0-0.6-0.1c-0.6-0.3-0.8-1.1-0.5-1.7
				c0.8-1.5,1.5-3,2.2-4.5c0.3-0.6,1-0.9,1.7-0.6c0.6,0.3,0.9,1,0.6,1.7c-0.7,1.5-1.5,3.1-2.3,4.6
				C194.2,151.6,193.8,151.8,193.3,151.8z M10.2,146.2c-0.5,0-0.9-0.3-1.1-0.7c-0.7-1.6-1.4-3.1-2-4.7c-0.2-0.6,0.1-1.4,0.7-1.6
				c0.6-0.2,1.4,0.1,1.6,0.7c0.6,1.5,1.3,3.1,1.9,4.6c0.3,0.6,0,1.4-0.6,1.7C10.6,146.2,10.4,146.2,10.2,146.2z M5.4,133.2
				c-0.5,0-1-0.4-1.2-0.9c-1.4-4.9-2.5-9.9-3.2-15c-0.1-0.7,0.4-1.3,1.1-1.4c0.7-0.1,1.3,0.4,1.4,1.1c0.7,4.9,1.7,9.9,3.1,14.6
				c0.2,0.7-0.2,1.4-0.8,1.6C5.6,133.2,5.5,133.2,5.4,133.2z M200.9,133.1c-0.1,0-0.2,0-0.4,0c-0.7-0.2-1-0.9-0.8-1.6
				c0.8-2.8,1.5-5.6,2.1-8.5c0.1-0.7,0.8-1.1,1.5-1c0.7,0.1,1.1,0.8,1,1.5c-0.6,2.9-1.3,5.8-2.1,8.7
				C202,132.7,201.5,133.1,200.9,133.1z M203.9,119.5c-0.1,0-0.1,0-0.2,0c-0.7-0.1-1.2-0.7-1.1-1.4c0.7-4.9,1.1-9.9,1.1-14.9l0-0.2
				c0-0.7,0.6-1.3,1.3-1.3c0.7,0,1.3,0.6,1.3,1.3l0,0.2c0,5.1-0.4,10.3-1.1,15.3C205,119.1,204.5,119.5,203.9,119.5z M1.6,113.3
				c-0.6,0-1.2-0.5-1.2-1.1c-0.3-3-0.4-6-0.4-9c0-0.7,0.6-1.3,1.3-1.3l0,0c0.7,0,1.3,0.6,1.3,1.2c0,2.9,0.1,5.8,0.4,8.7
				c0.1,0.7-0.5,1.3-1.1,1.4C1.7,113.3,1.7,113.3,1.6,113.3z M204.6,95.3c-0.6,0-1.2-0.5-1.2-1.1c-0.1-1.6-0.3-3.3-0.6-5
				c-0.1-0.7,0.4-1.3,1.1-1.4c0.7-0.1,1.3,0.4,1.4,1.1c0.2,1.7,0.4,3.4,0.6,5.1c0.1,0.7-0.4,1.3-1.1,1.4
				C204.7,95.3,204.6,95.3,204.6,95.3z M2.3,89.4c-0.1,0-0.1,0-0.2,0c-0.7-0.1-1.2-0.7-1.1-1.4c0.2-1.7,0.5-3.4,0.9-5
				c0.1-0.7,0.8-1.1,1.5-1c0.7,0.1,1.1,0.8,1,1.5c-0.3,1.6-0.6,3.3-0.9,4.9C3.5,88.9,3,89.4,2.3,89.4z M5.3,75.8
				c-0.1,0-0.2,0-0.4-0.1c-0.7-0.2-1-0.9-0.9-1.6c1.4-4.9,3.2-9.7,5.4-14.4c0.3-0.6,1-0.9,1.7-0.6c0.6,0.3,0.9,1,0.6,1.7
				c-2.1,4.5-3.9,9.2-5.3,14C6.4,75.4,5.9,75.8,5.3,75.8z M200.8,75.5c-0.5,0-1-0.4-1.2-0.9c-0.8-2.8-1.8-5.6-2.8-8.3
				c-0.3-0.6,0.1-1.4,0.7-1.6c0.6-0.2,1.4,0.1,1.6,0.7c1.1,2.8,2.1,5.6,2.9,8.5c0.2,0.7-0.2,1.4-0.8,1.6
				C201.1,75.4,201,75.5,200.8,75.5z M196,62.4c-0.5,0-0.9-0.3-1.1-0.7c-2.1-4.5-4.5-9-7.2-13.1c-0.4-0.6-0.2-1.4,0.4-1.7
				c0.6-0.4,1.4-0.2,1.7,0.4c2.8,4.3,5.2,8.8,7.3,13.5c0.3,0.6,0,1.4-0.6,1.7C196.4,62.4,196.2,62.4,196,62.4z M12.9,57.1
				c-0.2,0-0.4,0-0.6-0.1c-0.6-0.3-0.8-1.1-0.5-1.7c1.4-2.6,2.9-5.2,4.5-7.7c0.4-0.6,1.1-0.8,1.7-0.4c0.6,0.4,0.8,1.1,0.4,1.7
				c-1.6,2.4-3.1,5-4.4,7.6C13.8,56.8,13.3,57.1,12.9,57.1z M183.6,41.9c-0.4,0-0.7-0.2-1-0.5c-1-1.3-2.1-2.6-3.2-3.9
				c-0.5-0.5-0.4-1.3,0.1-1.8c0.5-0.4,1.3-0.4,1.8,0.1c1.1,1.3,2.2,2.6,3.2,4c0.4,0.5,0.3,1.3-0.2,1.8
				C184.2,41.8,183.9,41.9,183.6,41.9z M26.5,37.3c-0.3,0-0.6-0.1-0.8-0.3c-0.5-0.5-0.6-1.2-0.1-1.8c1.1-1.3,2.3-2.5,3.5-3.8
				c0.5-0.5,1.3-0.5,1.8,0c0.5,0.5,0.5,1.3,0,1.8c-1.2,1.2-2.3,2.4-3.4,3.7C27.2,37.1,26.8,37.3,26.5,37.3z M36.3,27.5
				c-0.3,0-0.7-0.1-0.9-0.4c-0.5-0.5-0.4-1.3,0.1-1.8c3.9-3.4,8-6.4,12.3-9.2c0.6-0.4,1.4-0.2,1.7,0.4c0.4,0.6,0.2,1.4-0.4,1.7
				c-4.2,2.7-8.2,5.7-12,9C36.9,27.4,36.6,27.5,36.3,27.5z M169.7,27.3c-0.3,0-0.6-0.1-0.8-0.3c-2.2-1.9-4.5-3.7-6.9-5.4
				c-0.6-0.4-0.7-1.2-0.3-1.7c0.4-0.6,1.2-0.7,1.7-0.3c2.4,1.7,4.8,3.6,7,5.6c0.5,0.5,0.6,1.2,0.1,1.8
				C170.4,27.1,170.1,27.3,169.7,27.3z M158.6,18.9c-0.2,0-0.5-0.1-0.7-0.2c-4.2-2.7-8.6-5.1-13.1-7.2c-0.6-0.3-0.9-1-0.6-1.7
				c0.3-0.6,1-0.9,1.7-0.6c4.6,2.1,9.2,4.6,13.5,7.4c0.6,0.4,0.7,1.2,0.4,1.7C159.4,18.7,159,18.9,158.6,18.9z M52.8,15.8
				c-0.4,0-0.9-0.2-1.1-0.6c-0.3-0.6-0.1-1.4,0.5-1.7c2.6-1.5,5.3-2.9,8-4.1c0.6-0.3,1.4,0,1.7,0.6c0.3,0.6,0,1.4-0.6,1.7
				c-2.6,1.2-5.3,2.6-7.8,4C53.2,15.7,53,15.8,52.8,15.8z M137.1,8.3c-0.1,0-0.3,0-0.4-0.1c-1.6-0.6-3.2-1.1-4.8-1.5
				c-0.7-0.2-1-0.9-0.8-1.6c0.2-0.7,0.9-1,1.6-0.8c1.6,0.5,3.3,1,4.9,1.6c0.6,0.2,1,0.9,0.8,1.6C138.1,8,137.6,8.3,137.1,8.3z
				 M74.9,6.5c-0.5,0-1-0.4-1.2-0.9c-0.2-0.7,0.2-1.4,0.9-1.5c1.6-0.5,3.3-0.9,5-1.3C80.2,2.6,80.8,3,81,3.7
				c0.2,0.7-0.3,1.3-0.9,1.5c-1.6,0.4-3.2,0.8-4.8,1.3C75.1,6.5,75,6.5,74.9,6.5z M88.5,3.5c-0.6,0-1.1-0.4-1.2-1.1
				c-0.1-0.7,0.4-1.3,1.1-1.4C93.2,0.4,98.2,0,103.1,0h0.5c0.7,0,1.2,0.6,1.2,1.3c0,0.7-0.6,1.2-1.3,1.2h0l-0.5,0
				c-4.8,0-9.7,0.3-14.5,1C88.6,3.5,88.5,3.5,88.5,3.5z M117.5,3.5c-0.1,0-0.1,0-0.2,0c-2.9-0.4-5.8-0.7-8.7-0.8
				c-0.7,0-1.2-0.6-1.2-1.3c0-0.7,0.6-1.2,1.3-1.2c3,0.2,6,0.4,8.9,0.9c0.7,0.1,1.2,0.7,1.1,1.4C118.6,3,118.1,3.5,117.5,3.5z"/>
		</g>
	</g>
</g>
<g id="theText">
	<g>
		<path class="st6" d="M42.5,50.1c0,0.6-0.2,1-0.6,1.3s-1,0.5-1.7,0.5s-1.3-0.1-1.8-0.3v-1c0.3,0.1,0.6,0.2,0.9,0.3
			c0.3,0.1,0.6,0.1,0.9,0.1c0.4,0,0.7-0.1,0.9-0.2c0.2-0.2,0.3-0.4,0.3-0.6c0-0.2-0.1-0.4-0.3-0.6S40.6,49.2,40,49
			c-0.6-0.2-1-0.5-1.2-0.8s-0.4-0.7-0.4-1.1c0-0.5,0.2-1,0.6-1.3s0.9-0.5,1.5-0.5c0.6,0,1.2,0.1,1.8,0.4l-0.3,0.9
			c-0.6-0.2-1.1-0.4-1.5-0.4c-0.3,0-0.6,0.1-0.8,0.2c-0.2,0.1-0.3,0.3-0.3,0.6c0,0.2,0,0.3,0.1,0.4c0.1,0.1,0.2,0.2,0.3,0.3
			s0.5,0.2,0.9,0.4c0.5,0.2,0.8,0.4,1,0.5s0.4,0.4,0.5,0.6S42.5,49.8,42.5,50.1z"/>
		<path class="st6" d="M46.7,51.9l-0.2-0.7h0c-0.2,0.3-0.5,0.5-0.7,0.6c-0.2,0.1-0.5,0.2-0.9,0.2c-0.5,0-0.9-0.1-1.1-0.4
			c-0.3-0.3-0.4-0.6-0.4-1.1c0-0.5,0.2-0.9,0.6-1.1s0.9-0.4,1.7-0.4l0.8,0v-0.3c0-0.3-0.1-0.5-0.2-0.7c-0.1-0.2-0.4-0.2-0.7-0.2
			c-0.2,0-0.5,0-0.7,0.1s-0.4,0.2-0.7,0.3l-0.3-0.7c0.3-0.1,0.6-0.2,0.9-0.3c0.3-0.1,0.6-0.1,0.9-0.1c0.6,0,1.1,0.1,1.4,0.4
			s0.5,0.7,0.5,1.3v3.3H46.7z M45.1,51.2c0.4,0,0.7-0.1,0.9-0.3c0.2-0.2,0.3-0.5,0.3-0.9v-0.4l-0.6,0c-0.5,0-0.8,0.1-1.1,0.2
			c-0.2,0.1-0.3,0.4-0.3,0.7c0,0.2,0.1,0.4,0.2,0.5C44.7,51.1,44.9,51.2,45.1,51.2z"/>
		<path class="st6" d="M49.9,51.9h-1V45h1V51.9z"/>
		<path class="st6" d="M53.5,51.9c-0.8,0-1.3-0.2-1.8-0.7c-0.4-0.4-0.6-1-0.6-1.8c0-0.8,0.2-1.4,0.6-1.9s0.9-0.7,1.6-0.7
			c0.6,0,1.1,0.2,1.5,0.6s0.6,0.9,0.6,1.6v0.6h-3.2c0,0.5,0.1,0.8,0.4,1.1s0.6,0.4,1,0.4c0.3,0,0.6,0,0.8-0.1s0.5-0.1,0.8-0.3v0.8
			c-0.3,0.1-0.5,0.2-0.8,0.3S53.8,51.9,53.5,51.9z M53.3,47.7c-0.3,0-0.6,0.1-0.8,0.3c-0.2,0.2-0.3,0.5-0.4,0.9h2.2
			c0-0.4-0.1-0.7-0.3-0.9C53.9,47.8,53.6,47.7,53.3,47.7z"/>
		<path class="st6" d="M59.8,50.5c0,0.5-0.2,0.8-0.5,1.1s-0.8,0.4-1.5,0.4c-0.6,0-1.2-0.1-1.6-0.3v-0.9c0.6,0.3,1.1,0.4,1.6,0.4
			c0.6,0,1-0.2,1-0.6c0-0.1,0-0.2-0.1-0.3s-0.2-0.2-0.3-0.3s-0.4-0.2-0.7-0.3c-0.6-0.2-0.9-0.4-1.1-0.7c-0.2-0.2-0.3-0.5-0.3-0.8
			c0-0.4,0.2-0.7,0.5-1c0.3-0.2,0.8-0.3,1.4-0.3c0.6,0,1.1,0.1,1.6,0.3L59.4,48c-0.5-0.2-1-0.3-1.3-0.3c-0.5,0-0.8,0.2-0.8,0.5
			c0,0.2,0.1,0.3,0.2,0.4s0.5,0.3,0.9,0.4c0.4,0.2,0.7,0.3,0.9,0.4s0.3,0.3,0.4,0.4S59.8,50.2,59.8,50.5z"/>
		<path class="st6" d="M62.9,50.2c0-0.4,0.1-0.7,0.3-1c0.2-0.3,0.5-0.6,1-0.9c-0.3-0.3-0.5-0.6-0.6-0.8c-0.1-0.2-0.2-0.5-0.2-0.7
			c0-0.4,0.2-0.8,0.5-1.1c0.3-0.3,0.7-0.4,1.3-0.4c0.5,0,0.9,0.1,1.2,0.4c0.3,0.3,0.4,0.6,0.4,1c0,0.3-0.1,0.6-0.3,0.9
			c-0.2,0.3-0.5,0.5-1,0.8l1.5,1.5c0.2-0.3,0.4-0.8,0.6-1.4h1.1c-0.2,0.8-0.5,1.5-1,2l1.3,1.3h-1.3l-0.7-0.6c-0.3,0.2-0.6,0.4-1,0.5
			c-0.3,0.1-0.7,0.2-1.1,0.2c-0.7,0-1.2-0.2-1.6-0.5S62.9,50.7,62.9,50.2z M65.2,51.1c0.5,0,1-0.2,1.4-0.5l-1.7-1.7
			c-0.3,0.2-0.5,0.4-0.6,0.6S64,49.9,64,50.1c0,0.3,0.1,0.5,0.3,0.7C64.5,51,64.8,51.1,65.2,51.1z M64.5,46.8c0,0.2,0,0.4,0.1,0.5
			s0.2,0.3,0.4,0.5c0.3-0.2,0.6-0.4,0.7-0.5c0.1-0.2,0.2-0.3,0.2-0.5c0-0.2-0.1-0.3-0.2-0.5c-0.1-0.1-0.3-0.2-0.5-0.2
			c-0.2,0-0.4,0.1-0.6,0.2C64.6,46.5,64.5,46.6,64.5,46.8z"/>
		<path class="st6" d="M34.9,62.7l-1.9-5.4h0c0,0.8,0.1,1.5,0.1,2.2v3.1h-1v-6.4h1.5l1.8,5.1h0l1.8-5.1h1.5v6.4h-1v-3.2
			c0-0.3,0-0.7,0-1.2c0-0.5,0-0.8,0-0.9h0l-1.9,5.4H34.9z"/>
		<path class="st6" d="M43.4,62.7L43.2,62h0c-0.2,0.3-0.5,0.5-0.7,0.6c-0.2,0.1-0.5,0.2-0.9,0.2c-0.5,0-0.9-0.1-1.1-0.4
			c-0.3-0.3-0.4-0.6-0.4-1.1c0-0.5,0.2-0.9,0.6-1.1s0.9-0.4,1.7-0.4l0.8,0v-0.3c0-0.3-0.1-0.5-0.2-0.7c-0.1-0.2-0.4-0.2-0.7-0.2
			c-0.2,0-0.5,0-0.7,0.1s-0.4,0.2-0.7,0.3l-0.3-0.7c0.3-0.1,0.6-0.2,0.9-0.3c0.3-0.1,0.6-0.1,0.9-0.1c0.6,0,1.1,0.1,1.4,0.4
			s0.5,0.7,0.5,1.3v3.3H43.4z M41.9,62c0.4,0,0.7-0.1,0.9-0.3c0.2-0.2,0.3-0.5,0.3-0.9v-0.4l-0.6,0c-0.5,0-0.8,0.1-1.1,0.2
			c-0.2,0.1-0.3,0.4-0.3,0.7c0,0.2,0.1,0.4,0.2,0.5C41.4,61.9,41.6,62,41.9,62z"/>
		<path class="st6" d="M48,57.7c0.2,0,0.4,0,0.5,0l-0.1,1c-0.1,0-0.3-0.1-0.5-0.1c-0.4,0-0.7,0.1-1,0.4s-0.4,0.6-0.4,1.1v2.5h-1
			v-4.9h0.8l0.1,0.9h0.1c0.2-0.3,0.4-0.5,0.6-0.7C47.5,57.8,47.7,57.7,48,57.7z"/>
		<path class="st6" d="M50.4,60.1l0.6-0.7l1.5-1.6h1.2l-2,2.1l2.1,2.8h-1.2L51,60.5L50.5,61v1.7h-1v-6.8h1v3.3L50.4,60.1L50.4,60.1z
			"/>
		<path class="st6" d="M56.7,62.7c-0.8,0-1.3-0.2-1.8-0.7c-0.4-0.4-0.6-1-0.6-1.8c0-0.8,0.2-1.4,0.6-1.9s0.9-0.7,1.6-0.7
			c0.6,0,1.1,0.2,1.5,0.6s0.6,0.9,0.6,1.6v0.6h-3.2c0,0.5,0.1,0.8,0.4,1.1s0.6,0.4,1,0.4c0.3,0,0.6,0,0.8-0.1s0.5-0.1,0.8-0.3v0.8
			c-0.3,0.1-0.5,0.2-0.8,0.3S57,62.7,56.7,62.7z M56.5,58.5c-0.3,0-0.6,0.1-0.8,0.3c-0.2,0.2-0.3,0.5-0.4,0.9h2.2
			c0-0.4-0.1-0.7-0.3-0.9C57.1,58.6,56.9,58.5,56.5,58.5z"/>
		<path class="st6" d="M61.6,61.9c0.3,0,0.5,0,0.8-0.1v0.8c-0.1,0-0.3,0.1-0.4,0.1c-0.2,0-0.4,0.1-0.6,0.1c-1,0-1.5-0.5-1.5-1.5
			v-2.6h-0.7v-0.5l0.7-0.4l0.4-1h0.6v1.1h1.4v0.8h-1.4v2.6c0,0.2,0.1,0.4,0.2,0.6C61.2,61.9,61.4,61.9,61.6,61.9z"/>
		<path class="st6" d="M63.3,56.5c0-0.2,0.1-0.3,0.2-0.4c0.1-0.1,0.2-0.1,0.4-0.1c0.2,0,0.3,0,0.4,0.1c0.1,0.1,0.2,0.2,0.2,0.4
			c0,0.2-0.1,0.3-0.2,0.4c-0.1,0.1-0.2,0.2-0.4,0.2c-0.2,0-0.3-0.1-0.4-0.2C63.3,56.8,63.3,56.7,63.3,56.5z M64.4,62.7h-1v-4.9h1
			V62.7z"/>
		<path class="st6" d="M70.1,62.7h-1v-3c0-0.4-0.1-0.7-0.2-0.8c-0.2-0.2-0.4-0.3-0.7-0.3c-0.4,0-0.8,0.1-1,0.4s-0.3,0.7-0.3,1.3v2.4
			h-1v-4.9h0.8l0.1,0.6h0.1c0.1-0.2,0.4-0.4,0.6-0.5s0.6-0.2,0.9-0.2c1.2,0,1.7,0.6,1.7,1.8V62.7z"/>
		<path class="st6" d="M75.6,57.8v0.6l-0.8,0.2c0.1,0.1,0.1,0.2,0.2,0.4s0.1,0.3,0.1,0.5c0,0.5-0.2,0.9-0.5,1.2S73.7,61,73.1,61
			c-0.2,0-0.3,0-0.4,0c-0.2,0.1-0.3,0.3-0.3,0.5c0,0.1,0.1,0.2,0.2,0.3c0.1,0.1,0.3,0.1,0.6,0.1H74c0.5,0,0.9,0.1,1.2,0.3
			s0.4,0.6,0.4,1c0,0.6-0.2,1-0.7,1.3s-1.1,0.4-2,0.4c-0.7,0-1.2-0.1-1.5-0.4s-0.5-0.6-0.5-1c0-0.3,0.1-0.6,0.3-0.8
			c0.2-0.2,0.5-0.3,0.8-0.4c-0.1-0.1-0.3-0.2-0.3-0.3s-0.1-0.3-0.1-0.4c0-0.2,0.1-0.3,0.2-0.5s0.3-0.3,0.5-0.4
			c-0.3-0.1-0.5-0.3-0.6-0.5c-0.2-0.2-0.2-0.5-0.2-0.9c0-0.5,0.2-0.9,0.5-1.2c0.3-0.3,0.8-0.4,1.4-0.4c0.1,0,0.3,0,0.4,0
			c0.2,0,0.3,0,0.3,0.1H75.6z M71.8,63.4c0,0.2,0.1,0.4,0.3,0.5c0.2,0.1,0.5,0.2,0.8,0.2c0.6,0,1-0.1,1.3-0.2
			c0.3-0.2,0.4-0.4,0.4-0.6c0-0.2-0.1-0.4-0.2-0.5s-0.4-0.1-0.8-0.1h-0.8c-0.3,0-0.5,0.1-0.7,0.2C71.9,63,71.8,63.2,71.8,63.4z
			 M72.3,59.4c0,0.3,0.1,0.5,0.2,0.7c0.2,0.2,0.4,0.2,0.7,0.2c0.6,0,0.9-0.3,0.9-1c0-0.3-0.1-0.6-0.2-0.7c-0.1-0.2-0.4-0.3-0.7-0.3
			c-0.3,0-0.5,0.1-0.7,0.3C72.3,58.8,72.3,59,72.3,59.4z"/>
		<path class="st6" d="M37.2,73.5l-0.6-1.8h-2.5l-0.6,1.8h-1.1l2.4-6.5h1.1l2.4,6.5H37.2z M36.2,70.8L35.6,69c0-0.1-0.1-0.3-0.2-0.6
			s-0.1-0.4-0.2-0.6c-0.1,0.4-0.2,0.8-0.3,1.2l-0.6,1.7H36.2z"/>
		<path class="st6" d="M43.3,73.5h-1v-3c0-0.4-0.1-0.7-0.2-0.8c-0.2-0.2-0.4-0.3-0.7-0.3c-0.4,0-0.8,0.1-1,0.4S40,70.4,40,71v2.4h-1
			v-4.9h0.8l0.1,0.6H40c0.1-0.2,0.4-0.4,0.6-0.5s0.6-0.2,0.9-0.2c1.2,0,1.7,0.6,1.7,1.8V73.5z"/>
		<path class="st6" d="M47.8,73.5l-0.2-0.7h0c-0.2,0.3-0.5,0.5-0.7,0.6c-0.2,0.1-0.5,0.2-0.9,0.2c-0.5,0-0.9-0.1-1.1-0.4
			c-0.3-0.3-0.4-0.6-0.4-1.1c0-0.5,0.2-0.9,0.6-1.1s0.9-0.4,1.7-0.4l0.8,0v-0.3c0-0.3-0.1-0.5-0.2-0.7c-0.1-0.2-0.4-0.2-0.7-0.2
			c-0.2,0-0.5,0-0.7,0.1s-0.4,0.2-0.7,0.3l-0.3-0.7c0.3-0.1,0.6-0.2,0.9-0.3c0.3-0.1,0.6-0.1,0.9-0.1c0.6,0,1.1,0.1,1.4,0.4
			s0.5,0.7,0.5,1.3v3.3H47.8z M46.2,72.8c0.4,0,0.7-0.1,0.9-0.3c0.2-0.2,0.3-0.5,0.3-0.9v-0.4l-0.6,0c-0.5,0-0.8,0.1-1.1,0.2
			c-0.2,0.1-0.3,0.4-0.3,0.7c0,0.2,0.1,0.4,0.2,0.5C45.8,72.7,46,72.8,46.2,72.8z"/>
		<path class="st6" d="M54.2,73.5h-1v-3c0-0.4-0.1-0.7-0.2-0.8c-0.2-0.2-0.4-0.3-0.7-0.3c-0.4,0-0.8,0.1-1,0.4S51,70.4,51,71v2.4h-1
			v-4.9h0.8l0.1,0.6h0.1c0.1-0.2,0.4-0.4,0.6-0.5s0.6-0.2,0.9-0.2c1.2,0,1.7,0.6,1.7,1.8V73.5z"/>
		<path class="st6" d="M56.7,73.5h-1v-6.8h1V73.5z"/>
		<path class="st6" d="M57.4,68.6h1.1l1,2.8c0.1,0.4,0.2,0.8,0.3,1.1h0c0-0.2,0.1-0.4,0.1-0.6s0.4-1.3,1.1-3.3h1.1l-2.1,5.5
			c-0.4,1-1,1.5-1.9,1.5c-0.2,0-0.5,0-0.7-0.1v-0.8c0.2,0,0.3,0.1,0.5,0.1c0.5,0,0.8-0.3,1.1-0.9l0.2-0.5L57.4,68.6z"/>
		<path class="st6" d="M64.8,72.7c0.3,0,0.5,0,0.8-0.1v0.8c-0.1,0-0.3,0.1-0.4,0.1c-0.2,0-0.4,0.1-0.6,0.1c-1,0-1.5-0.5-1.5-1.5
			v-2.6h-0.7v-0.5l0.7-0.4l0.4-1h0.6v1.1h1.4v0.8h-1.4V72c0,0.2,0.1,0.4,0.2,0.6C64.4,72.7,64.6,72.7,64.8,72.7z"/>
		<path class="st6" d="M66.5,67.3c0-0.2,0.1-0.3,0.2-0.4c0.1-0.1,0.2-0.1,0.4-0.1c0.2,0,0.3,0,0.4,0.1c0.1,0.1,0.2,0.2,0.2,0.4
			c0,0.2-0.1,0.3-0.2,0.4c-0.1,0.1-0.2,0.2-0.4,0.2c-0.2,0-0.3-0.1-0.4-0.2C66.5,67.6,66.5,67.5,66.5,67.3z M67.6,73.5h-1v-4.9h1
			V73.5z"/>
		<path class="st6" d="M71,73.5c-0.7,0-1.3-0.2-1.7-0.6c-0.4-0.4-0.6-1-0.6-1.8c0-0.8,0.2-1.4,0.6-1.9c0.4-0.4,1-0.7,1.7-0.7
			c0.5,0,1,0.1,1.4,0.3l-0.3,0.8c-0.4-0.2-0.8-0.3-1.1-0.3c-0.8,0-1.3,0.6-1.3,1.7c0,0.5,0.1,1,0.3,1.2c0.2,0.3,0.5,0.4,0.9,0.4
			c0.5,0,0.9-0.1,1.3-0.3v0.9c-0.2,0.1-0.4,0.2-0.6,0.2C71.5,73.5,71.3,73.5,71,73.5z"/>
		<path class="st6" d="M76.8,72.1c0,0.5-0.2,0.8-0.5,1.1s-0.8,0.4-1.5,0.4c-0.6,0-1.2-0.1-1.6-0.3v-0.9c0.6,0.3,1.1,0.4,1.6,0.4
			c0.6,0,1-0.2,1-0.6c0-0.1,0-0.2-0.1-0.3s-0.2-0.2-0.3-0.3s-0.4-0.2-0.7-0.3c-0.6-0.2-0.9-0.4-1.1-0.7c-0.2-0.2-0.3-0.5-0.3-0.8
			c0-0.4,0.2-0.7,0.5-1c0.3-0.2,0.8-0.3,1.4-0.3c0.6,0,1.1,0.1,1.6,0.3l-0.3,0.8c-0.5-0.2-1-0.3-1.3-0.3c-0.5,0-0.8,0.2-0.8,0.5
			c0,0.2,0.1,0.3,0.2,0.4s0.5,0.3,0.9,0.4c0.4,0.2,0.7,0.3,0.9,0.4s0.3,0.3,0.4,0.4S76.8,71.8,76.8,72.1z"/>
	</g>
	<g>
		<path class="st6" d="M147.6,80c-0.6,0-1.1,0.2-1.4,0.6s-0.5,1-0.5,1.8c0,0.8,0.2,1.4,0.5,1.8c0.3,0.4,0.8,0.6,1.4,0.6
			c0.3,0,0.5,0,0.8-0.1s0.5-0.1,0.8-0.2v0.9c-0.5,0.2-1.1,0.3-1.7,0.3c-0.9,0-1.7-0.3-2.2-0.9s-0.8-1.4-0.8-2.4
			c0-0.7,0.1-1.3,0.4-1.8c0.2-0.5,0.6-0.9,1.1-1.2s1-0.4,1.6-0.4c0.7,0,1.3,0.1,1.8,0.4l-0.4,0.9c-0.2-0.1-0.4-0.2-0.7-0.3
			C148.1,80.1,147.8,80,147.6,80z"/>
		<path class="st6" d="M153.9,85.6l-0.1-0.6h-0.1c-0.1,0.2-0.3,0.4-0.6,0.5c-0.3,0.1-0.6,0.2-0.9,0.2c-0.6,0-1-0.1-1.3-0.4
			s-0.4-0.7-0.4-1.3v-3.2h1v3c0,0.4,0.1,0.7,0.2,0.8c0.2,0.2,0.4,0.3,0.7,0.3c0.4,0,0.8-0.1,1-0.4c0.2-0.3,0.3-0.7,0.3-1.3v-2.4h1
			v4.9H153.9z"/>
		<path class="st6" d="M159.4,84.3c0,0.5-0.2,0.8-0.5,1.1s-0.8,0.4-1.5,0.4c-0.6,0-1.2-0.1-1.6-0.3v-0.9c0.6,0.3,1.1,0.4,1.6,0.4
			c0.6,0,1-0.2,1-0.6c0-0.1,0-0.2-0.1-0.3s-0.2-0.2-0.3-0.3s-0.4-0.2-0.7-0.3c-0.6-0.2-0.9-0.4-1.1-0.7c-0.2-0.2-0.3-0.5-0.3-0.8
			c0-0.4,0.2-0.7,0.5-1c0.3-0.2,0.8-0.3,1.4-0.3c0.6,0,1.1,0.1,1.6,0.3l-0.3,0.8c-0.5-0.2-1-0.3-1.3-0.3c-0.5,0-0.8,0.2-0.8,0.5
			c0,0.2,0.1,0.3,0.2,0.4c0.1,0.1,0.5,0.3,0.9,0.4c0.4,0.2,0.7,0.3,0.9,0.4s0.3,0.3,0.4,0.4S159.4,84,159.4,84.3z"/>
		<path class="st6" d="M162.3,84.9c0.3,0,0.5,0,0.8-0.1v0.8c-0.1,0-0.3,0.1-0.4,0.1c-0.2,0-0.4,0.1-0.6,0.1c-1,0-1.5-0.5-1.5-1.5
			v-2.6H160v-0.5l0.7-0.4l0.4-1h0.6v1.1h1.4v0.8h-1.4v2.6c0,0.2,0.1,0.4,0.2,0.6C162,84.8,162.1,84.9,162.3,84.9z"/>
		<path class="st6" d="M168.4,83.2c0,0.8-0.2,1.4-0.6,1.9s-1,0.7-1.7,0.7c-0.5,0-0.9-0.1-1.2-0.3s-0.6-0.5-0.8-0.9s-0.3-0.8-0.3-1.3
			c0-0.8,0.2-1.4,0.6-1.8s1-0.7,1.7-0.7c0.7,0,1.3,0.2,1.7,0.7C168.2,81.8,168.4,82.4,168.4,83.2z M164.8,83.2
			c0,1.1,0.4,1.7,1.2,1.7c0.8,0,1.2-0.6,1.2-1.7c0-1.1-0.4-1.7-1.2-1.7c-0.4,0-0.7,0.1-0.9,0.4C164.9,82.3,164.8,82.7,164.8,83.2z"
			/>
		<path class="st6" d="M173.7,85.6h-1v-3c0-0.4-0.1-0.6-0.2-0.8c-0.1-0.2-0.4-0.3-0.7-0.3c-0.4,0-0.7,0.1-0.9,0.4
			c-0.2,0.3-0.3,0.7-0.3,1.3v2.4h-1v-4.9h0.8l0.1,0.6h0.1c0.1-0.2,0.3-0.4,0.6-0.5c0.3-0.1,0.5-0.2,0.8-0.2c0.7,0,1.2,0.3,1.5,0.8
			h0.1c0.1-0.2,0.3-0.4,0.6-0.6s0.6-0.2,0.9-0.2c0.6,0,1,0.1,1.3,0.4c0.3,0.3,0.4,0.7,0.4,1.3v3.2h-1v-3c0-0.4-0.1-0.6-0.2-0.8
			c-0.1-0.2-0.4-0.3-0.7-0.3c-0.4,0-0.7,0.1-0.9,0.4c-0.2,0.3-0.3,0.6-0.3,1.2V85.6z"/>
		<path class="st6" d="M180.3,85.7c-0.8,0-1.3-0.2-1.8-0.7c-0.4-0.4-0.6-1-0.6-1.8c0-0.8,0.2-1.4,0.6-1.9s0.9-0.7,1.6-0.7
			c0.6,0,1.1,0.2,1.5,0.6s0.6,0.9,0.6,1.6v0.6h-3.2c0,0.5,0.1,0.8,0.4,1.1s0.6,0.4,1,0.4c0.3,0,0.6,0,0.8-0.1
			c0.2-0.1,0.5-0.1,0.8-0.3v0.8c-0.3,0.1-0.5,0.2-0.8,0.3S180.6,85.7,180.3,85.7z M180.1,81.5c-0.3,0-0.6,0.1-0.8,0.3
			c-0.2,0.2-0.3,0.5-0.4,0.9h2.2c0-0.4-0.1-0.7-0.3-0.9C180.7,81.6,180.4,81.5,180.1,81.5z"/>
		<path class="st6" d="M185.8,80.7c0.2,0,0.4,0,0.5,0l-0.1,1c-0.1,0-0.3-0.1-0.5-0.1c-0.4,0-0.7,0.1-1,0.4c-0.3,0.3-0.4,0.6-0.4,1.1
			v2.5h-1v-4.9h0.8l0.1,0.9h0.1c0.2-0.3,0.4-0.5,0.6-0.7C185.2,80.8,185.5,80.7,185.8,80.7z"/>
		<path class="st6" d="M147.7,96.4l-0.6-1.8h-2.5l-0.6,1.8h-1.1l2.4-6.5h1.1l2.4,6.5H147.7z M146.7,93.7l-0.6-1.7
			c0-0.1-0.1-0.3-0.2-0.6c-0.1-0.3-0.1-0.4-0.2-0.6c-0.1,0.4-0.2,0.8-0.3,1.2l-0.6,1.7H146.7z"/>
		<path class="st6" d="M153.8,96.4h-1v-3c0-0.4-0.1-0.7-0.2-0.8c-0.2-0.2-0.4-0.3-0.7-0.3c-0.4,0-0.8,0.1-1,0.4s-0.3,0.7-0.3,1.3
			v2.4h-1v-4.9h0.8l0.1,0.6h0.1c0.1-0.2,0.4-0.4,0.6-0.5s0.6-0.2,0.9-0.2c1.2,0,1.7,0.6,1.7,1.8V96.4z"/>
		<path class="st6" d="M158.3,96.4l-0.2-0.7h0c-0.2,0.3-0.5,0.5-0.7,0.6c-0.2,0.1-0.5,0.2-0.9,0.2c-0.5,0-0.9-0.1-1.1-0.4
			c-0.3-0.3-0.4-0.6-0.4-1.1c0-0.5,0.2-0.9,0.6-1.1s0.9-0.4,1.7-0.4l0.8,0v-0.3c0-0.3-0.1-0.5-0.2-0.7c-0.1-0.2-0.4-0.2-0.7-0.2
			c-0.2,0-0.5,0-0.7,0.1s-0.4,0.2-0.7,0.3l-0.3-0.7c0.3-0.1,0.6-0.2,0.9-0.3c0.3-0.1,0.6-0.1,0.9-0.1c0.6,0,1.1,0.1,1.4,0.4
			c0.3,0.3,0.5,0.7,0.5,1.3v3.3H158.3z M156.7,95.7c0.4,0,0.7-0.1,0.9-0.3c0.2-0.2,0.3-0.5,0.3-0.9v-0.4l-0.6,0
			c-0.5,0-0.8,0.1-1.1,0.2c-0.2,0.1-0.3,0.4-0.3,0.7c0,0.2,0.1,0.4,0.2,0.5C156.3,95.7,156.5,95.7,156.7,95.7z"/>
		<path class="st6" d="M164.7,96.4h-1v-3c0-0.4-0.1-0.7-0.2-0.8c-0.2-0.2-0.4-0.3-0.7-0.3c-0.4,0-0.8,0.1-1,0.4s-0.3,0.7-0.3,1.3
			v2.4h-1v-4.9h0.8l0.1,0.6h0.1c0.1-0.2,0.4-0.4,0.6-0.5s0.6-0.2,0.9-0.2c1.2,0,1.7,0.6,1.7,1.8V96.4z"/>
		<path class="st6" d="M167.2,96.4h-1v-6.8h1V96.4z"/>
		<path class="st6" d="M167.9,91.6h1.1l1,2.8c0.1,0.4,0.2,0.8,0.3,1.1h0c0-0.2,0.1-0.4,0.1-0.6s0.4-1.3,1.1-3.3h1.1l-2.1,5.5
			c-0.4,1-1,1.5-1.9,1.5c-0.2,0-0.5,0-0.7-0.1v-0.8c0.2,0,0.3,0.1,0.5,0.1c0.5,0,0.8-0.3,1.1-0.9l0.2-0.5L167.9,91.6z"/>
		<path class="st6" d="M175.3,95.7c0.3,0,0.5,0,0.8-0.1v0.8c-0.1,0-0.3,0.1-0.4,0.1c-0.2,0-0.4,0.1-0.6,0.1c-1,0-1.5-0.5-1.5-1.5
			v-2.6h-0.7v-0.5l0.7-0.4l0.4-1h0.6v1.1h1.4v0.8h-1.4V95c0,0.2,0.1,0.4,0.2,0.6C174.9,95.6,175.1,95.7,175.3,95.7z"/>
		<path class="st6" d="M177,90.3c0-0.2,0.1-0.3,0.2-0.4c0.1-0.1,0.2-0.1,0.4-0.1c0.2,0,0.3,0,0.4,0.1c0.1,0.1,0.2,0.2,0.2,0.4
			c0,0.2-0.1,0.3-0.2,0.4c-0.1,0.1-0.2,0.2-0.4,0.2c-0.2,0-0.3-0.1-0.4-0.2C177,90.6,177,90.5,177,90.3z M178.1,96.4h-1v-4.9h1V96.4
			z"/>
		<path class="st6" d="M181.5,96.5c-0.7,0-1.3-0.2-1.7-0.6c-0.4-0.4-0.6-1-0.6-1.8c0-0.8,0.2-1.4,0.6-1.9c0.4-0.4,1-0.7,1.7-0.7
			c0.5,0,1,0.1,1.4,0.3l-0.3,0.8c-0.4-0.2-0.8-0.3-1.1-0.3c-0.8,0-1.3,0.6-1.3,1.7c0,0.5,0.1,1,0.3,1.2c0.2,0.3,0.5,0.4,0.9,0.4
			c0.5,0,0.9-0.1,1.3-0.3v0.9c-0.2,0.1-0.4,0.2-0.6,0.2C182.1,96.5,181.8,96.5,181.5,96.5z"/>
		<path class="st6" d="M187.3,95.1c0,0.5-0.2,0.8-0.5,1.1s-0.8,0.4-1.5,0.4c-0.6,0-1.2-0.1-1.6-0.3v-0.9c0.6,0.3,1.1,0.4,1.6,0.4
			c0.6,0,1-0.2,1-0.6c0-0.1,0-0.2-0.1-0.3s-0.2-0.2-0.3-0.3s-0.4-0.2-0.7-0.3c-0.6-0.2-0.9-0.4-1.1-0.7c-0.2-0.2-0.3-0.5-0.3-0.8
			c0-0.4,0.2-0.7,0.5-1c0.3-0.2,0.8-0.3,1.4-0.3c0.6,0,1.1,0.1,1.6,0.3l-0.3,0.8c-0.5-0.2-1-0.3-1.3-0.3c-0.5,0-0.8,0.2-0.8,0.5
			c0,0.2,0.1,0.3,0.2,0.4c0.1,0.1,0.5,0.3,0.9,0.4c0.4,0.2,0.7,0.3,0.9,0.4s0.3,0.3,0.4,0.4S187.3,94.8,187.3,95.1z"/>
	</g>
	<g>
		<path class="st6" d="M66.4,163.9h-1.1v-5.5h-1.9v-0.9h4.8v0.9h-1.9V163.9z"/>
		<path class="st6" d="M69.1,157.7c0-0.2,0.1-0.3,0.2-0.4c0.1-0.1,0.2-0.1,0.4-0.1c0.2,0,0.3,0,0.4,0.1c0.1,0.1,0.2,0.2,0.2,0.4
			c0,0.2-0.1,0.3-0.2,0.4c-0.1,0.1-0.2,0.2-0.4,0.2c-0.2,0-0.3-0.1-0.4-0.2C69.1,158.1,69.1,157.9,69.1,157.7z M70.2,163.9h-1V159h1
			V163.9z"/>
		<path class="st6" d="M75.8,163.9h-1v-3c0-0.4-0.1-0.6-0.2-0.8c-0.1-0.2-0.4-0.3-0.7-0.3c-0.4,0-0.7,0.1-0.9,0.4
			c-0.2,0.3-0.3,0.7-0.3,1.3v2.4h-1V159h0.8l0.1,0.6h0.1c0.1-0.2,0.3-0.4,0.6-0.5s0.5-0.2,0.8-0.2c0.7,0,1.2,0.3,1.5,0.8h0.1
			c0.1-0.2,0.3-0.4,0.6-0.6s0.6-0.2,0.9-0.2c0.6,0,1,0.1,1.3,0.4c0.3,0.3,0.4,0.7,0.4,1.3v3.2h-1v-3c0-0.4-0.1-0.6-0.2-0.8
			c-0.1-0.2-0.4-0.3-0.7-0.3c-0.4,0-0.7,0.1-0.9,0.4c-0.2,0.3-0.3,0.6-0.3,1.2V163.9z"/>
		<path class="st6" d="M82.4,164c-0.8,0-1.3-0.2-1.8-0.7c-0.4-0.4-0.6-1-0.6-1.8c0-0.8,0.2-1.4,0.6-1.9s0.9-0.7,1.6-0.7
			c0.6,0,1.1,0.2,1.5,0.6s0.6,0.9,0.6,1.6v0.6H81c0,0.5,0.1,0.8,0.4,1.1c0.2,0.3,0.6,0.4,1,0.4c0.3,0,0.6,0,0.8-0.1
			c0.2-0.1,0.5-0.1,0.8-0.3v0.8c-0.3,0.1-0.5,0.2-0.8,0.3S82.7,164,82.4,164z M82.2,159.7c-0.3,0-0.6,0.1-0.8,0.3
			c-0.2,0.2-0.3,0.5-0.4,0.9h2.2c0-0.4-0.1-0.7-0.3-0.9C82.8,159.8,82.5,159.7,82.2,159.7z"/>
		<path class="st6" d="M91.6,162.1c0,0.6-0.2,1-0.6,1.3s-1,0.5-1.7,0.5s-1.3-0.1-1.8-0.3v-1c0.3,0.1,0.6,0.2,0.9,0.3
			c0.3,0.1,0.6,0.1,0.9,0.1c0.4,0,0.7-0.1,0.9-0.2c0.2-0.2,0.3-0.4,0.3-0.6c0-0.2-0.1-0.4-0.3-0.6s-0.6-0.4-1.1-0.6
			c-0.6-0.2-1-0.5-1.2-0.8s-0.4-0.7-0.4-1.1c0-0.5,0.2-1,0.6-1.3s0.9-0.5,1.5-0.5c0.6,0,1.2,0.1,1.8,0.4l-0.3,0.9
			c-0.6-0.2-1.1-0.4-1.5-0.4c-0.3,0-0.6,0.1-0.8,0.2c-0.2,0.1-0.3,0.3-0.3,0.6c0,0.2,0,0.3,0.1,0.4c0.1,0.1,0.2,0.2,0.3,0.3
			s0.5,0.2,0.9,0.4c0.5,0.2,0.8,0.4,1,0.5s0.4,0.4,0.5,0.6S91.6,161.9,91.6,162.1z"/>
		<path class="st6" d="M94.9,164c-0.8,0-1.3-0.2-1.8-0.7c-0.4-0.4-0.6-1-0.6-1.8c0-0.8,0.2-1.4,0.6-1.9s0.9-0.7,1.6-0.7
			c0.6,0,1.1,0.2,1.5,0.6s0.6,0.9,0.6,1.6v0.6h-3.2c0,0.5,0.1,0.8,0.4,1.1c0.2,0.3,0.6,0.4,1,0.4c0.3,0,0.6,0,0.8-0.1
			c0.2-0.1,0.5-0.1,0.8-0.3v0.8c-0.3,0.1-0.5,0.2-0.8,0.3S95.2,164,94.9,164z M94.7,159.7c-0.3,0-0.6,0.1-0.8,0.3
			c-0.2,0.2-0.3,0.5-0.4,0.9h2.2c0-0.4-0.1-0.7-0.3-0.9C95.3,159.8,95,159.7,94.7,159.7z"/>
		<path class="st6" d="M100.4,158.9c0.2,0,0.4,0,0.5,0l-0.1,1c-0.1,0-0.3-0.1-0.5-0.1c-0.4,0-0.7,0.1-1,0.4s-0.4,0.6-0.4,1.1v2.5h-1
			V159h0.8l0.1,0.9h0.1c0.2-0.3,0.4-0.5,0.6-0.7C99.8,159,100.1,158.9,100.4,158.9z"/>
		<path class="st6" d="M101.7,157.7c0-0.2,0.1-0.3,0.2-0.4c0.1-0.1,0.2-0.1,0.4-0.1c0.2,0,0.3,0,0.4,0.1c0.1,0.1,0.2,0.2,0.2,0.4
			c0,0.2-0.1,0.3-0.2,0.4c-0.1,0.1-0.2,0.2-0.4,0.2c-0.2,0-0.3-0.1-0.4-0.2C101.8,158.1,101.7,157.9,101.7,157.7z M102.8,163.9h-1
			V159h1V163.9z"/>
		<path class="st6" d="M106.4,164c-0.8,0-1.3-0.2-1.8-0.7c-0.4-0.4-0.6-1-0.6-1.8c0-0.8,0.2-1.4,0.6-1.9s0.9-0.7,1.6-0.7
			c0.6,0,1.1,0.2,1.5,0.6s0.6,0.9,0.6,1.6v0.6h-3.2c0,0.5,0.1,0.8,0.4,1.1c0.2,0.3,0.6,0.4,1,0.4c0.3,0,0.6,0,0.8-0.1
			c0.2-0.1,0.5-0.1,0.8-0.3v0.8c-0.3,0.1-0.5,0.2-0.8,0.3S106.8,164,106.4,164z M106.3,159.7c-0.3,0-0.6,0.1-0.8,0.3
			c-0.2,0.2-0.3,0.5-0.4,0.9h2.2c0-0.4-0.1-0.7-0.3-0.9C106.8,159.8,106.6,159.7,106.3,159.7z"/>
		<path class="st6" d="M112.8,162.5c0,0.5-0.2,0.8-0.5,1.1c-0.3,0.3-0.8,0.4-1.5,0.4c-0.6,0-1.2-0.1-1.6-0.3v-0.9
			c0.6,0.3,1.1,0.4,1.6,0.4c0.6,0,1-0.2,1-0.6c0-0.1,0-0.2-0.1-0.3s-0.2-0.2-0.3-0.3s-0.4-0.2-0.7-0.3c-0.6-0.2-0.9-0.4-1.1-0.7
			c-0.2-0.2-0.3-0.5-0.3-0.8c0-0.4,0.2-0.7,0.5-1c0.3-0.2,0.8-0.3,1.4-0.3c0.6,0,1.1,0.1,1.6,0.3l-0.3,0.8c-0.5-0.2-1-0.3-1.3-0.3
			c-0.5,0-0.8,0.2-0.8,0.5c0,0.2,0.1,0.3,0.2,0.4c0.1,0.1,0.5,0.3,0.9,0.4c0.4,0.2,0.7,0.3,0.9,0.4s0.3,0.3,0.4,0.4
			C112.7,162.1,112.8,162.3,112.8,162.5z"/>
		<path class="st6" d="M70.7,174.7l-0.6-1.8h-2.5l-0.6,1.8h-1.1l2.4-6.5h1.1l2.4,6.5H70.7z M69.7,172l-0.6-1.7
			c0-0.1-0.1-0.3-0.2-0.6s-0.1-0.4-0.2-0.6c-0.1,0.4-0.2,0.8-0.3,1.2l-0.6,1.7H69.7z"/>
		<path class="st6" d="M76.8,174.7h-1v-3c0-0.4-0.1-0.7-0.2-0.8c-0.2-0.2-0.4-0.3-0.7-0.3c-0.4,0-0.8,0.1-1,0.4s-0.3,0.7-0.3,1.3
			v2.4h-1v-4.9h0.8l0.1,0.6h0.1c0.1-0.2,0.4-0.4,0.6-0.5s0.6-0.2,0.9-0.2c1.2,0,1.7,0.6,1.7,1.8V174.7z"/>
		<path class="st6" d="M81.3,174.7l-0.2-0.7h0c-0.2,0.3-0.5,0.5-0.7,0.6c-0.2,0.1-0.5,0.2-0.9,0.2c-0.5,0-0.9-0.1-1.1-0.4
			c-0.3-0.3-0.4-0.6-0.4-1.1c0-0.5,0.2-0.9,0.6-1.1s0.9-0.4,1.7-0.4l0.8,0v-0.3c0-0.3-0.1-0.5-0.2-0.7c-0.1-0.2-0.4-0.2-0.7-0.2
			c-0.2,0-0.5,0-0.7,0.1s-0.4,0.2-0.7,0.3l-0.3-0.7c0.3-0.1,0.6-0.2,0.9-0.3c0.3-0.1,0.6-0.1,0.9-0.1c0.6,0,1.1,0.1,1.4,0.4
			s0.5,0.7,0.5,1.3v3.3H81.3z M79.7,174c0.4,0,0.7-0.1,0.9-0.3c0.2-0.2,0.3-0.5,0.3-0.9v-0.4l-0.6,0c-0.5,0-0.8,0.1-1.1,0.2
			c-0.2,0.1-0.3,0.4-0.3,0.7c0,0.2,0.1,0.4,0.2,0.5C79.3,173.9,79.5,174,79.7,174z"/>
		<path class="st6" d="M87.7,174.7h-1v-3c0-0.4-0.1-0.7-0.2-0.8c-0.2-0.2-0.4-0.3-0.7-0.3c-0.4,0-0.8,0.1-1,0.4s-0.3,0.7-0.3,1.3
			v2.4h-1v-4.9h0.8l0.1,0.6h0.1c0.1-0.2,0.4-0.4,0.6-0.5s0.6-0.2,0.9-0.2c1.2,0,1.7,0.6,1.7,1.8V174.7z"/>
		<path class="st6" d="M90.2,174.7h-1v-6.8h1V174.7z"/>
		<path class="st6" d="M90.9,169.8h1.1l1,2.8c0.1,0.4,0.2,0.8,0.3,1.1h0c0-0.2,0.1-0.4,0.1-0.6c0.1-0.2,0.4-1.3,1.1-3.3h1.1
			l-2.1,5.5c-0.4,1-1,1.5-1.9,1.5c-0.2,0-0.5,0-0.7-0.1V176c0.2,0,0.3,0.1,0.5,0.1c0.5,0,0.8-0.3,1.1-0.9l0.2-0.5L90.9,169.8z"/>
		<path class="st6" d="M98.3,173.9c0.3,0,0.5,0,0.8-0.1v0.8c-0.1,0-0.3,0.1-0.4,0.1c-0.2,0-0.4,0.1-0.6,0.1c-1,0-1.5-0.5-1.5-1.5
			v-2.6h-0.7v-0.5l0.7-0.4l0.4-1h0.6v1.1H99v0.8h-1.4v2.6c0,0.2,0.1,0.4,0.2,0.6C97.9,173.9,98.1,173.9,98.3,173.9z"/>
		<path class="st6" d="M100,168.5c0-0.2,0.1-0.3,0.2-0.4c0.1-0.1,0.2-0.1,0.4-0.1c0.2,0,0.3,0,0.4,0.1c0.1,0.1,0.2,0.2,0.2,0.4
			c0,0.2-0.1,0.3-0.2,0.4c-0.1,0.1-0.2,0.2-0.4,0.2c-0.2,0-0.3-0.1-0.4-0.2C100,168.9,100,168.7,100,168.5z M101.1,174.7h-1v-4.9h1
			V174.7z"/>
		<path class="st6" d="M104.5,174.8c-0.7,0-1.3-0.2-1.7-0.6c-0.4-0.4-0.6-1-0.6-1.8c0-0.8,0.2-1.4,0.6-1.9c0.4-0.4,1-0.7,1.7-0.7
			c0.5,0,1,0.1,1.4,0.3l-0.3,0.8c-0.4-0.2-0.8-0.3-1.1-0.3c-0.8,0-1.3,0.6-1.3,1.7c0,0.5,0.1,1,0.3,1.2c0.2,0.3,0.5,0.4,0.9,0.4
			c0.5,0,0.9-0.1,1.3-0.3v0.9c-0.2,0.1-0.4,0.2-0.6,0.2C105.1,174.8,104.8,174.8,104.5,174.8z"/>
		<path class="st6" d="M110.3,173.3c0,0.5-0.2,0.8-0.5,1.1c-0.3,0.3-0.8,0.4-1.5,0.4c-0.6,0-1.2-0.1-1.6-0.3v-0.9
			c0.6,0.3,1.1,0.4,1.6,0.4c0.6,0,1-0.2,1-0.6c0-0.1,0-0.2-0.1-0.3s-0.2-0.2-0.3-0.3c-0.2-0.1-0.4-0.2-0.7-0.3
			c-0.6-0.2-0.9-0.4-1.1-0.7c-0.2-0.2-0.3-0.5-0.3-0.8c0-0.4,0.2-0.7,0.5-1c0.3-0.2,0.8-0.3,1.4-0.3c0.6,0,1.1,0.1,1.6,0.3l-0.3,0.8
			c-0.5-0.2-1-0.3-1.3-0.3c-0.5,0-0.8,0.2-0.8,0.5c0,0.2,0.1,0.3,0.2,0.4s0.5,0.3,0.9,0.4c0.4,0.2,0.7,0.3,0.9,0.4s0.3,0.3,0.4,0.4
			C110.2,172.9,110.3,173.1,110.3,173.3z"/>
	</g>
	<g id="center-text">
		<path class="st7" d="M87.7,96.5c0,0.9-0.3,1.7-0.8,2.2s-1.3,0.8-2.3,0.8H83v-5.7h1.8c0.9,0,1.7,0.2,2.2,0.7S87.7,95.6,87.7,96.5z
			 M86.4,96.5c0-1.2-0.5-1.8-1.6-1.8h-0.6v3.7h0.5C85.9,98.4,86.4,97.8,86.4,96.5z"/>
		<path class="st7" d="M92.8,97.2c0,0.7-0.2,1.3-0.6,1.7s-0.9,0.6-1.6,0.6c-0.4,0-0.8-0.1-1.1-0.3s-0.6-0.4-0.7-0.8
			s-0.3-0.7-0.3-1.2c0-0.7,0.2-1.3,0.6-1.7s0.9-0.6,1.6-0.6c0.4,0,0.8,0.1,1.1,0.3s0.6,0.4,0.7,0.8S92.8,96.7,92.8,97.2z M89.7,97.2
			c0,0.4,0.1,0.8,0.2,1s0.4,0.3,0.7,0.3c0.3,0,0.5-0.1,0.7-0.3s0.2-0.5,0.2-1c0-0.4-0.1-0.8-0.2-1s-0.4-0.3-0.7-0.3
			c-0.3,0-0.5,0.1-0.7,0.3S89.7,96.8,89.7,97.2z"/>
		<path class="st7" d="M95.7,99.5c-0.7,0-1.3-0.2-1.6-0.6s-0.6-0.9-0.6-1.6c0-0.7,0.2-1.3,0.5-1.7s0.9-0.6,1.5-0.6
			c0.6,0,1.1,0.2,1.4,0.5s0.5,0.8,0.5,1.5v0.6h-2.8c0,0.3,0.1,0.6,0.3,0.8s0.5,0.3,0.8,0.3c0.3,0,0.5,0,0.7-0.1s0.5-0.1,0.7-0.3v0.9
			c-0.2,0.1-0.4,0.2-0.7,0.2S96.1,99.5,95.7,99.5z M95.5,95.8c-0.3,0-0.5,0.1-0.6,0.2s-0.2,0.4-0.2,0.7h1.7c0-0.3-0.1-0.5-0.2-0.7
			S95.8,95.8,95.5,95.8z"/>
		<path class="st7" d="M101.5,98.1c0,0.4-0.2,0.8-0.5,1s-0.8,0.4-1.4,0.4c-0.3,0-0.6,0-0.8-0.1s-0.4-0.1-0.6-0.2v-1
			c0.2,0.1,0.5,0.2,0.7,0.3s0.5,0.1,0.7,0.1c0.4,0,0.6-0.1,0.6-0.4c0-0.1,0-0.2-0.1-0.2s-0.2-0.1-0.3-0.2s-0.3-0.2-0.6-0.3
			c-0.3-0.1-0.6-0.3-0.7-0.4s-0.3-0.3-0.3-0.4s-0.1-0.3-0.1-0.6c0-0.4,0.2-0.7,0.5-0.9s0.7-0.3,1.3-0.3c0.5,0,1,0.1,1.5,0.3
			l-0.4,0.9c-0.2-0.1-0.4-0.2-0.6-0.2s-0.4-0.1-0.6-0.1c-0.4,0-0.5,0.1-0.5,0.3c0,0.1,0.1,0.2,0.2,0.3s0.4,0.2,0.7,0.3
			c0.3,0.1,0.6,0.3,0.8,0.4s0.3,0.3,0.4,0.4S101.5,97.9,101.5,98.1z"/>
		<path class="st7" d="M106.4,96l1.2-2.4h1.3l-1.9,3.5v2.2h-1.2v-2.2l-1.9-3.5h1.3L106.4,96z"/>
		<path class="st7" d="M113.5,97.2c0,0.7-0.2,1.3-0.6,1.7s-0.9,0.6-1.6,0.6c-0.4,0-0.8-0.1-1.1-0.3s-0.6-0.4-0.7-0.8
			s-0.3-0.7-0.3-1.2c0-0.7,0.2-1.3,0.6-1.7c0.4-0.4,0.9-0.6,1.6-0.6c0.4,0,0.8,0.1,1.1,0.3s0.6,0.4,0.7,0.8S113.5,96.7,113.5,97.2z
			 M110.5,97.2c0,0.4,0.1,0.8,0.2,1c0.1,0.2,0.4,0.3,0.7,0.3c0.3,0,0.5-0.1,0.7-0.3c0.1-0.2,0.2-0.5,0.2-1c0-0.4-0.1-0.8-0.2-1
			s-0.4-0.3-0.7-0.3c-0.3,0-0.5,0.1-0.7,0.3S110.5,96.8,110.5,97.2z"/>
		<path class="st7" d="M117.6,99.4l-0.2-0.6h-0.1c-0.1,0.2-0.3,0.4-0.5,0.5s-0.5,0.2-0.8,0.2c-0.5,0-0.9-0.1-1.2-0.4
			c-0.3-0.3-0.4-0.7-0.4-1.2V95h1.2v2.6c0,0.3,0.1,0.6,0.2,0.7c0.1,0.2,0.3,0.2,0.5,0.2c0.3,0,0.6-0.1,0.7-0.3s0.2-0.6,0.2-1.1V95
			h1.2v4.4H117.6z"/>
		<path class="st7" d="M122.2,94.9c0.2,0,0.3,0,0.4,0l-0.1,1.1c-0.1,0-0.2,0-0.4,0c-0.4,0-0.7,0.1-0.9,0.3c-0.2,0.2-0.3,0.5-0.3,0.8
			v2.2h-1.2V95h0.9l0.2,0.7h0.1c0.1-0.2,0.3-0.4,0.5-0.6S121.9,94.9,122.2,94.9z"/>
		<path class="st7" d="M68.2,104.2c-0.5,0-0.8,0.2-1.1,0.5s-0.4,0.8-0.4,1.4c0,1.3,0.5,1.9,1.4,1.9c0.4,0,0.9-0.1,1.5-0.3v1
			c-0.5,0.2-1,0.3-1.6,0.3c-0.8,0-1.5-0.3-1.9-0.8s-0.7-1.2-0.7-2.2c0-0.6,0.1-1.1,0.3-1.6s0.5-0.8,0.9-1s0.9-0.4,1.4-0.4
			c0.6,0,1.1,0.1,1.7,0.4l-0.4,1c-0.2-0.1-0.4-0.2-0.6-0.3S68.5,104.2,68.2,104.2z"/>
		<path class="st7" d="M74.8,106.8c0,0.7-0.2,1.3-0.6,1.7s-0.9,0.6-1.6,0.6c-0.4,0-0.8-0.1-1.1-0.3s-0.6-0.4-0.7-0.8
			s-0.3-0.7-0.3-1.2c0-0.7,0.2-1.3,0.6-1.7s0.9-0.6,1.6-0.6c0.4,0,0.8,0.1,1.1,0.3s0.6,0.4,0.7,0.8S74.8,106.3,74.8,106.8z
			 M71.8,106.8c0,0.4,0.1,0.8,0.2,1s0.4,0.3,0.7,0.3c0.3,0,0.5-0.1,0.7-0.3s0.2-0.5,0.2-1c0-0.4-0.1-0.8-0.2-1s-0.4-0.3-0.7-0.3
			c-0.3,0-0.5,0.1-0.7,0.3S71.8,106.4,71.8,106.8z"/>
		<path class="st7" d="M79.7,109h-1.2v-2.6c0-0.3-0.1-0.6-0.2-0.7s-0.3-0.2-0.5-0.2c-0.3,0-0.5,0.1-0.7,0.3s-0.2,0.6-0.2,1.1v2.1
			h-1.2v-4.4h0.9l0.2,0.6h0.1c0.1-0.2,0.3-0.4,0.5-0.5s0.5-0.2,0.8-0.2c0.7,0,1.1,0.2,1.3,0.6h0.1c0.1-0.2,0.3-0.4,0.5-0.5
			s0.5-0.2,0.8-0.2c0.5,0,0.9,0.1,1.1,0.4s0.4,0.7,0.4,1.2v2.8h-1.2v-2.6c0-0.3-0.1-0.6-0.2-0.7s-0.3-0.2-0.5-0.2
			c-0.3,0-0.5,0.1-0.7,0.3s-0.2,0.5-0.2,1V109z"/>
		<path class="st7" d="M86,109.1c-0.5,0-0.9-0.2-1.2-0.6h-0.1c0,0.4,0.1,0.6,0.1,0.6v1.8h-1.2v-6.3h1l0.2,0.6h0.1
			c0.3-0.4,0.7-0.6,1.2-0.6c0.5,0,0.9,0.2,1.2,0.6s0.4,1,0.4,1.7c0,0.5-0.1,0.9-0.2,1.2s-0.3,0.6-0.6,0.8S86.4,109.1,86,109.1z
			 M85.7,105.5c-0.3,0-0.5,0.1-0.6,0.3s-0.2,0.5-0.2,0.9v0.1c0,0.5,0.1,0.8,0.2,1s0.4,0.3,0.7,0.3c0.5,0,0.8-0.4,0.8-1.3
			c0-0.4-0.1-0.8-0.2-1S86,105.5,85.7,105.5z"/>
		<path class="st7" d="M91.5,109l-0.2-0.6h0c-0.2,0.3-0.4,0.4-0.6,0.5s-0.5,0.1-0.8,0.1c-0.4,0-0.7-0.1-1-0.4s-0.4-0.6-0.4-1
			c0-0.5,0.2-0.8,0.5-1s0.8-0.3,1.5-0.4l0.8,0v-0.2c0-0.4-0.2-0.7-0.7-0.7c-0.3,0-0.8,0.1-1.2,0.3l-0.4-0.8c0.5-0.3,1.1-0.4,1.7-0.4
			c0.6,0,1,0.1,1.3,0.4s0.5,0.6,0.5,1.2v2.9H91.5z M91.1,107l-0.5,0c-0.3,0-0.6,0.1-0.8,0.2s-0.3,0.3-0.3,0.5c0,0.3,0.2,0.5,0.6,0.5
			c0.3,0,0.5-0.1,0.7-0.2s0.2-0.4,0.2-0.6V107z"/>
		<path class="st7" d="M97.6,109h-1.2v-2.6c0-0.3-0.1-0.6-0.2-0.7s-0.3-0.2-0.5-0.2c-0.3,0-0.6,0.1-0.7,0.3s-0.2,0.6-0.2,1.1v2.1
			h-1.2v-4.4h0.9l0.2,0.6h0.1c0.1-0.2,0.3-0.4,0.5-0.5s0.5-0.2,0.8-0.2c0.5,0,0.9,0.1,1.2,0.4s0.4,0.7,0.4,1.2V109z"/>
		<path class="st7" d="M98.2,104.6h1.3l0.8,2.5c0.1,0.2,0.1,0.5,0.1,0.8h0c0-0.3,0.1-0.5,0.2-0.8l0.8-2.5h1.3l-1.8,4.9
			c-0.2,0.5-0.4,0.8-0.7,1s-0.7,0.3-1.1,0.3c-0.2,0-0.4,0-0.6-0.1v-0.9c0.1,0,0.3,0.1,0.5,0.1c0.2,0,0.4-0.1,0.6-0.2
			s0.3-0.3,0.4-0.6l0.1-0.2L98.2,104.6z"/>
		<path class="st7" d="M110.6,109H109l-2.5-4.3h0c0,0.8,0.1,1.3,0.1,1.6v2.7h-1.1v-5.7h1.5l2.5,4.3h0c0-0.7-0.1-1.3-0.1-1.6v-2.7
			h1.1V109z"/>
		<path class="st7" d="M113.9,109.1c-0.7,0-1.3-0.2-1.6-0.6c-0.4-0.4-0.6-0.9-0.6-1.6c0-0.7,0.2-1.3,0.5-1.7
			c0.4-0.4,0.9-0.6,1.5-0.6c0.6,0,1.1,0.2,1.4,0.5s0.5,0.8,0.5,1.5v0.6h-2.8c0,0.3,0.1,0.6,0.3,0.8s0.5,0.3,0.8,0.3
			c0.3,0,0.5,0,0.7-0.1s0.5-0.1,0.7-0.3v0.9c-0.2,0.1-0.4,0.2-0.7,0.2C114.5,109.1,114.2,109.1,113.9,109.1z M113.7,105.4
			c-0.3,0-0.5,0.1-0.6,0.2c-0.1,0.2-0.2,0.4-0.2,0.7h1.7c0-0.3-0.1-0.5-0.2-0.7S114,105.4,113.7,105.4z"/>
		<path class="st7" d="M118.6,109.1c-0.7,0-1.3-0.2-1.6-0.6c-0.4-0.4-0.6-0.9-0.6-1.6c0-0.7,0.2-1.3,0.5-1.7
			c0.4-0.4,0.9-0.6,1.5-0.6c0.6,0,1.1,0.2,1.4,0.5s0.5,0.8,0.5,1.5v0.6h-2.8c0,0.3,0.1,0.6,0.3,0.8s0.5,0.3,0.8,0.3
			c0.3,0,0.5,0,0.7-0.1s0.5-0.1,0.7-0.3v0.9c-0.2,0.1-0.4,0.2-0.7,0.2C119.2,109.1,119,109.1,118.6,109.1z M118.4,105.4
			c-0.3,0-0.5,0.1-0.6,0.2c-0.1,0.2-0.2,0.4-0.2,0.7h1.7c0-0.3-0.1-0.5-0.2-0.7S118.7,105.4,118.4,105.4z"/>
		<path class="st7" d="M122.8,109.1c-0.5,0-0.9-0.2-1.2-0.6s-0.4-1-0.4-1.7c0-0.7,0.1-1.3,0.4-1.7c0.3-0.4,0.7-0.6,1.2-0.6
			c0.5,0,1,0.2,1.3,0.6h0c-0.1-0.3-0.1-0.6-0.1-0.9v-1.4h1.2v6.1h-0.9l-0.2-0.6H124C123.7,108.9,123.3,109.1,122.8,109.1z
			 M123.2,108.1c0.3,0,0.5-0.1,0.7-0.3c0.1-0.2,0.2-0.5,0.2-0.9v-0.1c0-0.5-0.1-0.8-0.2-1s-0.4-0.3-0.7-0.3c-0.3,0-0.5,0.1-0.6,0.3
			c-0.1,0.2-0.2,0.6-0.2,1s0.1,0.8,0.2,1S122.9,108.1,123.2,108.1z"/>
		<path class="st7" d="M132.1,109l-0.4-1.4h-2.1l-0.4,1.4h-1.3l2-5.7h1.5l2,5.7H132.1z M131.4,106.6c-0.4-1.2-0.6-1.9-0.6-2.1
			c0-0.2-0.1-0.3-0.1-0.4c-0.1,0.3-0.3,1.2-0.7,2.5H131.4z"/>
		<path class="st7" d="M134.1,109v-5.7h1.2v5.7H134.1z"/>
		<path class="st7" d="M137.1,107.1v-0.3c0-0.3,0.1-0.5,0.2-0.7c0.1-0.2,0.3-0.4,0.6-0.6c0.3-0.2,0.5-0.4,0.5-0.5
			c0.1-0.1,0.1-0.3,0.1-0.4c0-0.2-0.1-0.3-0.2-0.4s-0.3-0.1-0.5-0.1c-0.4,0-0.8,0.1-1.3,0.4l-0.4-0.9c0.6-0.3,1.2-0.5,1.8-0.5
			c0.5,0,1,0.1,1.3,0.4s0.5,0.6,0.5,1c0,0.3-0.1,0.5-0.2,0.7c-0.1,0.2-0.4,0.4-0.7,0.7c-0.3,0.2-0.4,0.3-0.5,0.4s-0.1,0.2-0.1,0.4
			v0.2H137.1z M137,108.4c0-0.2,0.1-0.4,0.2-0.5s0.3-0.2,0.5-0.2c0.2,0,0.4,0.1,0.5,0.2c0.1,0.1,0.2,0.3,0.2,0.5
			c0,0.2-0.1,0.4-0.2,0.5c-0.1,0.1-0.3,0.2-0.5,0.2c-0.2,0-0.4-0.1-0.5-0.2C137.1,108.8,137,108.7,137,108.4z"/>
	</g>
</g>
</svg>
