<?xml version="1.0" encoding="utf-8"?>
<!-- Generator: Adobe Illustrator 16.0.0, SVG Export Plug-In . SVG Version: 6.00 Build 0)  -->
<!DOCTYPE svg PUBLIC "-//W3C//DTD SVG 1.1//EN" "http://www.w3.org/Graphics/SVG/1.1/DTD/svg11.dtd">
<svg version="1.1" xmlns="http://www.w3.org/2000/svg" xmlns:xlink="http://www.w3.org/1999/xlink" x="0px" y="0px" width="1144px"
	 height="405.433px" viewBox="-27.061 0 1144 405.433" enable-background="new -27.061 0 1144 405.433" xml:space="preserve">
<g id="Layer_2">
</g>
<g id="Layer_1">
	<g>
		<rect x="46.166" y="225.438" fill="#FFFFFF" width="0.001" height="59.439"/>
		<path fill="#FFFFFF" d="M75.887,255.159c2.198-4.658,8.158-10.102,23.714-11.645c2.076-0.301,3.642-0.508,4.918-0.675
			c3.918-0.519,4.971-0.655,9.552-1.983c1.806-0.523,8.868-7.152,8.868-20.131c0-16.723-4.263-31.48-6.096-37.055
			c-0.047-0.146-0.167-0.566-0.333-1.137c-0.303-1.043-2.526-7.363-2.526-7.363c-1.204-3.213-2.452-6.538-3.263-9.949l-0.043-0.178
			c-1.222-4.941-5.239-23.014-5.524-47.997c0-2.536,2.253-4.73,3.599-6.042c0.246-0.24,0.463-0.451,0.626-0.629
			c1.296-1.402,3.001-3.132,4.976-5.135c1.301-1.321,2.736-2.777,4.279-4.368c2.47-2.545,5.227-4.871,7.89-7.119
			c3.275-2.765,6.663-5.623,9.448-8.846c4.158-4.816,8.003-13.242,7.308-20.034c-0.106-1.024,0.151-1.911,0.722-2.495
			c0.633-0.65,1.629-0.853,2.506-0.53c0.877-0.323,1.871-0.12,2.507,0.53c0.569,0.585,0.827,1.471,0.723,2.495
			c-0.695,6.791,3.147,15.218,7.311,20.034c2.78,3.223,6.168,6.081,9.445,8.846c2.665,2.248,5.42,4.575,7.889,7.119
			c1.545,1.591,2.979,3.047,4.279,4.368c1.975,2.003,3.68,3.733,4.975,5.135c0.164,0.178,0.383,0.389,0.629,0.629
			c1.346,1.312,3.598,3.506,3.598,6.027c-0.284,24.999-4.299,43.068-5.522,48.012l-0.043,0.175c-0.812,3.412-2.06,6.739-3.264,9.95
			c0,0-2.226,6.32-2.527,7.363c-0.164,0.57-0.282,0.99-0.332,1.137c-1.832,5.572-6.097,20.334-6.097,37.055
			c0,12.979,7.063,19.605,8.867,20.131c4.582,1.328,5.634,1.469,9.553,1.984c1.275,0.167,2.843,0.374,4.919,0.676
			c15.558,1.541,21.517,6.984,23.714,11.645h56.734c11,0,15.5-7.793,10-17.319L155.155,14.909c-5.5-9.526-14.5-9.526-20,0
			L6.446,237.841c-5.5,9.525-1,17.319,10,17.319v-0.001H75.887z"/>
		<rect x="75.887" y="255.159" fill="#FFFFFF" width="141.242" height="0.001"/>
	</g>
	<text transform="matrix(1 0 0 1 300.8779 115.4619)" fill="#6070B5" font-family="'OpenSans-Extrabold'" font-size="110">AyamiH</text>
	<text transform="matrix(1 0 0 1 300.8779 247.4619)" fill="#6070B5" font-family="'OpenSans-Extrabold'" font-size="110">Consultants</text>
	<g>
		<path fill="#FFFFFF" d="M379.45,109.376l-4.395-17.407h-28.992l-4.516,17.407h-26.49l29.114-93.26h32.165l29.48,93.26H379.45z
			 M370.051,71.386l-3.845-15.247c-0.896-3.388-1.984-7.771-3.266-13.15c-1.282-5.378-2.127-9.233-2.533-11.563
			c-0.366,2.16-1.09,5.718-2.167,10.673c-1.079,4.955-3.47,14.718-7.171,29.287H370.051z"/>
		<path fill="#FFFFFF" d="M405.695,37.398h25.146l11.719,41.294c0.57,2.16,0.957,4.765,1.16,7.814h0.488
			c0.326-2.922,0.813-5.484,1.465-7.687l12.023-41.421h24.354l-27.344,76.552c-3.5,9.74-7.803,16.622-12.908,20.646
			c-5.106,4.022-11.771,6.034-19.989,6.034c-3.174,0-6.43-0.36-9.766-1.08v-19.503c2.156,0.508,4.618,0.762,7.386,0.762
			c2.115,0,3.968-0.424,5.554-1.271c1.588-0.848,2.971-2.044,4.149-3.589c1.181-1.546,2.441-4.077,3.785-7.592L405.695,37.398z"/>
		<path fill="#FFFFFF" d="M535.396,109.376l-4.578-9.529h-0.488c-3.215,4.151-6.49,6.988-9.826,8.513
			c-3.338,1.525-7.65,2.287-12.938,2.287c-6.513,0-11.64-2.033-15.382-6.099c-3.743-4.066-5.614-9.784-5.614-17.153
			c0-7.665,2.563-13.373,7.688-17.121c5.127-3.748,12.553-5.854,22.277-6.321l11.537-0.381v-1.017c0-5.929-2.81-8.894-8.424-8.894
			c-5.045,0-11.455,1.779-19.228,5.336l-6.896-16.39c8.057-4.32,18.229-6.48,30.518-6.48c8.871,0,15.736,2.287,20.6,6.861
			c4.861,4.574,7.293,10.969,7.293,19.186v47.202H535.396z M517.694,93.113c2.889,0,5.36-0.953,7.416-2.859
			c2.055-1.906,3.082-4.383,3.082-7.433v-5.59l-5.492,0.254c-7.854,0.297-11.781,3.304-11.781,9.021
			C510.919,90.911,513.179,93.113,517.694,93.113z"/>
		<path fill="#FFFFFF" d="M653.072,109.376V70.242c0-4.87-0.643-8.522-1.926-10.958c-1.279-2.435-3.307-3.653-6.07-3.653
			c-3.662,0-6.35,1.631-8.059,4.892c-1.709,3.262-2.563,8.365-2.563,15.311v33.543h-23.926V70.242c0-4.87-0.609-8.522-1.83-10.958
			c-1.223-2.435-3.195-3.653-5.92-3.653c-3.744,0-6.473,1.737-8.182,5.209c-1.709,3.473-2.563,9.148-2.563,17.025v31.51h-23.865
			V37.398h18.006l2.99,8.894h1.404c1.83-3.303,4.486-5.823,7.965-7.56c3.479-1.736,7.436-2.604,11.871-2.604
			c9.969,0,16.967,3.156,20.996,9.466h1.893c1.953-2.964,4.668-5.283,8.148-6.957c3.479-1.672,7.313-2.509,11.504-2.509
			c8.18,0,14.221,2.182,18.127,6.543c3.906,4.363,5.859,10.991,5.859,19.884v46.821H653.072z"/>
		<path fill="#FFFFFF" d="M692.683,19.483c0-3.726,0.996-6.5,2.99-8.322c1.994-1.82,5.209-2.731,9.645-2.731
			c4.434,0,7.668,0.932,9.703,2.795c2.035,1.864,3.053,4.617,3.053,8.259c0,7.285-4.252,10.927-12.756,10.927
			C696.894,30.41,692.683,26.768,692.683,19.483z M717.158,109.376h-23.865V37.398h23.865V109.376z"/>
		<path fill="#FFFFFF" d="M811.701,109.376h-24.23V71.513h-28.016v37.863h-24.23V16.497h24.23V50.93h28.016V16.497h24.23V109.376z"
			/>
		<path fill="#FFFFFF" d="M364.436,179.746c-5.737,0-10.214,2.446-13.428,7.338c-3.215,4.892-4.821,11.638-4.821,20.233
			c0,17.873,6.53,26.81,19.592,26.81c3.946,0,7.771-0.571,11.475-1.716c3.702-1.145,7.426-2.52,11.17-4.129v21.219
			c-7.447,3.432-15.869,5.146-25.27,5.146c-13.469,0-23.794-4.065-30.975-12.197c-7.182-8.133-10.773-19.885-10.773-35.26
			c0-9.612,1.74-18.063,5.219-25.348c3.479-7.283,8.484-12.886,15.015-16.804c6.53-3.917,14.211-5.876,23.041-5.876
			c9.644,0,18.86,2.182,27.649,6.543l-7.386,19.758c-3.296-1.609-6.592-2.964-9.888-4.064
			C371.76,180.298,368.22,179.746,364.436,179.746z"/>
		<path fill="#FFFFFF" d="M470.454,217.229c0,11.773-3.043,20.953-9.125,27.539c-6.084,6.586-14.598,9.879-25.543,9.879
			c-10.498,0-18.853-3.367-25.056-10.102c-6.205-6.734-9.309-15.84-9.309-27.316c0-11.731,3.041-20.849,9.125-27.351
			c6.082-6.501,14.617-9.751,25.604-9.751c6.795,0,12.797,1.503,18.006,4.51c5.207,3.008,9.227,7.317,12.055,12.93
			C469.04,203.179,470.454,209.731,470.454,217.229z M425.653,217.229c0,6.184,0.793,10.895,2.381,14.135
			c1.586,3.24,4.252,4.859,7.996,4.859c3.701,0,6.315-1.619,7.842-4.859c1.527-3.24,2.289-7.951,2.289-14.135
			c0-6.142-0.773-10.778-2.318-13.914c-1.547-3.133-4.19-4.7-7.936-4.7c-3.662,0-6.287,1.557-7.873,4.669
			C426.446,206.396,425.653,211.045,425.653,217.229z"/>
		<path fill="#FFFFFF" d="M527.704,253.376v-39.261c0-4.785-0.662-8.396-1.982-10.832c-1.323-2.435-3.448-3.652-6.379-3.652
			c-4.028,0-6.938,1.675-8.729,5.019c-1.791,3.348-2.687,9.086-2.687,17.218v31.51h-23.865v-71.978h18.007l2.989,8.894h1.404
			c2.035-3.388,4.854-5.929,8.453-7.623c3.602-1.692,7.742-2.541,12.422-2.541c7.648,0,13.6,2.31,17.852,6.924
			c4.253,4.617,6.38,11.118,6.38,19.505v46.819L527.704,253.376L527.704,253.376z"/>
		<path fill="#FFFFFF" d="M621.21,231.269c0,7.709-2.523,13.531-7.568,17.471s-12.289,5.908-21.729,5.908
			c-5.127,0-9.582-0.287-13.367-0.857c-3.783-0.572-7.648-1.62-11.596-3.145V230.76c3.704,1.694,7.762,3.093,12.176,4.193
			c4.416,1.103,8.352,1.651,11.811,1.651c5.168,0,7.752-1.229,7.752-3.686c0-1.271-0.723-2.402-2.166-3.398
			c-1.445-0.994-5.646-2.933-12.605-5.813c-6.348-2.71-10.783-5.791-13.305-9.243c-2.523-3.451-3.785-7.824-3.785-13.119
			c0-6.691,2.482-11.9,7.447-15.628c4.963-3.727,11.982-5.59,21.057-5.59c4.557,0,8.84,0.519,12.848,1.556
			c4.01,1.039,8.168,2.553,12.482,4.543l-6.471,16.01c-3.174-1.481-6.529-2.741-10.07-3.78c-3.539-1.037-6.43-1.556-8.666-1.556
			c-3.906,0-5.859,0.994-5.859,2.984c0,1.229,0.682,2.277,2.045,3.145c1.361,0.869,5.301,2.638,11.811,5.306
			c4.842,2.076,8.455,4.108,10.834,6.099c2.381,1.991,4.131,4.332,5.25,7.021S621.21,227.415,621.21,231.269z"/>
		<path fill="#FFFFFF" d="M683.71,253.376l-2.99-8.958h-1.404c-1.994,3.304-4.771,5.835-8.33,7.592
			c-3.563,1.757-7.742,2.638-12.543,2.638c-7.609,0-13.531-2.297-17.762-6.894c-4.232-4.595-6.348-11.086-6.348-19.472v-46.885
			h23.865v39.324c0,4.701,0.641,8.26,1.922,10.674s3.387,3.621,6.314,3.621c4.109,0,7.039-1.685,8.789-5.052
			c1.75-3.366,2.625-9.053,2.625-17.058v-31.51h23.865v71.978L683.71,253.376L683.71,253.376z"/>
		<path fill="#FFFFFF" d="M742.06,253.376h-23.865v-98.852h23.865V253.376z"/>
		<path fill="#FFFFFF" d="M792.476,235.017c3.213,0,7.059-0.826,11.535-2.478v18.104c-3.215,1.44-6.277,2.469-9.186,3.082
			c-2.91,0.612-6.318,0.92-10.227,0.92c-8.016,0-13.793-2.043-17.334-6.131c-3.539-4.086-5.309-10.363-5.309-18.836v-29.668h-8.363
			V189.91l10.621-7.813l6.164-15.119h15.625v14.42h16.969v18.613h-16.969v28.018C786.005,232.688,788.162,235.017,792.476,235.017z"
			/>
		<path fill="#FFFFFF" d="M861.201,253.376l-4.578-9.529h-0.488c-3.215,4.151-6.49,6.988-9.826,8.514
			c-3.336,1.524-7.65,2.287-12.939,2.287c-6.51,0-11.637-2.033-15.381-6.1s-5.615-9.783-5.615-17.152
			c0-7.666,2.564-13.373,7.691-17.121s12.551-5.854,22.277-6.32l11.535-0.381v-1.018c0-5.93-2.807-8.895-8.422-8.895
			c-5.047,0-11.455,1.779-19.229,5.337l-6.895-16.392c8.057-4.319,18.229-6.479,30.518-6.479c8.869,0,15.736,2.286,20.6,6.859
			c4.861,4.574,7.293,10.971,7.293,19.187v47.202H861.201L861.201,253.376z M843.501,237.112c2.889,0,5.359-0.952,7.416-2.858
			c2.053-1.905,3.082-4.384,3.082-7.433v-5.592l-5.494,0.254c-7.855,0.298-11.779,3.305-11.779,9.021
			C836.726,234.911,838.982,237.112,843.501,237.112z"/>
		<path fill="#FFFFFF" d="M937.617,253.376v-39.261c0-4.785-0.662-8.396-1.982-10.832c-1.324-2.435-3.449-3.652-6.379-3.652
			c-4.029,0-6.938,1.675-8.729,5.019c-1.791,3.348-2.688,9.086-2.688,17.218v31.51h-23.865v-71.978h18.006l2.99,8.894h1.404
			c2.035-3.388,4.854-5.929,8.453-7.623c3.602-1.692,7.742-2.541,12.422-2.541c7.648,0,13.6,2.31,17.852,6.924
			c4.252,4.617,6.379,11.118,6.379,19.505v46.819L937.617,253.376L937.617,253.376z"/>
		<path fill="#FFFFFF" d="M1011.591,235.017c3.213,0,7.059-0.826,11.535-2.478v18.104c-3.215,1.44-6.277,2.469-9.188,3.082
			c-2.908,0.612-6.316,0.92-10.225,0.92c-8.016,0-13.793-2.043-17.334-6.131c-3.539-4.086-5.309-10.363-5.309-18.836v-29.668h-8.363
			V189.91l10.621-7.813l6.164-15.119h15.625v14.42h16.969v18.613h-16.969v28.018
			C1005.121,232.688,1007.277,235.017,1011.591,235.017z"/>
		<path fill="#FFFFFF" d="M1088.617,231.269c0,7.709-2.523,13.531-7.568,17.471s-12.289,5.908-21.729,5.908
			c-5.127,0-9.582-0.287-13.367-0.857c-3.783-0.572-7.648-1.62-11.596-3.145V230.76c3.701,1.694,7.762,3.093,12.176,4.193
			c4.416,1.103,8.352,1.651,11.811,1.651c5.168,0,7.752-1.229,7.752-3.686c0-1.271-0.723-2.402-2.166-3.398
			c-1.445-0.994-5.646-2.933-12.605-5.813c-6.348-2.71-10.783-5.791-13.305-9.243c-2.523-3.451-3.785-7.824-3.785-13.119
			c0-6.691,2.482-11.9,7.447-15.628c4.963-3.727,11.982-5.59,21.057-5.59c4.557,0,8.84,0.519,12.848,1.556
			c4.008,1.039,8.168,2.553,12.482,4.543l-6.471,16.01c-3.174-1.481-6.529-2.741-10.07-3.78c-3.539-1.037-6.43-1.556-8.666-1.556
			c-3.906,0-5.859,0.994-5.859,2.984c0,1.229,0.682,2.277,2.045,3.145c1.361,0.869,5.299,2.638,11.811,5.306
			c4.842,2.076,8.455,4.108,10.834,6.099c2.381,1.991,4.131,4.332,5.25,7.021S1088.617,227.415,1088.617,231.269z"/>
	</g>
	<g>
		<path fill="#FFFFFF" d="M53.918,345.214H21.434l-11.156,28.219h-6.18l32.156-80.281h3.555l31.5,80.281H65.02L53.918,345.214z
			 M23.458,340.183h28.602l-10.883-28.82c-0.912-2.26-2.005-5.396-3.281-9.406c-0.984,3.5-2.06,6.672-3.227,9.516L23.458,340.183z"
			/>
		<path fill="#FFFFFF" d="M172.426,332.69c0,13.417-3.519,23.562-10.555,30.434c-7.037,6.873-17.373,10.309-31.008,10.309h-19.141
			v-79.953h21.602c12.76,0,22.467,3.336,29.121,10.008C169.099,310.159,172.426,319.894,172.426,332.69z M166.356,332.909
			c0-11.447-2.908-20.061-8.723-25.84c-5.815-5.778-14.355-8.668-25.621-8.668h-14.711v70.109h13.234
			C154.416,368.511,166.356,356.644,166.356,332.909z"/>
		<path fill="#FFFFFF" d="M225.528,373.433l-1.367-9.406h-0.438c-2.99,3.828-6.062,6.535-9.215,8.121
			c-3.154,1.586-6.882,2.379-11.184,2.379c-5.833,0-10.373-1.494-13.617-4.484c-3.245-2.989-4.867-7.127-4.867-12.414
			c0-5.797,2.415-10.299,7.246-13.508c4.831-3.208,11.821-4.903,20.973-5.086l11.32-0.328v-3.938c0-5.65-1.148-9.916-3.445-12.797
			c-2.297-2.88-5.998-4.32-11.102-4.32c-5.505,0-11.211,1.531-17.117,4.594l-2.023-4.703c6.526-3.063,12.979-4.594,19.359-4.594
			c6.526,0,11.402,1.695,14.629,5.086s4.84,8.678,4.84,15.859v39.539H225.528z M203.653,369.604c6.344,0,11.348-1.813,15.012-5.441
			c3.664-3.627,5.496-8.668,5.496-15.121v-5.852l-10.391,0.438c-8.349,0.401-14.301,1.705-17.855,3.91
			c-3.555,2.206-5.332,5.643-5.332,10.309c0,3.719,1.139,6.608,3.418,8.668C196.279,368.575,199.497,369.604,203.653,369.604z"/>
		<path fill="#FFFFFF" d="M264.465,369.714c3.427,0,6.417-0.291,8.969-0.875v4.375c-2.625,0.875-5.651,1.313-9.078,1.313
			c-5.25,0-9.124-1.403-11.621-4.211c-2.498-2.807-3.746-7.219-3.746-13.234V318.69h-8.805v-3.172l8.805-2.461l2.734-13.453h2.789
			v14.383h17.445v4.703h-17.445v37.625c0,4.558,0.802,7.93,2.406,10.117C258.522,368.62,261.038,369.714,264.465,369.714z"/>
		<path fill="#FFFFFF" d="M322.379,373.433l-1.367-9.406h-0.438c-2.99,3.828-6.062,6.535-9.215,8.121
			c-3.154,1.586-6.882,2.379-11.184,2.379c-5.833,0-10.373-1.494-13.617-4.484c-3.245-2.989-4.867-7.127-4.867-12.414
			c0-5.797,2.415-10.299,7.246-13.508c4.831-3.208,11.821-4.903,20.973-5.086l11.32-0.328v-3.938c0-5.65-1.148-9.916-3.445-12.797
			c-2.297-2.88-5.998-4.32-11.102-4.32c-5.505,0-11.211,1.531-17.117,4.594l-2.023-4.703c6.526-3.063,12.979-4.594,19.359-4.594
			c6.526,0,11.402,1.695,14.629,5.086s4.84,8.678,4.84,15.859v39.539H322.379z M300.504,369.604c6.344,0,11.348-1.813,15.012-5.441
			c3.664-3.627,5.496-8.668,5.496-15.121v-5.852l-10.391,0.438c-8.349,0.401-14.301,1.705-17.855,3.91
			c-3.555,2.206-5.332,5.643-5.332,10.309c0,3.719,1.139,6.608,3.418,8.668C293.13,368.575,296.348,369.604,300.504,369.604z"/>
		<path fill="#FFFFFF" d="M414.583,345.214h-32.484l-11.156,28.219h-6.18l32.156-80.281h3.555l31.5,80.281h-6.289L414.583,345.214z
			 M384.122,340.183h28.602l-10.883-28.82c-0.912-2.26-2.006-5.396-3.281-9.406c-0.984,3.5-2.061,6.672-3.227,9.516L384.122,340.183
			z"/>
		<path fill="#FFFFFF" d="M483.379,373.433v-38.555c0-5.979-1.258-10.326-3.773-13.043c-2.516-2.716-6.417-4.074-11.703-4.074
			c-7.109,0-12.314,1.796-15.613,5.387c-3.3,3.592-4.949,9.416-4.949,17.473v32.813h-5.414v-59.445h4.594l1.039,8.148h0.328
			c3.864-6.197,10.736-9.297,20.617-9.297c13.489,0,20.234,7.237,20.234,21.711v38.883H483.379z"/>
		<path fill="#FFFFFF" d="M544.083,373.433l-1.367-9.406h-0.438c-2.99,3.828-6.062,6.535-9.215,8.121
			c-3.154,1.586-6.882,2.379-11.184,2.379c-5.834,0-10.373-1.494-13.617-4.484c-3.245-2.989-4.867-7.127-4.867-12.414
			c0-5.797,2.415-10.299,7.246-13.508c4.83-3.208,11.821-4.903,20.973-5.086l11.32-0.328v-3.938c0-5.65-1.148-9.916-3.445-12.797
			c-2.297-2.88-5.998-4.32-11.102-4.32c-5.506,0-11.211,1.531-17.117,4.594l-2.023-4.703c6.525-3.063,12.979-4.594,19.359-4.594
			c6.525,0,11.402,1.695,14.629,5.086s4.84,8.678,4.84,15.859v39.539H544.083z M522.208,369.604c6.344,0,11.348-1.813,15.012-5.441
			c3.664-3.627,5.496-8.668,5.496-15.121v-5.852l-10.391,0.438c-8.35,0.401-14.301,1.705-17.855,3.91
			c-3.555,2.206-5.332,5.643-5.332,10.309c0,3.719,1.139,6.608,3.418,8.668C514.833,368.575,518.051,369.604,522.208,369.604z"/>
		<path fill="#FFFFFF" d="M572.739,373.433h-5.414v-85.094h5.414V373.433z"/>
		<path fill="#FFFFFF" d="M582.692,313.987h5.578l12.578,33.359c3.828,10.245,6.252,17.154,7.273,20.727h0.328
			c1.531-4.703,4.028-11.721,7.492-21.055l12.578-33.031h5.578l-26.633,69.07c-2.151,5.614-3.956,9.406-5.414,11.375
			c-1.459,1.969-3.163,3.445-5.113,4.43c-1.951,0.984-4.312,1.477-7.082,1.477c-2.078,0-4.394-0.383-6.945-1.148v-4.703
			c2.114,0.583,4.393,0.875,6.836,0.875c1.859,0,3.5-0.438,4.922-1.313s2.707-2.233,3.855-4.074c1.148-1.842,2.479-4.758,3.992-8.75
			c1.513-3.992,2.488-6.59,2.926-7.793L582.692,313.987z"/>
		<path fill="#FFFFFF" d="M659.747,369.714c3.427,0,6.416-0.291,8.969-0.875v4.375c-2.625,0.875-5.651,1.313-9.078,1.313
			c-5.25,0-9.124-1.403-11.621-4.211c-2.498-2.807-3.746-7.219-3.746-13.234V318.69h-8.805v-3.172l8.805-2.461l2.734-13.453h2.789
			v14.383h17.445v4.703h-17.445v37.625c0,4.558,0.802,7.93,2.406,10.117C653.803,368.62,656.319,369.714,659.747,369.714z"/>
		<path fill="#FFFFFF" d="M680.801,297.472c0-3.5,1.148-5.25,3.445-5.25c1.13,0,2.014,0.456,2.652,1.367
			c0.638,0.912,0.957,2.206,0.957,3.883c0,1.641-0.319,2.936-0.957,3.883c-0.639,0.948-1.522,1.422-2.652,1.422
			C681.95,302.776,680.801,301.009,680.801,297.472z M686.981,373.433h-5.414v-59.445h5.414V373.433z"/>
		<path fill="#FFFFFF" d="M730.622,374.526c-8.495,0-15.148-2.68-19.961-8.039s-7.219-12.833-7.219-22.422
			c0-9.844,2.497-17.509,7.492-22.996c4.994-5.486,11.83-8.23,20.508-8.23c5.141,0,10.063,0.894,14.766,2.68l-1.477,4.813
			c-5.141-1.713-9.607-2.57-13.398-2.57c-7.292,0-12.815,2.252-16.57,6.754c-3.756,4.503-5.633,10.983-5.633,19.441
			c0,8.021,1.877,14.301,5.633,18.84c3.755,4.539,9.005,6.809,15.75,6.809c5.396,0,10.408-0.966,15.039-2.898v5.031
			C741.759,373.597,736.783,374.526,730.622,374.526z"/>
		<path fill="#FFFFFF" d="M796.958,357.956c0,5.323-2.023,9.416-6.07,12.277c-4.047,2.862-9.789,4.293-17.227,4.293
			c-7.948,0-14.256-1.221-18.922-3.664v-5.852c5.979,2.99,12.286,4.484,18.922,4.484c5.869,0,10.326-0.975,13.371-2.926
			c3.044-1.95,4.566-4.548,4.566-7.793c0-2.989-1.213-5.505-3.637-7.547c-2.425-2.041-6.408-4.047-11.949-6.016
			c-5.943-2.15-10.117-4.001-12.523-5.551c-2.406-1.549-4.221-3.299-5.441-5.25c-1.222-1.95-1.832-4.329-1.832-7.137
			c0-4.447,1.868-7.966,5.605-10.555c3.736-2.588,8.959-3.883,15.668-3.883c6.416,0,12.505,1.203,18.266,3.609l-2.023,4.922
			c-5.834-2.406-11.248-3.609-16.242-3.609c-4.85,0-8.695,0.803-11.539,2.406c-2.844,1.604-4.266,3.828-4.266,6.672
			c0,3.1,1.103,5.578,3.309,7.438c2.205,1.859,6.517,3.938,12.934,6.234c5.359,1.933,9.26,3.674,11.703,5.223
			c2.442,1.55,4.274,3.309,5.496,5.277C796.346,352.979,796.958,355.295,796.958,357.956z"/>
		<path fill="#FFFFFF" d="M886.864,352.815c0,6.672-2.452,11.959-7.355,15.859c-4.904,3.901-11.421,5.852-19.551,5.852
			c-9.771,0-17.264-1.076-22.477-3.227v-5.578c5.76,2.443,13.106,3.664,22.039,3.664c6.563,0,11.767-1.504,15.613-4.512
			c3.846-3.008,5.77-6.954,5.77-11.84c0-3.025-0.639-5.532-1.914-7.52c-1.276-1.986-3.354-3.801-6.234-5.441
			c-2.881-1.641-7.109-3.408-12.688-5.305c-8.167-2.807-13.809-5.842-16.926-9.105c-3.117-3.263-4.676-7.61-4.676-13.043
			c0-5.979,2.342-10.855,7.027-14.629c4.685-3.773,10.709-5.66,18.074-5.66c7.51,0,14.564,1.422,21.164,4.266l-2.023,4.813
			c-6.636-2.771-12.979-4.156-19.031-4.156c-5.906,0-10.609,1.367-14.109,4.102s-5.25,6.453-5.25,11.156
			c0,2.953,0.537,5.378,1.613,7.273c1.075,1.896,2.834,3.601,5.277,5.113c2.442,1.514,6.635,3.327,12.578,5.441
			c6.234,2.151,10.919,4.238,14.055,6.262c3.135,2.023,5.423,4.32,6.863,6.891C886.143,346.062,886.864,349.17,886.864,352.815z"/>
		<path fill="#FFFFFF" d="M918.09,369.714c3.427,0,6.416-0.291,8.969-0.875v4.375c-2.625,0.875-5.651,1.313-9.078,1.313
			c-5.25,0-9.124-1.403-11.621-4.211c-2.498-2.807-3.746-7.219-3.746-13.234V318.69h-8.805v-3.172l8.805-2.461l2.734-13.453h2.789
			v14.383h17.445v4.703h-17.445v37.625c0,4.558,0.802,7.93,2.406,10.117C912.147,368.62,914.663,369.714,918.09,369.714z"/>
		<path fill="#FFFFFF" d="M989.075,343.628c0,9.698-2.352,17.272-7.055,22.723c-4.703,5.451-11.193,8.176-19.469,8.176
			c-5.214,0-9.808-1.258-13.781-3.773c-3.975-2.516-7.019-6.125-9.133-10.828c-2.115-4.703-3.172-10.135-3.172-16.297
			c0-9.697,2.352-17.254,7.055-22.668s11.156-8.121,19.359-8.121c8.166,0,14.574,2.744,19.223,8.23
			C986.75,326.557,989.075,334.076,989.075,343.628z M942.153,343.628c0,8.167,1.795,14.538,5.387,19.113
			c3.591,4.576,8.668,6.863,15.23,6.863s11.639-2.287,15.23-6.863c3.591-4.575,5.387-10.946,5.387-19.113
			c0-8.203-1.814-14.564-5.441-19.086c-3.628-4.521-8.723-6.781-15.285-6.781s-11.621,2.252-15.176,6.754
			C943.93,329.018,942.153,335.389,942.153,343.628z"/>
		<path fill="#FFFFFF" d="M1028.942,312.839c2.516,0,5.213,0.256,8.094,0.766l-1.039,5.195c-2.479-0.619-5.05-0.93-7.711-0.93
			c-5.068,0-9.225,2.151-12.469,6.453c-3.245,4.303-4.867,9.734-4.867,16.297v32.813h-5.414v-59.445h4.594l0.547,10.719h0.383
			c2.442-4.375,5.049-7.446,7.82-9.215C1021.65,313.724,1025.004,312.839,1028.942,312.839z"/>
		<path fill="#FFFFFF" d="M1073.129,374.526c-8.641,0-15.377-2.661-20.207-7.984c-4.831-5.322-7.246-12.778-7.246-22.367
			c0-9.479,2.333-17.071,7-22.777c4.666-5.705,10.955-8.559,18.867-8.559c7,0,12.523,2.443,16.57,7.328
			c4.047,4.886,6.07,11.521,6.07,19.906v4.375h-42.82c0.072,8.167,1.978,14.401,5.715,18.703c3.736,4.303,9.087,6.453,16.051,6.453
			c3.391,0,6.371-0.236,8.941-0.711c2.57-0.474,5.824-1.494,9.762-3.063v4.922c-3.354,1.459-6.453,2.452-9.297,2.98
			S1076.556,374.526,1073.129,374.526z M1071.543,317.651c-5.725,0-10.318,1.887-13.781,5.66c-3.464,3.773-5.487,9.215-6.07,16.324
			h36.75c0-6.891-1.495-12.277-4.484-16.16C1080.967,319.593,1076.83,317.651,1071.543,317.651z"/>
	</g>
</g>
</svg>
