<?xml version="1.0" encoding="utf-8"?>
<!-- Generator: Adobe Illustrator 16.0.0, SVG Export Plug-In . SVG Version: 6.00 Build 0)  -->
<!DOCTYPE svg PUBLIC "-//W3C//DTD SVG 1.1//EN" "http://www.w3.org/Graphics/SVG/1.1/DTD/svg11.dtd">
<svg version="1.1" id="Layer_1" xmlns="http://www.w3.org/2000/svg" xmlns:xlink="http://www.w3.org/1999/xlink" x="0px" y="0px"
	 width="1177.441px" height="380.887px" viewBox="0 0 1177.441 380.887" enable-background="new 0 0 1177.441 380.887"
	 xml:space="preserve">
<rect x="9.042" y="10.887" fill="transparent" stroke="#FFFFFF" stroke-width="7" stroke-miterlimit="10" width="1160" height="362"/>
<g id="_x32_">
	<g>
		<path fill="#FFFFFF" d="M61.211,311.144c-11,0-15.5-7.794-10-17.32L179.92,70.892c5.5-9.526,14.5-9.526,20,0l128.708,222.931
			c5.5,9.526,1,17.32-10,17.32H61.211z"/>
	</g>
	<g>
		<path fill="#5e72e4" d="M238.18,299.498c-2.076-0.3-3.643-0.507-4.919-0.674c-3.919-0.518-4.971-0.657-9.552-1.985
			c-1.805-0.524-8.868-7.154-8.868-20.131c0-16.72,4.265-31.481,6.096-37.053c0.049-0.145,0.168-0.566,0.333-1.137
			c0.303-1.043,2.527-7.363,2.527-7.363c1.205-3.212,2.452-6.539,3.263-9.951l0.043-0.175c1.224-4.943,5.239-23.014,5.524-48.012
			c0-2.521-2.252-4.715-3.598-6.027c-0.247-0.24-0.464-0.451-0.628-0.629c-1.295-1.402-3.001-3.132-4.975-5.135
			c-1.301-1.321-2.735-2.777-4.279-4.368c-2.469-2.544-5.224-4.871-7.889-7.119c-3.278-2.765-6.665-5.623-9.446-8.846
			c-4.161-4.816-8.005-13.243-7.31-20.034c0.105-1.024-0.152-1.91-0.722-2.495c-0.635-0.65-1.63-0.853-2.506-0.53
			c-0.878-0.322-1.874-0.12-2.507,0.53c-0.571,0.584-0.828,1.471-0.722,2.495c0.695,6.792-3.15,15.218-7.308,20.034
			c-2.785,3.223-6.173,6.081-9.448,8.846c-2.663,2.248-5.42,4.574-7.89,7.119c-1.543,1.591-2.978,3.047-4.279,4.368
			c-1.975,2.003-3.68,3.733-4.976,5.135c-0.163,0.178-0.38,0.389-0.626,0.629c-1.346,1.312-3.599,3.506-3.599,6.042
			c0.285,24.983,4.302,43.055,5.524,47.998l0.043,0.175c0.811,3.413,2.059,6.739,3.263,9.951c0,0,2.223,6.32,2.526,7.363
			c0.166,0.57,0.286,0.992,0.333,1.137c1.833,5.572,6.096,20.333,6.096,37.053c0,12.979-7.062,19.607-8.868,20.131
			c-4.581,1.328-5.634,1.467-9.552,1.985c-1.276,0.167-2.842,0.374-4.918,0.674c-22.499,2.229-24.929,12.624-24.929,16.993
			c0,1.171,0.652,4.974,3.621,8.48c2.669,3.15,7.984,6.907,18.158,6.907c1.525,0,3.14-0.084,4.8-0.251
			c6.771-0.677,13.594-1.693,20.193-2.677c2.396-0.359,4.789-0.715,7.186-1.057c3.192-0.457,8.948-0.759,17.102-0.897
			c0.382-0.006,0.648-0.01,0.777-0.015c0.128,0.004,0.394,0.009,0.774,0.015c8.154,0.139,13.909,0.44,17.102,0.897
			c2.396,0.341,4.789,0.698,7.187,1.057c6.597,0.984,13.422,2,20.191,2.677c1.659,0.166,3.275,0.251,4.801,0.251
			c10.175,0,15.491-3.756,18.158-6.907c2.97-3.507,3.62-7.31,3.62-8.48C263.108,312.122,260.68,301.728,238.18,299.498z"/>
	</g>
</g>
<g>
	<path fill="#FFFFFF" d="M419.434,163.263l-4.395-17.407h-28.992l-4.517,17.407h-26.489l29.114-93.26h32.166l29.48,93.26H419.434z
		 M410.034,125.272l-3.845-15.247c-0.896-3.388-1.984-7.771-3.266-13.15c-1.282-5.378-2.126-9.233-2.533-11.563
		c-0.366,2.16-1.089,5.718-2.167,10.673c-1.079,4.955-3.469,14.718-7.171,29.287H410.034z"/>
	<path fill="#FFFFFF" d="M445.679,91.285h25.146l11.719,41.294c0.569,2.16,0.956,4.765,1.16,7.814h0.488
		c0.325-2.922,0.813-5.484,1.465-7.687l12.023-41.421h24.354l-27.344,76.552c-3.5,9.74-7.803,16.622-12.909,20.646
		c-5.106,4.023-11.771,6.035-19.989,6.035c-3.174,0-6.43-0.36-9.766-1.08v-19.503c2.156,0.508,4.618,0.762,7.385,0.762
		c2.115,0,3.967-0.424,5.554-1.271c1.587-0.848,2.971-2.044,4.15-3.589c1.18-1.546,2.441-4.077,3.784-7.592L445.679,91.285z"/>
	<path fill="#FFFFFF" d="M575.378,163.263l-4.578-9.529h-0.488c-3.215,4.151-6.49,6.988-9.826,8.513
		c-3.337,1.525-7.65,2.287-12.939,2.287c-6.511,0-11.638-2.033-15.381-6.099c-3.744-4.066-5.615-9.784-5.615-17.153
		c0-7.665,2.563-13.373,7.69-17.121c5.127-3.748,12.552-5.854,22.277-6.321l11.536-0.381v-1.017c0-5.929-2.808-8.894-8.423-8.894
		c-5.046,0-11.455,1.779-19.227,5.336l-6.896-16.39c8.057-4.32,18.229-6.48,30.518-6.48c8.87,0,15.736,2.287,20.6,6.861
		c4.861,4.574,7.293,10.969,7.293,19.186v47.202H575.378z M557.678,147c2.889,0,5.36-0.953,7.416-2.859
		c2.054-1.906,3.082-4.383,3.082-7.433v-5.59l-5.493,0.254c-7.854,0.297-11.78,3.304-11.78,9.021
		C550.903,144.798,553.162,147,557.678,147z"/>
	<path fill="#FFFFFF" d="M693.054,163.263v-39.134c0-4.87-0.641-8.522-1.923-10.958c-1.281-2.435-3.307-3.653-6.073-3.653
		c-3.662,0-6.348,1.631-8.057,4.892c-1.709,3.262-2.563,8.365-2.563,15.311v33.543h-23.926v-39.134c0-4.87-0.61-8.522-1.831-10.958
		c-1.221-2.435-3.194-3.653-5.92-3.653c-3.744,0-6.47,1.737-8.179,5.209c-1.709,3.473-2.563,9.148-2.563,17.025v31.51h-23.865
		V91.285h18.006l2.99,8.894h1.404c1.831-3.303,4.486-5.823,7.965-7.56c3.479-1.736,7.436-2.604,11.871-2.604
		c9.969,0,16.968,3.156,20.996,9.466h1.893c1.953-2.964,4.669-5.283,8.148-6.957c3.479-1.672,7.313-2.509,11.505-2.509
		c8.179,0,14.221,2.182,18.127,6.543c3.906,4.363,5.859,10.991,5.859,19.884v46.821H693.054z"/>
	<path fill="#FFFFFF" d="M732.666,73.37c0-3.726,0.997-6.5,2.991-8.322c1.993-1.82,5.208-2.731,9.644-2.731
		c4.435,0,7.669,0.932,9.704,2.795c2.034,1.864,3.052,4.617,3.052,8.259c0,7.285-4.252,10.927-12.756,10.927
		C736.877,84.297,732.666,80.655,732.666,73.37z M757.141,163.263h-23.865V91.285h23.865V163.263z"/>
	<path fill="#FFFFFF" d="M851.684,163.263h-24.23v-37.863h-28.016v37.863h-24.23V70.384h24.23v34.433h28.016V70.384h24.23V163.263z"
		/>
	<path fill="#FFFFFF" d="M404.419,233.633c-5.737,0-10.214,2.446-13.428,7.338c-3.215,4.892-4.822,11.637-4.822,20.233
		c0,17.874,6.531,26.81,19.592,26.81c3.946,0,7.771-0.572,11.475-1.716c3.702-1.144,7.425-2.519,11.169-4.129v21.219
		c-7.446,3.431-15.869,5.146-25.269,5.146c-13.469,0-23.794-4.065-30.976-12.197c-7.182-8.132-10.772-19.885-10.772-35.259
		c0-9.613,1.739-18.063,5.218-25.348c3.479-7.284,8.484-12.886,15.015-16.804c6.531-3.917,14.211-5.876,23.041-5.876
		c9.644,0,18.86,2.182,27.649,6.543l-7.385,19.758c-3.296-1.609-6.592-2.964-9.888-4.065S408.203,233.633,404.419,233.633z"/>
	<path fill="#FFFFFF" d="M510.437,271.115c0,11.774-3.042,20.954-9.125,27.539c-6.083,6.586-14.598,9.879-25.543,9.879
		c-10.498,0-18.851-3.367-25.055-10.101c-6.205-6.734-9.308-15.84-9.308-27.317c0-11.731,3.042-20.848,9.125-27.35
		c6.083-6.501,14.618-9.751,25.604-9.751c6.795,0,12.796,1.503,18.005,4.51c5.208,3.008,9.227,7.317,12.055,12.929
		C509.023,257.065,510.437,263.618,510.437,271.115z M465.637,271.115c0,6.184,0.793,10.895,2.38,14.135s4.252,4.86,7.996,4.86
		c3.702,0,6.317-1.62,7.843-4.86c1.526-3.24,2.289-7.951,2.289-14.135c0-6.141-0.773-10.778-2.319-13.913
		c-1.547-3.134-4.191-4.701-7.935-4.701c-3.662,0-6.287,1.557-7.874,4.669C466.43,260.283,465.637,264.932,465.637,271.115z"/>
	<path fill="#FFFFFF" d="M567.688,307.263v-39.261c0-4.785-0.662-8.396-1.983-10.832c-1.323-2.435-3.449-3.652-6.379-3.652
		c-4.028,0-6.938,1.674-8.728,5.019c-1.791,3.347-2.686,9.085-2.686,17.217v31.51h-23.865v-71.978h18.006l2.99,8.894h1.404
		c2.034-3.388,4.853-5.929,8.453-7.623c3.602-1.693,7.741-2.541,12.421-2.541c7.649,0,13.601,2.309,17.853,6.924
		c4.252,4.617,6.378,11.118,6.378,19.504v46.82H567.688z"/>
	<path fill="#FFFFFF" d="M661.194,285.154c0,7.709-2.523,13.532-7.568,17.471c-5.046,3.938-12.289,5.908-21.729,5.908
		c-5.127,0-9.583-0.286-13.367-0.857c-3.784-0.572-7.649-1.62-11.597-3.145v-19.885c3.703,1.694,7.762,3.092,12.177,4.193
		s8.352,1.651,11.811,1.651c5.167,0,7.751-1.228,7.751-3.685c0-1.271-0.723-2.403-2.166-3.399
		c-1.445-0.994-5.646-2.932-12.604-5.813c-6.348-2.71-10.783-5.791-13.306-9.243c-2.522-3.451-3.784-7.824-3.784-13.119
		c0-6.691,2.482-11.9,7.446-15.628c4.964-3.727,11.983-5.59,21.058-5.59c4.557,0,8.84,0.519,12.848,1.556
		c4.008,1.039,8.168,2.553,12.481,4.543l-6.47,16.009c-3.174-1.481-6.53-2.741-10.07-3.78c-3.54-1.037-6.43-1.556-8.667-1.556
		c-3.906,0-5.859,0.995-5.859,2.985c0,1.229,0.681,2.277,2.045,3.145c1.362,0.869,5.299,2.637,11.81,5.305
		c4.842,2.076,8.454,4.108,10.834,6.099c2.381,1.991,4.13,4.331,5.249,7.021S661.194,281.302,661.194,285.154z"/>
	<path fill="#FFFFFF" d="M723.694,307.263l-2.991-8.958h-1.403c-1.994,3.304-4.771,5.835-8.331,7.592
		c-3.562,1.757-7.742,2.637-12.543,2.637c-7.609,0-13.53-2.297-17.762-6.893c-4.231-4.595-6.348-11.086-6.348-19.472v-46.884h23.865
		v39.324c0,4.701,0.641,8.259,1.923,10.673c1.281,2.414,3.387,3.621,6.316,3.621c4.109,0,7.039-1.684,8.789-5.051
		c1.749-3.367,2.625-9.053,2.625-17.058v-31.51h23.864v71.978H723.694z"/>
	<path fill="#FFFFFF" d="M782.043,307.263h-23.865v-98.851h23.865V307.263z"/>
	<path fill="#FFFFFF" d="M832.458,288.903c3.214,0,7.059-0.826,11.535-2.478v18.105c-3.215,1.44-6.276,2.468-9.186,3.081
		s-6.317,0.921-10.224,0.921c-8.017,0-13.794-2.043-17.334-6.131c-3.54-4.086-5.31-10.364-5.31-18.836v-29.668h-8.362v-10.101
		l10.62-7.814l6.165-15.119h15.625v14.421h16.968v18.613h-16.968v28.017C825.989,286.574,828.145,288.903,832.458,288.903z"/>
	<path fill="#FFFFFF" d="M901.184,307.263l-4.578-9.529h-0.488c-3.215,4.151-6.49,6.988-9.826,8.513
		c-3.337,1.524-7.65,2.287-12.939,2.287c-6.511,0-11.638-2.033-15.381-6.099c-3.744-4.065-5.615-9.783-5.615-17.152
		c0-7.666,2.563-13.373,7.69-17.121s12.552-5.854,22.277-6.321l11.536-0.381v-1.017c0-5.93-2.808-8.895-8.423-8.895
		c-5.046,0-11.455,1.779-19.227,5.337l-6.896-16.391c8.057-4.32,18.229-6.479,30.518-6.479c8.87,0,15.736,2.286,20.6,6.86
		c4.861,4.574,7.293,10.97,7.293,19.186v47.202H901.184z M883.484,290.999c2.889,0,5.36-0.952,7.416-2.858
		c2.054-1.906,3.082-4.384,3.082-7.433v-5.591l-5.493,0.254c-7.854,0.297-11.78,3.304-11.78,9.021
		C876.708,288.798,878.967,290.999,883.484,290.999z"/>
	<path fill="#FFFFFF" d="M977.6,307.263v-39.261c0-4.785-0.662-8.396-1.983-10.832c-1.323-2.435-3.449-3.652-6.379-3.652
		c-4.028,0-6.938,1.674-8.728,5.019c-1.791,3.347-2.686,9.085-2.686,17.217v31.51h-23.865v-71.978h18.006l2.99,8.894h1.404
		c2.034-3.388,4.853-5.929,8.453-7.623c3.602-1.693,7.741-2.541,12.421-2.541c7.649,0,13.601,2.309,17.853,6.924
		c4.252,4.617,6.378,11.118,6.378,19.504v46.82H977.6z"/>
	<path fill="#FFFFFF" d="M1051.574,288.903c3.214,0,7.059-0.826,11.535-2.478v18.105c-3.215,1.44-6.276,2.468-9.186,3.081
		s-6.317,0.921-10.224,0.921c-8.017,0-13.794-2.043-17.334-6.131c-3.54-4.086-5.31-10.364-5.31-18.836v-29.668h-8.362v-10.101
		l10.62-7.814l6.165-15.119h15.625v14.421h16.968v18.613h-16.968v28.017C1045.104,286.574,1047.26,288.903,1051.574,288.903z"/>
	<path fill="#FFFFFF" d="M1128.6,285.154c0,7.709-2.523,13.532-7.568,17.471c-5.046,3.938-12.289,5.908-21.729,5.908
		c-5.127,0-9.583-0.286-13.367-0.857c-3.784-0.572-7.649-1.62-11.597-3.145v-19.885c3.703,1.694,7.762,3.092,12.177,4.193
		s8.352,1.651,11.811,1.651c5.167,0,7.751-1.228,7.751-3.685c0-1.271-0.723-2.403-2.166-3.399
		c-1.445-0.994-5.646-2.932-12.604-5.813c-6.348-2.71-10.783-5.791-13.306-9.243c-2.522-3.451-3.784-7.824-3.784-13.119
		c0-6.691,2.482-11.9,7.446-15.628c4.964-3.727,11.983-5.59,21.058-5.59c4.557,0,8.84,0.519,12.848,1.556
		c4.008,1.039,8.168,2.553,12.481,4.543l-6.47,16.009c-3.174-1.481-6.53-2.741-10.07-3.78c-3.54-1.037-6.43-1.556-8.667-1.556
		c-3.906,0-5.859,0.995-5.859,2.985c0,1.229,0.681,2.277,2.045,3.145c1.362,0.869,5.299,2.637,11.81,5.305
		c4.842,2.076,8.454,4.108,10.834,6.099c2.381,1.991,4.13,4.331,5.249,7.021S1128.6,281.302,1128.6,285.154z"/>
</g>
</svg>
