<?xml version="1.0" encoding="utf-8"?>
<!-- Generator: Adobe Illustrator 16.0.0, SVG Export Plug-In . SVG Version: 6.00 Build 0)  -->
<!DOCTYPE svg PUBLIC "-//W3C//DTD SVG 1.1//EN" "http://www.w3.org/Graphics/SVG/1.1/DTD/svg11.dtd">
<svg id="svg" version="1.1" xmlns="http://www.w3.org/2000/svg" xmlns:xlink="http://www.w3.org/1999/xlink" x="0px" y="0px"
	 width="523.191px" height="468.305px" viewBox="44.333 163.695 523.191 470.305"
	 enable-background="new 44.333 163.695 523.191 465.305" xml:space="preserve">
	
<style type="text/css">
	#outer-circle {
		 transform-box: view-box;
        -webkit-transform-origin: 58.5% 84.2%;
           -moz-transform-origin: 58.5% 84.2%;
                transform-origin: 58.5% 84.2%;
    -webkit-animation: 30s rotateRight infinite linear 0.01s;
       -moz-animation: 30s rotateRight infinite linear 0.01s;
            animation: 30s rotateRight infinite linear 0.01s;
    -webkit-animation-name: rotateRight;
    -webkit-animation-duration: 30s;
    -webkit-animation-iteration-count: infinite;
    -webkit-animation-timing-function: linear;
    -webkit-animation-timing-function: linear;
		
	}

	@-moz-keyframes rotateRight {
	0% {
	-moz-transform: rotate(0deg);
	}
	100% {
	-moz-transform: rotate(360deg);
	}
	}

	@-webkit-keyframes rotateRight {
	0% {
	-webkit-transform: rotate(0deg);
	}
	100% {
	-webkit-transform: rotate(360deg);
	}

	@keyframes rotateRight {
	0% {
	   transform: rotate(0deg);
	}
	100% {
	   transform: rotate(360deg);
	}
	}

</style>
	
	
	
<g id="Layer_2">
	<g id="left-arrow">
		<path fill="#FFFFFF" d="M137.548,397.437H45.784c-0.799,0-1.45-0.306-1.45-0.682s0.651-0.681,1.45-0.681h91.764
			c0.801,0,1.452,0.305,1.452,0.681S138.349,397.437,137.548,397.437z"/>
		<path fill="#FFFFFF" d="M121.244,414.51c-0.174,0-0.349-0.066-0.482-0.199c-0.266-0.266-0.266-0.697,0-0.963l16.594-16.594
			l-16.594-16.589c-0.266-0.266-0.266-0.697,0-0.963c0.266-0.266,0.697-0.266,0.963,0l17.075,17.069
			c0.128,0.129,0.199,0.301,0.199,0.482s-0.073,0.354-0.199,0.482l-17.075,17.074C121.592,414.443,121.418,414.51,121.244,414.51z"
			/>
	</g>
	<g id="right-arrow">
		<path fill="#FFFFFF" d="M472.049,393.82h91.764c0.8,0,1.451,0.306,1.451,0.682s-0.651,0.681-1.451,0.681h-91.764
			c-0.802,0-1.452-0.305-1.452-0.681S471.247,393.82,472.049,393.82z"/>
		<path fill="#FFFFFF" d="M488.353,376.746c0.175,0,0.35,0.066,0.482,0.199c0.266,0.266,0.266,0.697,0,0.963l-16.594,16.594
			l16.594,16.589c0.266,0.266,0.266,0.697,0,0.963s-0.697,0.266-0.963,0l-17.075-17.07c-0.128-0.129-0.198-0.301-0.198-0.482
			s0.072-0.354,0.198-0.482l17.075-17.075C488.005,376.813,488.179,376.746,488.353,376.746z"/>
	</g>
	<g id="bottom-arrow">
		<path fill="#FFFFFF" d="M305.93,562.022v65.935c0,0.575-0.305,1.043-0.682,1.043c-0.375,0-0.68-0.468-0.68-1.043v-65.935
			c0-0.576,0.305-1.043,0.68-1.043C305.625,560.979,305.93,561.446,305.93,562.022z"/>
		<path fill="#FFFFFF" d="M323.004,578.735c0,0.175-0.066,0.35-0.199,0.482c-0.266,0.266-0.697,0.266-0.963,0l-16.594-16.594
			l-16.59,16.594c-0.266,0.266-0.697,0.266-0.963,0s-0.266-0.697,0-0.963l17.07-17.075c0.129-0.128,0.301-0.198,0.482-0.198
			s0.354,0.072,0.483,0.198l17.074,17.075C322.938,578.388,323.004,578.562,323.004,578.735z"/>
	</g>
	<g>
		<path fill="#FFFFFF" d="M48.705,390.726l-2.063-6.721H46.59c0.074,1.367,0.111,2.279,0.111,2.736v3.984h-1.623v-8.566h2.473
			l2.027,6.551h0.035l2.15-6.551h2.473v8.566h-1.693v-4.055c0-0.191,0.003-0.412,0.009-0.662s0.032-0.914,0.079-1.992h-0.053
			l-2.209,6.709H48.705z"/>
		<path fill="#FFFFFF" d="M60.412,390.726l-0.346-0.891H60.02c-0.301,0.379-0.61,0.642-0.929,0.788s-0.733,0.22-1.245,0.22
			c-0.629,0-1.124-0.18-1.485-0.539s-0.542-0.871-0.542-1.535c0-0.695,0.243-1.208,0.729-1.538s1.22-0.513,2.2-0.548l1.137-0.035
			v-0.287c0-0.664-0.34-0.996-1.02-0.996c-0.523,0-1.139,0.158-1.846,0.475l-0.592-1.207c0.754-0.395,1.59-0.592,2.508-0.592
			c0.879,0,1.553,0.191,2.021,0.574s0.703,0.965,0.703,1.746v4.365H60.412z M59.885,387.69l-0.691,0.023
			c-0.52,0.016-0.906,0.109-1.16,0.281s-0.381,0.434-0.381,0.785c0,0.504,0.289,0.756,0.867,0.756c0.414,0,0.745-0.119,0.993-0.357
			s0.372-0.555,0.372-0.949V387.69z"/>
		<path fill="#FFFFFF" d="M66.16,390.843c-2.039,0-3.059-1.119-3.059-3.357c0-1.113,0.277-1.964,0.832-2.552s1.35-0.882,2.385-0.882
			c0.758,0,1.438,0.148,2.039,0.445l-0.527,1.383c-0.281-0.113-0.543-0.206-0.785-0.278s-0.484-0.108-0.727-0.108
			c-0.93,0-1.395,0.66-1.395,1.98c0,1.281,0.465,1.922,1.395,1.922c0.344,0,0.662-0.046,0.955-0.138s0.586-0.235,0.879-0.431v1.529
			c-0.289,0.184-0.581,0.311-0.876,0.381S66.609,390.843,66.16,390.843z"/>
		<path fill="#FFFFFF" d="M75.717,390.726H73.93v-3.826c0-0.945-0.352-1.418-1.055-1.418c-0.5,0-0.861,0.17-1.084,0.51
			s-0.334,0.891-0.334,1.652v3.082H69.67v-9.117h1.787v1.857c0,0.145-0.014,0.484-0.041,1.02l-0.041,0.527h0.094
			c0.398-0.641,1.031-0.961,1.898-0.961c0.77,0,1.354,0.207,1.752,0.621s0.598,1.008,0.598,1.781V390.726z"/>
		<path fill="#FFFFFF" d="M77.48,382.481c0-0.582,0.324-0.873,0.973-0.873s0.973,0.291,0.973,0.873c0,0.277-0.081,0.493-0.243,0.647
			s-0.405,0.231-0.729,0.231C77.805,383.36,77.48,383.067,77.48,382.481z M79.344,390.726h-1.787v-6.551h1.787V390.726z"/>
		<path fill="#FFFFFF" d="M87.266,390.726h-1.787v-3.826c0-0.473-0.084-0.827-0.252-1.063s-0.436-0.354-0.803-0.354
			c-0.5,0-0.861,0.167-1.084,0.501s-0.334,0.888-0.334,1.661v3.082h-1.787v-6.551h1.365l0.24,0.838h0.1
			c0.199-0.316,0.474-0.556,0.823-0.718s0.747-0.243,1.192-0.243c0.762,0,1.34,0.206,1.734,0.618s0.592,1.007,0.592,1.784V390.726z"
			/>
		<path fill="#FFFFFF" d="M92.07,390.843c-1.055,0-1.879-0.291-2.473-0.873s-0.891-1.406-0.891-2.473
			c0-1.098,0.274-1.946,0.823-2.546s1.308-0.899,2.276-0.899c0.926,0,1.646,0.264,2.162,0.791s0.773,1.256,0.773,2.186v0.867h-4.225
			c0.02,0.508,0.17,0.904,0.451,1.189s0.676,0.428,1.184,0.428c0.395,0,0.768-0.041,1.119-0.123s0.719-0.213,1.102-0.393v1.383
			c-0.313,0.156-0.646,0.272-1.002,0.349S92.582,390.843,92.07,390.843z M91.818,385.323c-0.379,0-0.676,0.12-0.891,0.36
			s-0.338,0.581-0.369,1.022h2.508c-0.008-0.441-0.123-0.782-0.346-1.022S92.197,385.323,91.818,385.323z"/>
		<path fill="#FFFFFF" d="M45.078,409.726v-8.566h1.816v7.066h3.475v1.5H45.078z"/>
		<path fill="#FFFFFF" d="M54.682,409.843c-1.055,0-1.879-0.291-2.473-0.873s-0.891-1.406-0.891-2.473
			c0-1.098,0.274-1.946,0.823-2.546s1.308-0.899,2.276-0.899c0.926,0,1.646,0.264,2.162,0.791s0.773,1.256,0.773,2.186v0.867h-4.225
			c0.02,0.508,0.17,0.904,0.451,1.189s0.676,0.428,1.184,0.428c0.395,0,0.768-0.041,1.119-0.123s0.719-0.213,1.102-0.393v1.383
			c-0.313,0.156-0.646,0.272-1.002,0.349S55.193,409.843,54.682,409.843z M54.43,404.323c-0.379,0-0.676,0.12-0.891,0.36
			s-0.338,0.581-0.369,1.022h2.508c-0.008-0.441-0.123-0.782-0.346-1.022S54.809,404.323,54.43,404.323z"/>
		<path fill="#FFFFFF" d="M62.967,409.726l-0.346-0.891h-0.047c-0.301,0.379-0.61,0.642-0.929,0.788s-0.733,0.22-1.245,0.22
			c-0.629,0-1.124-0.18-1.485-0.539s-0.542-0.871-0.542-1.535c0-0.695,0.243-1.208,0.729-1.538s1.22-0.513,2.2-0.548l1.137-0.035
			v-0.287c0-0.664-0.34-0.996-1.02-0.996c-0.523,0-1.139,0.158-1.846,0.475l-0.592-1.207c0.754-0.395,1.59-0.592,2.508-0.592
			c0.879,0,1.553,0.191,2.021,0.574s0.703,0.965,0.703,1.746v4.365H62.967z M62.439,406.69l-0.691,0.023
			c-0.52,0.016-0.906,0.109-1.16,0.281s-0.381,0.434-0.381,0.785c0,0.504,0.289,0.756,0.867,0.756c0.414,0,0.745-0.119,0.993-0.357
			s0.372-0.555,0.372-0.949V406.69z"/>
		<path fill="#FFFFFF" d="M69.711,403.052c0.242,0,0.443,0.018,0.604,0.053l-0.135,1.676c-0.145-0.039-0.32-0.059-0.527-0.059
			c-0.57,0-1.015,0.146-1.333,0.439s-0.478,0.703-0.478,1.23v3.334h-1.787v-6.551h1.354l0.264,1.102h0.088
			c0.203-0.367,0.478-0.663,0.823-0.888S69.305,403.052,69.711,403.052z"/>
		<path fill="#FFFFFF" d="M77.551,409.726h-1.787v-3.826c0-0.473-0.084-0.827-0.252-1.063s-0.436-0.354-0.803-0.354
			c-0.5,0-0.861,0.167-1.084,0.501s-0.334,0.888-0.334,1.661v3.082h-1.787v-6.551h1.365l0.24,0.838h0.1
			c0.199-0.316,0.474-0.556,0.823-0.718s0.747-0.243,1.192-0.243c0.762,0,1.34,0.206,1.734,0.618s0.592,1.007,0.592,1.784V409.726z"
			/>
		<path fill="#FFFFFF" d="M79.314,401.481c0-0.582,0.324-0.873,0.973-0.873s0.973,0.291,0.973,0.873
			c0,0.277-0.081,0.493-0.243,0.647s-0.405,0.231-0.729,0.231C79.639,402.36,79.314,402.067,79.314,401.481z M81.178,409.726h-1.787
			v-6.551h1.787V409.726z"/>
		<path fill="#FFFFFF" d="M89.1,409.726h-1.787v-3.826c0-0.473-0.084-0.827-0.252-1.063s-0.436-0.354-0.803-0.354
			c-0.5,0-0.861,0.167-1.084,0.501s-0.334,0.888-0.334,1.661v3.082h-1.787v-6.551h1.365l0.24,0.838h0.1
			c0.199-0.316,0.474-0.556,0.823-0.718s0.747-0.243,1.192-0.243c0.762,0,1.34,0.206,1.734,0.618s0.592,1.007,0.592,1.784V409.726z"
			/>
		<path fill="#FFFFFF" d="M96.641,403.175v0.908l-1.025,0.264c0.188,0.293,0.281,0.621,0.281,0.984c0,0.703-0.245,1.251-0.735,1.644
			s-1.171,0.589-2.042,0.589l-0.322-0.018l-0.264-0.029c-0.184,0.141-0.275,0.297-0.275,0.469c0,0.258,0.328,0.387,0.984,0.387
			h1.113c0.719,0,1.267,0.154,1.644,0.463s0.565,0.762,0.565,1.359c0,0.766-0.319,1.359-0.958,1.781s-1.556,0.633-2.751,0.633
			c-0.914,0-1.612-0.159-2.095-0.478s-0.724-0.765-0.724-1.339c0-0.395,0.123-0.725,0.369-0.99s0.607-0.455,1.084-0.568
			c-0.184-0.078-0.344-0.206-0.48-0.384s-0.205-0.366-0.205-0.565c0-0.25,0.072-0.458,0.217-0.624s0.354-0.329,0.627-0.489
			c-0.344-0.148-0.616-0.387-0.817-0.715s-0.302-0.715-0.302-1.16c0-0.715,0.232-1.268,0.697-1.658s1.129-0.586,1.992-0.586
			c0.184,0,0.401,0.017,0.653,0.05s0.413,0.058,0.483,0.073H96.641z M91.584,410.651c0,0.246,0.118,0.439,0.354,0.58
			s0.567,0.211,0.993,0.211c0.641,0,1.143-0.088,1.506-0.264s0.545-0.416,0.545-0.721c0-0.246-0.107-0.416-0.322-0.51
			s-0.547-0.141-0.996-0.141h-0.926c-0.328,0-0.603,0.077-0.823,0.231S91.584,410.397,91.584,410.651z M92.234,405.319
			c0,0.355,0.081,0.637,0.243,0.844s0.409,0.311,0.741,0.311c0.336,0,0.582-0.104,0.738-0.311s0.234-0.488,0.234-0.844
			c0-0.789-0.324-1.184-0.973-1.184C92.563,404.136,92.234,404.53,92.234,405.319z"/>
	</g>
	<g>
		<path fill="#FFFFFF" d="M520.178,389.726l-0.621-2.039h-3.123l-0.621,2.039h-1.957l3.023-8.602h2.221l3.035,8.602H520.178z
			 M519.123,386.163c-0.574-1.848-0.897-2.893-0.97-3.135s-0.124-0.434-0.155-0.574c-0.129,0.5-0.498,1.736-1.107,3.709H519.123z"/>
		<path fill="#FFFFFF" d="M526.729,383.052c0.242,0,0.443,0.018,0.604,0.053l-0.135,1.676c-0.145-0.039-0.32-0.059-0.527-0.059
			c-0.57,0-1.015,0.146-1.333,0.439s-0.478,0.703-0.478,1.23v3.334h-1.787v-6.551h1.354l0.264,1.102h0.088
			c0.203-0.367,0.478-0.663,0.823-0.888S526.322,383.052,526.729,383.052z"/>
		<path fill="#FFFFFF" d="M531.281,388.419c0.313,0,0.688-0.068,1.125-0.205v1.33c-0.445,0.199-0.992,0.299-1.641,0.299
			c-0.715,0-1.235-0.181-1.562-0.542s-0.489-0.903-0.489-1.626v-3.158h-0.855v-0.756l0.984-0.598l0.516-1.383h1.143v1.395h1.834
			v1.342h-1.834v3.158c0,0.254,0.071,0.441,0.214,0.563S531.047,388.419,531.281,388.419z"/>
		<path fill="#FFFFFF" d="M533.654,381.481c0-0.582,0.324-0.873,0.973-0.873s0.973,0.291,0.973,0.873
			c0,0.277-0.081,0.493-0.243,0.647s-0.405,0.231-0.729,0.231C533.979,382.36,533.654,382.067,533.654,381.481z M535.518,389.726
			h-1.787v-6.551h1.787V389.726z"/>
		<path fill="#FFFFFF" d="M541.014,384.517h-1.547v5.209h-1.787v-5.209h-0.984v-0.861l0.984-0.48v-0.48
			c0-0.746,0.184-1.291,0.551-1.635s0.955-0.516,1.764-0.516c0.617,0,1.166,0.092,1.646,0.275l-0.457,1.313
			c-0.359-0.113-0.691-0.17-0.996-0.17c-0.254,0-0.438,0.075-0.551,0.226s-0.17,0.343-0.17,0.577v0.41h1.547V384.517z
			 M541.963,381.481c0-0.582,0.324-0.873,0.973-0.873s0.973,0.291,0.973,0.873c0,0.277-0.081,0.493-0.243,0.647
			s-0.405,0.231-0.729,0.231C542.287,382.36,541.963,382.067,541.963,381.481z M543.826,389.726h-1.787v-6.551h1.787V389.726z"/>
		<path fill="#FFFFFF" d="M548.355,389.843c-2.039,0-3.059-1.119-3.059-3.357c0-1.113,0.277-1.964,0.832-2.552
			s1.35-0.882,2.385-0.882c0.758,0,1.438,0.148,2.039,0.445l-0.527,1.383c-0.281-0.113-0.543-0.206-0.785-0.278
			s-0.484-0.108-0.727-0.108c-0.93,0-1.395,0.66-1.395,1.98c0,1.281,0.465,1.922,1.395,1.922c0.344,0,0.662-0.046,0.955-0.138
			s0.586-0.235,0.879-0.431v1.529c-0.289,0.184-0.581,0.311-0.876,0.381S548.805,389.843,548.355,389.843z"/>
		<path fill="#FFFFFF" d="M551.789,381.481c0-0.582,0.324-0.873,0.973-0.873s0.973,0.291,0.973,0.873
			c0,0.277-0.081,0.493-0.243,0.647s-0.405,0.231-0.729,0.231C552.113,382.36,551.789,382.067,551.789,381.481z M553.652,389.726
			h-1.787v-6.551h1.787V389.726z"/>
		<path fill="#FFFFFF" d="M559.688,389.726l-0.346-0.891h-0.047c-0.301,0.379-0.61,0.642-0.929,0.788s-0.733,0.22-1.245,0.22
			c-0.629,0-1.124-0.18-1.485-0.539s-0.542-0.871-0.542-1.535c0-0.695,0.243-1.208,0.729-1.538s1.22-0.513,2.2-0.548l1.137-0.035
			v-0.287c0-0.664-0.34-0.996-1.02-0.996c-0.523,0-1.139,0.158-1.846,0.475l-0.592-1.207c0.754-0.395,1.59-0.592,2.508-0.592
			c0.879,0,1.553,0.191,2.021,0.574s0.703,0.965,0.703,1.746v4.365H559.688z M559.16,386.69l-0.691,0.023
			c-0.52,0.016-0.906,0.109-1.16,0.281s-0.381,0.434-0.381,0.785c0,0.504,0.289,0.756,0.867,0.756c0.414,0,0.745-0.119,0.993-0.357
			s0.372-0.555,0.372-0.949V386.69z"/>
		<path fill="#FFFFFF" d="M564.563,389.726h-1.787v-9.117h1.787V389.726z"/>
		<path fill="#FFFFFF" d="M496.418,408.726v-8.566h1.816v8.566H496.418z"/>
		<path fill="#FFFFFF" d="M506.297,408.726h-1.787v-3.826c0-0.473-0.084-0.827-0.252-1.063s-0.436-0.354-0.803-0.354
			c-0.5,0-0.861,0.167-1.084,0.501s-0.334,0.888-0.334,1.661v3.082h-1.787v-6.551h1.365l0.24,0.838h0.1
			c0.199-0.316,0.474-0.556,0.823-0.718s0.747-0.243,1.192-0.243c0.762,0,1.34,0.206,1.734,0.618s0.592,1.007,0.592,1.784V408.726z"
			/>
		<path fill="#FFFFFF" d="M510.896,407.419c0.313,0,0.688-0.068,1.125-0.205v1.33c-0.445,0.199-0.992,0.299-1.641,0.299
			c-0.715,0-1.235-0.181-1.562-0.542s-0.489-0.903-0.489-1.626v-3.158h-0.855v-0.756l0.984-0.598l0.516-1.383h1.143v1.395h1.834
			v1.342h-1.834v3.158c0,0.254,0.071,0.441,0.214,0.563S510.662,407.419,510.896,407.419z"/>
		<path fill="#FFFFFF" d="M516.311,408.843c-1.055,0-1.879-0.291-2.473-0.873s-0.891-1.406-0.891-2.473
			c0-1.098,0.274-1.946,0.823-2.546s1.308-0.899,2.276-0.899c0.926,0,1.646,0.264,2.162,0.791s0.773,1.256,0.773,2.186v0.867h-4.225
			c0.02,0.508,0.17,0.904,0.451,1.189s0.676,0.428,1.184,0.428c0.395,0,0.768-0.041,1.119-0.123s0.719-0.213,1.102-0.393v1.383
			c-0.313,0.156-0.646,0.272-1.002,0.349S516.822,408.843,516.311,408.843z M516.059,403.323c-0.379,0-0.676,0.12-0.891,0.36
			s-0.338,0.581-0.369,1.022h2.508c-0.008-0.441-0.123-0.782-0.346-1.022S516.438,403.323,516.059,403.323z"/>
		<path fill="#FFFFFF" d="M522.223,408.726h-1.787v-9.117h1.787V408.726z"/>
		<path fill="#FFFFFF" d="M525.885,408.726h-1.787v-9.117h1.787V408.726z"/>
		<path fill="#FFFFFF" d="M527.684,400.481c0-0.582,0.324-0.873,0.973-0.873s0.973,0.291,0.973,0.873
			c0,0.277-0.081,0.493-0.243,0.647s-0.405,0.231-0.729,0.231C528.008,401.36,527.684,401.067,527.684,400.481z M529.547,408.726
			h-1.787v-6.551h1.787V408.726z"/>
		<path fill="#FFFFFF" d="M537.123,402.175v0.908l-1.025,0.264c0.188,0.293,0.281,0.621,0.281,0.984
			c0,0.703-0.245,1.251-0.735,1.644s-1.171,0.589-2.042,0.589l-0.322-0.018l-0.264-0.029c-0.184,0.141-0.275,0.297-0.275,0.469
			c0,0.258,0.328,0.387,0.984,0.387h1.113c0.719,0,1.267,0.154,1.644,0.463s0.565,0.762,0.565,1.359
			c0,0.766-0.319,1.359-0.958,1.781s-1.556,0.633-2.751,0.633c-0.914,0-1.612-0.159-2.095-0.478s-0.724-0.765-0.724-1.339
			c0-0.395,0.123-0.725,0.369-0.99s0.607-0.455,1.084-0.568c-0.184-0.078-0.344-0.206-0.48-0.384s-0.205-0.366-0.205-0.565
			c0-0.25,0.072-0.458,0.217-0.624s0.354-0.329,0.627-0.489c-0.344-0.148-0.616-0.387-0.817-0.715s-0.302-0.715-0.302-1.16
			c0-0.715,0.232-1.268,0.697-1.658s1.129-0.586,1.992-0.586c0.184,0,0.401,0.017,0.653,0.05s0.413,0.058,0.483,0.073H537.123z
			 M532.066,409.651c0,0.246,0.118,0.439,0.354,0.58s0.567,0.211,0.993,0.211c0.641,0,1.143-0.088,1.506-0.264
			s0.545-0.416,0.545-0.721c0-0.246-0.107-0.416-0.322-0.51s-0.547-0.141-0.996-0.141h-0.926c-0.328,0-0.603,0.077-0.823,0.231
			S532.066,409.397,532.066,409.651z M532.717,404.319c0,0.355,0.081,0.637,0.243,0.844s0.409,0.311,0.741,0.311
			c0.336,0,0.582-0.104,0.738-0.311s0.234-0.488,0.234-0.844c0-0.789-0.324-1.184-0.973-1.184
			C533.045,403.136,532.717,403.53,532.717,404.319z"/>
		<path fill="#FFFFFF" d="M541.166,408.843c-1.055,0-1.879-0.291-2.473-0.873s-0.891-1.406-0.891-2.473
			c0-1.098,0.274-1.946,0.823-2.546s1.308-0.899,2.276-0.899c0.926,0,1.646,0.264,2.162,0.791s0.773,1.256,0.773,2.186v0.867h-4.225
			c0.02,0.508,0.17,0.904,0.451,1.189s0.676,0.428,1.184,0.428c0.395,0,0.768-0.041,1.119-0.123s0.719-0.213,1.102-0.393v1.383
			c-0.313,0.156-0.646,0.272-1.002,0.349S541.678,408.843,541.166,408.843z M540.914,403.323c-0.379,0-0.676,0.12-0.891,0.36
			s-0.338,0.581-0.369,1.022h2.508c-0.008-0.441-0.123-0.782-0.346-1.022S541.293,403.323,540.914,403.323z"/>
		<path fill="#FFFFFF" d="M551.338,408.726h-1.787v-3.826c0-0.473-0.084-0.827-0.252-1.063s-0.436-0.354-0.803-0.354
			c-0.5,0-0.861,0.167-1.084,0.501s-0.334,0.888-0.334,1.661v3.082h-1.787v-6.551h1.365l0.24,0.838h0.1
			c0.199-0.316,0.474-0.556,0.823-0.718s0.747-0.243,1.192-0.243c0.762,0,1.34,0.206,1.734,0.618s0.592,1.007,0.592,1.784V408.726z"
			/>
		<path fill="#FFFFFF" d="M555.838,408.843c-2.039,0-3.059-1.119-3.059-3.357c0-1.113,0.277-1.964,0.832-2.552
			s1.35-0.882,2.385-0.882c0.758,0,1.438,0.148,2.039,0.445l-0.527,1.383c-0.281-0.113-0.543-0.206-0.785-0.278
			s-0.484-0.108-0.727-0.108c-0.93,0-1.395,0.66-1.395,1.98c0,1.281,0.465,1.922,1.395,1.922c0.344,0,0.662-0.046,0.955-0.138
			s0.586-0.235,0.879-0.431v1.529c-0.289,0.184-0.581,0.311-0.876,0.381S556.287,408.843,555.838,408.843z"/>
		<path fill="#FFFFFF" d="M562.313,408.843c-1.055,0-1.879-0.291-2.473-0.873s-0.891-1.406-0.891-2.473
			c0-1.098,0.274-1.946,0.823-2.546s1.308-0.899,2.276-0.899c0.926,0,1.646,0.264,2.162,0.791s0.773,1.256,0.773,2.186v0.867h-4.225
			c0.02,0.508,0.17,0.904,0.451,1.189s0.676,0.428,1.184,0.428c0.395,0,0.768-0.041,1.119-0.123s0.719-0.213,1.102-0.393v1.383
			c-0.313,0.156-0.646,0.272-1.002,0.349S562.824,408.843,562.313,408.843z M562.061,403.323c-0.379,0-0.676,0.12-0.891,0.36
			s-0.338,0.581-0.369,1.022h2.508c-0.008-0.441-0.123-0.782-0.346-1.022S562.439,403.323,562.061,403.323z"/>
	</g>
	<g>
		<path fill="#FFFFFF" d="M318.104,603.948c0,1.41-0.401,2.49-1.204,3.24s-1.962,1.125-3.478,1.125h-2.426v-8.566h2.689
			c1.398,0,2.484,0.369,3.258,1.107S318.104,602.624,318.104,603.948z M316.218,603.995c0-1.84-0.813-2.76-2.438-2.76h-0.967v5.578
			h0.779C315.343,606.813,316.218,605.874,316.218,603.995z"/>
		<path fill="#FFFFFF" d="M322.704,608.431c-1.055,0-1.879-0.291-2.473-0.873s-0.891-1.406-0.891-2.473
			c0-1.098,0.274-1.946,0.823-2.546s1.308-0.899,2.276-0.899c0.926,0,1.646,0.264,2.162,0.791s0.773,1.256,0.773,2.186v0.867h-4.225
			c0.02,0.508,0.17,0.904,0.451,1.189s0.676,0.428,1.184,0.428c0.395,0,0.768-0.041,1.119-0.123s0.719-0.213,1.102-0.393v1.383
			c-0.313,0.156-0.646,0.272-1.002,0.349S323.216,608.431,322.704,608.431z M322.452,602.911c-0.379,0-0.676,0.12-0.891,0.36
			s-0.338,0.581-0.369,1.022h2.508c-0.008-0.441-0.123-0.782-0.346-1.022S322.831,602.911,322.452,602.911z"/>
		<path fill="#FFFFFF" d="M329.794,608.431c-1.055,0-1.879-0.291-2.473-0.873s-0.891-1.406-0.891-2.473
			c0-1.098,0.274-1.946,0.823-2.546s1.308-0.899,2.276-0.899c0.926,0,1.646,0.264,2.162,0.791s0.773,1.256,0.773,2.186v0.867h-4.225
			c0.02,0.508,0.17,0.904,0.451,1.189s0.676,0.428,1.184,0.428c0.395,0,0.768-0.041,1.119-0.123s0.719-0.213,1.102-0.393v1.383
			c-0.313,0.156-0.646,0.272-1.002,0.349S330.306,608.431,329.794,608.431z M329.542,602.911c-0.379,0-0.676,0.12-0.891,0.36
			s-0.338,0.581-0.369,1.022h2.508c-0.008-0.441-0.123-0.782-0.346-1.022S329.921,602.911,329.542,602.911z"/>
		<path fill="#FFFFFF" d="M337.517,608.431c-0.77,0-1.373-0.279-1.811-0.838h-0.094c0.063,0.547,0.094,0.863,0.094,0.949v2.654
			h-1.787v-9.434h1.453l0.252,0.85h0.082c0.418-0.648,1.037-0.973,1.857-0.973c0.773,0,1.379,0.299,1.816,0.896
			s0.656,1.428,0.656,2.49c0,0.699-0.103,1.307-0.308,1.822s-0.497,0.908-0.876,1.178S338.028,608.431,337.517,608.431z
			 M336.989,603.069c-0.441,0-0.764,0.136-0.967,0.407s-0.309,0.72-0.316,1.345v0.193c0,0.703,0.104,1.207,0.313,1.512
			s0.54,0.457,0.993,0.457c0.801,0,1.201-0.66,1.201-1.98c0-0.645-0.099-1.128-0.296-1.45S337.411,603.069,336.989,603.069z"/>
		<path fill="#FFFFFF" d="M310.997,627.313v-8.566h1.816v7.066h3.475v1.5H310.997z"/>
		<path fill="#FFFFFF" d="M320.601,627.431c-1.055,0-1.879-0.291-2.473-0.873s-0.891-1.406-0.891-2.473
			c0-1.098,0.274-1.946,0.823-2.546s1.308-0.899,2.276-0.899c0.926,0,1.646,0.264,2.162,0.791s0.773,1.256,0.773,2.186v0.867h-4.225
			c0.02,0.508,0.17,0.904,0.451,1.189s0.676,0.428,1.184,0.428c0.395,0,0.768-0.041,1.119-0.123s0.719-0.213,1.102-0.393v1.383
			c-0.313,0.156-0.646,0.272-1.002,0.349S321.112,627.431,320.601,627.431z M320.349,621.911c-0.379,0-0.676,0.12-0.891,0.36
			s-0.338,0.581-0.369,1.022h2.508c-0.008-0.441-0.123-0.782-0.346-1.022S320.728,621.911,320.349,621.911z"/>
		<path fill="#FFFFFF" d="M328.886,627.313l-0.346-0.891h-0.047c-0.301,0.379-0.61,0.642-0.929,0.788s-0.733,0.22-1.245,0.22
			c-0.629,0-1.124-0.18-1.485-0.539s-0.542-0.871-0.542-1.535c0-0.695,0.243-1.208,0.729-1.538s1.22-0.513,2.2-0.548l1.137-0.035
			v-0.287c0-0.664-0.34-0.996-1.02-0.996c-0.523,0-1.139,0.158-1.846,0.475l-0.592-1.207c0.754-0.395,1.59-0.592,2.508-0.592
			c0.879,0,1.553,0.191,2.021,0.574s0.703,0.965,0.703,1.746v4.365H328.886z M328.358,624.278l-0.691,0.023
			c-0.52,0.016-0.906,0.109-1.16,0.281s-0.381,0.434-0.381,0.785c0,0.504,0.289,0.756,0.867,0.756c0.414,0,0.745-0.119,0.993-0.357
			s0.372-0.555,0.372-0.949V624.278z"/>
		<path fill="#FFFFFF" d="M335.63,620.64c0.242,0,0.443,0.018,0.604,0.053l-0.135,1.676c-0.145-0.039-0.32-0.059-0.527-0.059
			c-0.57,0-1.015,0.146-1.333,0.439s-0.478,0.703-0.478,1.23v3.334h-1.787v-6.551h1.354l0.264,1.102h0.088
			c0.203-0.367,0.478-0.663,0.823-0.888S335.224,620.64,335.63,620.64z"/>
		<path fill="#FFFFFF" d="M343.47,627.313h-1.787v-3.826c0-0.473-0.084-0.827-0.252-1.063s-0.436-0.354-0.803-0.354
			c-0.5,0-0.861,0.167-1.084,0.501s-0.334,0.888-0.334,1.661v3.082h-1.787v-6.551h1.365l0.24,0.838h0.1
			c0.199-0.316,0.474-0.556,0.823-0.718s0.747-0.243,1.192-0.243c0.762,0,1.34,0.206,1.734,0.618s0.592,1.007,0.592,1.784V627.313z"
			/>
		<path fill="#FFFFFF" d="M345.233,619.069c0-0.582,0.324-0.873,0.973-0.873s0.973,0.291,0.973,0.873
			c0,0.277-0.081,0.493-0.243,0.647s-0.405,0.231-0.729,0.231C345.558,619.948,345.233,619.655,345.233,619.069z M347.097,627.313
			h-1.787v-6.551h1.787V627.313z"/>
		<path fill="#FFFFFF" d="M355.019,627.313h-1.787v-3.826c0-0.473-0.084-0.827-0.252-1.063s-0.436-0.354-0.803-0.354
			c-0.5,0-0.861,0.167-1.084,0.501s-0.334,0.888-0.334,1.661v3.082h-1.787v-6.551h1.365l0.24,0.838h0.1
			c0.199-0.316,0.474-0.556,0.823-0.718s0.747-0.243,1.192-0.243c0.762,0,1.34,0.206,1.734,0.618s0.592,1.007,0.592,1.784V627.313z"
			/>
		<path fill="#FFFFFF" d="M362.56,620.763v0.908l-1.025,0.264c0.188,0.293,0.281,0.621,0.281,0.984c0,0.703-0.245,1.251-0.735,1.644
			s-1.171,0.589-2.042,0.589l-0.322-0.018l-0.264-0.029c-0.184,0.141-0.275,0.297-0.275,0.469c0,0.258,0.328,0.387,0.984,0.387
			h1.113c0.719,0,1.267,0.154,1.644,0.463s0.565,0.762,0.565,1.359c0,0.766-0.319,1.359-0.958,1.781s-1.556,0.633-2.751,0.633
			c-0.914,0-1.612-0.159-2.095-0.478s-0.724-0.765-0.724-1.339c0-0.395,0.123-0.725,0.369-0.99s0.607-0.455,1.084-0.568
			c-0.184-0.078-0.344-0.206-0.48-0.384s-0.205-0.366-0.205-0.565c0-0.25,0.072-0.458,0.217-0.624s0.354-0.329,0.627-0.489
			c-0.344-0.148-0.616-0.387-0.817-0.715s-0.302-0.715-0.302-1.16c0-0.715,0.232-1.268,0.697-1.658s1.129-0.586,1.992-0.586
			c0.184,0,0.401,0.017,0.653,0.05s0.413,0.058,0.483,0.073H362.56z M357.503,628.239c0,0.246,0.118,0.439,0.354,0.58
			s0.567,0.211,0.993,0.211c0.641,0,1.143-0.088,1.506-0.264s0.545-0.416,0.545-0.721c0-0.246-0.107-0.416-0.322-0.51
			s-0.547-0.141-0.996-0.141h-0.926c-0.328,0-0.603,0.077-0.823,0.231S357.503,627.985,357.503,628.239z M358.153,622.907
			c0,0.355,0.081,0.637,0.243,0.844s0.409,0.311,0.741,0.311c0.336,0,0.582-0.104,0.738-0.311s0.234-0.488,0.234-0.844
			c0-0.789-0.324-1.184-0.973-1.184C358.481,621.724,358.153,622.118,358.153,622.907z"/>
	</g>
</g>
<g id="Layer_1">
	<g id="Layer_1_1_">
		<g>
			<path id="circle" fill="#FFFFFF" d="M433.85,395.93c0,0.983,0,2.108,0,3.093c-0.14,6.746-0.843,13.354-1.967,19.819
				C421.059,478.586,368.766,523.85,306.07,523.85c-52.433,0-97.417-31.486-117.237-76.61c-4.639-10.543-7.873-21.788-9.559-33.737
				c-0.844-5.764-1.265-11.667-1.265-17.712c0-70.567,57.213-127.92,127.92-127.92C376.638,268.009,433.85,325.363,433.85,395.93z"
				/>
			<g opacity="0.9">
				<path id="green_1_" opacity="0.9" fill="#00BA9D" enable-background="new    " d="M191.926,453.705
					c-3.092-6.045-5.623-12.23-7.591-18.415c-18.836-57.775,5.764-122.438,61.008-152.099
					c46.107-24.881,100.791-18.415,139.448,11.949c9.137,7.028,17.29,15.463,24.318,25.162
					c-22.352-13.495-91.231-10.262-115.55,8.997C247.03,366.128,243.094,458.625,191.926,453.705z"/>
				<path id="red" opacity="0.9" fill="#F70045" enable-background="new    " d="M343.181,273.772
					c6.468,1.968,12.652,4.358,18.558,7.31c54.682,26.427,84.202,88.841,67.333,149.428
					c-14.058,50.465-56.509,85.469-105.288,92.355c-11.386,1.687-23.194,1.687-35.002,0.141
					c25.303-6.747,70.567-58.618,73.519-89.544C368.203,374.141,304.243,307.229,343.181,273.772z"/>
				<path id="blue" fill="#32A4EA" d="M425.838,440.913c-21.227,56.791-80.688,92.074-142.54,80.97
					c-51.59-9.277-90.248-48.356-101.774-96.151c29.801-14.619,55.104-17.713,103.32,18.273
					C329.968,477.462,400.535,459.89,425.838,440.913z"/>
			</g>
			<g id="outer-circle">
				<path fill="#FFFFFF" d="M305.227,541C305.227,541,305.086,541,305.227,541c-2.39,0-4.779-0.141-7.169-0.281
					c-0.984,0-1.687-0.843-1.687-1.827c0-0.983,0.843-1.688,1.827-1.688c2.39,0.141,4.639,0.141,7.028,0.141
					c0.984,0,1.827,0.845,1.688,1.828C306.914,540.156,306.07,541,305.227,541z M285.688,539.453c-0.141,0-0.141,0-0.281,0
					c-7.169-0.983-14.198-2.53-21.086-4.639c-0.984-0.281-1.406-1.266-1.125-2.249c0.281-0.983,1.265-1.405,2.249-1.124
					c6.748,1.968,13.636,3.514,20.523,4.498c0.984,0.141,1.687,0.982,1.546,1.968C287.233,538.892,286.531,539.453,285.688,539.453z
					 M326.453,539.453c-0.843,0-1.546-0.563-1.688-1.546c-0.141-0.984,0.563-1.827,1.546-1.968c4.077-0.563,8.153-1.406,12.09-2.25
					c0.983-0.28,1.827,0.423,2.108,1.266c0.28,0.984-0.422,1.828-1.266,2.107c-4.076,0.984-8.294,1.688-12.37,2.391
					C326.594,539.453,326.453,539.453,326.453,539.453z M345.571,535.377c-0.703,0-1.406-0.563-1.688-1.265
					c-0.279-0.984,0.281-1.97,1.267-2.109c6.747-1.968,13.354-4.356,19.68-7.31c0.844-0.422,1.969,0,2.39,0.844
					c0.422,0.843,0,1.968-0.844,2.39c-6.466,2.952-13.354,5.482-20.241,7.45C345.852,535.377,345.711,535.377,345.571,535.377z
					 M258.135,532.706c-0.141,0-0.422,0-0.563-0.141c-3.936-1.405-7.872-2.952-11.667-4.779c-0.843-0.422-1.265-1.406-0.843-2.39
					c0.422-0.845,1.406-1.266,2.39-0.845c3.655,1.688,7.591,3.233,11.386,4.641c0.844,0.279,1.406,1.265,1.125,2.249
					C259.541,532.284,258.838,532.706,258.135,532.706z M376.638,522.304c-0.563,0-1.266-0.28-1.547-0.844
					c-0.422-0.843-0.14-1.968,0.703-2.39c1.968-1.124,4.077-2.391,6.045-3.654c0.843-0.563,1.968-0.281,2.391,0.563
					c0.563,0.845,0.28,1.969-0.563,2.391c-1.968,1.265-4.077,2.53-6.185,3.654C377.199,522.304,376.919,522.304,376.638,522.304z
					 M227.912,517.806c-0.281,0-0.703-0.141-0.984-0.28c-1.968-1.266-3.936-2.672-5.904-4.076c-0.844-0.563-0.984-1.688-0.422-2.391
					c0.562-0.844,1.687-0.983,2.39-0.422c1.828,1.405,3.795,2.671,5.764,3.937c0.843,0.563,0.984,1.688,0.562,2.39
					C229.037,517.524,228.475,517.806,227.912,517.806z M212.309,505.998c-0.421,0-0.843-0.142-1.125-0.422
					c-5.482-4.641-10.543-9.841-15.182-15.322c-0.703-0.703-0.562-1.828,0.141-2.531c0.703-0.562,1.828-0.562,2.53,0.142
					c4.498,5.342,9.559,10.401,14.901,14.9c0.703,0.702,0.843,1.688,0.14,2.53C213.293,505.856,212.73,505.998,212.309,505.998z
					 M399.832,505.998c-0.422,0-0.984-0.142-1.266-0.563c-0.703-0.702-0.563-1.826,0.141-2.529c3.093-2.671,6.045-5.482,8.855-8.436
					c0.702-0.703,1.827-0.703,2.53,0c0.702,0.703,0.702,1.828,0,2.53c-2.952,2.952-6.045,5.904-9.138,8.715
					C400.535,505.856,400.112,505.998,399.832,505.998z M413.608,492.222c-0.424,0-0.845-0.141-1.125-0.422
					c-0.703-0.703-0.845-1.688-0.142-2.53c4.64-5.2,8.856-10.965,12.651-16.867c0.563-0.845,1.546-0.984,2.39-0.563
					c0.844,0.563,0.984,1.546,0.563,2.39c-3.938,6.045-8.294,11.809-12.934,17.29C414.592,491.94,414.17,492.222,413.608,492.222z
					 M192.769,485.475c-0.562,0-0.984-0.281-1.405-0.702c-2.53-3.374-5.061-6.748-7.31-10.263c-0.562-0.844-0.281-1.968,0.563-2.391
					c0.843-0.563,1.968-0.28,2.39,0.563c2.249,3.374,4.639,6.748,7.169,9.98c0.563,0.703,0.422,1.828-0.281,2.53
					C193.472,485.333,193.05,485.475,192.769,485.475z M432.726,464.389c-0.28,0-0.563,0-0.843-0.141
					c-0.844-0.422-1.125-1.547-0.703-2.39c1.124-2.109,2.108-4.219,3.094-6.326c0.421-0.844,1.404-1.266,2.39-0.844
					c0.843,0.422,1.265,1.405,0.843,2.39c-0.982,2.109-2.107,4.357-3.231,6.467C433.99,464.107,433.429,464.389,432.726,464.389z
					 M175.338,456.517c-0.703,0-1.265-0.422-1.546-0.983c-0.984-2.249-1.968-4.357-2.812-6.607
					c-0.281-0.843,0.141-1.968,0.984-2.249c0.843-0.28,1.968,0.143,2.249,0.984c0.843,2.107,1.827,4.356,2.671,6.467
					c0.421,0.843,0,1.968-0.844,2.39C175.9,456.517,175.62,456.517,175.338,456.517z M168.591,438.242
					c-0.703,0-1.406-0.563-1.687-1.267c-1.968-6.888-3.514-13.916-4.498-21.086c-0.141-0.982,0.563-1.826,1.546-1.968
					c0.983-0.141,1.827,0.563,1.968,1.547c0.984,6.889,2.39,13.916,4.358,20.523c0.281,0.982-0.281,1.968-1.125,2.249
					C168.872,438.242,168.731,438.242,168.591,438.242z M443.409,438.102c-0.142,0-0.281,0-0.563,0
					c-0.982-0.28-1.404-1.266-1.124-2.25c1.124-3.936,2.108-7.87,2.951-11.947c0.142-0.983,1.125-1.546,2.109-1.405
					c0.982,0.141,1.546,1.124,1.405,2.108c-0.845,4.076-1.827,8.152-2.952,12.229C444.955,437.539,444.253,438.102,443.409,438.102z
					 M447.626,418.983c-0.14,0-0.14,0-0.281,0c-0.982-0.142-1.687-0.983-1.546-1.969c0.984-6.889,1.546-13.917,1.546-20.944v-0.281
					c0-0.984,0.845-1.828,1.828-1.828s1.827,0.844,1.827,1.828v0.281c0,7.169-0.563,14.479-1.547,21.507
					C449.173,418.421,448.47,418.983,447.626,418.983z M163.249,410.268c-0.843,0-1.687-0.701-1.687-1.546
					c-0.421-4.217-0.562-8.435-0.562-12.65c0-0.984,0.843-1.827,1.827-1.827l0,0c0.984,0,1.828,0.843,1.828,1.687
					c0,4.077,0.141,8.153,0.563,12.23c0.141,0.983-0.703,1.827-1.546,1.967C163.39,410.268,163.39,410.268,163.249,410.268z
					 M448.61,384.965c-0.845,0-1.688-0.703-1.688-1.546c-0.14-2.249-0.421-4.639-0.843-7.029c-0.141-0.984,0.563-1.827,1.546-1.968
					c0.984-0.141,1.827,0.562,1.968,1.546c0.282,2.39,0.563,4.78,0.844,7.169c0.142,0.984-0.562,1.827-1.546,1.968
					C448.751,384.965,448.61,384.965,448.61,384.965z M164.233,376.671c-0.141,0-0.141,0-0.281,0
					c-0.984-0.141-1.687-0.984-1.546-1.968c0.281-2.39,0.703-4.779,1.265-7.028c0.141-0.984,1.125-1.546,2.108-1.406
					c0.984,0.141,1.546,1.125,1.406,2.108c-0.421,2.25-0.843,4.639-1.265,6.888C165.92,375.968,165.217,376.671,164.233,376.671z
					 M168.45,357.554c-0.14,0-0.281,0-0.562-0.141c-0.984-0.281-1.406-1.265-1.265-2.249c1.968-6.888,4.498-13.636,7.591-20.243
					c0.421-0.843,1.406-1.265,2.39-0.843c0.843,0.422,1.265,1.406,0.843,2.39c-2.952,6.326-5.482,12.933-7.45,19.68
					C169.997,356.991,169.293,357.554,168.45,357.554z M443.269,357.132c-0.701,0-1.404-0.563-1.687-1.265
					c-1.125-3.936-2.53-7.872-3.938-11.667c-0.422-0.844,0.142-1.968,0.984-2.249c0.843-0.281,1.968,0.14,2.249,0.984
					c1.546,3.936,2.952,7.872,4.076,11.949c0.281,0.984-0.281,1.968-1.124,2.249C443.69,356.991,443.55,357.132,443.269,357.132z
					 M436.521,338.717c-0.703,0-1.267-0.421-1.548-0.984c-2.951-6.326-6.324-12.651-10.121-18.415
					c-0.563-0.843-0.28-1.968,0.563-2.39c0.844-0.562,1.968-0.281,2.39,0.563c3.938,6.044,7.311,12.37,10.263,18.977
					c0.422,0.843,0,1.968-0.845,2.39C437.083,338.717,436.803,338.717,436.521,338.717z M179.134,331.267
					c-0.281,0-0.562,0-0.843-0.141c-0.844-0.422-1.125-1.546-0.703-2.39c1.968-3.655,4.077-7.31,6.326-10.824
					c0.563-0.843,1.546-1.125,2.39-0.562c0.844,0.562,1.125,1.546,0.563,2.39c-2.249,3.374-4.358,7.029-6.185,10.684
					C180.399,330.845,179.696,331.267,179.134,331.267z M419.09,309.9c-0.562,0-0.982-0.282-1.405-0.703
					c-1.404-1.827-2.951-3.655-4.499-5.482c-0.701-0.703-0.562-1.827,0.142-2.53c0.703-0.562,1.828-0.562,2.53,0.141
					c1.547,1.828,3.093,3.655,4.499,5.623c0.563,0.703,0.422,1.827-0.281,2.53C419.934,309.759,419.512,309.9,419.09,309.9z
					 M198.251,303.433c-0.422,0-0.843-0.14-1.125-0.421c-0.703-0.703-0.843-1.687-0.141-2.53c1.546-1.828,3.233-3.514,4.92-5.342
					c0.703-0.703,1.828-0.703,2.53,0c0.703,0.703,0.703,1.828,0,2.53c-1.687,1.687-3.233,3.374-4.779,5.201
					C199.236,303.152,198.673,303.433,198.251,303.433z M212.028,289.657c-0.422,0-0.984-0.141-1.265-0.563
					c-0.703-0.703-0.563-1.827,0.14-2.53c5.482-4.779,11.246-8.996,17.291-12.932c0.843-0.563,1.968-0.282,2.39,0.562
					c0.563,0.843,0.281,1.968-0.562,2.39c-5.904,3.795-11.527,8.013-16.869,12.652C212.871,289.517,212.449,289.657,212.028,289.657
					z M399.551,289.376c-0.422,0-0.844-0.14-1.125-0.422c-3.093-2.67-6.325-5.201-9.699-7.59c-0.844-0.563-0.983-1.688-0.422-2.39
					c0.563-0.843,1.688-0.984,2.391-0.421c3.374,2.39,6.748,5.062,9.841,7.872c0.702,0.703,0.843,1.687,0.14,2.53
					C400.535,289.095,400.112,289.376,399.551,289.376z M383.947,277.568c-0.281,0-0.703-0.141-0.984-0.281
					c-5.904-3.795-12.089-7.169-18.415-10.122c-0.843-0.421-1.265-1.405-0.843-2.39c0.422-0.843,1.405-1.265,2.39-0.843
					c6.468,2.952,12.934,6.466,18.978,10.402c0.844,0.563,0.983,1.687,0.563,2.39C385.071,277.287,384.51,277.568,383.947,277.568z
					 M235.222,273.21c-0.562,0-1.265-0.281-1.546-0.843c-0.422-0.844-0.141-1.968,0.703-2.39c3.655-2.108,7.45-4.077,11.246-5.763
					c0.843-0.422,1.968,0,2.39,0.843c0.421,0.843,0,1.968-0.844,2.39c-3.655,1.687-7.45,3.655-10.964,5.623
					C235.784,273.07,235.503,273.21,235.222,273.21z M353.725,262.667c-0.141,0-0.422,0-0.563-0.141
					c-2.249-0.843-4.498-1.546-6.748-2.108c-0.983-0.281-1.405-1.265-1.124-2.25c0.281-0.984,1.265-1.405,2.249-1.124
					c2.249,0.703,4.639,1.405,6.889,2.249c0.844,0.281,1.405,1.265,1.124,2.249C355.13,262.246,354.428,262.667,353.725,262.667z
					 M266.289,260.137c-0.703,0-1.406-0.563-1.687-1.265c-0.281-0.984,0.281-1.968,1.265-2.108c2.249-0.703,4.639-1.265,7.029-1.828
					c0.843-0.281,1.687,0.281,1.968,1.265c0.281,0.984-0.422,1.828-1.265,2.108c-2.249,0.563-4.499,1.125-6.748,1.828
					C266.569,260.137,266.429,260.137,266.289,260.137z M285.406,255.92c-0.843,0-1.546-0.562-1.688-1.546
					c-0.141-0.984,0.563-1.827,1.546-1.968c6.748-0.843,13.776-1.406,20.664-1.406h0.703c0.983,0,1.688,0.843,1.688,1.827
					c0,0.984-0.844,1.687-1.828,1.687l0,0h-0.703C299.042,254.514,292.154,254.936,285.406,255.92
					C285.547,255.92,285.406,255.92,285.406,255.92z M326.172,255.92c-0.141,0-0.141,0-0.281,0
					c-4.075-0.562-8.152-0.984-12.229-1.125c-0.984,0-1.688-0.843-1.688-1.827c0-0.984,0.845-1.687,1.828-1.687
					c4.217,0.281,8.436,0.562,12.511,1.265c0.984,0.141,1.688,0.984,1.548,1.968C327.719,255.217,327.016,255.92,326.172,255.92z"/>
			</g>
		</g>
	</g>
	<g id="theText">
		<!-- <g id="center-text">
			<path fill="#3F3F3F" d="M284.281,386.652c0,1.265-0.421,2.39-1.124,3.093c-0.703,0.703-1.828,1.125-3.233,1.125h-2.249v-8.013
				h2.53c1.265,0,2.39,0.281,3.093,0.984C284,384.543,284.281,385.387,284.281,386.652z M282.454,386.652
				c0-1.687-0.703-2.53-2.249-2.53h-0.844v5.201h0.703C281.751,389.323,282.454,388.479,282.454,386.652z"/>
			<path fill="#3F3F3F" d="M291.451,387.636c0,0.984-0.281,1.827-0.843,2.39c-0.563,0.562-1.265,0.843-2.25,0.843
				c-0.562,0-1.125-0.141-1.546-0.422c-0.422-0.281-0.844-0.562-0.984-1.125c-0.141-0.562-0.422-0.984-0.422-1.687
				c0-0.984,0.281-1.828,0.843-2.39c0.563-0.562,1.265-0.843,2.25-0.843c0.562,0,1.124,0.141,1.546,0.422
				c0.422,0.281,0.844,0.562,0.984,1.125C291.169,386.511,291.451,386.933,291.451,387.636z M287.093,387.636
				c0,0.563,0.141,1.125,0.282,1.405c0.14,0.281,0.562,0.422,0.983,0.422c0.422,0,0.703-0.141,0.984-0.422
				c0.281-0.281,0.281-0.703,0.281-1.405c0-0.563-0.14-1.125-0.281-1.406c-0.141-0.281-0.563-0.421-0.984-0.421
				s-0.703,0.141-0.983,0.421C287.093,386.511,287.093,387.074,287.093,387.636z"/>
			<path fill="#3F3F3F" d="M295.527,390.869c-0.984,0-1.828-0.281-2.249-0.843c-0.422-0.563-0.844-1.265-0.844-2.25
				c0-0.984,0.281-1.827,0.703-2.39c0.422-0.562,1.265-0.843,2.108-0.843c0.844,0,1.546,0.281,1.968,0.703s0.703,1.125,0.703,2.109
				v0.843h-3.936c0,0.422,0.141,0.843,0.422,1.125c0.281,0.282,0.703,0.422,1.125,0.422c0.422,0,0.703,0,0.984-0.141
				c0.281-0.141,0.703-0.141,0.984-0.422v1.265c-0.281,0.141-0.562,0.281-0.984,0.281
				C296.09,390.729,296.09,390.869,295.527,390.869z M295.246,385.668c-0.421,0-0.703,0.141-0.843,0.281
				c-0.14,0.14-0.281,0.562-0.281,0.984h2.39c0-0.422-0.14-0.703-0.281-0.984C296.09,385.668,295.668,385.668,295.246,385.668z"/>
			<path fill="#3F3F3F" d="M303.681,388.901c0,0.562-0.281,1.125-0.703,1.405c-0.421,0.281-1.125,0.563-1.968,0.563
				c-0.422,0-0.843,0-1.125-0.141c-0.282-0.141-0.563-0.141-0.844-0.281v-1.406c0.281,0.141,0.703,0.281,0.984,0.422
				c0.281,0.141,0.703,0.141,0.984,0.141c0.563,0,0.843-0.141,0.843-0.563c0-0.14,0-0.281-0.141-0.281s-0.281-0.141-0.421-0.281
				s-0.422-0.281-0.844-0.422c-0.421-0.141-0.843-0.421-0.984-0.563c-0.141-0.14-0.422-0.421-0.422-0.562s-0.14-0.422-0.14-0.843
				c0-0.563,0.281-0.984,0.703-1.265c0.422-0.281,0.984-0.422,1.828-0.422c0.703,0,1.405,0.141,2.108,0.422l-0.563,1.265
				c-0.281-0.141-0.562-0.281-0.843-0.281c-0.281,0-0.563-0.141-0.843-0.141c-0.563,0-0.703,0.141-0.703,0.422
				c0,0.14,0.141,0.281,0.281,0.421c0.141,0.141,0.563,0.281,0.984,0.422c0.422,0.141,0.843,0.422,1.125,0.562
				c0.281,0.141,0.422,0.422,0.563,0.563C303.681,388.198,303.681,388.62,303.681,388.901z"/>
			<path fill="#3F3F3F" d="M310.568,385.949l1.688-3.374h1.827l-2.671,4.92v3.093h-1.688v-3.093l-2.672-4.92h1.828L310.568,385.949z
				"/>
			<path fill="#3F3F3F" d="M320.549,387.636c0,0.984-0.281,1.827-0.843,2.39c-0.563,0.562-1.266,0.843-2.249,0.843
				c-0.563,0-1.125-0.141-1.547-0.422c-0.422-0.281-0.843-0.562-0.983-1.125c-0.141-0.562-0.422-0.984-0.422-1.687
				c0-0.984,0.281-1.828,0.843-2.39c0.563-0.562,1.267-0.843,2.249-0.843c0.563,0,1.125,0.141,1.547,0.422
				c0.423,0.281,0.845,0.562,0.983,1.125C320.268,386.511,320.549,386.933,320.549,387.636z M316.332,387.636
				c0,0.563,0.141,1.125,0.281,1.405c0.141,0.281,0.563,0.422,0.982,0.422c0.422,0,0.703-0.141,0.984-0.422
				c0.141-0.281,0.281-0.703,0.281-1.405c0-0.563-0.142-1.125-0.281-1.406c-0.141-0.281-0.563-0.421-0.984-0.421
				s-0.702,0.141-0.982,0.421C316.332,386.511,316.332,387.074,316.332,387.636z"/>
			<path fill="#3F3F3F" d="M326.313,390.729l-0.28-0.843h-0.142c-0.141,0.281-0.421,0.562-0.703,0.703
				c-0.279,0.141-0.701,0.281-1.123,0.281c-0.703,0-1.267-0.141-1.688-0.563c-0.422-0.421-0.563-0.984-0.563-1.687v-4.077h1.687
				v3.655c0,0.422,0.141,0.843,0.281,0.984c0.141,0.281,0.422,0.281,0.703,0.281c0.422,0,0.843-0.141,0.983-0.422
				c0.142-0.281,0.28-0.843,0.28-1.546v-2.952h1.688v6.185L326.313,390.729L326.313,390.729z"/>
			<path fill="#3F3F3F" d="M332.779,384.403c0.28,0,0.421,0,0.562,0l-0.141,1.546c-0.141,0-0.28,0-0.563,0
				c-0.563,0-0.983,0.141-1.266,0.422c-0.281,0.281-0.422,0.703-0.422,1.124v3.093h-1.688v-6.044h1.267l0.279,0.984h0.142
				c0.141-0.281,0.422-0.563,0.703-0.843C331.936,384.403,332.357,384.403,332.779,384.403z"/>
			<path fill="#3F3F3F" d="M256.87,397.477c-0.703,0-1.125,0.28-1.546,0.702c-0.421,0.422-0.562,1.125-0.562,1.968
				c0,1.827,0.703,2.672,1.968,2.672c0.563,0,1.265-0.142,2.108-0.422v1.405c-0.703,0.281-1.406,0.422-2.249,0.422
				c-1.125,0-2.108-0.422-2.671-1.125c-0.563-0.702-0.984-1.687-0.984-3.092c0-0.844,0.141-1.547,0.421-2.25
				c0.282-0.703,0.703-1.124,1.265-1.406c0.563-0.28,1.266-0.562,1.968-0.562c0.843,0,1.546,0.141,2.39,0.562l-0.562,1.406
				c-0.281-0.141-0.563-0.28-0.844-0.421C257.292,397.195,257.292,397.477,256.87,397.477z"/>
			<path fill="#3F3F3F" d="M266.148,401.131c0,0.984-0.281,1.827-0.844,2.391c-0.562,0.563-1.265,0.844-2.249,0.844
				c-0.562,0-1.125-0.142-1.546-0.422c-0.421-0.281-0.843-0.563-0.984-1.125c-0.141-0.563-0.421-0.983-0.421-1.688
				c0-0.983,0.281-1.827,0.843-2.39c0.562-0.563,1.265-0.844,2.249-0.844c0.563,0,1.125,0.141,1.546,0.422
				c0.421,0.28,0.843,0.563,0.984,1.124C265.867,400.007,266.148,400.428,266.148,401.131z M261.931,401.131
				c0,0.563,0.141,1.125,0.281,1.406c0.141,0.28,0.562,0.421,0.984,0.421c0.422,0,0.703-0.141,0.984-0.421
				c0.281-0.281,0.281-0.703,0.281-1.406c0-0.563-0.141-1.124-0.281-1.405c-0.141-0.281-0.562-0.422-0.984-0.422
				c-0.422,0-0.703,0.141-0.984,0.422C261.931,400.007,261.931,400.568,261.931,401.131z"/>
			<path fill="#3F3F3F" d="M273.036,404.224h-1.687v-3.654c0-0.422-0.141-0.844-0.281-0.984c-0.141-0.141-0.422-0.28-0.703-0.28
				c-0.422,0-0.703,0.141-0.984,0.422c-0.281,0.281-0.281,0.844-0.281,1.547v2.951h-1.687v-6.186h1.265l0.281,0.844h0.14
				c0.141-0.281,0.422-0.563,0.703-0.703c0.281-0.14,0.703-0.28,1.125-0.28c0.984,0,1.546,0.28,1.828,0.844h0.141
				c0.141-0.281,0.421-0.563,0.703-0.703c0.282-0.14,0.703-0.281,1.125-0.281c0.703,0,1.265,0.142,1.546,0.563
				s0.562,0.983,0.562,1.688v3.937h-1.687v-3.655c0-0.421-0.141-0.843-0.281-0.983c-0.14-0.14-0.422-0.28-0.703-0.28
				c-0.422,0-0.703,0.141-0.984,0.422c-0.281,0.28-0.281,0.702-0.281,1.404v3.374h0.14V404.224z"/>
			<path fill="#3F3F3F" d="M281.892,404.364c-0.703,0-1.265-0.281-1.687-0.845h-0.141c0,0.563,0.141,0.845,0.141,0.845v2.529h-1.687
				v-8.855h1.406l0.281,0.844h0.141c0.422-0.563,0.984-0.844,1.687-0.844c0.703,0,1.265,0.281,1.687,0.844
				c0.422,0.563,0.562,1.405,0.562,2.391c0,0.701-0.14,1.266-0.281,1.687c-0.141,0.422-0.422,0.844-0.843,1.125
				C282.735,404.364,282.454,404.364,281.892,404.364z M281.47,399.304c-0.422,0-0.703,0.141-0.843,0.422
				c-0.141,0.281-0.281,0.702-0.281,1.266v0.141c0,0.703,0.141,1.125,0.281,1.406c0.141,0.28,0.562,0.421,0.984,0.421
				c0.703,0,1.125-0.563,1.125-1.827c0-0.563-0.141-1.124-0.281-1.405C282.313,399.443,281.892,399.304,281.47,399.304z"/>
			<path fill="#3F3F3F" d="M289.623,404.224l-0.281-0.844l0,0c-0.281,0.422-0.563,0.563-0.843,0.703
				c-0.281,0.141-0.703,0.141-1.125,0.141c-0.563,0-0.984-0.141-1.406-0.563c-0.421-0.422-0.562-0.844-0.562-1.405
				c0-0.703,0.281-1.125,0.703-1.406c0.421-0.28,1.124-0.422,2.108-0.563h1.125v-0.28c0-0.563-0.281-0.983-0.984-0.983
				c-0.421,0-1.125,0.141-1.687,0.421l-0.562-1.124c0.703-0.422,1.546-0.563,2.39-0.563c0.843,0,1.406,0.142,1.827,0.563
				c0.422,0.422,0.703,0.844,0.703,1.688v4.076h-1.406V404.224L289.623,404.224z M289.061,401.412h-0.703
				c-0.421,0-0.843,0.141-1.125,0.281c-0.281,0.141-0.421,0.422-0.421,0.703c0,0.421,0.281,0.701,0.843,0.701
				c0.422,0,0.703-0.141,0.984-0.28c0.281-0.141,0.281-0.563,0.281-0.845v-0.562L289.061,401.412L289.061,401.412z"/>
			<path fill="#3F3F3F" d="M298.198,404.224h-1.688v-3.654c0-0.422-0.14-0.844-0.281-0.984c-0.14-0.141-0.421-0.28-0.703-0.28
				c-0.422,0-0.843,0.141-0.984,0.422s-0.281,0.844-0.281,1.547v2.951h-1.687v-6.186h1.265l0.281,0.844h0.141
				c0.141-0.281,0.422-0.563,0.703-0.703c0.281-0.141,0.703-0.28,1.125-0.28c0.703,0,1.265,0.141,1.687,0.563
				c0.422,0.422,0.563,0.983,0.563,1.688v4.076h-0.142V404.224z"/>
			<path fill="#3F3F3F" d="M299.042,398.038h1.828l1.125,3.515c0.141,0.281,0.141,0.703,0.141,1.124l0,0
				c0-0.421,0.141-0.703,0.281-1.124l1.125-3.515h1.827l-2.53,6.889c-0.281,0.702-0.562,1.124-0.984,1.405
				c-0.421,0.281-0.984,0.422-1.546,0.422c-0.281,0-0.562,0-0.843-0.141v-1.267c0.141,0,0.422,0.142,0.703,0.142
				c0.281,0,0.562-0.142,0.843-0.281c0.281-0.14,0.422-0.421,0.562-0.843l0.141-0.281L299.042,398.038z"/>
			<path fill="#3F3F3F" d="M316.473,404.224h-2.249l-3.515-6.045l0,0c0,1.125,0.141,1.828,0.141,2.249v3.796h-1.546v-8.013h2.108
				l3.515,6.045l0,0c0-0.984-0.141-1.828-0.141-2.249v-3.796h1.546v8.013H316.473z"/>
			<path fill="#3F3F3F" d="M321.111,404.364c-0.984,0-1.827-0.281-2.249-0.845c-0.563-0.563-0.845-1.265-0.845-2.248
				c0-0.984,0.281-1.828,0.703-2.391c0.563-0.563,1.267-0.844,2.108-0.844c0.844,0,1.547,0.281,1.968,0.703
				c0.422,0.422,0.703,1.125,0.703,2.107v0.845h-3.936c0,0.422,0.141,0.844,0.422,1.124c0.279,0.28,0.701,0.422,1.124,0.422
				c0.422,0,0.702,0,0.983-0.142c0.281-0.141,0.702-0.141,0.984-0.422v1.267c-0.282,0.141-0.563,0.28-0.984,0.28
				C321.955,404.364,321.533,404.364,321.111,404.364z M320.83,399.163c-0.422,0-0.703,0.141-0.843,0.28
				c-0.142,0.281-0.281,0.563-0.281,0.983h2.39c0-0.421-0.141-0.702-0.28-0.983C321.674,399.163,321.252,399.163,320.83,399.163z"/>
			<path fill="#3F3F3F" d="M327.719,404.364c-0.983,0-1.828-0.281-2.249-0.845c-0.563-0.563-0.844-1.265-0.844-2.248
				c0-0.984,0.281-1.828,0.702-2.391c0.563-0.563,1.266-0.844,2.109-0.844c0.843,0,1.546,0.281,1.968,0.703s0.702,1.125,0.702,2.107
				v0.845h-3.937c0,0.422,0.141,0.844,0.422,1.124s0.703,0.422,1.125,0.422s0.702,0,0.983-0.142
				c0.281-0.141,0.703-0.141,0.983-0.422v1.267c-0.28,0.141-0.563,0.28-0.983,0.28C328.563,404.364,328.28,404.364,327.719,404.364z
				 M327.438,399.163c-0.422,0-0.702,0.141-0.844,0.28c-0.141,0.281-0.281,0.563-0.281,0.983h2.391c0-0.421-0.141-0.702-0.281-0.983
				C328.28,399.163,327.859,399.163,327.438,399.163z"/>
			<path fill="#3F3F3F" d="M333.622,404.364c-0.702,0-1.265-0.281-1.688-0.845c-0.422-0.563-0.563-1.404-0.563-2.39
				s0.141-1.827,0.563-2.39c0.423-0.563,0.984-0.844,1.688-0.844s1.406,0.28,1.828,0.844l0,0c-0.142-0.422-0.142-0.844-0.142-1.266
				v-1.968h1.688v8.575h-1.266l-0.28-0.844h-0.142C334.888,404.083,334.325,404.364,333.622,404.364z M334.185,402.958
				c0.423,0,0.703-0.141,0.984-0.421c0.141-0.281,0.281-0.703,0.281-1.266v-0.142c0-0.703-0.142-1.124-0.281-1.405
				c-0.141-0.281-0.563-0.422-0.984-0.422c-0.421,0-0.702,0.141-0.844,0.422c-0.141,0.281-0.28,0.844-0.28,1.405
				c0,0.563,0.141,1.125,0.28,1.406C333.481,402.817,333.763,402.958,334.185,402.958z"/>
			<path fill="#3F3F3F" d="M346.695,404.224l-0.563-1.968h-2.953l-0.562,1.968h-1.828l2.813-8.013h2.107l2.813,8.013H346.695z
				 M345.711,400.85c-0.562-1.687-0.843-2.671-0.843-2.951c0-0.281-0.142-0.422-0.142-0.563c-0.141,0.421-0.422,1.688-0.982,3.514
				H345.711z"/>
			<path fill="#3F3F3F" d="M349.507,404.224v-8.013h1.688v8.013H349.507z"/>
			<path fill="#3F3F3F" d="M353.725,401.553v-0.422c0-0.422,0.141-0.703,0.28-0.983c0.142-0.28,0.423-0.563,0.844-0.844
				c0.423-0.28,0.703-0.563,0.703-0.703c0.142-0.141,0.142-0.422,0.142-0.563c0-0.281-0.142-0.422-0.281-0.563
				c-0.141-0.141-0.422-0.141-0.703-0.141c-0.563,0-1.124,0.141-1.827,0.563l-0.563-1.266c0.844-0.422,1.687-0.703,2.529-0.703
				c0.703,0,1.406,0.141,1.827,0.562c0.422,0.422,0.703,0.844,0.703,1.406c0,0.422-0.141,0.702-0.281,0.983
				c-0.14,0.281-0.563,0.563-0.982,0.984c-0.422,0.28-0.563,0.421-0.703,0.562c-0.141,0.142-0.141,0.281-0.141,0.563v0.281h-1.547
				V401.553z M353.584,403.38c0-0.281,0.141-0.563,0.28-0.703c0.141-0.14,0.422-0.279,0.703-0.279c0.28,0,0.563,0.141,0.702,0.279
				c0.142,0.142,0.281,0.422,0.281,0.703s-0.141,0.563-0.281,0.703c-0.14,0.14-0.422,0.281-0.702,0.281
				c-0.281,0-0.563-0.142-0.703-0.281C353.725,403.942,353.584,403.802,353.584,403.38z"/>
		</g> -->
		<g>
			<path fill="#FFFFFF" d="M370.118,364.434c-0.684,0-1.213,0.257-1.588,0.771s-0.563,1.229-0.563,2.147
				c0,1.91,0.717,2.865,2.15,2.865c0.602,0,1.33-0.15,2.186-0.451v1.523c-0.703,0.293-1.488,0.439-2.355,0.439
				c-1.246,0-2.199-0.378-2.859-1.134s-0.99-1.841-0.99-3.255c0-0.891,0.162-1.671,0.486-2.341s0.79-1.184,1.397-1.541
				s1.319-0.536,2.136-0.536c0.832,0,1.668,0.201,2.508,0.604l-0.586,1.477c-0.32-0.152-0.643-0.285-0.967-0.398
				S370.431,364.434,370.118,364.434z"/>
			<path fill="#FFFFFF" d="M378.626,371.612l-0.24-0.838h-0.094c-0.191,0.305-0.463,0.54-0.814,0.706s-0.752,0.249-1.201,0.249
				c-0.77,0-1.35-0.206-1.74-0.618s-0.586-1.005-0.586-1.778v-4.271h1.787v3.826c0,0.473,0.084,0.827,0.252,1.063
				s0.436,0.354,0.803,0.354c0.5,0,0.861-0.167,1.084-0.501s0.334-0.888,0.334-1.661v-3.082h1.787v6.551H378.626z"/>
			<path fill="#FFFFFF" d="M386.442,369.667c0,0.672-0.233,1.184-0.7,1.535s-1.165,0.527-2.095,0.527
				c-0.477,0-0.883-0.032-1.219-0.097s-0.65-0.159-0.943-0.284v-1.477c0.332,0.156,0.706,0.287,1.122,0.393s0.782,0.158,1.099,0.158
				c0.648,0,0.973-0.188,0.973-0.563c0-0.141-0.043-0.255-0.129-0.343s-0.234-0.188-0.445-0.299s-0.492-0.241-0.844-0.39
				c-0.504-0.211-0.874-0.406-1.11-0.586s-0.408-0.386-0.516-0.618s-0.161-0.519-0.161-0.858c0-0.582,0.226-1.032,0.677-1.351
				s1.091-0.478,1.919-0.478c0.789,0,1.557,0.172,2.303,0.516l-0.539,1.289c-0.328-0.141-0.635-0.256-0.92-0.346
				s-0.576-0.135-0.873-0.135c-0.527,0-0.791,0.143-0.791,0.428c0,0.16,0.085,0.299,0.255,0.416s0.542,0.291,1.116,0.521
				c0.512,0.207,0.887,0.4,1.125,0.58s0.414,0.387,0.527,0.621S386.442,369.342,386.442,369.667z"/>
			<path fill="#FFFFFF" d="M390.597,370.305c0.313,0,0.688-0.068,1.125-0.205v1.33c-0.445,0.199-0.992,0.299-1.641,0.299
				c-0.715,0-1.235-0.181-1.562-0.542s-0.489-0.903-0.489-1.626v-3.158h-0.855v-0.756l0.984-0.598l0.516-1.383h1.143v1.395h1.834
				v1.342h-1.834v3.158c0,0.254,0.071,0.441,0.214,0.563S390.362,370.305,390.597,370.305z"/>
			<path fill="#FFFFFF" d="M398.999,368.325c0,1.066-0.281,1.9-0.844,2.502s-1.346,0.902-2.35,0.902
				c-0.629,0-1.184-0.138-1.664-0.413s-0.85-0.671-1.107-1.187s-0.387-1.117-0.387-1.805c0-1.07,0.279-1.902,0.838-2.496
				s1.344-0.891,2.355-0.891c0.629,0,1.184,0.137,1.664,0.41s0.85,0.666,1.107,1.178S398.999,367.637,398.999,368.325z
				 M394.47,368.325c0,0.648,0.106,1.139,0.319,1.471s0.56,0.498,1.04,0.498c0.477,0,0.819-0.165,1.028-0.495
				s0.313-0.821,0.313-1.474c0-0.648-0.105-1.135-0.316-1.459s-0.557-0.486-1.037-0.486c-0.477,0-0.82,0.161-1.031,0.483
				S394.47,367.672,394.47,368.325z"/>
			<path fill="#FFFFFF" d="M406.341,371.612h-1.787v-3.826c0-0.473-0.079-0.827-0.237-1.063s-0.407-0.354-0.747-0.354
				c-0.457,0-0.789,0.168-0.996,0.504s-0.311,0.889-0.311,1.658v3.082h-1.787v-6.551h1.365l0.24,0.838h0.1
				c0.176-0.301,0.43-0.536,0.762-0.706s0.713-0.255,1.143-0.255c0.98,0,1.645,0.32,1.992,0.961h0.158
				c0.176-0.305,0.435-0.541,0.776-0.709s0.728-0.252,1.157-0.252c0.742,0,1.304,0.19,1.685,0.571s0.571,0.991,0.571,1.831v4.271
				h-1.793v-3.826c0-0.473-0.079-0.827-0.237-1.063s-0.407-0.354-0.747-0.354c-0.438,0-0.765,0.156-0.981,0.469
				s-0.325,0.809-0.325,1.488V371.612z"/>
			<path fill="#FFFFFF" d="M415.224,371.729c-1.055,0-1.879-0.291-2.473-0.873s-0.891-1.406-0.891-2.473
				c0-1.098,0.274-1.946,0.823-2.546s1.308-0.899,2.276-0.899c0.926,0,1.646,0.264,2.162,0.791s0.773,1.256,0.773,2.186v0.867
				h-4.225c0.02,0.508,0.17,0.904,0.451,1.189s0.676,0.428,1.184,0.428c0.395,0,0.768-0.041,1.119-0.123s0.719-0.213,1.102-0.393
				v1.383c-0.313,0.156-0.646,0.272-1.002,0.349S415.735,371.729,415.224,371.729z M414.972,366.209c-0.379,0-0.676,0.12-0.891,0.36
				s-0.338,0.581-0.369,1.022h2.508c-0.008-0.441-0.123-0.782-0.346-1.022S415.351,366.209,414.972,366.209z"/>
			<path fill="#FFFFFF" d="M423.005,364.938c0.242,0,0.443,0.018,0.604,0.053l-0.135,1.676c-0.145-0.039-0.32-0.059-0.527-0.059
				c-0.57,0-1.015,0.146-1.333,0.439s-0.478,0.703-0.478,1.23v3.334h-1.787v-6.551h1.354l0.264,1.102h0.088
				c0.203-0.367,0.478-0.663,0.823-0.888S422.599,364.938,423.005,364.938z"/>
			<path fill="#FFFFFF" d="M373.499,386.012l-0.621-2.039h-3.123l-0.621,2.039h-1.957l3.023-8.602h2.221l3.035,8.602H373.499z
				 M372.444,382.45c-0.574-1.848-0.897-2.893-0.97-3.135s-0.124-0.434-0.155-0.574c-0.129,0.5-0.498,1.736-1.107,3.709H372.444z"/>
			<path fill="#FFFFFF" d="M382.44,386.012h-1.787v-3.826c0-0.473-0.084-0.827-0.252-1.063s-0.436-0.354-0.803-0.354
				c-0.5,0-0.861,0.167-1.084,0.501s-0.334,0.888-0.334,1.661v3.082h-1.787v-6.551h1.365l0.24,0.838h0.1
				c0.199-0.316,0.474-0.556,0.823-0.718s0.747-0.243,1.192-0.243c0.762,0,1.34,0.206,1.734,0.618s0.592,1.007,0.592,1.784V386.012z
				"/>
			<path fill="#FFFFFF" d="M388.44,386.012l-0.346-0.891h-0.047c-0.301,0.379-0.61,0.642-0.929,0.788s-0.733,0.22-1.245,0.22
				c-0.629,0-1.124-0.18-1.485-0.539s-0.542-0.871-0.542-1.535c0-0.695,0.243-1.208,0.729-1.538s1.22-0.513,2.2-0.548l1.137-0.035
				v-0.287c0-0.664-0.34-0.996-1.02-0.996c-0.523,0-1.139,0.158-1.846,0.475l-0.592-1.207c0.754-0.395,1.59-0.592,2.508-0.592
				c0.879,0,1.553,0.191,2.021,0.574s0.703,0.965,0.703,1.746v4.365H388.44z M387.913,382.977L387.222,383
				c-0.52,0.016-0.906,0.109-1.16,0.281s-0.381,0.434-0.381,0.785c0,0.504,0.289,0.756,0.867,0.756c0.414,0,0.745-0.119,0.993-0.357
				s0.372-0.555,0.372-0.949V382.977z"/>
			<path fill="#FFFFFF" d="M393.315,386.012h-1.787v-9.117h1.787V386.012z"/>
			<path fill="#FFFFFF" d="M394.253,379.461h1.957l1.236,3.686c0.105,0.32,0.178,0.699,0.217,1.137h0.035
				c0.043-0.402,0.127-0.781,0.252-1.137l1.213-3.686h1.916l-2.771,7.389c-0.254,0.684-0.616,1.195-1.087,1.535
				s-1.021,0.51-1.649,0.51c-0.309,0-0.611-0.033-0.908-0.1v-1.418c0.215,0.051,0.449,0.076,0.703,0.076
				c0.316,0,0.593-0.097,0.829-0.29s0.421-0.485,0.554-0.876l0.105-0.322L394.253,379.461z"/>
			<path fill="#FFFFFF" d="M404.776,384.706c0.313,0,0.688-0.068,1.125-0.205v1.33c-0.445,0.199-0.992,0.299-1.641,0.299
				c-0.715,0-1.235-0.181-1.562-0.542s-0.489-0.903-0.489-1.626v-3.158h-0.855v-0.756l0.984-0.598l0.516-1.383h1.143v1.395h1.834
				v1.342h-1.834v3.158c0,0.254,0.071,0.441,0.214,0.563S404.542,384.706,404.776,384.706z"/>
			<path fill="#FFFFFF" d="M407.149,377.768c0-0.582,0.324-0.873,0.973-0.873s0.973,0.291,0.973,0.873
				c0,0.277-0.081,0.493-0.243,0.647s-0.405,0.231-0.729,0.231C407.474,378.647,407.149,378.354,407.149,377.768z M409.013,386.012
				h-1.787v-6.551h1.787V386.012z"/>
			<path fill="#FFFFFF" d="M413.548,386.129c-2.039,0-3.059-1.119-3.059-3.357c0-1.113,0.277-1.964,0.832-2.552
				s1.35-0.882,2.385-0.882c0.758,0,1.438,0.148,2.039,0.445l-0.527,1.383c-0.281-0.113-0.543-0.206-0.785-0.278
				s-0.484-0.108-0.727-0.108c-0.93,0-1.395,0.66-1.395,1.98c0,1.281,0.465,1.922,1.395,1.922c0.344,0,0.662-0.046,0.955-0.138
				s0.586-0.235,0.879-0.431v1.529c-0.289,0.184-0.581,0.311-0.876,0.381S413.997,386.129,413.548,386.129z"/>
			<path fill="#FFFFFF" d="M421.628,384.067c0,0.672-0.233,1.184-0.7,1.535s-1.165,0.527-2.095,0.527
				c-0.477,0-0.883-0.032-1.219-0.097s-0.65-0.159-0.943-0.284v-1.477c0.332,0.156,0.706,0.287,1.122,0.393s0.782,0.158,1.099,0.158
				c0.648,0,0.973-0.188,0.973-0.563c0-0.141-0.043-0.255-0.129-0.343s-0.234-0.188-0.445-0.299s-0.492-0.241-0.844-0.39
				c-0.504-0.211-0.874-0.406-1.11-0.586s-0.408-0.386-0.516-0.618s-0.161-0.519-0.161-0.858c0-0.582,0.226-1.032,0.677-1.351
				s1.091-0.478,1.919-0.478c0.789,0,1.557,0.172,2.303,0.516l-0.539,1.289c-0.328-0.141-0.635-0.256-0.92-0.346
				s-0.576-0.135-0.873-0.135c-0.527,0-0.791,0.143-0.791,0.428c0,0.16,0.085,0.299,0.255,0.416s0.542,0.291,1.116,0.521
				c0.512,0.207,0.887,0.4,1.125,0.58s0.414,0.387,0.527,0.621S421.628,383.743,421.628,384.067z"/>
		</g>
		<g>
			<path fill="#FFFFFF" d="M255.556,481.538h-1.816v-7.055h-2.326v-1.512h6.469v1.512h-2.326V481.538z"/>
			<path fill="#FFFFFF" d="M258.983,473.294c0-0.582,0.324-0.873,0.973-0.873s0.973,0.291,0.973,0.873
				c0,0.277-0.081,0.493-0.243,0.647s-0.405,0.231-0.729,0.231C259.308,474.173,258.983,473.88,258.983,473.294z M260.847,481.538
				h-1.787v-6.551h1.787V481.538z"/>
			<path fill="#FFFFFF" d="M268.587,481.538H266.8v-3.826c0-0.473-0.079-0.827-0.237-1.063s-0.407-0.354-0.747-0.354
				c-0.457,0-0.789,0.168-0.996,0.504s-0.311,0.889-0.311,1.658v3.082h-1.787v-6.551h1.365l0.24,0.838h0.1
				c0.176-0.301,0.43-0.536,0.762-0.706s0.713-0.255,1.143-0.255c0.98,0,1.645,0.32,1.992,0.961h0.158
				c0.176-0.305,0.435-0.541,0.776-0.709s0.728-0.252,1.157-0.252c0.742,0,1.304,0.19,1.685,0.571s0.571,0.991,0.571,1.831v4.271
				h-1.793v-3.826c0-0.473-0.079-0.827-0.237-1.063s-0.407-0.354-0.747-0.354c-0.438,0-0.765,0.156-0.981,0.469
				s-0.325,0.809-0.325,1.488V481.538z"/>
			<path fill="#FFFFFF" d="M277.47,481.655c-1.055,0-1.879-0.291-2.473-0.873s-0.891-1.406-0.891-2.473
				c0-1.098,0.274-1.946,0.823-2.546s1.308-0.899,2.276-0.899c0.926,0,1.646,0.264,2.162,0.791s0.773,1.256,0.773,2.186v0.867
				h-4.225c0.02,0.508,0.17,0.904,0.451,1.189s0.676,0.428,1.184,0.428c0.395,0,0.768-0.041,1.119-0.123s0.719-0.213,1.102-0.393
				v1.383c-0.313,0.156-0.646,0.272-1.002,0.349S277.981,481.655,277.47,481.655z M277.218,476.136c-0.379,0-0.676,0.12-0.891,0.36
				s-0.338,0.581-0.369,1.022h2.508c-0.008-0.441-0.123-0.782-0.346-1.022S277.597,476.136,277.218,476.136z"/>
			<path fill="#FFFFFF" d="M289.909,479.159c0,0.773-0.278,1.383-0.835,1.828s-1.331,0.668-2.323,0.668
				c-0.914,0-1.723-0.172-2.426-0.516v-1.688c0.578,0.258,1.067,0.439,1.468,0.545s0.767,0.158,1.099,0.158
				c0.398,0,0.704-0.076,0.917-0.229s0.319-0.379,0.319-0.68c0-0.168-0.047-0.317-0.141-0.448s-0.231-0.257-0.413-0.378
				s-0.552-0.314-1.11-0.58c-0.523-0.246-0.916-0.482-1.178-0.709s-0.471-0.49-0.627-0.791s-0.234-0.652-0.234-1.055
				c0-0.758,0.257-1.354,0.771-1.787s1.224-0.65,2.13-0.65c0.445,0,0.87,0.053,1.274,0.158s0.827,0.254,1.269,0.445l-0.586,1.412
				c-0.457-0.188-0.835-0.318-1.134-0.393s-0.593-0.111-0.882-0.111c-0.344,0-0.607,0.08-0.791,0.24s-0.275,0.369-0.275,0.627
				c0,0.16,0.037,0.3,0.111,0.419s0.192,0.234,0.354,0.346s0.546,0.312,1.151,0.601c0.801,0.383,1.35,0.767,1.646,1.151
				S289.909,478.601,289.909,479.159z"/>
			<path fill="#FFFFFF" d="M294.286,481.655c-1.055,0-1.879-0.291-2.473-0.873s-0.891-1.406-0.891-2.473
				c0-1.098,0.274-1.946,0.823-2.546s1.308-0.899,2.276-0.899c0.926,0,1.646,0.264,2.162,0.791s0.773,1.256,0.773,2.186v0.867
				h-4.225c0.02,0.508,0.17,0.904,0.451,1.189s0.676,0.428,1.184,0.428c0.395,0,0.768-0.041,1.119-0.123s0.719-0.213,1.102-0.393
				v1.383c-0.313,0.156-0.646,0.272-1.002,0.349S294.798,481.655,294.286,481.655z M294.034,476.136c-0.379,0-0.676,0.12-0.891,0.36
				s-0.338,0.581-0.369,1.022h2.508c-0.008-0.441-0.123-0.782-0.346-1.022S294.413,476.136,294.034,476.136z"/>
			<path fill="#FFFFFF" d="M302.067,474.864c0.242,0,0.443,0.018,0.604,0.053l-0.135,1.676c-0.145-0.039-0.32-0.059-0.527-0.059
				c-0.57,0-1.015,0.146-1.333,0.439s-0.478,0.703-0.478,1.23v3.334h-1.787v-6.551h1.354l0.264,1.102h0.088
				c0.203-0.367,0.478-0.663,0.823-0.888S301.661,474.864,302.067,474.864z"/>
			<path fill="#FFFFFF" d="M303.784,473.294c0-0.582,0.324-0.873,0.973-0.873s0.973,0.291,0.973,0.873
				c0,0.277-0.081,0.493-0.243,0.647s-0.405,0.231-0.729,0.231C304.108,474.173,303.784,473.88,303.784,473.294z M305.647,481.538
				h-1.787v-6.551h1.787V481.538z"/>
			<path fill="#FFFFFF" d="M310.487,481.655c-1.055,0-1.879-0.291-2.473-0.873s-0.891-1.406-0.891-2.473
				c0-1.098,0.274-1.946,0.823-2.546s1.308-0.899,2.276-0.899c0.926,0,1.646,0.264,2.162,0.791s0.773,1.256,0.773,2.186v0.867
				h-4.225c0.02,0.508,0.17,0.904,0.451,1.189s0.676,0.428,1.184,0.428c0.395,0,0.768-0.041,1.119-0.123s0.719-0.213,1.102-0.393
				v1.383c-0.313,0.156-0.646,0.272-1.002,0.349S310.999,481.655,310.487,481.655z M310.235,476.136c-0.379,0-0.676,0.12-0.891,0.36
				s-0.338,0.581-0.369,1.022h2.508c-0.008-0.441-0.123-0.782-0.346-1.022S310.614,476.136,310.235,476.136z"/>
			<path fill="#FFFFFF" d="M319.183,479.593c0,0.672-0.233,1.184-0.7,1.535s-1.165,0.527-2.095,0.527
				c-0.477,0-0.883-0.032-1.219-0.097s-0.65-0.159-0.943-0.284v-1.477c0.332,0.156,0.706,0.287,1.122,0.393s0.782,0.158,1.099,0.158
				c0.648,0,0.973-0.188,0.973-0.563c0-0.141-0.043-0.255-0.129-0.343s-0.234-0.188-0.445-0.299s-0.492-0.241-0.844-0.39
				c-0.504-0.211-0.874-0.406-1.11-0.586s-0.408-0.386-0.516-0.618s-0.161-0.519-0.161-0.858c0-0.582,0.226-1.032,0.677-1.351
				s1.091-0.478,1.919-0.478c0.789,0,1.557,0.172,2.303,0.516l-0.539,1.289c-0.328-0.141-0.635-0.256-0.92-0.346
				s-0.576-0.135-0.873-0.135c-0.527,0-0.791,0.143-0.791,0.428c0,0.16,0.085,0.299,0.255,0.416s0.542,0.291,1.116,0.521
				c0.512,0.207,0.887,0.4,1.125,0.58s0.414,0.387,0.527,0.621S319.183,479.269,319.183,479.593z"/>
			<path fill="#FFFFFF" d="M264.274,495.938l-0.621-2.039h-3.123l-0.621,2.039h-1.957l3.023-8.602h2.221l3.035,8.602H264.274z
				 M263.22,492.376c-0.574-1.848-0.897-2.893-0.97-3.135s-0.124-0.434-0.155-0.574c-0.129,0.5-0.498,1.736-1.107,3.709H263.22z"/>
			<path fill="#FFFFFF" d="M273.216,495.938h-1.787v-3.826c0-0.473-0.084-0.827-0.252-1.063s-0.436-0.354-0.803-0.354
				c-0.5,0-0.861,0.167-1.084,0.501s-0.334,0.888-0.334,1.661v3.082h-1.787v-6.551h1.365l0.24,0.838h0.1
				c0.199-0.316,0.474-0.556,0.823-0.718s0.747-0.243,1.192-0.243c0.762,0,1.34,0.206,1.734,0.618s0.592,1.007,0.592,1.784V495.938z
				"/>
			<path fill="#FFFFFF" d="M279.216,495.938l-0.346-0.891h-0.047c-0.301,0.379-0.61,0.642-0.929,0.788s-0.733,0.22-1.245,0.22
				c-0.629,0-1.124-0.18-1.485-0.539s-0.542-0.871-0.542-1.535c0-0.695,0.243-1.208,0.729-1.538s1.22-0.513,2.2-0.548l1.137-0.035
				v-0.287c0-0.664-0.34-0.996-1.02-0.996c-0.523,0-1.139,0.158-1.846,0.475l-0.592-1.207c0.754-0.395,1.59-0.592,2.508-0.592
				c0.879,0,1.553,0.191,2.021,0.574s0.703,0.965,0.703,1.746v4.365H279.216z M278.688,492.903l-0.691,0.023
				c-0.52,0.016-0.906,0.109-1.16,0.281s-0.381,0.434-0.381,0.785c0,0.504,0.289,0.756,0.867,0.756c0.414,0,0.745-0.119,0.993-0.357
				s0.372-0.555,0.372-0.949V492.903z"/>
			<path fill="#FFFFFF" d="M284.091,495.938h-1.787v-9.117h1.787V495.938z"/>
			<path fill="#FFFFFF" d="M285.028,489.388h1.957l1.236,3.686c0.105,0.32,0.178,0.699,0.217,1.137h0.035
				c0.043-0.402,0.127-0.781,0.252-1.137l1.213-3.686h1.916l-2.771,7.389c-0.254,0.684-0.616,1.195-1.087,1.535
				s-1.021,0.51-1.649,0.51c-0.309,0-0.611-0.033-0.908-0.1v-1.418c0.215,0.051,0.449,0.076,0.703,0.076
				c0.316,0,0.593-0.097,0.829-0.29s0.421-0.485,0.554-0.876l0.105-0.322L285.028,489.388z"/>
			<path fill="#FFFFFF" d="M295.552,494.632c0.313,0,0.688-0.068,1.125-0.205v1.33c-0.445,0.199-0.992,0.299-1.641,0.299
				c-0.715,0-1.235-0.181-1.562-0.542s-0.489-0.903-0.489-1.626v-3.158h-0.855v-0.756l0.984-0.598l0.516-1.383h1.143v1.395h1.834
				v1.342h-1.834v3.158c0,0.254,0.071,0.441,0.214,0.563S295.317,494.632,295.552,494.632z"/>
			<path fill="#FFFFFF" d="M297.925,487.694c0-0.582,0.324-0.873,0.973-0.873s0.973,0.291,0.973,0.873
				c0,0.277-0.081,0.493-0.243,0.647s-0.405,0.231-0.729,0.231C298.249,488.573,297.925,488.28,297.925,487.694z M299.788,495.938
				h-1.787v-6.551h1.787V495.938z"/>
			<path fill="#FFFFFF" d="M304.323,496.056c-2.039,0-3.059-1.119-3.059-3.357c0-1.113,0.277-1.964,0.832-2.552
				s1.35-0.882,2.385-0.882c0.758,0,1.438,0.148,2.039,0.445l-0.527,1.383c-0.281-0.113-0.543-0.206-0.785-0.278
				s-0.484-0.108-0.727-0.108c-0.93,0-1.395,0.66-1.395,1.98c0,1.281,0.465,1.922,1.395,1.922c0.344,0,0.662-0.046,0.955-0.138
				s0.586-0.235,0.879-0.431v1.529c-0.289,0.184-0.581,0.311-0.876,0.381S304.772,496.056,304.323,496.056z"/>
			<path fill="#FFFFFF" d="M312.403,493.993c0,0.672-0.233,1.184-0.7,1.535s-1.165,0.527-2.095,0.527
				c-0.477,0-0.883-0.032-1.219-0.097s-0.65-0.159-0.943-0.284v-1.477c0.332,0.156,0.706,0.287,1.122,0.393s0.782,0.158,1.099,0.158
				c0.648,0,0.973-0.188,0.973-0.563c0-0.141-0.043-0.255-0.129-0.343s-0.234-0.188-0.445-0.299s-0.492-0.241-0.844-0.39
				c-0.504-0.211-0.874-0.406-1.11-0.586s-0.408-0.386-0.516-0.618s-0.161-0.519-0.161-0.858c0-0.582,0.226-1.032,0.677-1.351
				s1.091-0.478,1.919-0.478c0.789,0,1.557,0.172,2.303,0.516l-0.539,1.289c-0.328-0.141-0.635-0.256-0.92-0.346
				s-0.576-0.135-0.873-0.135c-0.527,0-0.791,0.143-0.791,0.428c0,0.16,0.085,0.299,0.255,0.416s0.542,0.291,1.116,0.521
				c0.512,0.207,0.887,0.4,1.125,0.58s0.414,0.387,0.527,0.621S312.403,493.669,312.403,493.993z"/>
		</g>
		<g>
			<path fill="#FFFFFF" d="M220.644,321.618c0,0.773-0.278,1.383-0.835,1.828s-1.331,0.668-2.323,0.668
				c-0.914,0-1.723-0.172-2.426-0.516v-1.688c0.578,0.258,1.067,0.439,1.468,0.545s0.767,0.158,1.099,0.158
				c0.398,0,0.704-0.076,0.917-0.229s0.319-0.379,0.319-0.68c0-0.168-0.047-0.317-0.141-0.448s-0.231-0.257-0.413-0.378
				s-0.552-0.314-1.11-0.58c-0.523-0.246-0.916-0.482-1.178-0.709s-0.471-0.49-0.627-0.791s-0.234-0.652-0.234-1.055
				c0-0.758,0.257-1.354,0.771-1.787s1.224-0.65,2.13-0.65c0.445,0,0.87,0.053,1.274,0.158s0.827,0.254,1.269,0.445l-0.586,1.412
				c-0.457-0.188-0.835-0.318-1.134-0.393s-0.593-0.111-0.882-0.111c-0.344,0-0.607,0.08-0.791,0.24s-0.275,0.369-0.275,0.627
				c0,0.16,0.037,0.3,0.111,0.419s0.192,0.234,0.354,0.346s0.546,0.312,1.151,0.601c0.801,0.383,1.35,0.767,1.646,1.151
				S220.644,321.06,220.644,321.618z"/>
			<path fill="#FFFFFF" d="M226.216,323.997l-0.346-0.891h-0.047c-0.301,0.379-0.61,0.642-0.929,0.788s-0.733,0.22-1.245,0.22
				c-0.629,0-1.124-0.18-1.485-0.539s-0.542-0.871-0.542-1.535c0-0.695,0.243-1.208,0.729-1.538s1.22-0.513,2.2-0.548l1.137-0.035
				v-0.287c0-0.664-0.34-0.996-1.02-0.996c-0.523,0-1.139,0.158-1.846,0.475l-0.592-1.207c0.754-0.395,1.59-0.592,2.508-0.592
				c0.879,0,1.553,0.191,2.021,0.574s0.703,0.965,0.703,1.746v4.365H226.216z M225.688,320.962l-0.691,0.023
				c-0.52,0.016-0.906,0.109-1.16,0.281s-0.381,0.434-0.381,0.785c0,0.504,0.289,0.756,0.867,0.756c0.414,0,0.745-0.119,0.993-0.357
				s0.372-0.555,0.372-0.949V320.962z"/>
			<path fill="#FFFFFF" d="M231.091,323.997h-1.787v-9.117h1.787V323.997z"/>
			<path fill="#FFFFFF" d="M235.931,324.114c-1.055,0-1.879-0.291-2.473-0.873s-0.891-1.406-0.891-2.473
				c0-1.098,0.274-1.946,0.823-2.546s1.308-0.899,2.276-0.899c0.926,0,1.646,0.264,2.162,0.791s0.773,1.256,0.773,2.186v0.867
				h-4.225c0.02,0.508,0.17,0.904,0.451,1.189s0.676,0.428,1.184,0.428c0.395,0,0.768-0.041,1.119-0.123s0.719-0.213,1.102-0.393
				v1.383c-0.313,0.156-0.646,0.272-1.002,0.349S236.442,324.114,235.931,324.114z M235.679,318.595c-0.379,0-0.676,0.12-0.891,0.36
				s-0.338,0.581-0.369,1.022h2.508c-0.008-0.441-0.123-0.782-0.346-1.022S236.058,318.595,235.679,318.595z"/>
			<path fill="#FFFFFF" d="M244.626,322.052c0,0.672-0.233,1.184-0.7,1.535s-1.165,0.527-2.095,0.527
				c-0.477,0-0.883-0.032-1.219-0.097s-0.65-0.159-0.943-0.284v-1.477c0.332,0.156,0.706,0.287,1.122,0.393s0.782,0.158,1.099,0.158
				c0.648,0,0.973-0.188,0.973-0.563c0-0.141-0.043-0.255-0.129-0.343s-0.234-0.188-0.445-0.299s-0.492-0.241-0.844-0.39
				c-0.504-0.211-0.874-0.406-1.11-0.586s-0.408-0.386-0.516-0.618s-0.161-0.519-0.161-0.858c0-0.582,0.226-1.032,0.677-1.351
				s1.091-0.478,1.919-0.478c0.789,0,1.557,0.172,2.303,0.516l-0.539,1.289c-0.328-0.141-0.635-0.256-0.92-0.346
				s-0.576-0.135-0.873-0.135c-0.527,0-0.791,0.143-0.791,0.428c0,0.16,0.085,0.299,0.255,0.416s0.542,0.291,1.116,0.521
				c0.512,0.207,0.887,0.4,1.125,0.58s0.414,0.387,0.527,0.621S244.626,321.728,244.626,322.052z"/>
			<path fill="#FFFFFF" d="M257.2,323.997h-2.209l-0.674-0.662c-0.746,0.52-1.59,0.779-2.531,0.779
				c-0.953,0-1.709-0.219-2.268-0.656s-0.838-1.029-0.838-1.775c0-0.535,0.118-0.991,0.354-1.368s0.642-0.729,1.216-1.058
				c-0.293-0.336-0.506-0.657-0.639-0.964s-0.199-0.642-0.199-1.005c0-0.594,0.228-1.072,0.683-1.436s1.063-0.545,1.825-0.545
				c0.727,0,1.308,0.169,1.743,0.507s0.653,0.79,0.653,1.356c0,0.465-0.135,0.89-0.404,1.274s-0.705,0.751-1.307,1.099l1.664,1.623
				c0.277-0.457,0.518-1.045,0.721-1.764h1.863c-0.141,0.527-0.334,1.042-0.58,1.544s-0.525,0.946-0.838,1.333L257.2,323.997z
				 M250.562,321.513c0,0.336,0.126,0.604,0.378,0.803s0.575,0.299,0.97,0.299c0.492,0,0.936-0.119,1.33-0.357l-1.945-1.934
				c-0.227,0.172-0.405,0.352-0.536,0.539S250.562,321.267,250.562,321.513z M252.665,317.358c0-0.207-0.07-0.37-0.211-0.489
				s-0.322-0.179-0.545-0.179c-0.262,0-0.468,0.063-0.618,0.188s-0.226,0.303-0.226,0.533c0,0.344,0.186,0.723,0.557,1.137
				c0.336-0.188,0.594-0.372,0.773-0.554S252.665,317.601,252.665,317.358z"/>
			<path fill="#FFFFFF" d="M209.52,338.397l-2.063-6.721h-0.053c0.074,1.367,0.111,2.279,0.111,2.736v3.984h-1.623v-8.566h2.473
				l2.027,6.551h0.035l2.15-6.551h2.473v8.566h-1.693v-4.055c0-0.191,0.003-0.412,0.009-0.662s0.032-0.914,0.079-1.992h-0.053
				l-2.209,6.709H209.52z"/>
			<path fill="#FFFFFF" d="M221.227,338.397l-0.346-0.891h-0.047c-0.301,0.379-0.61,0.642-0.929,0.788s-0.733,0.22-1.245,0.22
				c-0.629,0-1.124-0.18-1.485-0.539s-0.542-0.871-0.542-1.535c0-0.695,0.243-1.208,0.729-1.538s1.22-0.513,2.2-0.548l1.137-0.035
				v-0.287c0-0.664-0.34-0.996-1.02-0.996c-0.523,0-1.139,0.158-1.846,0.475l-0.592-1.207c0.754-0.395,1.59-0.592,2.508-0.592
				c0.879,0,1.553,0.191,2.021,0.574s0.703,0.965,0.703,1.746v4.365H221.227z M220.699,335.362l-0.691,0.023
				c-0.52,0.016-0.906,0.109-1.16,0.281s-0.381,0.434-0.381,0.785c0,0.504,0.289,0.756,0.867,0.756c0.414,0,0.745-0.119,0.993-0.357
				s0.372-0.555,0.372-0.949V335.362z"/>
			<path fill="#FFFFFF" d="M227.971,331.724c0.242,0,0.443,0.018,0.604,0.053l-0.135,1.676c-0.145-0.039-0.32-0.059-0.527-0.059
				c-0.57,0-1.015,0.146-1.333,0.439s-0.478,0.703-0.478,1.23v3.334h-1.787v-6.551h1.354l0.264,1.102h0.088
				c0.203-0.367,0.478-0.663,0.823-0.888S227.564,331.724,227.971,331.724z"/>
			<path fill="#FFFFFF" d="M231.48,334.835l0.779-0.996l1.834-1.992h2.016l-2.602,2.842l2.76,3.709h-2.063l-1.887-2.654
				l-0.768,0.615v2.039h-1.787v-9.117h1.787v4.066l-0.094,1.488H231.48z"/>
			<path fill="#FFFFFF" d="M240.17,338.515c-1.055,0-1.879-0.291-2.473-0.873s-0.891-1.406-0.891-2.473
				c0-1.098,0.274-1.946,0.823-2.546s1.308-0.899,2.276-0.899c0.926,0,1.646,0.264,2.162,0.791s0.773,1.256,0.773,2.186v0.867
				h-4.225c0.02,0.508,0.17,0.904,0.451,1.189s0.676,0.428,1.184,0.428c0.395,0,0.768-0.041,1.119-0.123s0.719-0.213,1.102-0.393
				v1.383c-0.313,0.156-0.646,0.272-1.002,0.349S240.682,338.515,240.17,338.515z M239.918,332.995c-0.379,0-0.676,0.12-0.891,0.36
				s-0.338,0.581-0.369,1.022h2.508c-0.008-0.441-0.123-0.782-0.346-1.022S240.297,332.995,239.918,332.995z"/>
			<path fill="#FFFFFF" d="M247.055,337.091c0.313,0,0.688-0.068,1.125-0.205v1.33c-0.445,0.199-0.992,0.299-1.641,0.299
				c-0.715,0-1.235-0.181-1.562-0.542s-0.489-0.903-0.489-1.626v-3.158h-0.855v-0.756l0.984-0.598l0.516-1.383h1.143v1.395h1.834
				v1.342h-1.834v3.158c0,0.254,0.071,0.441,0.214,0.563S246.82,337.091,247.055,337.091z"/>
			<path fill="#FFFFFF" d="M249.428,330.153c0-0.582,0.324-0.873,0.973-0.873s0.973,0.291,0.973,0.873
				c0,0.277-0.081,0.493-0.243,0.647s-0.405,0.231-0.729,0.231C249.752,331.032,249.428,330.739,249.428,330.153z M251.291,338.397
				h-1.787v-6.551h1.787V338.397z"/>
			<path fill="#FFFFFF" d="M259.213,338.397h-1.787v-3.826c0-0.473-0.084-0.827-0.252-1.063s-0.436-0.354-0.803-0.354
				c-0.5,0-0.861,0.167-1.084,0.501s-0.334,0.888-0.334,1.661v3.082h-1.787v-6.551h1.365l0.24,0.838h0.1
				c0.199-0.316,0.474-0.556,0.823-0.718s0.747-0.243,1.192-0.243c0.762,0,1.34,0.206,1.734,0.618s0.592,1.007,0.592,1.784V338.397z
				"/>
			<path fill="#FFFFFF" d="M266.754,331.847v0.908l-1.025,0.264c0.188,0.293,0.281,0.621,0.281,0.984
				c0,0.703-0.245,1.251-0.735,1.644s-1.171,0.589-2.042,0.589l-0.322-0.018l-0.264-0.029c-0.184,0.141-0.275,0.297-0.275,0.469
				c0,0.258,0.328,0.387,0.984,0.387h1.113c0.719,0,1.267,0.154,1.644,0.463s0.565,0.762,0.565,1.359
				c0,0.766-0.319,1.359-0.958,1.781s-1.556,0.633-2.751,0.633c-0.914,0-1.612-0.159-2.095-0.478s-0.724-0.765-0.724-1.339
				c0-0.395,0.123-0.725,0.369-0.99s0.607-0.455,1.084-0.568c-0.184-0.078-0.344-0.206-0.48-0.384s-0.205-0.366-0.205-0.565
				c0-0.25,0.072-0.458,0.217-0.624s0.354-0.329,0.627-0.489c-0.344-0.148-0.616-0.387-0.817-0.715s-0.302-0.715-0.302-1.16
				c0-0.715,0.232-1.268,0.697-1.658s1.129-0.586,1.992-0.586c0.184,0,0.401,0.017,0.653,0.05s0.413,0.058,0.483,0.073H266.754z
				 M261.697,339.323c0,0.246,0.118,0.439,0.354,0.58s0.567,0.211,0.993,0.211c0.641,0,1.143-0.088,1.506-0.264
				s0.545-0.416,0.545-0.721c0-0.246-0.107-0.416-0.322-0.51s-0.547-0.141-0.996-0.141h-0.926c-0.328,0-0.603,0.077-0.823,0.231
				S261.697,339.069,261.697,339.323z M262.348,333.991c0,0.355,0.081,0.637,0.243,0.844s0.409,0.311,0.741,0.311
				c0.336,0,0.582-0.104,0.738-0.311s0.234-0.488,0.234-0.844c0-0.789-0.324-1.184-0.973-1.184
				C262.676,332.808,262.348,333.202,262.348,333.991z"/>
			<path fill="#FFFFFF" d="M214.723,352.797l-0.621-2.039h-3.123l-0.621,2.039H208.4l3.023-8.602h2.221l3.035,8.602H214.723z
				 M213.668,349.234c-0.574-1.848-0.897-2.893-0.97-3.135s-0.124-0.434-0.155-0.574c-0.129,0.5-0.498,1.736-1.107,3.709H213.668z"
				/>
			<path fill="#FFFFFF" d="M223.664,352.797h-1.787v-3.826c0-0.473-0.084-0.827-0.252-1.063s-0.436-0.354-0.803-0.354
				c-0.5,0-0.861,0.167-1.084,0.501s-0.334,0.888-0.334,1.661v3.082h-1.787v-6.551h1.365l0.24,0.838h0.1
				c0.199-0.316,0.474-0.556,0.823-0.718s0.747-0.243,1.192-0.243c0.762,0,1.34,0.206,1.734,0.618s0.592,1.007,0.592,1.784V352.797z
				"/>
			<path fill="#FFFFFF" d="M229.664,352.797l-0.346-0.891h-0.047c-0.301,0.379-0.61,0.642-0.929,0.788s-0.733,0.22-1.245,0.22
				c-0.629,0-1.124-0.18-1.485-0.539s-0.542-0.871-0.542-1.535c0-0.695,0.243-1.208,0.729-1.538s1.22-0.513,2.2-0.548l1.137-0.035
				v-0.287c0-0.664-0.34-0.996-1.02-0.996c-0.523,0-1.139,0.158-1.846,0.475l-0.592-1.207c0.754-0.395,1.59-0.592,2.508-0.592
				c0.879,0,1.553,0.191,2.021,0.574s0.703,0.965,0.703,1.746v4.365H229.664z M229.137,349.762l-0.691,0.023
				c-0.52,0.016-0.906,0.109-1.16,0.281s-0.381,0.434-0.381,0.785c0,0.504,0.289,0.756,0.867,0.756c0.414,0,0.745-0.119,0.993-0.357
				s0.372-0.555,0.372-0.949V349.762z"/>
			<path fill="#FFFFFF" d="M234.539,352.797h-1.787v-9.117h1.787V352.797z"/>
			<path fill="#FFFFFF" d="M235.477,346.246h1.957l1.236,3.686c0.105,0.32,0.178,0.699,0.217,1.137h0.035
				c0.043-0.402,0.127-0.781,0.252-1.137l1.213-3.686h1.916l-2.771,7.389c-0.254,0.684-0.616,1.195-1.087,1.535
				s-1.021,0.51-1.649,0.51c-0.309,0-0.611-0.033-0.908-0.1v-1.418c0.215,0.051,0.449,0.076,0.703,0.076
				c0.316,0,0.593-0.097,0.829-0.29s0.421-0.485,0.554-0.876l0.105-0.322L235.477,346.246z"/>
			<path fill="#FFFFFF" d="M246,351.49c0.313,0,0.688-0.068,1.125-0.205v1.33c-0.445,0.199-0.992,0.299-1.641,0.299
				c-0.715,0-1.235-0.181-1.562-0.542s-0.489-0.903-0.489-1.626v-3.158h-0.855v-0.756l0.984-0.598l0.516-1.383h1.143v1.395h1.834
				v1.342h-1.834v3.158c0,0.254,0.071,0.441,0.214,0.563S245.766,351.49,246,351.49z"/>
			<path fill="#FFFFFF" d="M248.373,344.553c0-0.582,0.324-0.873,0.973-0.873s0.973,0.291,0.973,0.873
				c0,0.277-0.081,0.493-0.243,0.647s-0.405,0.231-0.729,0.231C248.697,345.432,248.373,345.139,248.373,344.553z M250.236,352.797
				h-1.787v-6.551h1.787V352.797z"/>
			<path fill="#FFFFFF" d="M254.771,352.914c-2.039,0-3.059-1.119-3.059-3.357c0-1.113,0.277-1.964,0.832-2.552
				s1.35-0.882,2.385-0.882c0.758,0,1.438,0.148,2.039,0.445l-0.527,1.383c-0.281-0.113-0.543-0.206-0.785-0.278
				s-0.484-0.108-0.727-0.108c-0.93,0-1.395,0.66-1.395,1.98c0,1.281,0.465,1.922,1.395,1.922c0.344,0,0.662-0.046,0.955-0.138
				s0.586-0.235,0.879-0.431v1.529c-0.289,0.184-0.581,0.311-0.876,0.381S255.221,352.914,254.771,352.914z"/>
			<path fill="#FFFFFF" d="M262.852,350.852c0,0.672-0.233,1.184-0.7,1.535s-1.165,0.527-2.095,0.527
				c-0.477,0-0.883-0.032-1.219-0.097s-0.65-0.159-0.943-0.284v-1.477c0.332,0.156,0.706,0.287,1.122,0.393s0.782,0.158,1.099,0.158
				c0.648,0,0.973-0.188,0.973-0.563c0-0.141-0.043-0.255-0.129-0.343s-0.234-0.188-0.445-0.299s-0.492-0.241-0.844-0.39
				c-0.504-0.211-0.874-0.406-1.11-0.586s-0.408-0.386-0.516-0.618s-0.161-0.519-0.161-0.858c0-0.582,0.226-1.032,0.677-1.351
				s1.091-0.478,1.919-0.478c0.789,0,1.557,0.172,2.303,0.516l-0.539,1.289c-0.328-0.141-0.635-0.256-0.92-0.346
				s-0.576-0.135-0.873-0.135c-0.527,0-0.791,0.143-0.791,0.428c0,0.16,0.085,0.299,0.255,0.416s0.542,0.291,1.116,0.521
				c0.512,0.207,0.887,0.4,1.125,0.58s0.414,0.387,0.527,0.621S262.852,350.527,262.852,350.852z"/>
		</g>
	</g>
</g>
</svg>
