<?xml version="1.0" encoding="utf-8"?>
<!-- Generator: Adobe Illustrator 16.0.0, SVG Export Plug-In . SVG Version: 6.00 Build 0)  -->
<!DOCTYPE svg PUBLIC "-//W3C//DTD SVG 1.1//EN" "http://www.w3.org/Graphics/SVG/1.1/DTD/svg11.dtd">
<svg version="1.1" id="Layer_1" xmlns="http://www.w3.org/2000/svg" xmlns:xlink="http://www.w3.org/1999/xlink" x="0px" y="0px"
	 width="1134.878px" height="263.865px" viewBox="0 0 1134.878 263.865" enable-background="new 0 0 1134.878 263.865"
	 xml:space="preserve">
<g>
	<rect x="46.166" y="225.438" fill="#FFFFFF" width="0.001" height="59.44"/>
	<path fill="#FFFFFF" d="M75.887,255.159c2.198-4.658,8.158-10.102,23.714-11.645c2.076-0.3,3.642-0.507,4.918-0.674
		c3.918-0.519,4.971-0.656,9.552-1.984c1.806-0.523,8.868-7.152,8.868-20.131c0-16.722-4.263-31.48-6.096-37.054
		c-0.047-0.146-0.167-0.567-0.333-1.137c-0.303-1.043-2.526-7.363-2.526-7.363c-1.204-3.213-2.452-6.538-3.263-9.95l-0.043-0.177
		c-1.222-4.942-5.239-23.014-5.524-47.997c0-2.536,2.253-4.73,3.599-6.042c0.246-0.24,0.463-0.451,0.626-0.629
		c1.296-1.402,3.001-3.132,4.976-5.135c1.301-1.321,2.736-2.777,4.279-4.368c2.47-2.545,5.227-4.871,7.89-7.119
		c3.275-2.765,6.663-5.623,9.448-8.846c4.158-4.816,8.003-13.242,7.308-20.034c-0.106-1.024,0.151-1.911,0.722-2.495
		c0.633-0.65,1.629-0.853,2.506-0.53c0.877-0.323,1.871-0.12,2.507,0.53c0.569,0.585,0.827,1.471,0.723,2.495
		c-0.695,6.791,3.147,15.218,7.311,20.034c2.78,3.223,6.168,6.081,9.445,8.846c2.665,2.248,5.42,4.575,7.889,7.119
		c1.545,1.591,2.979,3.047,4.279,4.368c1.975,2.003,3.68,3.733,4.975,5.135c0.164,0.178,0.383,0.389,0.629,0.629
		c1.346,1.312,3.598,3.506,3.598,6.027c-0.284,24.999-4.299,43.069-5.522,48.012l-0.043,0.175c-0.812,3.412-2.06,6.739-3.264,9.95
		c0,0-2.226,6.32-2.527,7.363c-0.164,0.571-0.282,0.991-0.332,1.137c-1.832,5.572-6.097,20.334-6.097,37.054
		c0,12.979,7.063,19.606,8.867,20.131c4.582,1.328,5.634,1.469,9.553,1.985c1.275,0.167,2.843,0.374,4.919,0.675
		c15.558,1.541,21.517,6.985,23.714,11.645h56.734c11,0,15.5-7.793,10-17.319L155.155,14.909c-5.5-9.526-14.5-9.526-20,0
		L6.446,237.841c-5.5,9.525-1,17.319,10,17.319v-0.001H75.887z"/>
	<rect x="75.887" y="255.159" fill="#FFFFFF" width="141.242" height="0.001"/>
</g>
<text transform="matrix(1 0 0 1 300.8779 115.4619)" display="none"><tspan x="0" y="0" display="inline" fill="#6070B5" font-family="'OpenSans-Extrabold'" font-size="110">AyamiH</tspan><tspan x="0" y="132" display="inline" fill="#6070B5" font-family="'OpenSans-Extrabold'" font-size="110">Consultants</tspan></text>
<g>
	<path fill="#FFFFFF" d="M379.45,109.376l-4.395-17.407h-28.992l-4.516,17.407h-26.49l29.114-93.26h32.165l29.48,93.26H379.45z
		 M370.051,71.386l-3.845-15.247c-0.896-3.388-1.984-7.771-3.266-13.15c-1.282-5.378-2.127-9.233-2.533-11.563
		c-0.366,2.16-1.09,5.718-2.167,10.673c-1.079,4.955-3.47,14.718-7.171,29.287H370.051z"/>
	<path fill="#FFFFFF" d="M405.695,37.398h25.146l11.719,41.294c0.57,2.16,0.957,4.765,1.16,7.814h0.488
		c0.326-2.922,0.814-5.484,1.465-7.687l12.023-41.421h24.354l-27.344,76.552c-3.5,9.74-7.803,16.622-12.908,20.646
		c-5.107,4.023-11.771,6.035-19.989,6.035c-3.174,0-6.43-0.36-9.766-1.08v-19.503c2.156,0.508,4.618,0.762,7.386,0.762
		c2.115,0,3.967-0.424,5.553-1.271c1.588-0.848,2.971-2.044,4.15-3.589c1.18-1.546,2.441-4.077,3.785-7.592L405.695,37.398z"/>
	<path fill="#FFFFFF" d="M535.396,109.376l-4.578-9.529h-0.488c-3.215,4.151-6.49,6.988-9.826,8.513
		c-3.338,1.525-7.65,2.287-12.939,2.287c-6.512,0-11.639-2.033-15.381-6.099c-3.744-4.066-5.615-9.784-5.615-17.153
		c0-7.665,2.563-13.373,7.689-17.121c5.127-3.748,12.553-5.854,22.277-6.321l11.537-0.381v-1.017c0-5.929-2.809-8.894-8.424-8.894
		c-5.045,0-11.455,1.779-19.227,5.336l-6.896-16.39c8.057-4.32,18.229-6.48,30.518-6.48c8.871,0,15.736,2.287,20.6,6.861
		c4.861,4.574,7.293,10.969,7.293,19.186v47.202H535.396z M517.694,93.113c2.889,0,5.361-0.953,7.416-2.859s3.082-4.383,3.082-7.433
		v-5.59l-5.492,0.254c-7.854,0.297-11.781,3.304-11.781,9.021C510.919,90.911,513.179,93.113,517.694,93.113z"/>
	<path fill="#FFFFFF" d="M653.071,109.376V70.242c0-4.87-0.641-8.522-1.924-10.958c-1.281-2.435-3.307-3.653-6.072-3.653
		c-3.662,0-6.348,1.631-8.057,4.892c-1.709,3.262-2.564,8.365-2.564,15.311v33.543h-23.926V70.242c0-4.87-0.609-8.522-1.83-10.958
		c-1.221-2.435-3.195-3.653-5.92-3.653c-3.744,0-6.471,1.737-8.18,5.209c-1.709,3.473-2.563,9.148-2.563,17.025v31.51h-23.865
		V37.398h18.006l2.99,8.894h1.404c1.83-3.303,4.486-5.823,7.965-7.56c3.479-1.736,7.436-2.604,11.871-2.604
		c9.969,0,16.967,3.156,20.996,9.466h1.893c1.953-2.964,4.668-5.283,8.148-6.957c3.479-1.672,7.313-2.509,11.504-2.509
		c8.18,0,14.221,2.182,18.127,6.543c3.906,4.363,5.859,10.991,5.859,19.884v46.821H653.071z"/>
	<path fill="#FFFFFF" d="M692.683,19.483c0-3.726,0.996-6.5,2.99-8.322c1.994-1.82,5.209-2.731,9.645-2.731
		c4.434,0,7.668,0.932,9.703,2.795c2.035,1.864,3.053,4.617,3.053,8.259c0,7.285-4.252,10.927-12.756,10.927
		C696.894,30.41,692.683,26.768,692.683,19.483z M717.157,109.376h-23.865V37.398h23.865V109.376z"/>
	<path fill="#FFFFFF" d="M811.7,109.376h-24.23V71.513h-28.016v37.863h-24.23V16.497h24.23V50.93h28.016V16.497h24.23V109.376z"/>
	<path fill="#FFFFFF" d="M364.436,179.746c-5.737,0-10.214,2.446-13.428,7.338c-3.215,4.892-4.821,11.637-4.821,20.233
		c0,17.874,6.53,26.81,19.592,26.81c3.946,0,7.771-0.572,11.475-1.716c3.702-1.144,7.426-2.519,11.17-4.129v21.219
		c-7.447,3.431-15.869,5.146-25.27,5.146c-13.469,0-23.794-4.065-30.975-12.197c-7.182-8.132-10.773-19.885-10.773-35.259
		c0-9.613,1.74-18.063,5.219-25.348c3.479-7.284,8.484-12.886,15.015-16.804c6.53-3.917,14.211-5.876,23.041-5.876
		c9.644,0,18.86,2.182,27.649,6.543l-7.386,19.758c-3.296-1.609-6.592-2.964-9.888-4.065S368.22,179.746,364.436,179.746z"/>
	<path fill="#FFFFFF" d="M470.454,217.229c0,11.774-3.043,20.954-9.125,27.539c-6.084,6.586-14.598,9.879-25.543,9.879
		c-10.498,0-18.852-3.367-25.056-10.101c-6.205-6.734-9.308-15.84-9.308-27.317c0-11.731,3.041-20.848,9.125-27.35
		c6.082-6.501,14.617-9.751,25.604-9.751c6.795,0,12.797,1.503,18.006,4.51c5.207,3.008,9.227,7.317,12.055,12.929
		C469.04,203.179,470.454,209.731,470.454,217.229z M425.653,217.229c0,6.184,0.793,10.895,2.381,14.135
		c1.586,3.24,4.252,4.86,7.996,4.86c3.701,0,6.316-1.62,7.842-4.86c1.527-3.24,2.289-7.951,2.289-14.135
		c0-6.141-0.773-10.778-2.318-13.913c-1.547-3.134-4.191-4.701-7.936-4.701c-3.662,0-6.287,1.557-7.873,4.669
		C426.446,206.396,425.653,211.045,425.653,217.229z"/>
	<path fill="#FFFFFF" d="M527.704,253.376v-39.261c0-4.785-0.662-8.396-1.982-10.832c-1.324-2.435-3.449-3.652-6.379-3.652
		c-4.029,0-6.938,1.674-8.729,5.019c-1.791,3.347-2.686,9.085-2.686,17.217v31.51h-23.865v-71.978h18.006l2.99,8.894h1.404
		c2.035-3.388,4.854-5.929,8.453-7.623c3.602-1.693,7.742-2.541,12.422-2.541c7.648,0,13.6,2.309,17.852,6.924
		c4.252,4.617,6.379,11.118,6.379,19.504v46.82H527.704z"/>
	<path fill="#FFFFFF" d="M621.21,231.268c0,7.709-2.523,13.532-7.568,17.471s-12.289,5.908-21.729,5.908
		c-5.127,0-9.582-0.286-13.367-0.857c-3.783-0.572-7.648-1.62-11.596-3.145V230.76c3.703,1.694,7.762,3.092,12.176,4.193
		c4.416,1.102,8.352,1.651,11.811,1.651c5.168,0,7.752-1.228,7.752-3.685c0-1.271-0.723-2.403-2.166-3.399
		c-1.445-0.994-5.646-2.932-12.605-5.813c-6.348-2.71-10.783-5.791-13.305-9.243c-2.523-3.451-3.785-7.824-3.785-13.119
		c0-6.691,2.482-11.9,7.447-15.628c4.963-3.727,11.982-5.59,21.057-5.59c4.557,0,8.84,0.519,12.848,1.556
		c4.008,1.039,8.168,2.553,12.482,4.543l-6.471,16.009c-3.174-1.481-6.529-2.741-10.07-3.78c-3.539-1.037-6.43-1.556-8.666-1.556
		c-3.906,0-5.859,0.995-5.859,2.985c0,1.229,0.68,2.277,2.045,3.145c1.361,0.869,5.299,2.637,11.809,5.305
		c4.842,2.076,8.455,4.108,10.834,6.099c2.381,1.991,4.131,4.331,5.25,7.021S621.21,227.415,621.21,231.268z"/>
	<path fill="#FFFFFF" d="M683.71,253.376l-2.99-8.958h-1.404c-1.994,3.304-4.771,5.835-8.33,7.592
		c-3.563,1.757-7.742,2.637-12.543,2.637c-7.609,0-13.531-2.297-17.762-6.893c-4.232-4.595-6.348-11.086-6.348-19.472v-46.884
		h23.865v39.324c0,4.701,0.641,8.259,1.922,10.673s3.387,3.621,6.316,3.621c4.109,0,7.039-1.684,8.789-5.051
		s2.625-9.053,2.625-17.058v-31.51h23.865v71.978H683.71z"/>
	<path fill="#FFFFFF" d="M742.06,253.376h-23.865v-98.851h23.865V253.376z"/>
	<path fill="#FFFFFF" d="M792.476,235.017c3.213,0,7.059-0.826,11.535-2.478v18.105c-3.215,1.44-6.277,2.468-9.186,3.081
		c-2.91,0.613-6.318,0.921-10.225,0.921c-8.016,0-13.793-2.043-17.334-6.131c-3.539-4.086-5.309-10.364-5.309-18.836v-29.668h-8.363
		v-10.101l10.621-7.814l6.164-15.119h15.625v14.421h16.969v18.613h-16.969v28.017C786.005,232.688,788.161,235.017,792.476,235.017z
		"/>
	<path fill="#FFFFFF" d="M861.2,253.376l-4.578-9.529h-0.488c-3.215,4.151-6.49,6.988-9.826,8.513s-7.65,2.287-12.939,2.287
		c-6.51,0-11.637-2.033-15.381-6.099s-5.615-9.783-5.615-17.152c0-7.666,2.564-13.373,7.691-17.121s12.551-5.854,22.277-6.321
		l11.535-0.381v-1.017c0-5.93-2.807-8.895-8.422-8.895c-5.047,0-11.455,1.779-19.227,5.337l-6.896-16.391
		c8.057-4.32,18.229-6.479,30.518-6.479c8.869,0,15.736,2.286,20.6,6.86c4.861,4.574,7.293,10.97,7.293,19.186v47.202H861.2z
		 M843.501,237.112c2.889,0,5.359-0.952,7.416-2.858c2.053-1.906,3.082-4.384,3.082-7.433v-5.591l-5.494,0.254
		c-7.854,0.297-11.779,3.304-11.779,9.021C836.726,234.911,838.983,237.112,843.501,237.112z"/>
	<path fill="#FFFFFF" d="M937.616,253.376v-39.261c0-4.785-0.662-8.396-1.982-10.832c-1.324-2.435-3.449-3.652-6.379-3.652
		c-4.029,0-6.938,1.674-8.729,5.019c-1.791,3.347-2.686,9.085-2.686,17.217v31.51h-23.865v-71.978h18.006l2.99,8.894h1.404
		c2.035-3.388,4.854-5.929,8.453-7.623c3.602-1.693,7.742-2.541,12.422-2.541c7.648,0,13.6,2.309,17.852,6.924
		c4.252,4.617,6.379,11.118,6.379,19.504v46.82H937.616z"/>
	<path fill="#FFFFFF" d="M1011.591,235.017c3.213,0,7.059-0.826,11.535-2.478v18.105c-3.215,1.44-6.277,2.468-9.186,3.081
		c-2.91,0.613-6.318,0.921-10.225,0.921c-8.016,0-13.793-2.043-17.334-6.131c-3.539-4.086-5.309-10.364-5.309-18.836v-29.668h-8.363
		v-10.101l10.621-7.814l6.164-15.119h15.625v14.421h16.969v18.613h-16.969v28.017
		C1005.12,232.688,1007.276,235.017,1011.591,235.017z"/>
	<path fill="#FFFFFF" d="M1088.616,231.268c0,7.709-2.523,13.532-7.568,17.471s-12.289,5.908-21.729,5.908
		c-5.127,0-9.582-0.286-13.367-0.857c-3.783-0.572-7.648-1.62-11.596-3.145V230.76c3.703,1.694,7.762,3.092,12.176,4.193
		c4.416,1.102,8.352,1.651,11.811,1.651c5.168,0,7.752-1.228,7.752-3.685c0-1.271-0.723-2.403-2.166-3.399
		c-1.445-0.994-5.646-2.932-12.605-5.813c-6.348-2.71-10.783-5.791-13.305-9.243c-2.523-3.451-3.785-7.824-3.785-13.119
		c0-6.691,2.482-11.9,7.447-15.628c4.963-3.727,11.982-5.59,21.057-5.59c4.557,0,8.84,0.519,12.848,1.556
		c4.008,1.039,8.168,2.553,12.482,4.543l-6.471,16.009c-3.174-1.481-6.529-2.741-10.07-3.78c-3.539-1.037-6.43-1.556-8.666-1.556
		c-3.906,0-5.859,0.995-5.859,2.985c0,1.229,0.68,2.277,2.045,3.145c1.361,0.869,5.299,2.637,11.809,5.305
		c4.842,2.076,8.455,4.108,10.834,6.099c2.381,1.991,4.131,4.331,5.25,7.021S1088.616,227.415,1088.616,231.268z"/>
</g>
</svg>
