<?xml version="1.0" encoding="utf-8"?>
<!-- Generator: Adobe Illustrator 16.0.0, SVG Export Plug-In . SVG Version: 6.00 Build 0)  -->
<!DOCTYPE svg PUBLIC "-//W3C//DTD SVG 1.1//EN" "http://www.w3.org/Graphics/SVG/1.1/DTD/svg11.dtd">
<svg version="1.1" id="Layer_1" xmlns="http://www.w3.org/2000/svg" xmlns:xlink="http://www.w3.org/1999/xlink" x="0px" y="0px"
	 width="1161px" height="299px" viewBox="12.5 53.216 1161 299" enable-background="new 12.5 53.216 1161 299" xml:space="preserve"
	>
<g id="Layer_2">
</g>
<g id="Layer_1_1_">
	<g>
		<path fill="#FFFFFF" d="M107.555,318.16c2.198-4.658,8.158-10.103,23.714-11.646c2.076-0.302,3.642-0.509,4.918-0.675
			c3.918-0.52,4.971-0.655,9.552-1.983c1.806-0.522,8.868-7.151,8.868-20.131c0-16.724-4.263-31.479-6.096-37.056
			c-0.047-0.146-0.167-0.565-0.333-1.137c-0.303-1.043-2.526-7.363-2.526-7.363c-1.204-3.213-2.452-6.537-3.263-9.949l-0.043-0.178
			c-1.222-4.94-5.239-23.014-5.524-47.997c0-2.536,2.253-4.73,3.599-6.042c0.246-0.24,0.463-0.451,0.626-0.629
			c1.296-1.402,3.001-3.132,4.976-5.135c1.301-1.321,2.736-2.777,4.279-4.368c2.47-2.545,5.227-4.871,7.89-7.119
			c3.275-2.765,6.663-5.623,9.448-8.846c4.158-4.816,8.003-13.242,7.308-20.034c-0.106-1.024,0.151-1.911,0.722-2.495
			c0.633-0.65,1.629-0.853,2.506-0.53c0.877-0.323,1.871-0.12,2.507,0.53c0.569,0.585,0.827,1.471,0.723,2.495
			c-0.695,6.791,3.147,15.218,7.311,20.034c2.78,3.223,6.168,6.081,9.445,8.846c2.665,2.248,5.42,4.575,7.889,7.119
			c1.545,1.591,2.979,3.047,4.279,4.368c1.975,2.003,3.68,3.733,4.975,5.135c0.164,0.178,0.383,0.389,0.629,0.629
			c1.346,1.312,3.598,3.506,3.598,6.027c-0.284,24.999-4.299,43.068-5.522,48.011l-0.043,0.176c-0.812,3.412-2.06,6.738-3.264,9.949
			c0,0-2.226,6.32-2.527,7.363c-0.164,0.57-0.282,0.99-0.332,1.137c-1.832,5.572-6.097,20.334-6.097,37.056
			c0,12.979,7.063,19.604,8.867,20.131c4.582,1.328,5.634,1.469,9.553,1.983c1.275,0.168,2.843,0.375,4.919,0.677
			c15.558,1.54,21.517,6.983,23.714,11.646h56.734c11,0,15.5-7.793,10-17.32L186.823,77.909c-5.5-9.526-14.5-9.526-20,0
			L38.114,300.841c-5.5,9.525-1,17.318,10,17.318l0,0H107.555z"/>
	</g>
	<g enable-background="new    ">
		<path fill="#FFFFFF" d="M347.771,178.461l16.252-85.814h21.428l16.148,85.814h-17.494l-2.95-18.219H368.63l-2.898,18.219H347.771z
			 M370.286,148.908h9.161l-4.606-33.229L370.286,148.908z"/>
		<path fill="#FFFFFF" d="M406.999,196.214v-11.956c3.795,0,6.418-0.38,7.867-1.139c1.311-0.69,1.967-2.054,1.967-4.089
			c0-0.242-0.018-0.483-0.052-0.725c-0.207-1.76-0.966-4.969-2.277-9.627c-0.38-1.621-2.761-10.204-7.143-25.749
			c-4.382-15.545-6.763-24.128-7.143-25.75h16.304l7.608,35.351l5.797-35.351h16.304l-14.44,64.594
			c-2.14,9.627-9.438,14.44-21.894,14.44c-0.173,0-0.345,0-0.518,0H406.999z"/>
		<path fill="#FFFFFF" d="M461.62,179.548c-4.348-0.069-7.807-1.612-10.377-4.632c-2.571-3.02-3.856-6.461-3.856-10.326
			c0-2.001,0.25-3.873,0.75-5.615c0.5-1.742,1.104-3.252,1.812-4.529c0.707-1.276,1.699-2.519,2.976-3.727
			c1.276-1.207,2.433-2.182,3.468-2.924s2.407-1.535,4.115-2.381s3.08-1.476,4.115-1.89s2.441-0.958,4.218-1.63
			c1.777-0.674,3.028-1.165,3.752-1.476v-6.056c0-1.725-0.259-3.054-0.776-3.985s-1.467-1.397-2.847-1.397
			c-2.347,0-3.589,1.622-3.727,4.865l-0.414,4.503l-16.148-0.621c0-0.104,0.017-0.448,0.052-1.035
			c0.034-0.586,0.052-0.914,0.052-0.983c0.518-6.693,2.596-11.628,6.237-14.803c3.64-3.174,8.842-4.762,15.605-4.762
			c6.038,0,10.636,1.674,13.793,5.021c3.157,3.348,4.736,7.815,4.736,13.405v28.519c0,3.934,0.362,9.058,1.087,15.372H474.87
			c-0.897-4.969-1.38-7.867-1.449-8.695c-0.828,2.795-2.243,5.124-4.244,6.987C467.175,178.617,464.656,179.548,461.62,179.548z
			 M467.883,167.644c0.828,0,1.682-0.284,2.562-0.854c0.88-0.568,1.596-1.25,2.148-2.044v-16.77
			c-2.761,1.381-5.029,3.321-6.806,5.823c-1.777,2.502-2.666,4.942-2.666,7.323c0,2.002,0.448,3.589,1.346,4.762
			C465.364,167.058,466.502,167.644,467.883,167.644z"/>
		<path fill="#FFFFFF" d="M495.797,178.461V117.18h16.925v4.969c4.106-4.071,8.971-6.107,14.596-6.107
			c2.415,0,4.529,0.621,6.34,1.863s3.183,3.037,4.115,5.383c4.313-4.83,9.541-7.246,15.683-7.246c3.588,0,6.452,1.312,8.592,3.934
			c2.139,2.623,3.209,6.246,3.209,10.869v47.617h-16.977v-45.857c0-1.69-0.293-2.915-0.88-3.675
			c-0.587-0.759-1.501-1.104-2.743-1.035c-1.863,0.069-3.744,0.812-5.642,2.226v0.725v47.617h-16.821v-45.857
			c0-1.656-0.302-2.873-0.906-3.648c-0.604-0.777-1.527-1.13-2.769-1.062c-1.726,0.069-3.658,0.846-5.797,2.329v48.238H495.797z"/>
		<path fill="#FFFFFF" d="M571.949,106.88V94.717h17.391v12.163H571.949z M572.053,178.461V117.18h17.287v61.281H572.053z"/>
		<path fill="#FFFFFF" d="M597.689,178.461V92.647h18.995v34.678h13.198V92.647h18.995v85.814h-18.995v-37.576h-13.198v37.576
			H597.689z"/>
		<path fill="#FFFFFF" d="M706.258,179.652c-4.796,0-8.885-0.665-12.266-1.993c-3.383-1.327-6.048-3.286-7.997-5.874
			c-1.95-2.588-3.356-5.572-4.218-8.954c-0.863-3.381-1.295-7.35-1.295-11.904v-30.589c0-4.658,0.432-8.703,1.295-12.138
			c0.861-3.433,2.268-6.435,4.218-9.006c1.949-2.569,4.606-4.502,7.971-5.797c3.364-1.293,7.462-1.94,12.292-1.94
			c4.624,0,8.566,0.587,11.827,1.76c3.261,1.174,5.813,2.898,7.66,5.176c1.846,2.277,3.175,4.865,3.985,7.764
			s1.217,6.263,1.217,10.093v7.557h-18.529v-8.644c0-1.346-0.018-2.363-0.053-3.054c-0.034-0.689-0.154-1.578-0.361-2.666
			c-0.207-1.086-0.51-1.905-0.906-2.458c-0.396-0.552-1.01-1.043-1.838-1.476c-0.828-0.431-1.828-0.646-3.002-0.646
			c-1.173,0-2.174,0.216-3.002,0.646c-0.828,0.433-1.457,0.95-1.889,1.553c-0.432,0.604-0.776,1.433-1.035,2.484
			c-0.259,1.054-0.414,2.011-0.466,2.873c-0.052,0.863-0.077,1.933-0.077,3.209v40.009c0,3.451,0.447,6.081,1.346,7.894
			c0.896,1.811,2.604,2.717,5.123,2.717c1.139,0,2.113-0.215,2.925-0.646c0.811-0.432,1.423-0.94,1.837-1.527
			c0.414-0.586,0.733-1.414,0.958-2.484c0.224-1.069,0.354-2.001,0.388-2.795c0.035-0.793,0.053-1.846,0.053-3.157v-9.006h18.529
			v7.401c0,3.071-0.242,5.849-0.725,8.333c-0.484,2.484-1.303,4.822-2.459,7.013c-1.156,2.192-2.657,4.029-4.503,5.513
			c-1.847,1.484-4.201,2.648-7.065,3.493C713.332,179.229,710.02,179.652,706.258,179.652z"/>
		<path fill="#FFFFFF" d="M772.499,174.373c-3.813,3.451-9.066,5.176-15.761,5.176c-6.693,0-11.922-1.725-15.682-5.176
			c-3.762-3.45-5.643-8.437-5.643-14.958v-23.136c0-6.556,1.881-11.55,5.643-14.983c3.76-3.434,8.988-5.15,15.682-5.15
			c6.694,0,11.947,1.726,15.761,5.176c3.813,3.451,5.72,8.437,5.72,14.958v23.136C778.219,165.936,776.312,170.922,772.499,174.373z
			 M756.738,167.955c1.656,0,2.804-0.612,3.442-1.837c0.638-1.225,0.958-3.063,0.958-5.513v-25.517c0-2.484-0.32-4.339-0.958-5.564
			c-0.639-1.224-1.786-1.837-3.442-1.837c-1.587,0-2.699,0.63-3.338,1.89s-0.957,3.097-0.957,5.512v25.517
			c0,2.381,0.318,4.201,0.957,5.46C754.039,167.326,755.151,167.955,756.738,167.955z"/>
		<path fill="#FFFFFF" d="M784.084,178.461V117.18h17.287v6.107c4.865-4.762,9.816-7.143,14.854-7.143
			c3.623,0,6.4,1.329,8.334,3.985c1.932,2.657,2.898,6.073,2.898,10.248v48.083H810.17v-45.495c0-1.553-0.242-2.699-0.725-3.442
			c-0.484-0.741-1.381-1.095-2.691-1.061c-1.449,0-3.244,0.708-5.383,2.122v47.876H784.084z"/>
		<path fill="#FFFFFF" d="M852.109,179.548c-5.21,0-9.541-1.233-12.99-3.7c-3.451-2.467-6.229-6.375-8.334-11.724l11.957-5.228
			c1.172,2.898,2.553,5.142,4.141,6.729c1.414,1.449,2.898,2.174,4.451,2.174c0.172,0,0.344,0,0.518,0
			c1.068-0.068,1.967-0.492,2.691-1.268c0.725-0.777,1.068-1.734,1.035-2.873c-0.035-0.586-0.251-1.217-0.647-1.889
			c-0.397-0.674-1.147-1.535-2.251-2.588c-1.105-1.053-1.873-1.769-2.304-2.148c-0.432-0.379-1.423-1.225-2.976-2.536l-4.762-4.089
			c-6.936-5.865-10.404-11.594-10.404-17.184c-0.034-3.313,0.846-6.297,2.641-8.954c1.725-2.622,4.02-4.632,6.883-6.03
			c2.864-1.396,5.97-2.096,9.316-2.096c5.004,0,9.188,1.363,12.552,4.089c3.364,2.727,5.736,6.608,7.116,11.646l-11.18,5.228
			c-0.689-2.312-1.69-4.348-3.002-6.107c-1.311-1.76-2.795-2.691-4.451-2.795c-0.068,0-0.121,0-0.154,0
			c-1.242-0.034-2.209,0.294-2.898,0.983c-0.76,0.69-1.156,1.553-1.191,2.588c-0.138,1.656,2.313,4.59,7.35,8.799
			c0.414,0.38,0.725,0.656,0.932,0.828l4.607,4.141c1.793,1.553,3.139,2.77,4.037,3.648c0.896,0.881,1.983,2.097,3.26,3.649
			c1.277,1.553,2.2,3.141,2.77,4.762c0.569,1.622,0.854,3.364,0.854,5.228c0,3.485-0.932,6.521-2.795,9.109
			s-4.252,4.503-7.168,5.745S855.595,179.548,852.109,179.548z"/>
		<path fill="#FFFFFF" d="M885.924,179.497c-3.623,0-6.4-1.328-8.332-3.985c-1.934-2.656-2.898-6.072-2.898-10.248V117.18h17.287
			v46.013c0,1.519,0.267,2.665,0.802,3.442c0.534,0.775,1.44,1.147,2.718,1.112c1.379-0.034,3.019-0.655,4.916-1.863V117.18h17.287
			v61.281h-17.287v-5.642C895.689,177.271,890.858,179.497,885.924,179.497z"/>
		<path fill="#FFFFFF" d="M925.535,178.461V92.647h17.287v85.814H925.535z"/>
		<path fill="#FFFFFF" d="M967.528,179.186c-1.898-0.069-3.615-0.336-5.15-0.803c-1.536-0.465-2.839-1.061-3.908-1.785
			s-2.001-1.639-2.795-2.743c-0.794-1.104-1.423-2.242-1.889-3.416c-0.466-1.173-0.837-2.536-1.113-4.089s-0.465-3.045-0.568-4.477
			s-0.156-3.045-0.156-4.84v-28.57h-5.848V117.18h5.848V98.599h17.443v18.581h8.799v11.283h-8.799v31.676
			c0,3.209,1.845,4.865,5.537,4.969c0.448,0.035,0.958,0.035,1.527,0c0.569-0.034,1.035-0.078,1.397-0.129
			c0.362-0.053,0.725-0.112,1.087-0.182c0.362-0.068,0.561-0.104,0.596-0.104v13.612c-3.693,0.621-7.109,0.932-10.248,0.932
			C968.7,179.238,968.114,179.22,967.528,179.186z"/>
		<path fill="#FFFFFF" d="M996.528,179.548c-4.348-0.069-7.808-1.612-10.377-4.632c-2.571-3.02-3.856-6.461-3.856-10.326
			c0-2.001,0.25-3.873,0.751-5.615c0.499-1.742,1.104-3.252,1.811-4.529c0.707-1.276,1.699-2.519,2.977-3.727
			c1.276-1.207,2.433-2.182,3.468-2.924s2.407-1.535,4.114-2.381c1.709-0.846,3.08-1.476,4.115-1.89s2.44-0.958,4.219-1.63
			c1.776-0.674,3.027-1.165,3.752-1.476v-6.056c0-1.725-0.259-3.054-0.776-3.985s-1.467-1.397-2.847-1.397
			c-2.347,0-3.589,1.622-3.727,4.865l-0.414,4.503l-16.148-0.621c0-0.104,0.017-0.448,0.052-1.035
			c0.034-0.586,0.052-0.914,0.052-0.983c0.518-6.693,2.596-11.628,6.236-14.803c3.641-3.174,8.842-4.762,15.605-4.762
			c6.038,0,10.637,1.674,13.793,5.021c3.158,3.348,4.736,7.815,4.736,13.405v28.519c0,3.934,0.362,9.058,1.087,15.372h-15.372
			c-0.897-4.969-1.381-7.867-1.449-8.695c-0.828,2.795-2.243,5.124-4.244,6.987C1002.083,178.617,999.564,179.548,996.528,179.548z
			 M1002.791,167.644c0.828,0,1.683-0.284,2.562-0.854c0.881-0.568,1.596-1.25,2.148-2.044v-16.77
			c-2.761,1.381-5.029,3.321-6.807,5.823s-2.665,4.942-2.665,7.323c0,2.002,0.448,3.589,1.346,4.762
			C1000.271,167.058,1001.41,167.644,1002.791,167.644z"/>
		<path fill="#FFFFFF" d="M1030.705,178.461V117.18h17.287v6.107c4.865-4.762,9.816-7.143,14.854-7.143
			c3.623,0,6.4,1.329,8.333,3.985c1.932,2.657,2.898,6.073,2.898,10.248v48.083h-17.287v-45.495c0-1.553-0.242-2.699-0.725-3.442
			c-0.483-0.741-1.381-1.095-2.691-1.061c-1.449,0-3.244,0.708-5.383,2.122v47.876H1030.705z"/>
		<path fill="#FFFFFF" d="M1098.162,179.186c-1.898-0.069-3.615-0.336-5.149-0.803c-1.536-0.465-2.839-1.061-3.908-1.785
			c-1.07-0.725-2.002-1.639-2.795-2.743c-0.794-1.104-1.424-2.242-1.889-3.416c-0.467-1.173-0.838-2.536-1.113-4.089
			c-0.276-1.553-0.466-3.045-0.569-4.477s-0.155-3.045-0.155-4.84v-28.57h-5.849V117.18h5.849V98.599h17.442v18.581h8.799v11.283
			h-8.799v31.676c0,3.209,1.846,4.865,5.538,4.969c0.448,0.035,0.957,0.035,1.527,0c0.568-0.034,1.035-0.078,1.396-0.129
			c0.363-0.053,0.725-0.112,1.088-0.182c0.361-0.068,0.56-0.104,0.595-0.104v13.612c-3.692,0.621-7.108,0.932-10.248,0.932
			C1099.335,179.238,1098.748,179.22,1098.162,179.186z"/>
		<path fill="#FFFFFF" d="M1132.494,179.548c-5.211,0-9.541-1.233-12.991-3.7c-3.451-2.467-6.229-6.375-8.333-11.724l11.956-5.228
			c1.173,2.898,2.553,5.142,4.141,6.729c1.414,1.449,2.898,2.174,4.451,2.174c0.172,0,0.345,0,0.518,0
			c1.069-0.068,1.967-0.492,2.691-1.268c0.725-0.777,1.069-1.734,1.035-2.873c-0.035-0.586-0.251-1.217-0.646-1.889
			c-0.397-0.674-1.148-1.535-2.252-2.588c-1.104-1.053-1.872-1.769-2.303-2.148c-0.433-0.379-1.424-1.225-2.977-2.536l-4.762-4.089
			c-6.936-5.865-10.403-11.594-10.403-17.184c-0.035-3.313,0.845-6.297,2.64-8.954c1.725-2.622,4.02-4.632,6.884-6.03
			c2.863-1.396,5.969-2.096,9.316-2.096c5.003,0,9.187,1.363,12.552,4.089c3.363,2.727,5.735,6.608,7.116,11.646l-11.18,5.228
			c-0.69-2.312-1.691-4.348-3.002-6.107c-1.312-1.76-2.795-2.691-4.451-2.795c-0.069,0-0.121,0-0.155,0
			c-1.242-0.034-2.209,0.294-2.898,0.983c-0.76,0.69-1.156,1.553-1.19,2.588c-0.139,1.656,2.312,4.59,7.35,8.799
			c0.414,0.38,0.725,0.656,0.932,0.828l4.606,4.141c1.794,1.553,3.14,2.77,4.037,3.648c0.896,0.881,1.983,2.097,3.261,3.649
			c1.276,1.553,2.2,3.141,2.769,4.762c0.57,1.622,0.854,3.364,0.854,5.228c0,3.485-0.932,6.521-2.795,9.109
			s-4.253,4.503-7.169,5.745S1135.979,179.548,1132.494,179.548z"/>
	</g>
	<g enable-background="new    ">
		<path fill="#FFFFFF" d="M378.908,283.565h-21.753l-7.471,18.896h-4.138l21.533-53.76h2.38l21.094,53.76h-4.211L378.908,283.565z
			 M358.51,280.196h19.153l-7.288-19.299c-0.61-1.514-1.343-3.613-2.197-6.299c-0.659,2.344-1.379,4.467-2.161,6.371L358.51,280.196
			z"/>
		<path fill="#FFFFFF" d="M465.616,275.178c0,8.985-2.356,15.778-7.068,20.38c-4.712,4.603-11.633,6.903-20.764,6.903h-12.817
			v-53.54h14.465c8.545,0,15.045,2.233,19.501,6.702C463.388,260.09,465.616,266.61,465.616,275.178z M461.551,275.325
			c0-7.665-1.947-13.434-5.841-17.303c-3.895-3.869-9.613-5.805-17.157-5.805h-9.851v46.948h8.862
			C453.555,299.166,461.551,291.219,461.551,275.325z"/>
		<path fill="#FFFFFF" d="M504.85,302.461l-0.916-6.299h-0.293c-2.002,2.563-4.059,4.376-6.17,5.438
			c-2.112,1.062-4.609,1.593-7.489,1.593c-3.906,0-6.946-1.001-9.119-3.003c-2.173-2.002-3.259-4.772-3.259-8.313
			c0-3.881,1.617-6.896,4.853-9.045c3.234-2.148,7.916-3.283,14.044-3.406l7.581-0.219v-2.637c0-3.784-0.769-6.641-2.307-8.57
			c-1.538-1.928-4.016-2.893-7.434-2.893c-3.687,0-7.507,1.025-11.462,3.076l-1.355-3.149c4.37-2.051,8.691-3.076,12.964-3.076
			c4.37,0,7.635,1.136,9.796,3.405c2.16,2.271,3.241,5.812,3.241,10.621v26.477H504.85z M490.201,299.898
			c4.248,0,7.599-1.214,10.053-3.644c2.453-2.43,3.68-5.805,3.68-10.126v-3.919l-6.958,0.293c-5.591,0.27-9.577,1.142-11.957,2.619
			c-2.381,1.478-3.571,3.778-3.571,6.902c0,2.49,0.763,4.426,2.289,5.805C485.263,299.208,487.418,299.898,490.201,299.898z"/>
		<path fill="#FFFFFF" d="M534.599,299.971c2.294,0,4.297-0.195,6.006-0.586v2.93c-1.758,0.586-3.785,0.879-6.079,0.879
			c-3.516,0-6.11-0.939-7.782-2.82c-1.673-1.879-2.509-4.834-2.509-8.861v-25.709h-5.896v-2.123l5.896-1.648l1.831-9.009h1.868
			v9.632h11.682v3.148h-11.682v25.195c0,3.053,0.537,5.311,1.611,6.775C530.62,299.239,532.304,299.971,534.599,299.971z"/>
		<path fill="#FFFFFF" d="M577.056,302.461l-0.915-6.299h-0.293c-2.002,2.563-4.06,4.376-6.171,5.438
			c-2.112,1.062-4.609,1.593-7.489,1.593c-3.906,0-6.946-1.001-9.119-3.003c-2.173-2.002-3.259-4.772-3.259-8.313
			c0-3.881,1.617-6.896,4.853-9.045c3.234-2.148,7.916-3.283,14.044-3.406l7.581-0.219v-2.637c0-3.784-0.77-6.641-2.308-8.57
			c-1.538-1.928-4.016-2.893-7.434-2.893c-3.687,0-7.507,1.025-11.462,3.076l-1.355-3.149c4.37-2.051,8.691-3.076,12.964-3.076
			c4.37,0,7.635,1.136,9.796,3.405c2.16,2.271,3.24,5.812,3.24,10.621v26.477H577.056z M562.407,299.898
			c4.248,0,7.599-1.214,10.053-3.644c2.453-2.43,3.681-5.805,3.681-10.126v-3.919l-6.958,0.293
			c-5.591,0.27-9.577,1.142-11.957,2.619c-2.381,1.478-3.571,3.778-3.571,6.902c0,2.49,0.763,4.426,2.289,5.805
			C557.469,299.208,559.624,299.898,562.407,299.898z"/>
		<path fill="#FFFFFF" d="M646.148,283.565h-21.752l-7.471,18.896h-4.139l21.533-53.76h2.381l21.094,53.76h-4.212L646.148,283.565z
			 M625.751,280.196h19.153l-7.288-19.299c-0.61-1.514-1.343-3.613-2.197-6.299c-0.659,2.344-1.38,4.467-2.161,6.371
			L625.751,280.196z"/>
		<path fill="#FFFFFF" d="M695.893,302.461v-25.818c0-4.003-0.842-6.915-2.526-8.733s-4.298-2.729-7.837-2.729
			c-4.761,0-8.246,1.203-10.455,3.607c-2.21,2.404-3.314,6.305-3.314,11.7v21.973h-3.625v-39.807h3.076l0.695,5.456h0.22
			c2.587-4.15,7.19-6.226,13.806-6.226c9.033,0,13.551,4.847,13.551,14.539v26.037H695.893z"/>
		<path fill="#FFFFFF" d="M740.218,302.461l-0.915-6.299h-0.293c-2.002,2.563-4.06,4.376-6.171,5.438
			c-2.112,1.062-4.608,1.593-7.489,1.593c-3.906,0-6.945-1.001-9.119-3.003c-2.173-2.002-3.259-4.772-3.259-8.313
			c0-3.881,1.617-6.896,4.853-9.045c3.234-2.148,7.916-3.283,14.044-3.406l7.581-0.219v-2.637c0-3.784-0.77-6.641-2.308-8.57
			c-1.538-1.928-4.017-2.893-7.435-2.893c-3.686,0-7.507,1.025-11.462,3.076l-1.354-3.149c4.369-2.051,8.691-3.076,12.963-3.076
			c4.371,0,7.636,1.136,9.797,3.405c2.16,2.271,3.24,5.812,3.24,10.621v26.477H740.218z M725.569,299.898
			c4.248,0,7.599-1.214,10.053-3.644c2.453-2.43,3.681-5.805,3.681-10.126v-3.919l-6.959,0.293c-5.59,0.27-9.576,1.142-11.956,2.619
			c-2.381,1.478-3.571,3.778-3.571,6.902c0,2.49,0.764,4.426,2.289,5.805C720.631,299.208,722.786,299.898,725.569,299.898z"/>
		<path fill="#FFFFFF" d="M763.082,302.461h-3.625v-56.982h3.625V302.461z"/>
		<path fill="#FFFFFF" d="M773.422,262.655h3.735l8.423,22.338c2.563,6.861,4.188,11.487,4.871,13.88h0.219
			c1.025-3.149,2.697-7.849,5.018-14.099l8.423-22.119h3.735l-17.834,46.252c-1.441,3.76-2.65,6.299-3.626,7.617
			c-0.977,1.318-2.118,2.307-3.424,2.967c-1.307,0.658-2.888,0.988-4.743,0.988c-1.391,0-2.941-0.256-4.65-0.77v-3.148
			c1.416,0.39,2.941,0.586,4.578,0.586c1.244,0,2.344-0.293,3.295-0.879c0.953-0.586,1.813-1.496,2.582-2.729
			c0.77-1.233,1.66-3.187,2.674-5.859c1.013-2.674,1.666-4.413,1.959-5.219L773.422,262.655z"/>
		<path fill="#FFFFFF" d="M828.696,299.971c2.294,0,4.297-0.195,6.006-0.586v2.93c-1.758,0.586-3.784,0.879-6.079,0.879
			c-3.516,0-6.109-0.939-7.782-2.82c-1.673-1.879-2.509-4.834-2.509-8.861v-25.709h-5.896v-2.123l5.896-1.648l1.832-9.009h1.867
			v9.632h11.682v3.148h-11.682v25.195c0,3.053,0.537,5.311,1.611,6.775S826.401,299.971,828.696,299.971z"/>
		<path fill="#FFFFFF" d="M846.471,251.594c0-2.344,0.769-3.516,2.307-3.516c0.756,0,1.349,0.306,1.776,0.916
			c0.427,0.61,0.641,1.478,0.641,2.6c0,1.1-0.214,1.966-0.641,2.601c-0.428,0.635-1.021,0.952-1.776,0.952
			C847.239,255.147,846.471,253.963,846.471,251.594z M850.608,302.461h-3.626v-39.807h3.626V302.461z"/>
		<path fill="#FFFFFF" d="M883.508,303.194c-5.689,0-10.145-1.795-13.367-5.383c-3.223-3.59-4.834-8.594-4.834-15.016
			c0-6.592,1.672-11.724,5.018-15.398c3.344-3.675,7.922-5.512,13.732-5.512c3.442,0,6.738,0.599,9.888,1.795l-0.989,3.223
			c-3.441-1.147-6.433-1.722-8.972-1.722c-4.884,0-8.582,1.508-11.097,4.522c-2.514,3.016-3.771,7.355-3.771,13.02
			c0,5.371,1.258,9.576,3.771,12.615c2.515,3.04,6.03,4.56,10.547,4.56c3.613,0,6.971-0.646,10.071-1.94v3.369
			C890.965,302.571,887.633,303.194,883.508,303.194z"/>
		<path fill="#FFFFFF" d="M931.604,292.098c0,3.564-1.355,6.305-4.064,8.221c-2.711,1.917-6.556,2.875-11.536,2.875
			c-5.323,0-9.546-0.817-12.671-2.453v-3.919c4.004,2.002,8.227,3.003,12.671,3.003c3.931,0,6.915-0.653,8.954-1.959
			c2.038-1.306,3.058-3.046,3.058-5.219c0-2.002-0.812-3.687-2.436-5.054s-4.29-2.71-8.001-4.028
			c-3.98-1.44-6.775-2.679-8.387-3.717s-2.826-2.21-3.644-3.516c-0.818-1.306-1.228-2.899-1.228-4.779
			c0-2.979,1.252-5.334,3.754-7.068c2.502-1.732,6-2.6,10.492-2.6c4.297,0,8.373,0.806,12.231,2.417l-1.354,3.296
			c-3.906-1.611-7.532-2.417-10.877-2.417c-3.247,0-5.822,0.537-7.727,1.611s-2.857,2.563-2.857,4.468
			c0,2.075,0.738,3.735,2.216,4.98s4.364,2.637,8.661,4.175c3.589,1.294,6.201,2.46,7.837,3.497
			c1.636,1.038,2.862,2.216,3.681,3.534C931.194,288.765,931.604,290.316,931.604,292.098z"/>
		<path fill="#FFFFFF" d="M999.158,288.655c0,4.469-1.643,8.009-4.926,10.621s-7.647,3.918-13.092,3.918
			c-6.543,0-11.561-0.721-15.052-2.16v-3.736c3.857,1.637,8.777,2.454,14.759,2.454c4.395,0,7.879-1.007,10.455-3.021
			c2.576-2.014,3.864-4.656,3.864-7.929c0-2.025-0.428-3.704-1.282-5.035c-0.854-1.33-2.246-2.545-4.175-3.644
			s-4.761-2.282-8.496-3.552c-5.469-1.88-9.247-3.913-11.334-6.098c-2.088-2.185-3.131-5.097-3.131-8.734
			c0-4.004,1.568-7.27,4.705-9.796c3.137-2.527,7.172-3.79,12.104-3.79c5.029,0,9.753,0.951,14.172,2.855l-1.354,3.223
			c-4.443-1.854-8.691-2.783-12.744-2.783c-3.955,0-7.104,0.916-9.448,2.747s-3.516,4.321-3.516,7.471c0,1.978,0.36,3.602,1.08,4.87
			c0.72,1.271,1.898,2.412,3.534,3.425s4.443,2.228,8.423,3.644c4.175,1.44,7.312,2.838,9.412,4.193
			c2.099,1.354,3.631,2.893,4.596,4.614C998.676,284.132,999.158,286.214,999.158,288.655z"/>
		<path fill="#FFFFFF" d="M1023.745,299.971c2.294,0,4.296-0.195,6.006-0.586v2.93c-1.758,0.586-3.785,0.879-6.08,0.879
			c-3.516,0-6.109-0.939-7.781-2.82c-1.673-1.879-2.509-4.834-2.509-8.861v-25.709h-5.896v-2.123l5.896-1.648l1.831-9.009h1.867
			v9.632h11.683v3.148h-11.683v25.195c0,3.053,0.537,5.311,1.611,6.775S1021.449,299.971,1023.745,299.971z"/>
		<path fill="#FFFFFF" d="M1074.954,282.502c0,6.495-1.575,11.567-4.725,15.217s-7.495,5.475-13.037,5.475
			c-3.491,0-6.567-0.842-9.229-2.527c-2.661-1.684-4.7-4.102-6.115-7.25c-1.417-3.15-2.125-6.787-2.125-10.914
			c0-6.493,1.575-11.554,4.725-15.179c3.149-3.626,7.471-5.438,12.964-5.438c5.469,0,9.76,1.837,12.872,5.512
			C1073.397,271.072,1074.954,276.107,1074.954,282.502z M1043.532,282.502c0,5.47,1.203,9.736,3.607,12.8s5.805,4.596,10.199,4.596
			s7.794-1.532,10.199-4.596c2.404-3.063,3.607-7.33,3.607-12.8c0-5.492-1.215-9.753-3.645-12.78s-5.841-4.541-10.235-4.541
			s-7.782,1.508-10.162,4.522C1044.723,272.719,1043.532,276.986,1043.532,282.502z"/>
		<path fill="#FFFFFF" d="M1105.325,261.885c1.685,0,3.491,0.171,5.42,0.513l-0.695,3.479c-1.661-0.415-3.382-0.623-5.164-0.623
			c-3.394,0-6.177,1.44-8.35,4.321s-3.26,6.519-3.26,10.913v21.973h-3.625v-39.807h3.076l0.366,7.178h0.257
			c1.635-2.93,3.381-4.986,5.236-6.171S1102.688,261.885,1105.325,261.885z"/>
		<path fill="#FFFFFF" d="M1138.591,303.194c-5.787,0-10.297-1.782-13.532-5.347s-4.853-8.557-4.853-14.978
			c0-6.348,1.563-11.432,4.688-15.253s7.337-5.731,12.635-5.731c4.688,0,8.387,1.636,11.096,4.907
			c2.711,3.271,4.065,7.715,4.065,13.33v2.93h-28.675c0.049,5.469,1.324,9.644,3.827,12.524s6.085,4.321,10.749,4.321
			c2.27,0,4.266-0.158,5.987-0.476c1.721-0.317,3.899-1.001,6.536-2.051v3.295c-2.246,0.978-4.32,1.643-6.225,1.996
			S1140.885,303.194,1138.591,303.194z M1137.528,265.108c-3.833,0-6.909,1.264-9.229,3.79c-2.319,2.527-3.675,6.171-4.064,10.932
			h24.609c0-4.614-1.002-8.222-3.004-10.821C1143.839,266.408,1141.068,265.108,1137.528,265.108z"/>
	</g>
</g>
</svg>
