<?xml version="1.0" encoding="utf-8"?>
<!-- Generator: Adobe Illustrator 22.0.0, SVG Export Plug-In . SVG Version: 6.00 Build 0)  -->
<svg version="1.1"
	 id="Layer_1" xmlns:cc="http://creativecommons.org/ns#" xmlns:dc="http://purl.org/dc/elements/1.1/" xmlns:rdf="http://www.w3.org/1999/02/22-rdf-syntax-ns#"
	 xmlns="http://www.w3.org/2000/svg" xmlns:xlink="http://www.w3.org/1999/xlink" x="0px" y="0px" viewBox="0 0 544 75"
	 style="enable-background:new 0 0 544 75;" xml:space="preserve">
<style type="text/css">
	.st0{fill:#FFFFFF;}
</style>
<g>
	<path class="st0" d="M35.8,52L34,45.3H22.4L20.6,52H10l11.6-35.8h12.9L46.3,52H35.8z M32,37.4l-1.5-5.9c-0.4-1.3-0.8-3-1.3-5.1
		c-0.5-2.1-0.9-3.5-1-4.4c-0.1,0.8-0.4,2.2-0.9,4.1c-0.4,1.9-1.4,5.7-2.9,11.3H32z"/>
	<path class="st0" d="M46.3,24.3h10.1L61,40.2c0.2,0.8,0.4,1.8,0.5,3h0.2c0.1-1.1,0.3-2.1,0.6-3l4.8-15.9h9.7L65.9,53.8
		c-1.4,3.7-3.1,6.4-5.2,7.9c-2,1.5-4.7,2.3-8,2.3c-1.3,0-2.6-0.1-3.9-0.4v-7.5c0.9,0.2,1.8,0.3,3,0.3c0.8,0,1.6-0.2,2.2-0.5
		c0.6-0.3,1.2-0.8,1.7-1.4c0.5-0.6,1-1.6,1.5-2.9L46.3,24.3z"/>
	<path class="st0" d="M98.1,52l-1.8-3.7h-0.2c-1.3,1.6-2.6,2.7-3.9,3.3c-1.3,0.6-3.1,0.9-5.2,0.9c-2.6,0-4.7-0.8-6.2-2.3
		c-1.5-1.6-2.2-3.8-2.2-6.6c0-2.9,1-5.1,3.1-6.6s5-2.3,8.9-2.4l4.6-0.1V34c0-2.3-1.1-3.4-3.4-3.4c-2,0-4.6,0.7-7.7,2.1l-2.8-6.3
		c3.2-1.7,7.3-2.5,12.2-2.5c3.5,0,6.3,0.9,8.2,2.6c1.9,1.8,2.9,4.2,2.9,7.4V52H98.1z M91.1,45.8c1.2,0,2.1-0.4,3-1.1
		c0.8-0.7,1.2-1.7,1.2-2.9v-2.1l-2.2,0.1c-3.1,0.1-4.7,1.3-4.7,3.5C88.3,44.9,89.2,45.8,91.1,45.8z"/>
	<path class="st0" d="M145.2,52V37c0-1.9-0.3-3.3-0.8-4.2c-0.5-0.9-1.3-1.4-2.4-1.4c-1.5,0-2.5,0.6-3.2,1.9c-0.7,1.3-1,3.2-1,5.9V52
		h-9.6V37c0-1.9-0.2-3.3-0.7-4.2c-0.5-0.9-1.3-1.4-2.4-1.4c-1.5,0-2.6,0.7-3.3,2c-0.7,1.3-1,3.5-1,6.5V52h-9.5V24.3h7.2l1.2,3.4h0.6
		c0.7-1.3,1.8-2.2,3.2-2.9c1.4-0.7,3-1,4.7-1c4,0,6.8,1.2,8.4,3.6h0.8c0.8-1.1,1.9-2,3.3-2.7c1.4-0.6,2.9-1,4.6-1
		c3.3,0,5.7,0.8,7.3,2.5c1.6,1.7,2.3,4.2,2.3,7.6v18H145.2z"/>
	<path class="st0" d="M161,17.5c0-1.4,0.4-2.5,1.2-3.2c0.8-0.7,2.1-1,3.9-1c1.8,0,3.1,0.4,3.9,1.1c0.8,0.7,1.2,1.8,1.2,3.2
		c0,2.8-1.7,4.2-5.1,4.2C162.7,21.7,161,20.3,161,17.5z M170.8,52h-9.5V24.3h9.5V52z"/>
	<path class="st0" d="M208.7,52H199V37.4h-11.2V52h-9.7V16.3h9.7v13.2H199V16.3h9.7V52z"/>
	<path class="st0" d="M245.3,23.7c-2.3,0-4.1,0.9-5.4,2.8c-1.3,1.9-1.9,4.5-1.9,7.8c0,6.9,2.6,10.3,7.8,10.3c1.6,0,3.1-0.2,4.6-0.7
		c1.5-0.4,3-1,4.5-1.6v8.2c-3,1.3-6.3,2-10.1,2c-5.4,0-9.5-1.6-12.4-4.7c-2.9-3.1-4.3-7.6-4.3-13.5c0-3.7,0.7-6.9,2.1-9.7
		c1.4-2.8,3.4-5,6-6.5c2.6-1.5,5.7-2.3,9.2-2.3c3.9,0,7.5,0.8,11.1,2.5l-3,7.6c-1.3-0.6-2.6-1.1-4-1.6
		C248.2,23.9,246.8,23.7,245.3,23.7z"/>
	<path class="st0" d="M287.7,38.1c0,4.5-1.2,8.1-3.6,10.6c-2.4,2.5-5.8,3.8-10.2,3.8c-4.2,0-7.5-1.3-10-3.9
		c-2.5-2.6-3.7-6.1-3.7-10.5c0-4.5,1.2-8,3.7-10.5c2.4-2.5,5.8-3.7,10.2-3.7c2.7,0,5.1,0.6,7.2,1.7c2.1,1.2,3.7,2.8,4.8,5
		C287.1,32.7,287.7,35.2,287.7,38.1z M269.7,38.1c0,2.4,0.3,4.2,1,5.4s1.7,1.9,3.2,1.9c1.5,0,2.5-0.6,3.1-1.9
		c0.6-1.2,0.9-3.1,0.9-5.4c0-2.4-0.3-4.1-0.9-5.3c-0.6-1.2-1.7-1.8-3.2-1.8c-1.5,0-2.5,0.6-3.1,1.8S269.7,35.7,269.7,38.1z"/>
	<path class="st0" d="M310.6,52V36.9c0-1.8-0.3-3.2-0.8-4.2c-0.5-0.9-1.4-1.4-2.6-1.4c-1.6,0-2.8,0.6-3.5,1.9
		c-0.7,1.3-1.1,3.5-1.1,6.6V52h-9.5V24.3h7.2l1.2,3.4h0.6c0.8-1.3,1.9-2.3,3.4-2.9c1.4-0.7,3.1-1,5-1c3.1,0,5.4,0.9,7.1,2.7
		c1.7,1.8,2.6,4.3,2.6,7.5v18H310.6z"/>
	<path class="st0" d="M348,43.5c0,3-1,5.2-3,6.7c-2,1.5-4.9,2.3-8.7,2.3c-2.1,0-3.8-0.1-5.3-0.3s-3.1-0.6-4.6-1.2v-7.6
		c1.5,0.7,3.1,1.2,4.9,1.6c1.8,0.4,3.3,0.6,4.7,0.6c2.1,0,3.1-0.5,3.1-1.4c0-0.5-0.3-0.9-0.9-1.3c-0.6-0.4-2.3-1.1-5-2.2
		c-2.5-1-4.3-2.2-5.3-3.6c-1-1.3-1.5-3-1.5-5c0-2.6,1-4.6,3-6c2-1.4,4.8-2.1,8.4-2.1c1.8,0,3.5,0.2,5.1,0.6c1.6,0.4,3.3,1,5,1.7
		l-2.6,6.2c-1.3-0.6-2.6-1.1-4-1.5c-1.4-0.4-2.6-0.6-3.5-0.6c-1.6,0-2.3,0.4-2.3,1.1c0,0.5,0.3,0.9,0.8,1.2c0.5,0.3,2.1,1,4.7,2
		c1.9,0.8,3.4,1.6,4.3,2.3c1,0.8,1.7,1.7,2.1,2.7C347.7,40.8,348,42,348,43.5z"/>
	<path class="st0" d="M373,52l-1.2-3.4h-0.6c-0.8,1.3-1.9,2.2-3.3,2.9c-1.4,0.7-3.1,1-5,1c-3,0-5.4-0.9-7.1-2.6
		c-1.7-1.8-2.5-4.3-2.5-7.5v-18h9.5v15.1c0,1.8,0.3,3.2,0.8,4.1c0.5,0.9,1.4,1.4,2.5,1.4c1.6,0,2.8-0.6,3.5-1.9c0.7-1.3,1-3.5,1-6.6
		V24.3h9.5V52H373z"/>
	<path class="st0" d="M396.3,52h-9.5V14h9.5V52z"/>
	<path class="st0" d="M416.5,44.9c1.3,0,2.8-0.3,4.6-1v7c-1.3,0.6-2.5,0.9-3.7,1.2c-1.2,0.2-2.5,0.4-4.1,0.4c-3.2,0-5.5-0.8-6.9-2.4
		c-1.4-1.6-2.1-4-2.1-7.2V31.5h-3.3v-3.9l4.2-3l2.5-5.8h6.3v5.5h6.8v7.2h-6.8v10.8C413.9,44,414.7,44.9,416.5,44.9z"/>
	<path class="st0" d="M444,52l-1.8-3.7h-0.2c-1.3,1.6-2.6,2.7-3.9,3.3c-1.3,0.6-3.1,0.9-5.2,0.9c-2.6,0-4.7-0.8-6.2-2.3
		c-1.5-1.6-2.2-3.8-2.2-6.6c0-2.9,1-5.1,3.1-6.6s5-2.3,8.9-2.4l4.6-0.1V34c0-2.3-1.1-3.4-3.4-3.4c-2,0-4.6,0.7-7.7,2.1l-2.8-6.3
		c3.2-1.7,7.3-2.5,12.2-2.5c3.5,0,6.3,0.9,8.2,2.6c1.9,1.8,2.9,4.2,2.9,7.4V52H444z M436.9,45.8c1.2,0,2.1-0.4,3-1.1
		c0.8-0.7,1.2-1.7,1.2-2.9v-2.1l-2.2,0.1c-3.1,0.1-4.7,1.3-4.7,3.5C434.2,44.9,435.1,45.8,436.9,45.8z"/>
	<path class="st0" d="M474.5,52V36.9c0-1.8-0.3-3.2-0.8-4.2c-0.5-0.9-1.4-1.4-2.6-1.4c-1.6,0-2.8,0.6-3.5,1.9
		c-0.7,1.3-1.1,3.5-1.1,6.6V52h-9.5V24.3h7.2l1.2,3.4h0.6c0.8-1.3,1.9-2.3,3.4-2.9c1.4-0.7,3.1-1,5-1c3.1,0,5.4,0.9,7.1,2.7
		c1.7,1.8,2.6,4.3,2.6,7.5v18H474.5z"/>
	<path class="st0" d="M504.1,44.9c1.3,0,2.8-0.3,4.6-1v7c-1.3,0.6-2.5,0.9-3.7,1.2c-1.2,0.2-2.5,0.4-4.1,0.4c-3.2,0-5.5-0.8-6.9-2.4
		c-1.4-1.6-2.1-4-2.1-7.2V31.5h-3.3v-3.9l4.2-3l2.5-5.8h6.3v5.5h6.8v7.2h-6.8v10.8C501.5,44,502.4,44.9,504.1,44.9z"/>
	<path class="st0" d="M534.9,43.5c0,3-1,5.2-3,6.7c-2,1.5-4.9,2.3-8.7,2.3c-2.1,0-3.8-0.1-5.3-0.3s-3.1-0.6-4.6-1.2v-7.6
		c1.5,0.7,3.1,1.2,4.9,1.6c1.8,0.4,3.3,0.6,4.7,0.6c2.1,0,3.1-0.5,3.1-1.4c0-0.5-0.3-0.9-0.9-1.3c-0.6-0.4-2.3-1.1-5-2.2
		c-2.5-1-4.3-2.2-5.3-3.6c-1-1.3-1.5-3-1.5-5c0-2.6,1-4.6,3-6c2-1.4,4.8-2.1,8.4-2.1c1.8,0,3.5,0.2,5.1,0.6c1.6,0.4,3.3,1,5,1.7
		l-2.6,6.2c-1.3-0.6-2.6-1.1-4-1.5c-1.4-0.4-2.6-0.6-3.5-0.6c-1.6,0-2.3,0.4-2.3,1.1c0,0.5,0.3,0.9,0.8,1.2c0.5,0.3,2.1,1,4.7,2
		c1.9,0.8,3.4,1.6,4.3,2.3c1,0.8,1.7,1.7,2.1,2.7C534.7,40.8,534.9,42,534.9,43.5z"/>
</g>
</svg>
